<?xml version="1.0" standalone="no"?>
<!DOCTYPE svg PUBLIC "-//W3C//DTD SVG 1.1//EN" "http://www.w3.org/Graphics/SVG/1.1/DTD/svg11.dtd" >
<svg xmlns="http://www.w3.org/2000/svg">
<metadata></metadata>
<defs>
<font id="thirsty_script_regularregular" horiz-adv-x="1005" >
<font-face units-per-em="2048" ascent="1638" descent="-410" />
<missing-glyph horiz-adv-x="512" />
<glyph horiz-adv-x="0" />
<glyph horiz-adv-x="0" />
<glyph horiz-adv-x="682" />
<glyph unicode="&#xd;" horiz-adv-x="778" />
<glyph unicode=" "  horiz-adv-x="512" />
<glyph unicode="&#x09;" horiz-adv-x="512" />
<glyph unicode="&#xa0;" horiz-adv-x="512" />
<glyph unicode="!" horiz-adv-x="679" d="M102 121q0 61 43 104t105 43t104.5 -43t42.5 -104q0 -62 -43 -105t-104 -43q-62 0 -105 43.5t-43 104.5zM291 401l371 1067h247l-485 -1067h-133z" />
<glyph unicode="&#x22;" horiz-adv-x="866" d="M164 797l158 606q9 40 42 66t76 26q51 0 87 -36t36 -87q0 -29 -14 -57l-283 -518h-102zM582 797l157 606q9 40 42.5 66t76.5 26q51 0 87 -36t36 -87q0 -29 -14 -57l-283 -518h-102z" />
<glyph unicode="#" horiz-adv-x="1406" d="M-35 369l62 149h282l174 430h-282l59 150h283l149 370h180l-149 -370h313l150 370h180l-149 -370h284l-59 -150h-287l-174 -430h287l-62 -149h-284l-150 -369h-178l149 369h-315l-149 -369h-179l150 369h-285zM487 518h316l174 430h-315z" />
<glyph unicode="$" horiz-adv-x="954" d="M-4 351q4 60 18.5 105.5t32.5 78.5h201q-31 -52 -48.5 -108t-7.5 -110t62 -71l184 456q-40 50 -56 72t-44.5 70t-40.5 95.5t-12 102.5q0 46 17 98.5t54 106.5t88 97.5t126.5 69.5t162.5 24l68 164h112l-71 -181q71 -21 113.5 -67t54 -99t7.5 -111t-19 -103t-33 -76h-201 q22 37 38.5 78.5t24.5 84.5t-5.5 77.5t-49.5 47.5l-176 -440q40 -52 60.5 -80t49 -77t41.5 -96.5t13 -98.5q0 -49 -14 -100.5t-49 -105.5t-86.5 -95t-133.5 -67t-182 -25l-74 -185h-112l77 195q-77 18 -123 62.5t-58.5 97.5t-8.5 113zM365 240q89 11 143.5 77t54.5 164 q0 55 -49 129zM481 1018q0 -43 41 -107l140 344q-86 -18 -133.5 -82.5t-47.5 -154.5z" />
<glyph unicode="%" horiz-adv-x="1357" d="M109 885q0 120 84 204.5t204 84.5t204.5 -84.5t84.5 -204.5t-84.5 -204.5t-204.5 -84.5t-204 84.5t-84 204.5zM164 0l969 1174h161l-970 -1174h-160zM258 883q0 -59 39.5 -98.5t97.5 -39.5q59 0 99.5 40t40.5 98t-40.5 98.5t-99.5 40.5q-58 0 -97.5 -40t-39.5 -99z M772 289q0 120 84.5 204.5t204.5 84.5t204.5 -84.5t84.5 -204.5t-84.5 -204.5t-204.5 -84.5t-204.5 84.5t-84.5 204.5zM922 287q0 -59 39 -98t98 -39t99 39.5t40 97.5q0 59 -40 99t-99 40q-58 0 -97.5 -40t-39.5 -99z" />
<glyph unicode="&#x26;" horiz-adv-x="1433" d="M2 487q0 110 40.5 206.5t107.5 162t156.5 102t185.5 33.5q-23 65 -23 133q0 192 128.5 317.5t311.5 125.5q87 0 158 -31.5t113.5 -82t65 -109.5t22.5 -119q0 -118 -78.5 -202.5t-192.5 -84.5q-97 0 -149.5 62t-36.5 139q10 48 40.5 71t68.5 23q51 0 83.5 -40.5 t22.5 -92.5q41 13 62.5 48.5t17.5 78t-24 82.5t-66 67t-105 27q-45 0 -90 -17t-84.5 -49.5t-64.5 -88t-25 -124.5q0 -140 105 -223l-93 -135q-7 6 -20 15.5t-55 25.5t-86 16q-119 0 -208 -96t-89 -233q0 -63 21 -121.5t60 -106.5t102.5 -77t141.5 -29q123 0 219.5 70 t142 171t38.5 205q-83 -11 -138.5 -31t-87 -51.5t-46 -68t-19.5 -88.5h-139q9 73 28.5 129.5t51.5 97t69 68.5t93 48.5t109.5 33.5t131.5 26q243 40 293 70.5t12 136.5l156 57q39 -83 43 -147.5t-29.5 -119.5t-122 -91.5t-231.5 -52.5q4 -98 -21 -194t-76.5 -177 t-122.5 -143.5t-164.5 -98t-195.5 -35.5q-141 0 -259 64t-188.5 182t-70.5 266z" />
<glyph unicode="'" horiz-adv-x="448" d="M164 797l158 606q9 40 42 66t76 26q51 0 87 -36t36 -87q0 -29 -14 -57l-283 -518h-102z" />
<glyph unicode="(" horiz-adv-x="788" d="M-59 -33q0 98 63 246l422 1049q47 114 94 184q125 185 381 348l98 -170q-151 -94 -237.5 -194t-122.5 -187l-410 -1016q-4 -10 -20.5 -50t-23.5 -58t-18 -50t-15.5 -55.5t-4.5 -42.5q0 -36 18 -80t36 -70l18 -26l-172 -114q-4 6 -11.5 16t-25.5 42.5t-32 64.5t-25.5 77 t-11.5 86z" />
<glyph unicode=")" horiz-adv-x="788" d="M-41 -150q151 94 237.5 194t122.5 187l410 1016q4 10 20.5 50t23.5 58t18 50t15.5 55.5t4.5 42.5q0 36 -18 80t-36 70l-18 26l172 115q4 -6 11.5 -16.5t26 -42.5t32.5 -64.5t25.5 -77.5t11.5 -86q0 -95 -64 -245l-422 -1049q-47 -114 -94 -184q-125 -185 -381 -348z" />
<glyph unicode="*" horiz-adv-x="866" d="M106.5 946.5q9.5 37.5 43.5 59.5q9 6 249 98q-226 124 -233 131q-31 26 -35 65t21 68t63.5 32t69.5 -22q4 -3 65.5 -79t104.5 -132q52 264 53 267q15 37 50.5 52.5t72.5 0.5q35 -13 49.5 -49.5t-0.5 -73.5q-78 -126 -145 -227q245 32 268 32q39 -3 65 -32.5t23 -67.5 q-1 -38 -32 -63.5t-71 -22.5q-10 0 -262 70q104 -213 115 -246q9 -39 -10.5 -73t-57.5 -44q-37 -9 -70 12.5t-42 59.5q-4 12 -15 270q-25 -23 -77 -72t-85 -79.5t-36 -32.5q-34 -22 -72.5 -13.5t-58.5 42.5q-20 32 -10.5 69.5z" />
<glyph unicode="+" horiz-adv-x="1198" d="M72 496l73 182h353l145 362h203l-148 -362h355l-74 -182h-354l-148 -363h-198l145 363h-352z" />
<glyph unicode="," horiz-adv-x="552" d="M-33 -246q87 58 142.5 109.5t71.5 76t20 42.5q-43 15 -71 53.5t-28 85.5q0 61 43 104t103 43q58 0 103.5 -40t45.5 -122q0 -52 -21 -104.5t-55 -94.5t-75 -81t-82.5 -68t-75.5 -50.5t-55 -32.5l-21 -11z" />
<glyph unicode="-" horiz-adv-x="1003" d="M260 506l66 164h538l-65 -164h-539z" />
<glyph unicode="." horiz-adv-x="552" d="M102 121q0 61 43 104t105 43t104.5 -43t42.5 -104q0 -62 -43 -105t-104 -43q-62 0 -105 43.5t-43 104.5z" />
<glyph unicode="/" horiz-adv-x="917" d="M102 -254l793 1966h113l-793 -1966h-113z" />
<glyph unicode="0" horiz-adv-x="1021" d="M-6 311q0 99 27 225t74 257.5t117.5 257.5t151 224.5t180.5 159t201 60.5q54 0 100.5 -17.5t86.5 -54.5t63 -104t23 -158q0 -98 -27 -224t-74 -258t-117 -258.5t-151 -226t-181.5 -160.5t-201.5 -61q-55 0 -101.5 18t-86 56t-62 105.5t-22.5 158.5zM190 270q0 -41 10 -69 t26 -41t30 -18t29 -5q74 0 171 129.5t176 303.5t134 352.5t55 273.5q0 65 -23.5 100t-64.5 35q-61 0 -138 -85t-146.5 -215t-129 -275t-94.5 -277.5t-35 -208.5z" />
<glyph unicode="1" horiz-adv-x="796" d="M37 690q120 113 234 234.5t190 214.5t135.5 170t87.5 118l27 41h207l-592 -1468h-207l413 1026q-203 -234 -411 -430z" />
<glyph unicode="2" horiz-adv-x="946" d="M-178 0l90 223q207 152 410 326q77 67 136.5 122.5t126 127.5t110 134t72 130.5t28.5 128.5q0 62 -30.5 101.5t-88.5 39.5q-112 0 -189 -104.5t-77 -239.5h-207q0 67 17 135.5t55 135.5t92.5 119t136 84t178.5 32q155 0 238.5 -78t83.5 -215q0 -89 -38 -184.5 t-93.5 -175.5t-138.5 -167t-152 -147.5t-154 -128.5l-250 -198h506l-80 -201h-782z" />
<glyph unicode="3" horiz-adv-x="1001" d="M-51 249q-2 52 5 104.5t20 93.5t28 71h227q-30 -49 -50 -110.5t-24 -124t31 -104.5t109 -42q72 0 136 40t106 100.5t66 129t24 128.5q0 41 -12 71t-34.5 46t-47 25.5t-57 10.5t-56.5 0t-53 -3q-2 0 -3 -0.5t-3 -0.5h-3l80 201q100 0 176.5 27.5t116 64.5t64 84t30.5 77.5 t6 53.5q0 141 -118 141q-99 0 -171 -82t-91 -188h-205q8 64 29.5 123.5t61 116t92 99t128.5 68t166 25.5q71 0 126 -15.5t88 -42t54.5 -55t31 -63.5t12.5 -57t3 -45q0 -137 -91.5 -256t-268.5 -175q151 -72 151 -260q0 -72 -20.5 -147t-65 -148t-107.5 -130.5t-154.5 -92.5 t-198.5 -35q-88 0 -154 23.5t-102 62t-56 88.5t-22 102z" />
<glyph unicode="4" horiz-adv-x="1056" d="M-70 360l78 189l838 919h272l-368 -913q46 6 81 18t47 21l11 8l86 -92q-3 -6 -10 -15.5t-32.5 -34t-57 -44t-86.5 -36.5t-117 -20l-146 -360h-207l146 360h-535zM190 549h351l278 692z" />
<glyph unicode="5" horiz-adv-x="1019" d="M-29 291q4 63 15.5 119t31.5 108h222q-46 -107 -58.5 -193t14.5 -137t93 -51q75 0 151.5 77.5t129.5 185.5t86.5 218t33.5 179q0 127 -104 127q-64 0 -131.5 -64t-122.5 -168l-180 72l284 704q350 -59 416 -59q109 0 184 59l90 -104q-109 -152 -303 -152q-28 0 -95.5 9 t-121.5 17l-53 9l-100 -250q8 8 23 19.5t63 31t98 19.5q124 0 192 -85.5t68 -227.5q0 -66 -17.5 -147.5t-51 -169.5t-87.5 -170.5t-120 -148t-156.5 -105.5t-190.5 -40q-87 0 -149.5 26.5t-94.5 72t-47.5 101t-11.5 118.5z" />
<glyph unicode="6" d="M4 309q0 85 19 191t56 219t87 224.5t117 210.5t140.5 175.5t162 121t178.5 44.5q164 0 234 -127t10 -338h-217q16 35 27 82.5t14 98t-18 85.5t-66 35q-85 0 -184.5 -134t-194.5 -345q129 104 256 104q117 0 182 -77.5t61 -216.5q-2 -81 -29 -174t-77.5 -184.5 t-116.5 -165t-156.5 -119.5t-187.5 -46q-19 0 -39.5 2t-51 10.5t-57 22t-55 39.5t-48.5 60t-33 86t-13 116zM201 283q0 -76 29 -111t73 -35q84 0 172 100.5t140.5 227t52.5 213.5q0 64 -26.5 99.5t-78.5 35.5q-71 0 -158.5 -67t-138.5 -160q-65 -201 -65 -303z" />
<glyph unicode="7" horiz-adv-x="915" d="M23 0q227 542 804 1245q-38 -6 -75 -6q-46 0 -310 31l-104 -264h-207l186 462q469 -59 535 -59q109 0 184 59l76 -88q-556 -762 -829 -1380h-260z" />
<glyph unicode="8" d="M-57 281q0 79 26 161.5t74.5 158t127 133.5t173.5 81q-3 1 -10.5 7.5t-20 23.5t-23.5 38.5t-19.5 57t-8.5 76.5q0 62 18.5 127.5t58 128t94 112t134 79.5t170.5 30q150 0 235 -75t85 -199q0 -60 -21 -127t-60.5 -131t-103 -117t-139.5 -78q117 -78 117 -244 q0 -70 -21 -145t-65.5 -148t-107 -130t-153.5 -92.5t-196 -35.5q-48 0 -93.5 7t-96 27.5t-88 53t-62 89.5t-24.5 131zM156 287q0 -81 44.5 -115.5t110.5 -34.5q60 0 114 27.5t91.5 71t65.5 97t41.5 105.5t13.5 97q0 75 -40 114t-112 39q-61 0 -115.5 -28t-92.5 -72.5 t-66 -98.5t-41.5 -106t-13.5 -96zM475 1006q0 -62 33.5 -91.5t85.5 -29.5q56 0 105 34t79.5 85t48 105.5t17.5 100.5q0 59 -30 90t-85 31q-57 0 -107.5 -34.5t-81 -85.5t-48 -105.5t-17.5 -99.5z" />
<glyph unicode="9" horiz-adv-x="980" d="M-8 438h217q-16 -35 -27 -82.5t-14 -98t18 -85.5t66 -35q85 0 184.5 134t194.5 345q-129 -104 -256 -104q-117 0 -182.5 78t-61.5 217q2 68 21.5 144.5t53.5 153t85 147t111.5 124.5t137 86.5t158.5 32.5q19 0 39.5 -2t51 -10.5t57 -22t55 -39.5t48.5 -60t33 -86t13 -116 q0 -85 -19 -191t-56 -219t-87 -224.5t-116.5 -210.5t-140 -175.5t-162 -121t-178.5 -44.5q-164 0 -234 127t-10 338zM332 791q0 -64 26.5 -100t77.5 -36q71 0 158.5 67.5t138.5 160.5q66 204 66 303q0 76 -29 110.5t-74 34.5q-64 0 -132.5 -60.5t-118 -146t-81.5 -177.5 t-32 -156z" />
<glyph unicode=":" horiz-adv-x="634" d="M102 121q0 61 43 104t105 43t104.5 -43t42.5 -104q0 -62 -43 -105t-104 -43q-62 0 -105 43.5t-43 104.5zM371 782q0 62 43 105t104 43q62 0 105 -43t43 -105q0 -61 -43 -104t-105 -43t-104.5 42.5t-42.5 104.5z" />
<glyph unicode=";" horiz-adv-x="634" d="M-31 -246q208 139 234 228q-43 14 -71 52t-28 85q0 61 43 104t105 43q56 0 101.5 -40.5t45.5 -121.5q0 -51 -21 -103.5t-55 -94.5t-75 -81t-82.5 -67.5t-75.5 -50t-55 -32.5l-21 -11zM371 782q0 62 43 105t104 43q62 0 105 -43t43 -105q0 -61 -43 -104t-105 -43 t-104.5 42.5t-42.5 104.5z" />
<glyph unicode="&#x3c;" horiz-adv-x="1300" d="M76 502l67 170l1123 389l-92 -225l-793 -277l571 -276l-69 -170z" />
<glyph unicode="=" horiz-adv-x="1228" d="M0 291l74 184h907l-74 -184h-907zM160 696l76 185h907l-76 -185h-907z" />
<glyph unicode="&#x3e;" horiz-adv-x="1300" d="M-66 113l93 225l794 276l-571 277l67 170l807 -389l-67 -170z" />
<glyph unicode="?" horiz-adv-x="923" d="M100 121q0 61 43 104t105 43t104.5 -43t42.5 -104q0 -62 -43 -105t-104 -43q-62 0 -105 43.5t-43 104.5zM252 989q0 68 14 136t47 135.5t81.5 119t124.5 83.5t169 32q85 0 147.5 -25.5t97 -68t50.5 -90.5t16 -101q0 -67 -26.5 -133.5t-70 -123t-97 -112t-110.5 -109.5 t-107 -105.5t-90.5 -110.5t-57.5 -115h-168q21 74 61 146t87.5 129t100.5 113t101.5 106t88 99t63 101.5t23.5 104.5q0 60 -29 96.5t-84 36.5q-96 0 -170 -105.5t-74 -238.5h-188z" />
<glyph unicode="@" horiz-adv-x="2048" d="M225 309q0 126 30 254.5t86.5 249.5t143.5 226.5t193.5 184t245 124t290.5 45.5q137 0 249.5 -37t188.5 -99.5t128.5 -147t76 -176.5t23.5 -190q0 -193 -86.5 -374t-222 -290.5t-273.5 -109.5q-48 0 -87 12t-63 31.5t-41.5 42.5t-25.5 46.5t-12.5 43t-4.5 31.5l-1 12 q-4 -6 -11.5 -15.5t-32.5 -33.5t-52 -43t-68.5 -34t-83.5 -15q-76 0 -117 55.5t-41 135.5q0 56 18 143.5t56.5 190.5t89.5 191.5t126 148t157 59.5q40 0 72.5 -14t49.5 -34.5t29 -40.5t15 -34l4 -14l225 114l-231 -571q-54 -139 -38.5 -207t89.5 -68q66 0 138.5 56.5 t130 145.5t95 206.5t37.5 230.5q0 224 -142.5 359t-369.5 135q-218 0 -403.5 -127t-292 -338.5t-106.5 -454.5q0 -266 145.5 -421.5t411.5 -155.5q262 0 460 153l78 -114q-111 -91 -255.5 -142t-301.5 -51q-147 0 -275.5 46.5t-228 134t-157.5 228t-58 316.5zM827 260 q0 -67 60 -67q24 0 52.5 16.5t52.5 39.5t44 46.5t32 40.5l11 16l140 344q4 55 -23 90t-66 35q-53 0 -110 -68t-98 -160.5t-68 -186t-27 -146.5z" />
<glyph unicode="A" horiz-adv-x="1730" d="M-143 315q0 159 114 264t303 105q192 0 422 -125l478 801q13 21 38 64t35.5 60.5t31.5 51t32.5 47.5t31 36.5t34 32t34.5 21t40.5 15.5t43.5 4q35 0 69.5 -13t66 -44t39.5 -81q3 -17 3 -38q0 -38 -10 -86l-313 -1184q16 -1 32 -1q66 -1 114 17q60 22 122 88.5t141 200.5 q24 0 52.5 -20.5t35.5 -43.5q-39 -68 -71.5 -118.5t-67.5 -96t-67 -73.5t-69.5 -52.5t-75.5 -33t-85 -13.5q-17 -2 -34 -2q-31 0 -64 6l-117 -446l-172 158l92 342q-119 45 -342 166q-228 -353 -530 -353q-176 0 -281.5 97t-105.5 247zM37 324q0 -71 54.5 -125t154.5 -54 q184 0 362 271q-193 100 -332 100q-63 0 -111 -17t-75 -45.5t-40 -61t-13 -68.5zM860 465q196 -112 297 -160l313 1143l-20 8z" />
<glyph unicode="B" horiz-adv-x="1710" d="M-61 199q0 51 19 100t55 91t95.5 67.5t133.5 25.5q73 0 146 -29t171 -98q58 95 125 258l234 580q45 112 134.5 189t194.5 77l39 -129q-5 -2 -12.5 -5.5t-30.5 -19.5t-44.5 -37t-47.5 -60t-45 -85l-68 -170q64 -19 130 -21h11q61 -1 117 21q62 24 109.5 62.5t76.5 101 t29 137.5q0 137 -101.5 230.5t-281.5 93.5q-104 0 -193.5 -32.5t-151.5 -85.5t-106.5 -121t-65.5 -138.5t-21 -138.5q0 -50 12 -99.5t24 -73.5l11 -24l-152 -112q-8 14 -20 39.5t-31.5 102t-19.5 151.5q0 134 50 259t141.5 223.5t233.5 158t312 59.5q124 0 229.5 -39.5 t176 -107.5t110 -158.5t39.5 -192.5q0 -58 -12 -110t-33 -90t-48 -71t-56.5 -55.5t-59 -40.5t-56.5 -29t-48 -18t-33 -9l-12 -3q9 -5 25 -15t56 -47.5t71 -81t56 -117.5t25 -156q0 -92 -30 -182t-87.5 -167t-152.5 -124.5t-213 -47.5q-122 0 -229 51.5t-251 163.5 q-162 -176 -364 -176q-148 0 -231.5 81.5t-83.5 193.5zM104 207q0 -45 41.5 -77t100.5 -32q108 0 219 125q-69 51 -122 78t-101 27q-59 0 -98.5 -38t-39.5 -83zM721 233q88 -71 174 -115t180 -44q78 0 139.5 34.5t96.5 89t53 115.5t18 121q0 36 -6.5 70.5t-31.5 82.5 t-66 87.5t-117.5 77.5t-179.5 61q-86 -218 -127 -313q-69 -166 -133 -267z" />
<glyph unicode="C" horiz-adv-x="1390" d="M0 1114q0 149 77.5 275t190.5 188l103 -145q-22 -12 -49 -35t-63 -63t-59.5 -100.5t-23.5 -127.5q0 -104 78 -200.5t195 -123.5q47 139 110 271t143 252t167 210t187.5 143.5t198.5 53.5q136 0 212.5 -94t76.5 -234q0 -128 -61 -271.5t-185 -264.5q-123 -119 -290 -189.5 t-371 -70.5h-29q-53 -173 -53 -318q0 -223 197 -223q157 0 344.5 137t322.5 367q24 0 52.5 -20.5t35.5 -43.5q-77 -133 -164 -239.5t-187.5 -190t-215.5 -129t-235 -45.5q-355 0 -355 393q0 156 49 342q-104 30 -183.5 85t-125 123t-68 140.5t-22.5 147.5zM668 760 q285 9 481 211q87 90 135.5 195t48.5 192q0 67 -28 107t-82 40q-88 0 -194.5 -113t-197.5 -278t-163 -354z" />
<glyph unicode="D" horiz-adv-x="1896" d="M-63 197q0 51 19 100.5t55.5 91.5t97 68t135.5 26q89 0 168.5 -38t187.5 -128q72 106 135 261l234 581q45 113 134 189.5t195 76.5l39 -129q-4 -1 -11.5 -4.5t-30 -18.5t-43 -36t-47 -60t-46.5 -87q-241 -594 -241 -596q-73 -184 -162 -299q80 -62 146.5 -94.5 t144.5 -32.5q121 0 238.5 85t201.5 217.5t136 299.5t52 325q0 118 -29.5 216.5t-87 173.5t-150.5 117t-212 42q-108 0 -204.5 -36t-165.5 -94t-120.5 -131t-76.5 -149t-25 -145q0 -48 12 -96.5t24 -72.5l11 -25l-149 -109q-3 4 -8 12.5t-18.5 36.5t-23.5 60t-18 82.5 t-8 103.5q0 200 104.5 368t284.5 265.5t395 97.5q147 0 270 -49t211.5 -139t137.5 -224t49 -299q0 -148 -37.5 -304.5t-111.5 -301t-172.5 -259t-231 -183t-276.5 -68.5q-78 0 -147.5 24t-122.5 59t-138 102q-166 -146 -377 -146q-154 0 -240.5 80.5t-86.5 192.5zM104 207 q0 -51 44 -80t118 -29q118 0 226 97q-146 133 -250 133q-59 0 -98.5 -38t-39.5 -83z" />
<glyph unicode="E" horiz-adv-x="1265" d="M0 375q0 122 49.5 233.5t132.5 189.5q82 80 196 120q85 30 175 30q31 0 63 -4q-34 84 -34 193q0 160 92 303q-38 121 -38 254q0 47 5 96l137 -21q-5 -43 -5 -84q0 -61 11 -118q150 127 349 127q90 0 162 -28.5t114 -75.5q41 -46 63 -100q21 -51 21 -103q0 -65 -26 -127 q-25 -58 -69.5 -104t-113.5 -73.5t-151 -27.5q-106 0 -197 48t-150 134q-15 -63 -15 -124q0 -13 1 -27q4 -74 39.5 -144t95.5 -113l-94 -147q-4 3 -11.5 9t-32 20.5t-51 25.5t-67.5 20t-82 9q-157 0 -259.5 -113.5t-102.5 -273.5q0 -156 99.5 -265.5t260.5 -109.5 q84 0 155.5 31t117.5 82q44 51 74 117q29 65 30 134q0 71 -22 140l182 51q27 -101 28 -192q0 -23 -2 -45q-8 -111 -58 -204t-125.5 -160t-177 -104.5t-212.5 -37.5q-155 0 -283.5 76t-201 204t-72.5 279zM856 1376q47 -76 117.5 -121t148.5 -45q88 0 137.5 49t49.5 103 q0 53 -48 97t-143 44q-161 0 -262 -127z" />
<glyph unicode="F" horiz-adv-x="1415" d="M0 236q0 117 58 214q60 98 162 152q92 49 200 50q12 0 24 -1v-180q-13 1 -25 1q-50 0 -93 -16q-53 -20 -84 -57t-47.5 -80.5t-16.5 -87.5q0 -43 15.5 -84t45.5 -76t80 -56t113 -21q147 0 251 115t183 331l111 275h-182l45 110h180l227 564h-7q-94 0 -221 26 q-132 27 -253.5 54.5t-192.5 27.5q-63 0 -112 -19t-77 -50t-42 -66.5t-14 -73.5q0 -72 47 -118t117 -46q41 0 80 17t58 34l19 17l90 -135q-3 -4 -10 -11t-30 -24.5t-49.5 -30.5t-68.5 -24t-87 -11q-143 0 -241.5 96.5t-98.5 235.5q0 69 26.5 135t77 120.5t132.5 88t183 33.5 q80 0 197 -23.5t208.5 -46.5t204.5 -35q39 -4 73 -4q65 0 112 15q99 92 213 92l39 -129q-4 -2 -12 -5.5t-31 -19t-44 -36t-47 -59.5t-46 -87l-205 -502h188l-45 -110h-188l-172 -422q-44 -112 -102.5 -198.5t-117.5 -138t-126 -84t-123.5 -44.5t-114.5 -12q-99 0 -182 35 t-137.5 93.5t-84.5 134t-30 157.5z" />
<glyph unicode="G" horiz-adv-x="1595" d="M0 1139q0 144 76.5 259.5t191.5 178.5l103 -145q-19 -11 -37 -22.5t-49 -40t-53 -59.5t-39 -79t-17 -101q0 -115 72 -206.5t207 -137.5q49 137 113 265.5t149 250.5t178 212.5t205 144.5q111 53 223 53h4q104 -1 176.5 -46.5t104.5 -117t32 -162.5q0 -126 -63 -268.5 t-184 -259.5q-126 -122 -304.5 -196t-404.5 -74q-55 0 -80 2q-55 -181 -55 -291q0 -160 113 -160q89 0 208.5 88t200.5 197l70 170l243 72l-241 -594q153 91 279 217.5t202 261.5q24 0 52.5 -20.5t35.5 -43.5q-61 -107 -140.5 -200.5t-165.5 -163t-166 -120.5t-163 -91 q-73 -188 -102 -245q-99 -201 -232 -253q-51 -20 -110 -20q-104 0 -161 60q-53 54 -53 137q0 9 1 18q10 150 231 252q16 8 102 43.5t134 60.5l69 174q-189 -166 -354 -166q-55 0 -98 19t-70.5 50.5t-46 75t-26 89.5t-7.5 98q0 140 49 320q-116 39 -198 99t-125 131 t-61.5 140t-18.5 144zM545 -403q0 -25 18.5 -38.5t40.5 -13.5q50 0 106 63t113 199q-140 -62 -178 -83q-41 -24 -70.5 -57.5t-29.5 -69.5zM662 756q358 0 583 225q84 84 134.5 187t50.5 196q0 141 -125 141q-86 0 -180.5 -66t-178.5 -175t-156 -239t-128 -269z" />
<glyph unicode="H" horiz-adv-x="1884" d="M0 311q0 165 118 269t306 104q164 0 364 -92l312 774h-28q-115 0 -285 28q-191 32 -255 33q-71 0 -124 -19t-82 -50.5t-42.5 -67.5t-13.5 -76q0 -82 49 -124.5t115 -42.5q40 0 79.5 16.5t58.5 33.5l20 17l90 -135q-4 -4 -10.5 -11t-30 -24t-50 -30t-68.5 -24t-87 -11 q-143 0 -241.5 95t-98.5 240q0 71 26 137.5t77 121.5t137 88.5t194 33.5q58 0 132 -10.5t140 -22.5q64 -12 134 -22q58 -8 118 -8h24q72 2 134 20q103 111 230 111l39 -129q-5 -2 -12.5 -5.5t-30.5 -19t-44.5 -36t-47.5 -59.5t-46 -87l-337 -829q265 -149 309 -172l469 1161 h217l-500 -1235q48 -12 92 -12q38 0 72 9q74 20 141.5 90t149.5 212q24 0 52.5 -20.5t35.5 -43.5q-47 -84 -86.5 -143.5t-84 -111.5t-88.5 -82q-46 -30 -98 -47q-47 -15 -100 -15h-12q-60 2 -133 21l-193 -478l-139 187l147 364q-46 21 -97 47.5t-129 68.5t-93 50 q-45 -84 -93 -147.5t-110.5 -117.5t-142 -83t-172.5 -29q-166 0 -271.5 98t-105.5 242zM180 322q0 -75 58 -126t145 -51q200 0 338 291q-178 80 -303 80q-113 0 -175.5 -56t-62.5 -138z" />
<glyph unicode="I" horiz-adv-x="1177" d="M-125 236q0 180 129 302q120 114 288 114q12 0 25 -1v-180q-13 1 -25 1q-50 0 -92 -16q-52 -20 -83 -57t-47.5 -80.5t-16.5 -87.5q0 -43 15.5 -84t45.5 -76t80 -56t113 -21q147 0 251 115t183 331l361 895q-36 -15 -114 -44.5t-133 -50.5t-125 -58t-114 -73t-75 -89 t-31 -113q0 -78 45.5 -128t118.5 -50v-178q-154 1 -250 103q-94 100 -94 239v6q0 85 31 158.5t88.5 129t124.5 99.5t155 82.5t162 66t164.5 60.5t144.5 57q54 78 127 125t154 47l39 -129q-5 -1 -12.5 -4.5t-30.5 -19t-44.5 -36.5t-47.5 -59.5t-46 -86.5l-446 -1096 q-44 -112 -102.5 -198.5t-117.5 -138t-126 -84t-123.5 -44.5t-114.5 -12q-99 0 -182 35t-137.5 93.5t-84.5 134t-30 157.5z" />
<glyph unicode="J" horiz-adv-x="1093" d="M-283 -319q0 68 25.5 127.5t66 103.5t105 83t127 65.5t147.5 51.5t152 40t154 32l436 1084q-29 -13 -81 -35.5t-88.5 -38.5t-88.5 -41t-90 -45t-83.5 -48t-77.5 -53t-64.5 -57.5t-52 -64t-32 -69.5t-12.5 -77q0 -91 57.5 -147.5t147.5 -56.5v-179q-173 0 -280 110 q-105 107 -105 273v6q0 77 29.5 148t76.5 127t117 110.5t140 94t158 81.5t157 70.5t151.5 63t128.5 55.5q52 76 123.5 122t151.5 46l39 -129q-4 -1 -11.5 -4t-29.5 -17.5t-42.5 -34t-46.5 -56.5t-46 -83l-441 -1089q149 54 239.5 128t147.5 173q24 0 52.5 -20.5t35.5 -43.5 q-50 -84 -92.5 -139t-104.5 -107.5t-145.5 -91.5t-201.5 -75q-144 -368 -295 -521t-357 -153q-76 0 -142.5 31t-110.5 96.5t-44 153.5zM-100 -309q0 -52 33.5 -83.5t89.5 -31.5q114 0 209 107.5t192 330.5q-71 -16 -123.5 -30t-118.5 -35.5t-112 -46t-87 -55.5t-62 -70.5 t-21 -85.5z" />
<glyph unicode="K" horiz-adv-x="1679" d="M-123 236q0 180 129 302q120 114 288 114q12 0 25 -1v-180q-13 1 -25 1q-50 0 -92 -16q-52 -20 -83 -57t-47.5 -80.5t-16.5 -87.5q0 -43 15.5 -84t45.5 -76t80 -56t113 -21q147 0 251 115t183 331l336 838q-36 -14 -94.5 -32.5t-107 -34t-106 -36.5t-101 -46t-81 -57 t-57.5 -74.5t-20 -92.5q0 -77 45.5 -126.5t118.5 -49.5v-178q-154 1 -250 103q-94 100 -94 239v6q0 75 24 138.5t64 109.5t98.5 86t119.5 67t136 54t139.5 46t138 44t124.5 47q54 78 126.5 125t153.5 47l39 -129q-4 -2 -12 -5.5t-31 -19t-44 -36t-47 -59.5t-46 -87 l-246 -602q51 -10 96 -10q99 1 173 49q108 72 198 276l139 351q66 167 183 235q75 44 182 45q59 0 129 -14l-35 -154q-31 5 -59 5q-9 0 -19 -1q-36 -2 -67 -14.5t-61.5 -51.5t-57.5 -106l-111 -274q-171 -428 -473 -483q121 -79 121 -274q0 -66 -14 -146l-64 -353 q-3 -35 -4 -63q-1 -62 17 -89q24 -38 115 -38h5v-188q-25 -2 -48 -2q-143 0 -219 96q-67 85 -67 214q0 41 7 87l53 291q22 119 22 204q0 59 -10 101q-25 106 -119 166l-61 16l-125 -307q-44 -112 -102.5 -198.5t-117.5 -138t-126 -84t-123.5 -44.5t-114.5 -12q-99 0 -182 35 t-137.5 93.5t-84.5 134t-30 157.5z" />
<glyph unicode="L" horiz-adv-x="1495" d="M-133 131q0 52 20.5 103t57.5 94t97.5 69.5t133.5 26.5q85 0 155.5 -29t145.5 -86q51 105 131 307q-86 26 -154.5 68t-113.5 90.5t-75 106.5t-43 115.5t-13 117.5q0 149 77.5 275t190.5 188l103 -145q-22 -12 -49 -35t-63 -63t-59.5 -100.5t-23.5 -127.5 q0 -105 77.5 -199.5t205.5 -130.5q49 124 88.5 217.5t90 196t96.5 176t103.5 143t115.5 112t127.5 68t144.5 25.5q80 0 143 -29.5t99.5 -78t55.5 -105t19 -115.5q0 -127 -63.5 -271.5t-188.5 -266.5q-269 -260 -667 -260h-15q-110 -287 -180 -416q47 -43 137.5 -129.5 t162 -151.5t132.5 -114q149 -119 258 -119q124 0 275 145l129 -147q-208 -193 -400 -193q-168 0 -375 162q-98 76 -430 389q-138 -153 -338 -159h-13q-137 -1 -221 79q-88 84 -87 197zM43 141q0 -47 34.5 -80.5t94.5 -33.5q112 0 205 125q-112 104 -199 104q-63 0 -99 -35 t-36 -80zM881 756q271 14 469 215q87 90 135.5 195t48.5 192q0 67 -30.5 105t-90.5 38q-251 0 -532 -745z" />
<glyph unicode="M" horiz-adv-x="2007" d="M0 899q0 77 26 144.5t69 117.5t107 96.5t130.5 79.5t149.5 67.5t154.5 59.5t154.5 57.5t141 59.5l147 -164q167 146 320 146q87 1 139 -51q47 -46 48 -121q0 -8 -1 -17q95 99 192.5 144t172.5 45q85 0 135.5 -48t50.5 -129q0 -88 -78 -284l-442 -1098q-25 -61 -26 -111 q0 -21 5 -40q15 -64 95 -111l-74 -184q-231 110 -231 319q0 85 38 186l396 981q78 189 87 234q3 13 3 22q0 62 -62 62q-61 0 -149.5 -52.5t-161.5 -133.5l-483 -1203h-215l430 1071q78 189 87 234q3 13 3 22q0 62 -62 62q-61 0 -149.5 -52.5t-161.5 -133.5l-483 -1203h-215 l559 1393q-50 -22 -137 -55.5t-151 -57.5t-139.5 -62.5t-124 -76t-81.5 -91.5t-33 -116q0 -78 45.5 -128t118.5 -50v-178q-154 1 -250 103q-94 100 -94 239v6z" />
<glyph unicode="N" horiz-adv-x="1519" d="M0 899q0 77 26 144.5t69 117.5t107 96.5t130.5 79.5t149.5 67.5t154.5 59.5t154.5 57.5t141 59.5l110 -254q282 236 435 236q76 0 125 -48.5t49 -128.5q0 -91 -80 -284l-441 -1098q-25 -61 -26 -111q0 -21 5 -40q15 -64 95 -111l-74 -184q-230 109 -230 318q0 85 38 187 l395 981q90 220 90 256q0 62 -51 62q-67 0 -202.5 -93.5t-225.5 -193.5l-442 -1102h-215l555 1383q-37 -14 -98.5 -36t-109.5 -38.5t-109 -41.5t-107 -48t-93 -55t-77 -65t-49 -75.5t-19 -89.5q0 -78 45.5 -128t118.5 -50v-178q-154 1 -250 103q-94 100 -94 239v6z" />
<glyph unicode="O" horiz-adv-x="1406" d="M2 281q0 156 53 349t142.5 375.5t223.5 334.5t281 216q122 148 297 148q150 0 242 -113.5t92 -312.5q0 -200 -65.5 -436.5t-182.5 -454.5q47 -11 87 -11q1 0 3 1q37 0 73 13q36 14 64.5 31.5t53.5 42t41 45.5t29 42q24 0 52.5 -20.5t35.5 -43.5q-82 -134 -226 -193 q-88 -36 -173 -36q-54 0 -107 14q-131 -210 -291.5 -333t-337.5 -123q-80 0 -145 24.5t-109.5 67t-75 102t-44 127t-13.5 144.5zM203 262q0 -54 9.5 -100t31 -87t61 -65t94.5 -24q105 0 218 101t210 267q-5 3 -13.5 9.5t-33 29t-48 49.5t-53.5 72t-54 94.5t-45 118.5 t-31 143q-8 60 -8 133q1 18 1 37q2 95 21 197q-132 -166 -246 -470.5t-114 -504.5zM713 991q0 -162 49 -295t137 -215q103 198 167 426t64 350q0 123 -43 180.5t-116 57.5q-72 0 -131.5 -68.5t-93 -184t-33.5 -251.5z" />
<glyph unicode="P" horiz-adv-x="1331" d="M0 1014q0 107 35 213.5t103.5 199.5t161 165t216.5 113.5t262 41.5q190 0 342 -81t235 -218.5t83 -304.5q0 -157 -71 -302.5t-196 -240t-293 -114.5q-30 -4 -61 -4q-143 0 -303 77l-235 -586h-216l492 1221q45 112 135 189t195 77l39 -129q-5 -2 -12.5 -5.5t-30.5 -19 t-44.5 -36.5t-47.5 -60t-46 -86l-174 -428q120 -54 223 -54q64 0 120 20q148 54 236.5 187.5t88.5 285.5q0 85 -31 164.5t-88 142t-146 100t-196 37.5q-110 0 -208.5 -36.5t-168.5 -95t-121.5 -132t-76.5 -149t-25 -144.5q0 -46 12 -94.5t24 -73.5l13 -25l-145 -108 q-3 5 -8.5 14t-19.5 39t-24.5 62t-19 80.5t-8.5 97.5z" />
<glyph unicode="Q" horiz-adv-x="1351" d="M-72 96q0 115 87.5 203t234.5 88q112 0 216 -50t216 -144q190 190 317 481t127 502q0 55 -9 105t-30.5 95t-53 78t-79.5 52.5t-108 19.5q-111 0 -216.5 -65t-178.5 -162.5t-117.5 -209.5t-44.5 -208q0 -65 16 -111t48 -73.5t69 -43t88 -24.5l-51 -160q-183 20 -276 126 t-93 286q0 153 62 302.5t164.5 264.5t247.5 186.5t300 71.5q92 0 166.5 -23t124.5 -64.5t86 -93t55.5 -113.5t28 -119.5t8.5 -118.5q0 -265 -142 -581t-366 -527q20 -19 106.5 -100.5t144 -132.5t112.5 -93q76 -60 136 -89.5t120 -29.5q124 0 276 146l129 -150 q-205 -190 -399 -190q-162 0 -375 161q-62 47 -140.5 116t-264.5 241q-192 -127 -394 -127q-169 0 -258.5 81.5t-89.5 196.5zM102 102q0 -47 43.5 -80.5t133.5 -33.5q112 0 256 86q-156 139 -287 139q-68 0 -107 -32t-39 -79z" />
<glyph unicode="R" horiz-adv-x="1320" d="M0 1014q0 107 35 213.5t104 199.5t162 165t219 113.5t266 41.5q286 0 469 -157t183 -410q0 -151 -61 -283.5t-178.5 -222t-268.5 -103.5q49 -34 77 -83.5t34 -108.5q4 -39 4 -75q0 -18 -1 -34q-3 -50 -14 -112l-63 -353q-3 -32 -3 -59q0 -68 20 -100q28 -46 116 -45v-174 q-23 -2 -45 -2q-144 0 -222 97q-68 85 -68 214q0 41 7 86l53 291q25 136 25 227q0 52 -8 88q-22 102 -123 162q-84 22 -166 61l-274 -678h-216l492 1221q45 112 135 189t195 77l39 -129q-5 -2 -12.5 -5.5t-30.5 -19t-44.5 -36.5t-47.5 -60t-46 -86l-137 -340 q123 -59 226 -59q18 -1 34 1q116 12 198.5 79.5t127.5 167.5t45 207q0 171 -124 285t-331 114q-111 0 -211 -36.5t-170.5 -95t-122 -132t-77 -149t-25.5 -144.5q0 -46 12 -94.5t24 -73.5l13 -25l-145 -108q-3 5 -8.5 14t-19.5 39t-24.5 62t-19 80.5t-8.5 97.5z" />
<glyph unicode="S" horiz-adv-x="1327" d="M-82 -485q-8 48 -8 96q0 216 168 438q-119 153 -119 365q0 107 33 201.5t88.5 162.5t131 115.5t157.5 66.5q55 13 112 13q29 1 58 -3q88 -10 168 -50l-66 -160q-76 32 -146 32q-22 0 -43 -3q-89 -13 -156 -62t-106.5 -131.5t-39.5 -179.5q0 -120 57 -217 q59 60 168.5 165.5t288 275.5t266.5 255q-37 235 -37 365q0 224 96 350.5t260 126.5q133 0 207 -78.5t74 -196.5q0 -49 -13 -97t-40 -95.5t-57.5 -89.5t-76.5 -92t-84.5 -88.5t-94.5 -92.5q-17 -16 -25 -24q49 -294 49 -424q0 -286 -170.5 -464.5t-439.5 -178.5 q-227 0 -392 127q-125 -167 -125 -342q0 -43 7 -86h-150zM313 86q114 -82 250 -82q187 0 305.5 123.5t118.5 331.5q0 77 -26 252q-109 -104 -324 -312t-324 -313zM1094 1274q0 -81 16 -203q136 132 195 213t59 158q0 53 -26.5 86t-73.5 33q-71 0 -120.5 -75.5t-49.5 -211.5z " />
<glyph unicode="T" horiz-adv-x="1261" d="M0 344q0 179 129 302q120 115 288 115q12 0 25 -1v-180q-13 1 -25 1q-49 -1 -91 -17q-52 -20 -83.5 -57t-48 -80.5t-16.5 -88.5q0 -92 67 -164t187 -72q147 0 251 115.5t183 331.5l353 874q-62 13 -187.5 40t-194 41.5t-154 27t-140.5 12.5q-72 0 -125 -18t-80.5 -48.5 t-40 -63t-12.5 -68.5q0 -74 47.5 -119t116.5 -45q41 0 80 17t58 33l19 17l90 -135q-3 -4 -10 -11t-30 -24t-49.5 -30t-68.5 -24t-87 -11q-143 0 -241.5 95.5t-98.5 240.5q0 69 25.5 133t76 118.5t138 87.5t200.5 33q102 0 264 -29.5t306.5 -64.5t312.5 -64.5t280 -29.5 q78 0 139 15t83 29l22 15l110 -61q0 -4 -1.5 -10t-10 -24.5t-21.5 -35t-39.5 -37t-61 -35t-89.5 -24.5t-121 -10q-125 0 -307 28l-399 -983q-44 -112 -102.5 -198.5t-117.5 -138t-126 -84t-123.5 -44.5t-114.5 -12q-99 0 -182 35t-137.5 93.5t-84.5 134t-30 157.5z" />
<glyph unicode="U" horiz-adv-x="1675" d="M0 793q0 75 25.5 141.5t66.5 116t102.5 95t124 77.5t141.5 65t144 56t142 51.5t126 50.5q54 78 125.5 125t151.5 47l39 -129q-4 -1 -11.5 -4.5t-30 -19t-43.5 -37t-47.5 -61.5t-47.5 -89l-357 -883q-51 -125 -51 -195q0 -57 34 -79q15 -10 36 -10q62 0 140.5 55t151 139 t133 170.5t99.5 161.5l342 850h215l-453 -1131q-43 -112 -43 -170q0 -61 48 -61q78 0 183.5 117t217.5 309q24 0 52.5 -20.5t35.5 -43.5q-63 -110 -124 -196.5t-131 -161.5t-145 -115.5t-149 -40.5q-42 0 -76.5 13.5t-62.5 41t-40 76.5q-8 33 -9 74q0 20 2 41 q-241 -297 -443 -297q-42 0 -78 12.5t-68.5 38.5t-50.5 71.5t-22 106.5q-1 10 -1 21q0 55 17 128q20 88 64 194l297 735q-36 -15 -114 -44.5t-133 -50.5t-125 -58t-114 -73t-75 -89t-31 -113q0 -78 45.5 -128t118.5 -50v-179q-154 0 -250 103q-94 101 -94 240v6z" />
<glyph unicode="V" horiz-adv-x="1574" d="M0 838q0 74 24.5 139.5t64.5 114.5t100.5 94.5t121.5 77.5t139 65t141.5 55.5t140.5 51t126 49.5q48 79 128 128.5t165 49.5l39 -129q-6 -1 -15.5 -3.5t-35 -16.5t-48 -33.5t-46 -59.5t-35.5 -90l-246 -1114q716 517 805 1462l196 33q-8 -103 -16.5 -175.5t-38.5 -219 t-71.5 -262t-122 -274t-184.5 -288t-264 -269.5t-355 -251h-207l289 1311q-38 -17 -113.5 -45.5t-135.5 -50.5t-132 -59t-120 -74.5t-81 -92t-33 -116.5q0 -78 45.5 -128t118.5 -50v-179q-154 0 -250 103q-94 101 -94 240v6z" />
<glyph unicode="W" horiz-adv-x="1941" d="M0 838q0 75 25.5 141.5t66.5 116t102.5 95t124 77.5t141.5 65t144 56t142 51.5t126 50.5q52 76 125.5 124t153.5 48l39 -129q-4 -2 -12 -5.5t-31 -19.5t-44 -37.5t-48 -61t-47 -87.5l-385 -965q-27 -68 -39 -119q-11 -45 -11 -72q1 -3 1 -7q2 -28 13 -44.5t23.5 -21 t28.5 -4.5q87 0 187.5 113.5t179.5 294.5l399 989h217l-453 -1129q-28 -68 -40 -119q-12 -49 -12 -76q0 -29 12 -47q11 -17 24.5 -21.5t32.5 -4.5q90 0 190 119t178 293l365 903q42 105 105 167q62 63 158 88q45 12 98 12q59 0 126 -15l-34 -154q-45 3 -82 3h-18 q-44 -1 -85 -39t-76 -121l-319 -791q-38 -94 -76.5 -172t-97.5 -167t-122 -150t-149 -101.5t-180 -40.5q-96 0 -152 45.5t-67 124.5q-77 -78 -165.5 -124t-176.5 -46q-60 0 -106.5 18t-78.5 60q-31 44 -41 108q-3 22 -4 46q0 51 13 117q19 99 70 223l313 778 q-36 -15 -114 -44.5t-133 -50.5t-125 -58t-114 -73t-75 -89t-31 -113q0 -78 45.5 -128t118.5 -50v-179q-154 0 -250 103q-94 101 -94 240v6z" />
<glyph unicode="X" horiz-adv-x="1499" d="M-82 -2q0 48 13 98.5t44 101t75 89.5t113 63.5t152 24.5v-172q-87 0 -153 -56t-66 -143q0 -45 16.5 -78.5t43 -50.5t54 -25t54.5 -8q30 0 62.5 9.5t63 27t59 37.5t57 47.5t51 50t46 51t36.5 45t29 37.5t18 23l305 432l-47 746q-37 -16 -114.5 -45t-138 -51.5t-134 -60 t-122.5 -76t-82.5 -93.5t-33.5 -117q0 -77 45.5 -126.5t118.5 -49.5v-178q-155 1 -251 103q-94 100 -93 239v6q0 74 24.5 139t64 114t100 94.5t120.5 77.5t138 65t141 55t140.5 50.5t125.5 49.5q50 83 134 131.5t161 48.5l39 -129q-26 -12 -54 -31t-61.5 -50.5t-53.5 -77.5 q-17 -40 -17 -82v-13l30 -487l496 698q67 93 141.5 139.5t172.5 46.5q1 0 2 1q97 0 215 -53l-70 -142q-33 11 -50 16t-45.5 9.5t-48 -1t-45.5 -17.5t-51 -37.5t-53 -63.5l-643 -907l47 -758q4 -67 21.5 -109.5t43.5 -58.5q27 -17 61 -19h11q29 0 60 11l37 -187 q-57 -17 -111 -19h-9q-51 0 -101 18q-56 20 -98.5 62t-72.5 119.5t-37 182.5l-32 506l-138 -195q-30 -43 -46 -64t-59 -74t-75.5 -85t-85 -76.5t-100 -69.5t-108.5 -44t-121 -19q-157 0 -259 94.5t-102 239.5z" />
<glyph unicode="Y" horiz-adv-x="1615" d="M-2 793q0 76 25.5 142t67 116t103.5 95.5t125.5 78t142 65t144.5 55.5t142.5 52t125.5 51q52 76 124.5 123t152.5 47l39 -129q-4 -1 -12 -4.5t-30.5 -19t-43.5 -37t-48 -61.5t-48 -89l-355 -883q-29 -71 -41 -125q-11 -50 -11 -79q0 -32 12 -52q11 -18 23.5 -23t27.5 -5 q62 0 143 55t155 137t136.5 171.5t97.5 162.5l342 850h215l-565 -1405q144 81 260.5 204t196.5 265q24 0 52.5 -20.5t35.5 -43.5q-81 -141 -190 -258.5t-211.5 -190.5t-213.5 -126q-73 -188 -102 -245q-99 -201 -232 -253q-51 -20 -110 -20q-104 0 -162 60q-52 54 -52 137 q0 9 1 18q10 150 231 252q16 8 102 43.5t134 60.5l82 203q-102 -113 -208.5 -179.5t-199.5 -66.5q-46 0 -86 17t-72 59t-44 105q-4 25 -4 55q0 47 11 109q18 101 70 227l297 735q-33 -14 -98 -37.5t-113 -42t-110.5 -46.5t-107 -57.5t-85 -66.5t-61.5 -82.5t-21 -97.5 q0 -77 45.5 -126.5t118.5 -49.5v-179q-155 0 -250 103q-94 101 -94 240v6zM586 -403q0 -25 18.5 -38.5t40.5 -13.5q50 0 106 63t113 199q-140 -62 -178 -83q-41 -24 -70.5 -57.5t-29.5 -69.5z" />
<glyph unicode="Z" horiz-adv-x="1228" d="M-154 131q0 116 85 206.5t223 90.5q95 0 173 -37.5t171 -111.5q49 58 151 192l694 918q-111 4 -333 56t-303 52q-122 0 -184 -63.5t-62 -145.5q0 -72 47 -118t117 -46q41 0 80 17t58 34l19 17l90 -135q-3 -4 -10 -11t-30 -24.5t-49.5 -30.5t-68.5 -24t-87 -11 q-147 0 -243.5 94.5t-96.5 237.5q0 69 27 135t77 120.5t132.5 88t183.5 33.5q80 0 197 -23t208 -46t204 -35q40 -4 75 -4q64 0 110 14q110 92 223 92l39 -129q-34 -15 -53.5 -27t-52 -44t-74.5 -87l-772 -1018q-104 -137 -166 -211q35 -33 101 -96.5t107 -102.5t96.5 -88 t99.5 -83q76 -60 136 -89.5t120 -29.5q125 0 276 145l129 -147q-208 -193 -399 -193q-163 0 -375 162q-64 49 -135.5 114.5t-157.5 147.5t-129 121q-85 -75 -168 -113.5t-182 -39.5h-3q-138 0 -226 82q-89 83 -89 194zM23 141q1 -48 39 -84q35 -32 88 -32h12q102 7 209 114 q-128 121 -224 121q-53 0 -88.5 -36t-35.5 -83z" />
<glyph unicode="[" horiz-adv-x="788" d="M-209 -319l854 2113h438l-65 -160h-221l-725 -1794h223l-66 -159h-438z" />
<glyph unicode="\" horiz-adv-x="757" d="M143 1712h113l256 -1966h-113z" />
<glyph unicode="]" horiz-adv-x="786" d="M-125 -319l66 159h221l725 1794h-223l65 160h438l-854 -2113h-438z" />
<glyph unicode="^" d="M0 621l698 847h207v-847h-184v589l-479 -589h-242z" />
<glyph unicode="_" horiz-adv-x="1085" d="M-213 -229l49 120h1088l-50 -120h-1087z" />
<glyph unicode="`" horiz-adv-x="757" d="M205 1468h239l240 -280h-156z" />
<glyph unicode="a" horiz-adv-x="1062" d="M-45 203q0 57 16.5 142t46 185t77.5 199t105.5 179.5t135 131t160.5 50.5q48 0 86.5 -17t59 -41.5t34.5 -49t18 -41.5l4 -17l273 139l-279 -690q-24 -61 -37.5 -107.5t-16 -75.5t4 -47t17.5 -25t28 -7q73 0 182.5 124.5t221.5 315.5q24 0 52.5 -20.5t35.5 -43.5 q-65 -112 -125 -197.5t-130 -160.5t-146 -115.5t-152 -40.5q-52 0 -90.5 17t-56 41t-28 48t-11.5 41l-1 17q-5 -7 -14 -18t-39 -39t-62 -50t-79.5 -39.5t-93.5 -17.5q-95 0 -146 64.5t-51 165.5zM160 236q0 -84 67 -84q34 0 70.5 19.5t65 47t52 55t35.5 46.5l13 20l170 420 q0 6 -0.5 16t-6 35t-15 44.5t-30 35.5t-49.5 16q-55 0 -112.5 -54t-102.5 -136t-81.5 -174.5t-56 -175t-19.5 -131.5z" />
<glyph unicode="b" horiz-adv-x="978" d="M-22 148q-11 43 -11 98q0 56 12 124q23 134 93 308l319 790h215l-198 -491q4 5 12 12.5t33 27t51 34.5t63.5 27t73.5 12q99 0 150 -61t51 -171q0 -101 -44 -260t-139 -324q64 5 118.5 30t97.5 68.5t71 82.5t62 96q24 0 52.5 -20.5t35.5 -43.5q-44 -76 -86.5 -129 t-103 -101t-142 -72t-184.5 -25q-152 -187 -357 -187q-98 0 -160.5 44.5t-84.5 130.5zM157 219q0 -45 19 -72q20 -28 60 -28q73 0 149 92q-142 75 -188 223q-19 -60 -29 -111q-11 -56 -11 -104zM285 575q0 -101 46.5 -168t119.5 -102q73 123 125.5 278.5t52.5 227.5 q0 96 -92 96q-24 0 -55 -12t-66 -39t-64 -64t-48 -94t-19 -123z" />
<glyph unicode="c" horiz-adv-x="878" d="M-25 281q0 89 27.5 197t80.5 215.5t122 196.5t161.5 144.5t190.5 55.5q109 0 171 -59q64 -60 64 -166q0 -104 -71 -244h-213q90 184 90 249q0 13 -4 22q-10 21 -45 21q-71 0 -143.5 -78.5t-122 -186t-80.5 -213.5t-31 -167q0 -73 49 -115t127 -42q137 0 290.5 122 t268.5 318q24 0 52.5 -20.5t35.5 -43.5q-46 -79 -95.5 -148.5t-117 -138.5t-140 -117.5t-162.5 -79t-185 -30.5q-156 0 -238 79t-82 229z" />
<glyph unicode="d" horiz-adv-x="1062" d="M-45 203q0 57 16.5 142t46 185t77.5 199t105.5 179.5t135 131t160.5 50.5q48 0 86.5 -17t59 -41.5t34.5 -49t18 -41.5l4 -17l222 544h215l-443 -1095q-26 -64 -39.5 -112.5t-15 -76.5t5.5 -45t17.5 -22.5t25.5 -5.5q74 0 184 124t222 316q24 0 52.5 -20.5t35.5 -43.5 q-65 -112 -125 -197.5t-130 -160.5t-146 -115.5t-152 -40.5q-52 0 -90.5 17t-56 41t-28 48t-11.5 41l-1 17q-5 -7 -14 -18t-39 -39t-62 -50t-79.5 -39.5t-93.5 -17.5q-95 0 -146 64.5t-51 165.5zM160 236q0 -84 67 -84q34 0 70.5 19.5t65 47t52 55t35.5 46.5l13 20l170 420 q0 6 -0.5 16t-6 35t-15 44.5t-30 35.5t-49.5 16q-55 0 -112.5 -54t-102.5 -136t-81.5 -174.5t-56 -175t-19.5 -131.5z" />
<glyph unicode="e" horiz-adv-x="878" d="M-25 283q0 89 27.5 197t80.5 215t122.5 195.5t163 144t192.5 55.5q101 0 163 -54q62 -55 70 -149q1 -11 1 -22q0 -86 -50 -197q-77 -161 -207 -216q-92 -39 -222 -39q-54 0 -115 7q-2 -6 -6 -17.5t-11 -43.5q-8 -32 -10 -61q-1 -9 0 -18q0 -22 4 -47q6 -36 22 -61.5 t52.5 -43t89.5 -17.5q146 0 296 120t269 320q24 0 52.5 -20.5t35.5 -43.5q-46 -79 -95.5 -148.5t-117 -138.5t-140 -117.5t-162.5 -79t-185 -30.5q-156 0 -238 79t-82 231zM238 537q51 -7 89 -7h3q36 0 68 14q34 14 57.5 29.5t45 42.5t35.5 51t29 56q30 65 38 107q3 15 3 28 q0 22 -9 35q-14 20 -50 20q-50 0 -100 -38.5t-86 -94t-65 -111t-44 -93.5z" />
<glyph unicode="f" horiz-adv-x="790" d="M-354 -492q-1 12 -1 25q0 75 46 186l606 1502q89 226 186 318.5t215 92.5q125 0 170 -98q20 -45 20 -106q0 -70 -28 -162q-38 -121 -113.5 -296t-148.5 -308q-35 -64 -62 -104.5t-63.5 -79t-77.5 -59.5t-98 -34.5t-131 -15.5l-47 -115q74 -66 178 -66q164 0 290 88 t232 275q24 0 52.5 -20.5t35.5 -43.5q-227 -412 -616 -412q-21 0 -43 1q2 -22 2 -44q0 -37 -6 -75q-36 -207 -135 -387q-58 -102 -127 -157.5t-162 -55.5q-75 0 -120 35.5t-54 115.5zM-145 -397q-18 -47 -18 -73q0 -27 20 -30q4 -1 8 -1q37 0 77 47q44 52 79 132t60.5 156 t37.5 133q8 38 8 67q0 80 -57 97zM213 485q75 10 127 57.5t109 151.5q100 186 171 360t99 267q15 55 15 88q0 49 -34 49q-54 0 -104 -76.5t-102 -205.5z" />
<glyph unicode="g" horiz-adv-x="1042" d="M-154 -403q10 156 226 253q32 17 122 56t115 55l62 154q-3 -6 -9.5 -15.5t-28.5 -34t-46.5 -43t-63 -34t-78.5 -15.5q-90 0 -140 66t-50 166q0 58 17 144t47.5 185.5t78 197.5t104 178t131 130t152.5 50q74 0 135 -41.5t78 -124.5l273 139l-408 -1004q156 79 280.5 195 t227.5 297q24 0 52.5 -20.5t35.5 -43.5q-44 -77 -94 -144t-94 -116t-100.5 -95t-95.5 -74t-98 -61t-88.5 -47.5t-86.5 -41.5q-27 -70 -60 -146q-28 -64 -52.5 -110.5t-60 -97t-73.5 -82t-90 -52t-111 -20.5q-100 0 -157 55q-53 50 -53 126q0 8 1 16zM-33 -399 q0 -25 17 -39.5t45 -14.5q50 2 108 62t109 194q-14 -6 -44 -17.5t-46.5 -18.5t-41 -19t-44.5 -24q-103 -65 -103 -123zM160 236q0 -84 67 -84q34 0 70.5 19.5t65 47t52 55t35.5 46.5l13 20l170 420q0 6 -0.5 16t-6 35t-15 44.5t-30 35.5t-49.5 16q-55 0 -112.5 -54 t-102.5 -136t-81.5 -174.5t-56 -175t-19.5 -131.5z" />
<glyph unicode="h" horiz-adv-x="1030" d="M-197 0l594 1468h215l-206 -514q5 6 14.5 15t40 32.5t61.5 41.5t75.5 32.5t86.5 14.5q74 0 121 -41.5t47 -116.5q0 -84 -68 -252l-125 -307q-28 -69 -41 -120t-13.5 -77.5t8.5 -42t18.5 -19t21.5 -3.5q74 0 184 124t222 316q24 0 52.5 -20.5t35.5 -43.5 q-66 -115 -127.5 -202t-131.5 -160.5t-144 -112.5t-148 -39q-52 0 -90.5 14.5t-65 49.5t-32.5 89q-2 15 -2 34q0 44 12 104q16 84 59 191l82 202q72 179 72 209q0 21 -16 33t-42 12q-45 0 -113.5 -40t-133.5 -113l-308 -758h-215z" />
<glyph unicode="i" horiz-adv-x="540" d="M-82 126q-2 15 -2 33q0 45 12 105q17 84 60 191l245 608h216l-279 -690q-26 -64 -39.5 -112.5t-15 -76.5t5.5 -45t17.5 -22.5t25.5 -5.5q74 0 183.5 124t221.5 316q24 0 52.5 -20.5t35.5 -43.5q-66 -115 -127.5 -202t-131.5 -160.5t-144 -112.5t-148 -39 q-52 0 -90.5 14.5t-65 49.5t-32.5 89zM315 1315q0 53 36.5 89t88.5 36q53 0 90 -36.5t37 -88.5q0 -53 -37.5 -90t-89.5 -37t-88.5 37t-36.5 90z" />
<glyph unicode="j" horiz-adv-x="583" d="M-612 -403q10 149 225 253q23 11 116 53t119 58l222 541q-14 10 -24 22.5t-14 19.5l-3 7q39 68 81 148t104 204t81 160h217l-408 -1004q156 79 280.5 195t227.5 297q24 0 52.5 -20.5t35.5 -43.5q-34 -60 -72.5 -115t-72.5 -97t-77.5 -83t-75 -69t-77.5 -59t-73 -48 t-74.5 -41.5t-68 -34.5t-66.5 -32q-41 -101 -59 -146q-28 -64 -52.5 -110.5t-60 -97t-73.5 -82t-90 -52t-111 -20.5q-100 0 -157 55q-53 50 -53 126q0 8 1 16zM-492 -399q0 -25 17 -40q16 -14 42 -14h3q50 2 108 62t109 194q-14 -6 -44 -17.5t-46.5 -18.5t-41 -19t-44.5 -24 q-103 -65 -103 -123zM379 1315q0 52 37 88.5t90 36.5q52 0 88.5 -36t36.5 -89t-36.5 -90t-88.5 -37t-89.5 37t-37.5 90z" />
<glyph unicode="k" horiz-adv-x="978" d="M-197 0l594 1468h215l-206 -514q5 6 14.5 15t40 32.5t61.5 41.5t75.5 32.5t86.5 14.5q73 0 120.5 -41t47.5 -115q0 -107 -98 -311q-114 -226 -334 -246q-2 -34 -2 -63q0 -40 4 -71q6 -54 20.5 -81.5t32 -38t41.5 -10.5q94 0 243.5 128.5t248.5 309.5q24 0 52.5 -20.5 t35.5 -43.5q-46 -83 -117.5 -170.5t-156 -165.5t-180 -128t-177.5 -50q-57 0 -102 25t-72 64.5t-44 91.5q-17 54 -21 106q-2 28 -3 55q0 25 2 50q4 40 11 65.5t19.5 37.5t24.5 16t31 5q38 1 63.5 5.5t63.5 21t71 56.5t60 102q60 140 60 188q0 24 -16 36.5t-42 12.5 q-45 0 -112.5 -39t-132.5 -110l-308 -762h-215z" />
<glyph unicode="l" horiz-adv-x="540" d="M-82 126q-2 15 -2 33q0 45 12 105q17 84 60 191l409 1013h215l-442 -1095q-26 -64 -39.5 -112.5t-15 -76.5t5.5 -45t17.5 -22.5t25.5 -5.5q74 0 183.5 124t221.5 316q24 0 52.5 -20.5t35.5 -43.5q-66 -115 -127.5 -202t-131.5 -160.5t-144 -112.5t-148 -39 q-52 0 -90.5 14.5t-65 49.5t-32.5 89z" />
<glyph unicode="m" horiz-adv-x="1515" d="M-195 0l428 1063l173 -107q145 134 284 134q71 0 117 -44q43 -41 43 -114v-10q85 87 168.5 127.5t152.5 40.5q72 0 119 -41t47 -119q0 -87 -67 -250l-125 -307q-28 -69 -41 -120t-13.5 -77.5t8.5 -42t18.5 -19t21.5 -3.5q74 0 183.5 124t221.5 316q24 0 52.5 -20.5 t35.5 -43.5q-66 -115 -127.5 -202t-131.5 -160.5t-144 -112.5t-148 -39q-52 0 -90.5 14.5t-64.5 49.5q-28 35 -34 89q-2 15 -1 33q0 45 12 105q17 84 60 191l81 202q72 179 72 209q0 21 -16 33t-41 12q-45 0 -113.5 -39.5t-130.5 -109.5l-309 -762h-215q254 628 266 657 q72 179 72 209q0 21 -16 33t-42 12q-45 0 -112 -39t-131 -110l-308 -762h-215z" />
<glyph unicode="n" horiz-adv-x="1028" d="M-195 0l428 1063l173 -107q145 134 284 134q69 0 114.5 -41.5t45.5 -116.5q0 -80 -68 -252l-125 -307q-28 -69 -41 -120t-13.5 -77.5t8.5 -42t18.5 -19t21.5 -3.5q74 0 184 124t222 316q24 0 52.5 -20.5t35.5 -43.5q-66 -115 -127.5 -202t-131.5 -160.5t-144 -112.5 t-148 -39q-67 0 -111 25q-45 26 -67 81q-14 34 -13 83q0 32 5 68q14 96 67 225l82 202q72 179 72 209q0 21 -16 33t-42 12q-45 0 -112 -39t-131 -110l-308 -762h-215z" />
<glyph unicode="o" d="M-27 264q0 67 17.5 153t50 178.5t84 180.5t114 158.5t145.5 113t173 42.5q120 0 193 -73.5t73 -215.5q0 -99 -36.5 -233t-100.5 -255q20 -4 40 -4q66 0 136 45q90 59 172 197q24 0 52.5 -20.5t35.5 -43.5q-96 -169 -228 -249q-89 -55 -188 -55q-46 0 -94 12 q-162 -222 -370 -222q-120 0 -194.5 74t-74.5 217zM164 244q0 -58 24.5 -91.5t65.5 -33.5q90 0 190 160q-36 36 -36 90q0 58 42 96q34 31 79 31q11 0 22 -2q82 209 82 329q0 61 -23 91t-61 30q-64 0 -135.5 -82.5t-125 -196t-89 -231.5t-35.5 -190z" />
<glyph unicode="p" horiz-adv-x="976" d="M-360 -406l593 1469l179 -88q4 5 10.5 12.5t29 27.5t46 35t60 27.5t73.5 12.5q89 0 137.5 -67.5t48.5 -184.5q0 -127 -57 -289.5t-129 -284t-129 -172.5q139 41 268.5 159t235.5 300q24 0 52.5 -20.5t35.5 -43.5q-61 -107 -135 -197t-163.5 -162.5t-196.5 -113.5 t-218 -41q-62 0 -114.5 13t-83 31.5t-52 37.5t-29.5 32l-8 13l80 72q29 -43 68 -43q64 0 154 133.5t153 300t63 262.5q0 86 -63 86q-51 0 -113 -47t-119 -125l-462 -1145h-215z" />
<glyph unicode="q" horiz-adv-x="1058" d="M-33 334q14 82 43.5 178t78 199.5t106 187t135 137.5t157.5 54q72 0 133 -41.5t80 -124.5l271 139l-379 -934q21 -5 43 -5q42 0 87 19q68 29 132.5 94.5t121 142.5t111.5 171q24 0 53 -20.5t36 -43.5q-228 -400 -459 -467q25 -49 25 -113q0 -58 -21 -128 q-123 -422 -367 -422q-55 0 -96.5 20.5t-66.5 61.5q-21 35 -21 92v21q5 73 43 167l133 326q-97 -72 -199 -72q-117 0 -163 95q-28 60 -28 147q0 54 11 119zM170 315q-8 -43 -8 -75q0 -88 63 -88q53 0 116.5 50t119.5 130l172 426v14q0 57 -28 94q-32 41 -81 41 q-47 0 -97 -45t-89.5 -113t-75 -150t-58.5 -155t-34 -129zM377 -397q-17 -44 -17 -70q0 -27 19 -33q8 -3 17 -3q19 0 38 15q29 20 51.5 54t45.5 84t36.5 85.5t26.5 74.5q15 56 15 95q0 24 -6 41q-16 45 -62 60z" />
<glyph unicode="r" horiz-adv-x="808" d="M29 551q80 138 182 364q-64 67 -64 132q0 68 57.5 131.5t125.5 85.5l110 -78l-78 -182q20 -20 71 -61t83.5 -70.5t61 -75.5t28.5 -92q0 -45 -24 -105l-93 -227q-27 -66 -40 -116t-14 -77t6.5 -43.5t16.5 -21t21 -4.5q56 0 141 107t218 333q24 0 52.5 -20.5t35.5 -43.5 q-56 -97 -95.5 -159.5t-94 -137t-100.5 -117t-102.5 -71.5t-113.5 -29q-63 0 -106.5 26.5t-65.5 81.5q-13 33 -13 82q0 31 6 69q14 96 66 223l76 184q18 46 18 70q0 28 -24 55.5t-82 75.5q-97 -212 -178 -353q-24 0 -52.5 20.5t-35.5 43.5z" />
<glyph unicode="s" horiz-adv-x="749" d="M-63 113l112 69q50 -55 117 -55q63 0 93 53.5t30 192.5q0 31 -5 179q-4 105 -4 182q0 31 1 57q-74 -145 -164 -304q-24 0 -52.5 20.5t-35.5 43.5q71 122 158.5 290t144.5 294l172 -72q-24 -99 -34 -221q-8 -97 -8 -170v-37q2 -84 8.5 -187.5t6.5 -123.5q0 -97 -22 -164 q139 72 323 391q24 0 52.5 -20.5t35.5 -43.5q-38 -66 -66 -112t-69.5 -104t-78 -97.5t-86 -80t-100.5 -65t-114.5 -40t-132.5 -15.5q-63 0 -118 17.5t-88 42.5t-51.5 45.5t-24.5 34.5z" />
<glyph unicode="t" horiz-adv-x="575" d="M-82 126q-2 16 -2 35q0 45 12 103q17 84 60 191l245 608h-188l45 111h189l118 294h215l-118 -294h180l-45 -111h-180l-279 -690q-27 -67 -40 -116.5t-14 -76.5t7 -43.5t19.5 -21t27.5 -4.5q87 0 204 123t230 317q24 0 52.5 -20.5t35.5 -43.5q-295 -514 -579 -514 q-54 0 -94 14.5t-67 49.5t-34 89z" />
<glyph unicode="u" horiz-adv-x="1028" d="M-82 123q-2 16 -3 35q0 44 12 103q17 85 61 194l245 608h216l-279 -690q-24 -60 -37.5 -104.5t-16.5 -70.5t2.5 -41.5t14.5 -20.5t23 -5q43 0 93 38t97.5 100.5t85.5 124.5t72 128l217 541h215l-279 -690q-24 -61 -37.5 -107.5t-16 -75.5t4 -47t17.5 -25t28 -7 q73 0 182.5 124.5t221.5 315.5q24 0 52.5 -20.5t35.5 -43.5q-50 -87 -97.5 -158.5t-104 -139.5t-111 -114t-116.5 -74t-122 -28q-83 0 -135.5 44t-55.5 135q-76 -85 -148 -132t-153 -47q-49 0 -86 13.5t-63.5 48.5t-34.5 88z" />
<glyph unicode="v" horiz-adv-x="915" d="M-94 0l233 1063h209l-188 -864q456 340 559 864l168 27q-12 -70 -32 -144t-59.5 -178t-109 -218.5t-160.5 -217.5q47 -21 96 -22q58 0 118 30q112 54 204 211q24 0 52.5 -20.5t35.5 -43.5q-52 -93 -117 -159t-143 -106q-78 -39 -163 -40h-3q-86 0 -182 43 q-14 -14 -40.5 -37.5t-107.5 -83.5t-161 -104h-209z" />
<glyph unicode="w" horiz-adv-x="1447" d="M-84 126q-2 15 -2 34q0 44 12 104q18 84 62 191l245 608h216l-279 -690q-43 -107 -50 -167q-3 -25 -3 -41q-1 -22 5 -26q10 -8 25 -8q45 0 96.5 36.5t98.5 97.5t85.5 122t72.5 127l221 549h215l-279 -690q-42 -104 -49 -162q-3 -21 -3 -36q0 -26 8 -33q12 -11 34 -11 q90 0 217 160q-26 37 -26 78q0 61 48 99q35 28 75 28q16 0 32 -4q128 241 201 571l168 27q-99 -462 -285 -758q43 -22 90 -22q53 0 110 28q107 54 200 213q24 0 52.5 -20.5t35.5 -43.5q-107 -187 -255 -265q-77 -40 -159 -40q-76 0 -156 35q-96 -121 -198 -182.5t-197 -61.5 q-81 0 -134.5 44.5t-59.5 138.5q-158 -183 -304 -183q-50 0 -88 14.5t-64.5 49.5t-33.5 89z" />
<glyph unicode="x" horiz-adv-x="1060" d="M-53 0l473 492q3 20 13.5 84.5t15 92.5t11 75t9 78.5t2.5 56.5q0 27 -5.5 40t-21.5 13q-17 0 -38 -13.5t-45.5 -43.5t-45 -57.5t-51 -77.5t-48.5 -81t-51.5 -89.5t-47.5 -82.5q-24 0 -52.5 20.5t-35.5 43.5q25 43 61 107t57.5 102.5t52.5 89.5t54 82t54 64.5t59 51.5 t63 30t72 12q63 0 103.5 -30t55 -79t16.5 -111v-14q0 -55 -13 -111l342 357l94 -88l-469 -486q-41 -260 -41 -319q0 -98 57 -98q71 0 205 130t238 310q24 0 52.5 -20.5t35.5 -43.5q-60 -105 -126 -193t-141 -162t-158 -116.5t-163 -42.5q-119 0 -168 86q-37 65 -37 155 q0 30 4 62l-268 -276h-174z" />
<glyph unicode="y" horiz-adv-x="1007" d="M-188 -403q10 148 225 253q22 11 116.5 52.5t120.5 58.5l58 139q-4 -5 -11.5 -13.5t-32.5 -30.5t-51 -39t-64.5 -30.5t-76.5 -13.5q-60 0 -102 24.5t-65 77.5q-14 33 -14 84q0 30 5 67q13 97 68 229l245 608h216l-279 -690q-24 -60 -37.5 -104.5t-16.5 -70.5t2.5 -41.5 t14.5 -20.5t23 -5q43 0 93 38t97.5 100.5t85.5 124.5t72 128l217 541h215l-408 -1004q156 79 280.5 195t227.5 297q24 0 52.5 -20.5t35.5 -43.5q-34 -60 -72.5 -115t-72.5 -97t-77.5 -83t-75 -69t-77.5 -59t-73 -48t-74.5 -41.5t-68 -34.5t-66.5 -32q-26 -70 -59 -146 q-35 -81 -67.5 -137.5t-79 -112t-107 -84t-134.5 -28.5q-100 0 -157 55q-52 50 -52 126q0 8 1 16zM-68 -399q0 -25 17 -40q16 -14 42 -14h3q50 2 108 62t109 194q-14 -6 -44 -17.5t-46.5 -18.5t-41 -19t-44.5 -24q-103 -65 -103 -123z" />
<glyph unicode="z" horiz-adv-x="1013" d="M-4 102l723 719q-33 1 -117.5 29.5t-138.5 28.5q-87 0 -139 -59t-159 -249q-31 -54 -48 -84q-24 0 -52.5 20.5t-35.5 43.5q33 57 70 128.5t60.5 118t53.5 98t55.5 83t58.5 59t72.5 40t87.5 12.5q49 0 115 -14q64 -14 114 -28q45 -12 104 -13q7 1 13 1q67 2 130 27 l92 -102l-697 -693q42 0 81 -14.5t65 -32.5t64.5 -32.5t78.5 -14.5q91 0 186 91t209 286q24 0 52.5 -20.5t35.5 -43.5q-52 -90 -97.5 -159t-103.5 -138.5t-113 -114.5t-121 -73.5t-134 -28.5q-58 0 -111.5 20.5t-89.5 42.5q-34 21 -74 34q-18 6 -38 6q-24 0 -50 -8 q-48 -16 -110 -68z" />
<glyph unicode="{" horiz-adv-x="870" d="M-37.5 -132.5q1.5 38.5 9.5 73t22 69.5q21 52 81 177t113 231l54 108q18 40 18.5 70t-34.5 48t-107 18h-37l59 151h37q54 0 98.5 16.5t72.5 39.5t50.5 58t33 61.5t20.5 60.5q72 256 127 415q20 57 38 96t54 87t81 77.5t117.5 49.5t163.5 20h103l-64 -158h-59 q-50 0 -91.5 -20.5t-71 -58.5t-49 -74.5t-38.5 -85.5q-25 -64 -76.5 -221.5t-66.5 -194.5q-17 -44 -37.5 -80t-39 -60.5t-42 -44t-40 -30t-39 -19t-33 -11.5t-28 -6t-18.5 -3q12 -3 28 -12.5t34.5 -32t28.5 -52t5 -78.5t-32 -106q-121 -257 -197 -432q-17 -38 -25 -60 t-12 -47t3.5 -38t28.5 -22t58 -9h84l-63 -157h-92q-65 0 -111.5 15t-71 41.5t-37 59t-11 71z" />
<glyph unicode="|" horiz-adv-x="757" d="M332 -254v1966h106v-1966h-106z" />
<glyph unicode="}" horiz-adv-x="870" d="M-94 -319l63 157h60q50 0 91.5 20.5t71 59t49 75t38.5 85.5q25 64 76.5 221.5t66.5 194.5q17 44 37.5 80t39 60.5t42 44t40 30t39 19t32.5 11.5t27.5 6t18.5 3q-12 3 -28 12.5t-34.5 31.5t-28.5 51.5t-4.5 78.5t32.5 106q107 228 196 432q17 38 25 60t12 47t-3.5 38 t-28.5 22t-58 9h-84l64 158h92q65 0 111.5 -15t71 -42t37 -59.5t11 -71t-9.5 -73t-22 -69.5q-21 -52 -81 -177t-113 -231l-54 -108q-18 -40 -18.5 -70t34.5 -47.5t107 -17.5h37l-60 -151h-37q-54 0 -98.5 -16.5t-72 -39.5t-50 -58t-33 -61.5t-20.5 -60.5q-73 -262 -127 -416 q-20 -56 -38 -95.5t-54.5 -87.5t-81.5 -77t-117.5 -49t-163.5 -20h-102z" />
<glyph unicode="~" horiz-adv-x="1449" d="M285 596q85 81 160.5 115t164.5 34q69 0 130 -20t98.5 -43.5t88 -43.5t101.5 -20q104 0 189 95l75 -131q-79 -79 -149.5 -115.5t-165.5 -36.5q-58 0 -107.5 13.5t-84.5 32t-68 37.5t-73.5 32.5t-84.5 13.5q-116 0 -199 -96z" />
<glyph unicode="&#xa1;" horiz-adv-x="679" d="M-207 -406l486 1068h133l-371 -1068h-248zM305 942q0 62 43.5 105t104.5 43t104 -43t43 -105t-43 -104.5t-104 -42.5q-62 0 -105 43t-43 104z" />
<glyph unicode="&#xa2;" horiz-adv-x="847" d="M-23 283q0 72 21 165.5t59.5 194t97.5 197.5t129 175t160.5 128t186.5 55l74 182h112l-78 -192q75 -22 116.5 -79.5t46 -131.5t-12.5 -152t-53 -149h-220q37 56 62.5 123.5t26 129.5t-36.5 83l-355 -879q136 -12 328 154l100 -92q-115 -115 -243.5 -173t-247.5 -47 l-72 -180h-112l79 201q-90 34 -129 112.5t-39 174.5zM179.5 253q1.5 -67 33.5 -89l340 840q-44 -17 -97.5 -80.5t-101.5 -148.5t-89 -183.5t-64 -185t-21.5 -153.5z" />
<glyph unicode="&#xa3;" horiz-adv-x="1316" d="M104 96q-9 53 24.5 101.5t94.5 67.5t144 -9q139 146 184 434h-170l53 129h135q24 136 68.5 253.5t110 214t159.5 152.5t205 56q94 0 157 -40t86.5 -105t12 -149.5t-58.5 -172.5h-207q10 21 18 39.5t21.5 53t16.5 61.5t1.5 54.5t-21 42.5t-53.5 15q-56 0 -105.5 -41 t-85.5 -111.5t-62 -150.5t-44 -172h263l-52 -129h-231q-52 -290 -252 -506q92 -30 154 -30q48 0 87 22.5t70 66.5t52 86t45 105h196q-55 -168 -117 -262q-131 -199 -325 -199q-61 0 -154 30t-133 36q-53 -39 -117 -45.5t-112 21t-58 81.5z" />
<glyph unicode="&#xa4;" horiz-adv-x="1183" d="M143 360l146 144q-72 103 -72 228t72 226l-146 146l95 94l145 -145q101 72 226.5 72t228.5 -72l143 145l94 -94l-145 -146q72 -101 72 -226t-72 -228l145 -144l-94 -94l-143 146q-103 -72 -228.5 -72t-226.5 72l-145 -146zM392 732q0 -90 63 -154q65 -64 155 -64t154 64 t64 154t-64 155q-64 63 -154 63t-155 -63q-63 -65 -63 -155z" />
<glyph unicode="&#xa5;" horiz-adv-x="993" d="M39 565l53 129h242l6 105h-205l51 129h164l41 540h199l-60 -587l406 587h235l-401 -540h158l-54 -129h-198l-78 -105h233l-51 -129h-276l-228 -565h-206l227 565h-258z" />
<glyph unicode="&#xa6;" horiz-adv-x="757" d="M332 -254v877h106v-877h-106zM332 836v876h106v-876h-106z" />
<glyph unicode="&#xa7;" horiz-adv-x="1044" d="M37 252q15 88 80 120q27 13 59 13q46 0 77.5 -31.5t31.5 -77.5q0 -42 -26 -73t-66 -37q17 -53 81 -53t100 49.5t36 111.5q0 36 -20 69t-50 57.5t-65.5 55.5t-65.5 61.5t-50 78t-20 102.5q0 45 13.5 89.5t42 88t80.5 78t122 52.5q3 51 22.5 100.5t53.5 93.5t91.5 71 t127.5 27q139 0 207 -104q53 -81 36 -175q-14 -87 -79 -119q-27 -13 -59 -13q-46 0 -77.5 31t-31.5 77q0 41 26 72t66 37q-21 55 -82 55q-64 0 -99.5 -50t-35.5 -112q0 -43 28 -80.5t67.5 -69t79.5 -67t68 -89t28 -118.5q0 -46 -13.5 -90.5t-42.5 -88t-81 -77.5t-122 -51 q-3 -51 -22.5 -100.5t-54 -94t-91 -71.5t-126.5 -27q-139 0 -207 104q-52 80 -37 175zM309 719q0 -37 18 -69.5t47 -59.5t59.5 -52.5t63 -60t50.5 -71.5q55 14 86 55.5t31 91.5q0 45 -28.5 86t-65 68.5t-80 70t-66.5 86.5q-55 -14 -85 -54.5t-30 -90.5z" />
<glyph unicode="&#xa8;" horiz-adv-x="757" d="M150 1335q0 53 36 89t88 36q53 0 90 -36.5t37 -88.5q0 -53 -37.5 -90t-89.5 -37t-88 37t-36 90zM500 1335q0 53 36 89t89 36t90 -36.5t37 -88.5q0 -53 -37 -90t-90 -37q-52 0 -88.5 37t-36.5 90z" />
<glyph unicode="&#xa9;" horiz-adv-x="1441" d="M102 483q0 138 61.5 270.5t162 230t234 157t271.5 59.5q225 0 371 -145t146 -365q0 -139 -62 -271.5t-163 -229.5t-235 -156.5t-272 -59.5q-224 0 -369 145t-145 365zM213 481q0 -177 116 -287t292 -110q116 0 229.5 52t198 135.5t136.5 194.5t52 224q0 171 -112 285.5 t-294 114.5q-157 0 -301 -87t-230.5 -228t-86.5 -294zM442 434q0 55 16.5 122t50 136t78.5 126t107.5 93.5t130.5 36.5q60 0 101 -27.5t56.5 -71.5t8 -99t-38.5 -109h-147q20 39 32 69.5t17 58t-4.5 42t-34.5 14.5q-45 0 -90 -48.5t-75.5 -115t-50 -131.5t-19.5 -102 q0 -86 79 -86q104 0 220 156l69 -54q-57 -92 -142 -151.5t-181 -59.5q-87 0 -135 55t-48 146z" />
<glyph unicode="&#xaa;" horiz-adv-x="913" d="M145 784q0 56 17.5 141.5t55 185t86.5 185t121 142.5t150 57q38 0 69 -13.5t47.5 -33t27.5 -39.5t15 -33l3 -14l219 113l-223 -551q-86 -211 0 -211q26 0 55 20l58 -69q-83 -60 -162 -60q-41 0 -71.5 14t-44.5 34t-22.5 39.5t-9.5 33.5l-1 14q-4 -5 -11.5 -14.5 t-31.5 -32.5t-49.5 -41t-64.5 -32.5t-77 -14.5q-75 0 -115.5 50.5t-40.5 129.5zM309 813q0 -68 53 -68q27 0 56.5 15.5t52 38t41.5 45t29 38.5l10 15l135 334q0 5 -0.5 13t-4.5 28.5t-11.5 36t-24 28.5t-39.5 13q-54 0 -110.5 -65t-96 -154t-65 -178t-25.5 -140z" />
<glyph unicode="&#xab;" horiz-adv-x="1533" d="M229 504l47 119l598 344l-90 -226l-344 -213l170 -219l-63 -153zM717 504l47 119l598 344l-90 -226l-344 -213l170 -219l-64 -153z" />
<glyph unicode="&#xac;" horiz-adv-x="1198" d="M74 496l73 182h908l-191 -475h-184l117 293h-723z" />
<glyph unicode="&#xad;" horiz-adv-x="1003" d="M260 506l66 164h538l-65 -164h-539z" />
<glyph unicode="&#xae;" horiz-adv-x="860" d="M119 987q0 132 73.5 250t193 188t249.5 70q161 0 263.5 -104t102.5 -261q0 -98 -44 -191.5t-115 -162t-166 -110t-193 -41.5q-160 0 -262 102t-102 260zM199 985q0 -124 80.5 -201t203.5 -77q31 0 59 4t40 8l12 4q-16 18 -16 61q0 28 10 89.5t10 74.5q0 46 -45 56 l-74 -183h-110l159 398h113l-57 -146q39 -10 70.5 24.5t31.5 78.5q0 36 -26 57.5t-72 21.5q-68 0 -105 -42t-37 -91q0 -9 2 -18.5t4 -15.5l3 -5l-90 -26q-9 26 -9 63q0 94 70 160t168 66q85 0 141 -50.5t56 -126.5q0 -56 -33 -98.5t-92 -66.5q30 -36 30 -89q0 -14 -8 -62.5 t-8 -59.5q0 -37 58 1q14 10 24 19q6 5 17 14.5t38 41.5t48 66.5t38 87.5t17 107q0 126 -79 204.5t-204 78.5q-109 0 -210.5 -59.5t-164.5 -159t-63 -209.5z" />
<glyph unicode="&#xaf;" horiz-adv-x="757" d="M166 1282l49 121h539l-49 -121h-539z" />
<glyph unicode="&#xb0;" horiz-adv-x="653" d="M203 1198q0 123 87 210t210 87q122 0 208.5 -87t86.5 -210q0 -122 -86.5 -208.5t-208.5 -86.5q-123 0 -210 86.5t-87 208.5zM340 1198q0 -66 47 -112t113 -46q65 0 111 46t46 112t-46 113t-111 47q-66 0 -113 -47t-47 -113z" />
<glyph unicode="&#xb1;" horiz-adv-x="1198" d="M-104 0l73 184h908l-74 -184h-907zM94 547l74 182h352l101 248h200l-100 -248h354l-74 -182h-354l-100 -248h-201l100 248h-352z" />
<glyph unicode="&#xb2;" horiz-adv-x="643" d="M-57 659l63 154q137 89 260 193q232 198 232 327q0 33 -15.5 54.5t-44.5 21.5q-57 0 -97 -60.5t-42 -138.5h-145q1 40 10.5 81t32.5 84t56 76t84.5 54t113.5 21q100 0 150 -49t50 -129q0 -198 -315 -451l-121 -96h268l-59 -142h-481z" />
<glyph unicode="&#xb3;" horiz-adv-x="655" d="M12.5 819q-2.5 47 7.5 87.5t27 70.5h156q-17 -27 -29 -62t-15.5 -70t14 -59t56.5 -24q70 0 118 70t48 137q0 24 -8 41.5t-24.5 26t-29.5 13.5t-35.5 4.5t-30 -1t-25.5 -2.5l51 127q57 0 99.5 15t63.5 34.5t34 45t15.5 40.5t2.5 26q0 14 -3.5 27.5t-18.5 28t-40 14.5 q-52 0 -85.5 -44.5t-45.5 -107.5h-145q7 48 26 92t52.5 85.5t89.5 66.5t127 25q50 0 87 -13.5t56 -32t30.5 -44t14 -43t2.5 -35.5q0 -76 -50 -143t-148 -99q80 -44 80 -147q0 -53 -20 -108.5t-57.5 -105t-101.5 -81t-143 -31.5q-71 0 -118 26t-64.5 64.5t-20 85.5z" />
<glyph unicode="&#xb4;" horiz-adv-x="757" d="M215 1188l240 280h239l-323 -280h-156z" />
<glyph unicode="&#xb5;" horiz-adv-x="1028" d="M-360 -406l593 1469h216l-279 -690q-43 -107 -50 -166.5t2.5 -67.5t24.5 -8q45 0 97 38t100 100t86.5 125t71.5 128l219 541h215l-279 -690q-24 -61 -37.5 -107.5t-16 -75.5t4 -47t17.5 -25t28 -7q73 0 182.5 124.5t221.5 315.5q24 0 52.5 -20.5t35.5 -43.5 q-50 -87 -97.5 -158.5t-104 -139.5t-111 -114t-116.5 -74t-122 -28q-185 0 -191 179q-161 -179 -299 -179q-44 0 -90 19l-159 -398h-215z" />
<glyph unicode="&#xb6;" horiz-adv-x="1372" d="M152 811q62 151 210 257t297 106h773l-60 -150h-104l-412 -1024q-34 -84 -100 -140.5t-146 -56.5l-28 97q3 0 8 2t20 10.5t29 21t32.5 38.5t33.5 59l399 993h-178l-414 -1024q-34 -84 -100 -140.5t-144 -56.5l-28 97q3 0 8 2t19.5 10.5t28.5 21t32 38.5t32 59l170 418 h-163q-150 0 -212.5 107t-2.5 255z" />
<glyph unicode="&#xb7;" horiz-adv-x="784" d="M274 588q0 61 43 104t105 43t104.5 -42.5t42.5 -104.5t-43 -105t-104 -43q-62 0 -105 43t-43 105z" />
<glyph unicode="&#xb8;" horiz-adv-x="757" d="M102 -414l66 101q19 -11 52 -14t66.5 2t58 25.5t24.5 53.5q0 39 -32.5 52t-92.5 8l100 186h107l-58 -111q48 0 81.5 -32.5t33.5 -94.5q0 -69 -42.5 -117.5t-104.5 -67t-132 -17t-127 25.5z" />
<glyph unicode="&#xb9;" horiz-adv-x="532" d="M59 1059q108 105 203 218t136 173l42 61h146l-342 -852h-148l217 551q-92 -113 -196 -217z" />
<glyph unicode="&#xba;" horiz-adv-x="782" d="M160 836q0 54 14 122.5t40 142.5t67.5 144.5t91 126t115.5 89.5t137 34q95 0 154 -58.5t59 -172.5q0 -66 -19.5 -151t-60 -174.5t-94 -164t-130.5 -122.5t-161 -48q-95 0 -154 59t-59 173zM311 819q0 -46 19.5 -72t52.5 -26q51 0 107.5 65t98.5 155.5t69.5 185.5 t27.5 155q0 49 -19 72.5t-49 23.5q-51 0 -108 -66t-99.5 -156.5t-71 -185t-28.5 -151.5z" />
<glyph unicode="&#xbb;" horiz-adv-x="1533" d="M182 156l90 225l344 213l-170 219l62 154l319 -349l-47 -118zM670 156l90 225l344 213l-170 219l61 154l320 -349l-47 -118z" />
<glyph unicode="&#xbc;" horiz-adv-x="1486" d="M68 0l1214 1468h139l-1216 -1468h-137zM172 1016q108 105 203 218t137 174l41 60h145l-342 -852h-147l217 551q-88 -108 -197 -217zM727 209l57 135l445 508h201l-203 -506q24 4 42 11t25 13l6 5l58 -68q-2 -4 -6.5 -10.5t-21 -22.5t-36.5 -29t-53.5 -24t-71.5 -12 l-84 -209h-147l84 209h-295zM907 344h172l144 365z" />
<glyph unicode="&#xbd;" horiz-adv-x="1515" d="M72 0l1214 1468h139l-1216 -1468h-137zM172 1016q108 105 203 218t137 174l41 60h145l-342 -852h-147l217 551q-88 -108 -197 -217zM754 0l63 154q1 1 53 36t123.5 89.5t143.5 119.5t122 141t50 138q0 32 -15 52t-45 20q-57 0 -97 -60.5t-42 -138.5h-145q1 40 10.5 81 t32.5 83.5t56 75.5t84.5 54t113.5 21q100 0 150 -49t50 -129q0 -182 -258 -403l-57 -47q-24 -19 -52.5 -40.5t-47.5 -35.5t-27 -21h274l-59 -141h-481z" />
<glyph unicode="&#xbe;" horiz-adv-x="1617" d="M108 788q-2 47 8 87.5t27 70.5h156q-17 -27 -28.5 -62t-15 -70t14 -59t56.5 -24q70 0 118 70t48 137q0 24 -8 41.5t-24.5 26t-30 13.5t-36 4.5t-30.5 -1t-25 -2.5l51 127q57 0 100 15t64 35t33.5 46.5t15 42.5t2.5 29q0 12 -3 24t-18 25.5t-40 13.5q-52 0 -85.5 -44 t-45.5 -107h-146q6 38 18.5 73t36 71.5t55.5 63t80 43.5t105 17q50 0 87 -13.5t56.5 -32t31 -44t14 -43t2.5 -35.5q0 -76 -50 -143t-149 -99q80 -42 80 -147q0 -53 -19.5 -108t-57.5 -105t-102.5 -81.5t-144.5 -31.5q-71 0 -117.5 26t-64 64.5t-19.5 85.5zM184 0l1215 1468 h139l-1216 -1468h-138zM854 209l57 135l445 508h200l-202 -506q24 4 42 11t24 13l7 5l58 -68q-2 -4 -6.5 -10.5t-21 -22.5t-36.5 -29t-53.5 -24t-71.5 -12l-84 -209h-147l84 209h-295zM1034 344h172l144 365z" />
<glyph unicode="&#xbf;" horiz-adv-x="923" d="M-25 -147q0 67 26.5 133.5t70 123t97 112t111 109.5t107.5 105.5t90.5 110.5t57.5 115h167q-24 -85 -74 -168.5t-107 -145.5t-119 -127.5t-111 -119t-81 -116t-32 -122.5t29 -96.5t84 -36.5q97 0 170.5 105.5t73.5 238.5h188q0 -68 -14 -136t-47 -135.5t-81.5 -119 t-124.5 -83.5t-169 -32q-85 0 -148 25.5t-97.5 68t-50.5 90.5t-16 101zM580 942q0 62 43 105t104 43t104 -43t43 -105t-43 -104.5t-104 -42.5t-104 42.5t-43 104.5z" />
<glyph unicode="&#xc0;" horiz-adv-x="1730" d="M-143 315q0 159 114 264t303 105q192 0 422 -125l478 801q13 21 38 64t35.5 60.5t31.5 51t32.5 47.5t31 36.5t34 32t34.5 21t40.5 15.5t43.5 4q35 0 69.5 -13t66 -44t40 -81t-7.5 -124l-313 -1184q87 -5 146.5 16.5t121.5 88t141 200.5q24 0 52.5 -20.5t35.5 -43.5 q-39 -68 -71.5 -118.5t-67.5 -96t-67 -73.5t-69.5 -52.5t-75.5 -33t-85 -13.5t-98 4l-117 -446l-172 158l92 342q-119 45 -342 166q-228 -353 -530 -353q-176 0 -281.5 97t-105.5 247zM37 324q0 -71 54.5 -125t154.5 -54q184 0 362 271q-193 100 -332 100q-63 0 -111 -17 t-75 -45.5t-40 -61t-13 -68.5zM860 465q196 -112 297 -160l313 1143l-20 8zM1231 2066h239l240 -280h-156z" />
<glyph unicode="&#xc1;" horiz-adv-x="1730" d="M-143 315q0 159 114 264t303 105q192 0 422 -125l478 801q13 21 38 64t35.5 60.5t31.5 51t32.5 47.5t31 36.5t34 32t34.5 21t40.5 15.5t43.5 4q35 0 69.5 -13t66 -44t40 -81t-7.5 -124l-313 -1184q87 -5 146.5 16.5t121.5 88t141 200.5q24 0 52.5 -20.5t35.5 -43.5 q-39 -68 -71.5 -118.5t-67.5 -96t-67 -73.5t-69.5 -52.5t-75.5 -33t-85 -13.5t-98 4l-117 -446l-172 158l92 342q-119 45 -342 166q-228 -353 -530 -353q-176 0 -281.5 97t-105.5 247zM37 324q0 -71 54.5 -125t154.5 -54q184 0 362 271q-193 100 -332 100q-63 0 -111 -17 t-75 -45.5t-40 -61t-13 -68.5zM860 465q196 -112 297 -160l313 1143l-20 8zM1481 1786l239 280h240l-324 -280h-155z" />
<glyph unicode="&#xc2;" horiz-adv-x="1730" d="M-143 315q0 159 114 264t303 105q192 0 422 -125l478 801q13 21 38 64t35.5 60.5t31.5 51t32.5 47.5t31 36.5t34 32t34.5 21t40.5 15.5t43.5 4q35 0 69.5 -13t66 -44t40 -81t-7.5 -124l-313 -1184q87 -5 146.5 16.5t121.5 88t141 200.5q24 0 52.5 -20.5t35.5 -43.5 q-39 -68 -71.5 -118.5t-67.5 -96t-67 -73.5t-69.5 -52.5t-75.5 -33t-85 -13.5t-98 4l-117 -446l-172 158l92 342q-119 45 -342 166q-228 -353 -530 -353q-176 0 -281.5 97t-105.5 247zM37 324q0 -71 54.5 -125t154.5 -54q184 0 362 271q-193 100 -332 100q-63 0 -111 -17 t-75 -45.5t-40 -61t-13 -68.5zM860 465q196 -112 297 -160l313 1143l-20 8zM1233 1786l416 325h98l158 -325h-133l-109 184l-248 -184h-182z" />
<glyph unicode="&#xc3;" horiz-adv-x="1730" d="M-143 315q0 159 114 264t303 105q192 0 422 -125l478 801q13 21 38 64t35.5 60.5t31.5 51t32.5 47.5t31 36.5t34 32t34.5 21t40.5 15.5t43.5 4q35 0 69.5 -13t66 -44t40 -81t-7.5 -124l-313 -1184q87 -5 146.5 16.5t121.5 88t141 200.5q24 0 52.5 -20.5t35.5 -43.5 q-39 -68 -71.5 -118.5t-67.5 -96t-67 -73.5t-69.5 -52.5t-75.5 -33t-85 -13.5t-98 4l-117 -446l-172 158l92 342q-119 45 -342 166q-228 -353 -530 -353q-176 0 -281.5 97t-105.5 247zM37 324q0 -71 54.5 -125t154.5 -54q184 0 362 271q-193 100 -332 100q-63 0 -111 -17 t-75 -45.5t-40 -61t-13 -68.5zM860 465q196 -112 297 -160l313 1143l-20 8zM1284 1864q55 69 100.5 103t104.5 34q49 0 93 -19.5t81.5 -39t69.5 -19.5q29 0 59 19t51 53l62 -76q-52 -66 -98.5 -99.5t-106.5 -33.5q-49 0 -92.5 19.5t-81 39t-70.5 19.5q-26 0 -56.5 -20 t-53.5 -54z" />
<glyph unicode="&#xc4;" horiz-adv-x="1730" d="M-143 315q0 159 114 264t303 105q192 0 422 -125l478 801q13 21 38 64t35.5 60.5t31.5 51t32.5 47.5t31 36.5t34 32t34.5 21t40.5 15.5t43.5 4q35 0 69.5 -13t66 -44t40 -81t-7.5 -124l-313 -1184q87 -5 146.5 16.5t121.5 88t141 200.5q24 0 52.5 -20.5t35.5 -43.5 q-39 -68 -71.5 -118.5t-67.5 -96t-67 -73.5t-69.5 -52.5t-75.5 -33t-85 -13.5t-98 4l-117 -446l-172 158l92 342q-119 45 -342 166q-228 -353 -530 -353q-176 0 -281.5 97t-105.5 247zM37 324q0 -71 54.5 -125t154.5 -54q184 0 362 271q-193 100 -332 100q-63 0 -111 -17 t-75 -45.5t-40 -61t-13 -68.5zM860 465q196 -112 297 -160l313 1143l-20 8zM1270 1913q0 53 36 89t89 36t90 -36.5t37 -88.5q0 -53 -37 -90t-90 -37q-52 0 -88.5 37t-36.5 90zM1620 1913q0 53 36 89t89 36t90 -36.5t37 -88.5q0 -53 -37 -90t-90 -37q-52 0 -88.5 37t-36.5 90 z" />
<glyph unicode="&#xc5;" horiz-adv-x="1730" d="M-143 315q0 159 114 264t303 105q192 0 422 -125l478 801q13 21 38 64t35.5 60.5t31.5 51t32.5 47.5t31 36.5t34 32t34.5 21t40.5 15.5t43.5 4q35 0 69.5 -13t66 -44t40 -81t-7.5 -124l-313 -1184q87 -5 146.5 16.5t121.5 88t141 200.5q24 0 52.5 -20.5t35.5 -43.5 q-39 -68 -71.5 -118.5t-67.5 -96t-67 -73.5t-69.5 -52.5t-75.5 -33t-85 -13.5t-98 4l-117 -446l-172 158l92 342q-119 45 -342 166q-228 -353 -530 -353q-176 0 -281.5 97t-105.5 247zM37 324q0 -71 54.5 -125t154.5 -54q184 0 362 271q-193 100 -332 100q-63 0 -111 -17 t-75 -45.5t-40 -61t-13 -68.5zM860 465q196 -112 297 -160l313 1143l-20 8zM1432 1978q0 94 66.5 161t160.5 67q95 0 162 -67t67 -161q0 -95 -67 -162t-162 -67q-94 0 -160.5 67t-66.5 162zM1554 1978q0 -44 31 -75t74 -31q44 0 75 31t31 75q0 43 -31 74t-75 31 q-43 0 -74 -31t-31 -74z" />
<glyph unicode="&#xc6;" horiz-adv-x="2465" d="M-143 315q0 159 114 264t303 105q192 0 422 -125l478 801q13 21 38 64t35.5 60.5t31.5 51t32.5 47.5t31 36.5t34 32t34.5 21t40.5 15.5t43.5 4q35 0 69.5 -13t66 -44t40 -81t-7.5 -124l-141 -535q140 65 295 49q-35 84 -35 193q0 160 92 303q-51 164 -33 350l137 -21 q-12 -103 7 -202q150 127 348 127q90 0 162 -28.5t114 -75t63.5 -100t20.5 -108.5q-1 -63 -26 -121.5t-69.5 -104.5t-113.5 -73.5t-151 -27.5q-106 0 -196.5 48t-149.5 134q-18 -77 -14 -151.5t39 -144t95 -112.5l-94 -147q-4 3 -11.5 9t-32 20.5t-51 25.5t-67.5 20t-82 9 q-157 0 -259.5 -113.5t-102.5 -273.5q0 -156 99.5 -265.5t260.5 -109.5q84 0 155.5 31t117 82t75 117t29 136t-21.5 138l182 51q34 -126 25.5 -237t-58 -204t-125 -160t-177 -104.5t-212.5 -37.5q-143 0 -262.5 63t-194.5 172l-104 -393l-172 158l92 342q-119 45 -342 166 q-228 -353 -530 -353q-176 0 -281.5 97t-105.5 247zM37 324q0 -71 54.5 -125t154.5 -54q184 0 362 271q-193 100 -332 100q-63 0 -111 -17t-75 -45.5t-40 -61t-13 -68.5zM860 465q196 -112 297 -160l313 1143l-20 8zM2056 1376q47 -76 117.5 -121t148.5 -45q88 0 137.5 49 t49.5 103q0 53 -48 97t-143 44q-161 0 -262 -127z" />
<glyph unicode="&#xc7;" horiz-adv-x="1390" d="M0 1114q0 149 77.5 275t190.5 188l103 -145q-22 -12 -49 -35t-63 -63t-59.5 -100.5t-23.5 -127.5q0 -104 78 -200.5t195 -123.5q47 139 110 271t143 252t167 210t187.5 143.5t198.5 53.5q136 0 212.5 -94t76.5 -234q0 -128 -61 -271.5t-185 -264.5q-123 -119 -290 -189.5 t-371 -70.5h-29q-53 -173 -53 -318q0 -223 197 -223q157 0 344.5 137t322.5 367q24 0 52.5 -20.5t35.5 -43.5q-75 -130 -160.5 -235.5t-184 -188t-211 -129.5t-228.5 -51l-25 -49q48 0 81.5 -32.5t33.5 -94.5q0 -69 -42 -117.5t-104 -67t-132 -17t-127 25.5l65 100 q27 -15 73.5 -16.5t87 20t40.5 64.5q0 39 -32 51.5t-93 7.5l69 131q-268 50 -268 387q0 156 49 342q-104 30 -183.5 85t-125 123t-68 140.5t-22.5 147.5zM668 760q285 9 481 211q87 90 135.5 195t48.5 192q0 67 -28 107t-82 40q-88 0 -194.5 -113t-197.5 -278t-163 -354z " />
<glyph unicode="&#xc8;" horiz-adv-x="1265" d="M0 375q0 122 49.5 233.5t132 190t197 119t237.5 26.5q-34 84 -34 193q0 160 92 303q-51 164 -33 350l137 -21q-12 -107 6 -202q150 127 349 127q90 0 162 -28.5t114 -75t63.5 -100t20.5 -108.5q-1 -63 -26 -121.5t-69.5 -104.5t-113.5 -73.5t-151 -27.5q-106 0 -197 48 t-150 134q-18 -77 -14 -151.5t39.5 -144t95.5 -112.5l-94 -147q-4 3 -11.5 9t-32 20.5t-51 25.5t-67.5 20t-82 9q-157 0 -259.5 -113.5t-102.5 -273.5q0 -156 99.5 -265.5t260.5 -109.5q84 0 155.5 31t117 82t75 117t29 136t-21.5 138l182 51q34 -126 25.5 -237t-58 -204 t-125 -160t-177 -104.5t-212.5 -37.5q-155 0 -283.5 76t-201 204t-72.5 279zM856 1376q47 -76 117.5 -121t148.5 -45q88 0 137.5 49t49.5 103q0 53 -48 97t-143 44q-161 0 -262 -127zM983 2066h240l239 -280h-155z" />
<glyph unicode="&#xc9;" horiz-adv-x="1265" d="M0 375q0 122 49.5 233.5t132 190t197 119t237.5 26.5q-34 84 -34 193q0 160 92 303q-51 164 -33 350l137 -21q-12 -107 6 -202q150 127 349 127q90 0 162 -28.5t114 -75t63.5 -100t20.5 -108.5q-1 -63 -26 -121.5t-69.5 -104.5t-113.5 -73.5t-151 -27.5q-106 0 -197 48 t-150 134q-18 -77 -14 -151.5t39.5 -144t95.5 -112.5l-94 -147q-4 3 -11.5 9t-32 20.5t-51 25.5t-67.5 20t-82 9q-157 0 -259.5 -113.5t-102.5 -273.5q0 -156 99.5 -265.5t260.5 -109.5q84 0 155.5 31t117 82t75 117t29 136t-21.5 138l182 51q34 -126 25.5 -237t-58 -204 t-125 -160t-177 -104.5t-212.5 -37.5q-155 0 -283.5 76t-201 204t-72.5 279zM856 1376q47 -76 117.5 -121t148.5 -45q88 0 137.5 49t49.5 103q0 53 -48 97t-143 44q-161 0 -262 -127zM1180 1786l239 280h240l-324 -280h-155z" />
<glyph unicode="&#xca;" horiz-adv-x="1265" d="M0 375q0 122 49.5 233.5t132 190t197 119t237.5 26.5q-34 84 -34 193q0 160 92 303q-51 164 -33 350l137 -21q-12 -107 6 -202q150 127 349 127q90 0 162 -28.5t114 -75t63.5 -100t20.5 -108.5q-1 -63 -26 -121.5t-69.5 -104.5t-113.5 -73.5t-151 -27.5q-106 0 -197 48 t-150 134q-18 -77 -14 -151.5t39.5 -144t95.5 -112.5l-94 -147q-4 3 -11.5 9t-32 20.5t-51 25.5t-67.5 20t-82 9q-157 0 -259.5 -113.5t-102.5 -273.5q0 -156 99.5 -265.5t260.5 -109.5q84 0 155.5 31t117 82t75 117t29 136t-21.5 138l182 51q34 -126 25.5 -237t-58 -204 t-125 -160t-177 -104.5t-212.5 -37.5q-155 0 -283.5 76t-201 204t-72.5 279zM856 1376q47 -76 117.5 -121t148.5 -45q88 0 137.5 49t49.5 103q0 53 -48 97t-143 44q-161 0 -262 -127zM922 1786l415 325h99l157 -325h-133l-108 184l-248 -184h-182z" />
<glyph unicode="&#xcb;" horiz-adv-x="1265" d="M0 375q0 122 49.5 233.5t132 190t197 119t237.5 26.5q-34 84 -34 193q0 160 92 303q-51 164 -33 350l137 -21q-12 -107 6 -202q150 127 349 127q90 0 162 -28.5t114 -75t63.5 -100t20.5 -108.5q-1 -63 -26 -121.5t-69.5 -104.5t-113.5 -73.5t-151 -27.5q-106 0 -197 48 t-150 134q-18 -77 -14 -151.5t39.5 -144t95.5 -112.5l-94 -147q-4 3 -11.5 9t-32 20.5t-51 25.5t-67.5 20t-82 9q-157 0 -259.5 -113.5t-102.5 -273.5q0 -156 99.5 -265.5t260.5 -109.5q84 0 155.5 31t117 82t75 117t29 136t-21.5 138l182 51q34 -126 25.5 -237t-58 -204 t-125 -160t-177 -104.5t-212.5 -37.5q-155 0 -283.5 76t-201 204t-72.5 279zM856 1376q47 -76 117.5 -121t148.5 -45q88 0 137.5 49t49.5 103q0 53 -48 97t-143 44q-161 0 -262 -127zM983 1911q0 53 36.5 89t88.5 36q53 0 90 -36.5t37 -88.5q0 -53 -37.5 -90t-89.5 -37 t-88.5 37t-36.5 90zM1333 1911q0 53 36.5 89t88.5 36q53 0 90 -36.5t37 -88.5q0 -53 -37.5 -90t-89.5 -37t-88.5 37t-36.5 90z" />
<glyph unicode="&#xcc;" horiz-adv-x="1177" d="M-125 236q0 179 129 301.5t313 113.5v-180q-64 5 -116.5 -15.5t-83.5 -57t-47.5 -80t-16.5 -87.5q0 -43 15.5 -84t45.5 -76t80 -56t113 -21q147 0 251 115t183 331l361 895q-36 -15 -114 -44.5t-133 -50.5t-125 -58t-114 -73t-75 -89t-31 -113q0 -78 45.5 -128t118.5 -50 v-178q-155 0 -250.5 102.5t-93.5 245.5q0 85 31 158.5t88.5 129t124.5 99.5t155 82.5t162 66t164.5 60.5t144.5 57q54 78 127 125t154 47l39 -129q-5 -1 -12.5 -4.5t-30.5 -19t-44.5 -36.5t-47.5 -59.5t-46 -86.5l-446 -1096q-44 -112 -102.5 -198.5t-117.5 -138t-126 -84 t-123.5 -44.5t-114.5 -12q-99 0 -182 35t-137.5 93.5t-84.5 134t-30 157.5zM1044 2111h240l240 -280h-156z" />
<glyph unicode="&#xcd;" horiz-adv-x="1177" d="M-125 236q0 179 129 301.5t313 113.5v-180q-64 5 -116.5 -15.5t-83.5 -57t-47.5 -80t-16.5 -87.5q0 -43 15.5 -84t45.5 -76t80 -56t113 -21q147 0 251 115t183 331l361 895q-36 -15 -114 -44.5t-133 -50.5t-125 -58t-114 -73t-75 -89t-31 -113q0 -78 45.5 -128t118.5 -50 v-178q-155 0 -250.5 102.5t-93.5 245.5q0 85 31 158.5t88.5 129t124.5 99.5t155 82.5t162 66t164.5 60.5t144.5 57q54 78 127 125t154 47l39 -129q-5 -1 -12.5 -4.5t-30.5 -19t-44.5 -36.5t-47.5 -59.5t-46 -86.5l-446 -1096q-44 -112 -102.5 -198.5t-117.5 -138t-126 -84 t-123.5 -44.5t-114.5 -12q-99 0 -182 35t-137.5 93.5t-84.5 134t-30 157.5zM1307 1831l239 280h240l-324 -280h-155z" />
<glyph unicode="&#xce;" horiz-adv-x="1177" d="M-125 236q0 179 129 301.5t313 113.5v-180q-64 5 -116.5 -15.5t-83.5 -57t-47.5 -80t-16.5 -87.5q0 -43 15.5 -84t45.5 -76t80 -56t113 -21q147 0 251 115t183 331l361 895q-36 -15 -114 -44.5t-133 -50.5t-125 -58t-114 -73t-75 -89t-31 -113q0 -78 45.5 -128t118.5 -50 v-178q-155 0 -250.5 102.5t-93.5 245.5q0 85 31 158.5t88.5 129t124.5 99.5t155 82.5t162 66t164.5 60.5t144.5 57q54 78 127 125t154 47l39 -129q-5 -1 -12.5 -4.5t-30.5 -19t-44.5 -36.5t-47.5 -59.5t-46 -86.5l-446 -1096q-44 -112 -102.5 -198.5t-117.5 -138t-126 -84 t-123.5 -44.5t-114.5 -12q-99 0 -182 35t-137.5 93.5t-84.5 134t-30 157.5zM997 1831l416 326h98l158 -326h-133l-109 184l-247 -184h-183z" />
<glyph unicode="&#xcf;" horiz-adv-x="1177" d="M-125 236q0 179 129 301.5t313 113.5v-180q-64 5 -116.5 -15.5t-83.5 -57t-47.5 -80t-16.5 -87.5q0 -43 15.5 -84t45.5 -76t80 -56t113 -21q147 0 251 115t183 331l361 895q-36 -15 -114 -44.5t-133 -50.5t-125 -58t-114 -73t-75 -89t-31 -113q0 -78 45.5 -128t118.5 -50 v-178q-155 0 -250.5 102.5t-93.5 245.5q0 85 31 158.5t88.5 129t124.5 99.5t155 82.5t162 66t164.5 60.5t144.5 57q54 78 127 125t154 47l39 -129q-5 -1 -12.5 -4.5t-30.5 -19t-44.5 -36.5t-47.5 -59.5t-46 -86.5l-446 -1096q-44 -112 -102.5 -198.5t-117.5 -138t-126 -84 t-123.5 -44.5t-114.5 -12q-99 0 -182 35t-137.5 93.5t-84.5 134t-30 157.5zM1090 1958q0 53 36 89t88 36q53 0 90 -36.5t37 -88.5t-37.5 -89.5t-89.5 -37.5t-88 37t-36 90zM1440 1958q0 52 36 88.5t89 36.5t90 -36.5t37 -88.5t-37 -89.5t-90 -37.5q-52 0 -88.5 37t-36.5 90z " />
<glyph unicode="&#xd0;" horiz-adv-x="1916" d="M-63 197q0 51 19 100.5t55.5 91.5t97 68t135.5 26q89 0 168.5 -38t187.5 -128q64 93 107 195h-156l65 164h158l195 483q45 113 134 189.5t195 76.5l39 -129q-4 -1 -11.5 -4.5t-30 -18.5t-43 -36t-47 -60t-46.5 -87q-98 -240 -170 -414h166l-65 -164h-166 q-66 -183 -168 -317q80 -62 146.5 -94.5t144.5 -32.5q121 0 238.5 85t201.5 217.5t136 299.5t52 325q0 118 -29.5 216.5t-87 173.5t-150.5 117t-212 42q-108 0 -204.5 -36t-165.5 -94t-120.5 -131t-76.5 -149t-25 -145q0 -48 12 -96.5t24 -72.5l11 -25l-149 -109 q-3 4 -8 12.5t-18.5 36.5t-23.5 60t-18 82.5t-8 103.5q0 200 104.5 368t284.5 265.5t395 97.5q147 0 270 -49t211.5 -139t137.5 -224t49 -299q0 -148 -37.5 -304.5t-111.5 -301t-172.5 -259t-231 -183t-276.5 -68.5q-78 0 -147.5 24t-122.5 59t-138 102q-166 -146 -377 -146 q-154 0 -240.5 80.5t-86.5 192.5zM104 207q0 -51 44 -80t118 -29q118 0 226 97q-146 133 -250 133q-59 0 -98.5 -38t-39.5 -83z" />
<glyph unicode="&#xd1;" horiz-adv-x="1519" d="M0 899q0 77 26 144.5t69 117.5t107 96.5t130.5 79.5t149.5 67.5t154.5 59.5t154.5 57.5t141 59.5l110 -254q282 236 435 236q76 0 125 -48.5t49 -128.5q0 -91 -80 -284l-441 -1098q-36 -87 -21 -151t95 -111l-74 -184q-323 153 -192 505l395 981q90 220 90 256 q0 62 -51 62q-67 0 -202.5 -93.5t-225.5 -193.5l-442 -1102h-215l555 1383q-37 -14 -98.5 -36t-109.5 -38.5t-109 -41.5t-107 -48t-93 -55t-77 -65t-49 -75.5t-19 -89.5q0 -78 45.5 -128t118.5 -50v-178q-155 0 -250.5 102.5t-93.5 245.5zM1079 1778q55 69 100.5 103 t104.5 34q49 0 93 -19.5t81.5 -39t69.5 -19.5q29 0 59 19t51 53l62 -76q-52 -66 -98.5 -99.5t-106.5 -33.5q-49 0 -92.5 19.5t-81 39t-70.5 19.5q-26 0 -56.5 -20t-53.5 -54z" />
<glyph unicode="&#xd2;" horiz-adv-x="1406" d="M2 281q0 156 53 349t142.5 375.5t223.5 334.5t281 216q122 148 297 148q150 0 242 -113.5t92 -312.5q0 -200 -65.5 -436.5t-182.5 -454.5q48 -10 87.5 -10.5t76 13.5t64.5 31.5t53 42t41 45.5t29 42q24 0 52.5 -20.5t35.5 -43.5q-82 -134 -225.5 -193t-280.5 -22 q-131 -210 -291.5 -333t-337.5 -123q-80 0 -145 24.5t-109.5 67t-75 102t-44 127t-13.5 144.5zM203 262q0 -54 9.5 -100t31 -87t61 -65t94.5 -24q105 0 218 101t210 267q-5 3 -13.5 9.5t-33 29t-48 49.5t-53.5 72t-54 94.5t-45 118.5t-31 143.5t-7.5 169.5t21.5 197 q-132 -166 -246 -470.5t-114 -504.5zM713 991q0 -162 49 -295t137 -215q103 198 167 426t64 350q0 123 -43 180.5t-116 57.5q-72 0 -131.5 -68.5t-93 -184t-33.5 -251.5zM719 2066h239l240 -280h-156z" />
<glyph unicode="&#xd3;" horiz-adv-x="1406" d="M2 281q0 156 53 349t142.5 375.5t223.5 334.5t281 216q122 148 297 148q150 0 242 -113.5t92 -312.5q0 -200 -65.5 -436.5t-182.5 -454.5q48 -10 87.5 -10.5t76 13.5t64.5 31.5t53 42t41 45.5t29 42q24 0 52.5 -20.5t35.5 -43.5q-82 -134 -225.5 -193t-280.5 -22 q-131 -210 -291.5 -333t-337.5 -123q-80 0 -145 24.5t-109.5 67t-75 102t-44 127t-13.5 144.5zM203 262q0 -54 9.5 -100t31 -87t61 -65t94.5 -24q105 0 218 101t210 267q-5 3 -13.5 9.5t-33 29t-48 49.5t-53.5 72t-54 94.5t-45 118.5t-31 143.5t-7.5 169.5t21.5 197 q-132 -166 -246 -470.5t-114 -504.5zM713 991q0 -162 49 -295t137 -215q103 198 167 426t64 350q0 123 -43 180.5t-116 57.5q-72 0 -131.5 -68.5t-93 -184t-33.5 -251.5zM926 1786l239 280h240l-324 -280h-155z" />
<glyph unicode="&#xd4;" horiz-adv-x="1406" d="M2 281q0 156 53 349t142.5 375.5t223.5 334.5t281 216q122 148 297 148q150 0 242 -113.5t92 -312.5q0 -200 -65.5 -436.5t-182.5 -454.5q48 -10 87.5 -10.5t76 13.5t64.5 31.5t53 42t41 45.5t29 42q24 0 52.5 -20.5t35.5 -43.5q-82 -134 -225.5 -193t-280.5 -22 q-131 -210 -291.5 -333t-337.5 -123q-80 0 -145 24.5t-109.5 67t-75 102t-44 127t-13.5 144.5zM203 262q0 -54 9.5 -100t31 -87t61 -65t94.5 -24q105 0 218 101t210 267q-5 3 -13.5 9.5t-33 29t-48 49.5t-53.5 72t-54 94.5t-45 118.5t-31 143.5t-7.5 169.5t21.5 197 q-132 -166 -246 -470.5t-114 -504.5zM713 991q0 -162 49 -295t137 -215q103 198 167 426t64 350q0 123 -43 180.5t-116 57.5q-72 0 -131.5 -68.5t-93 -184t-33.5 -251.5zM719 1786l416 325h98l158 -325h-134l-108 184l-248 -184h-182z" />
<glyph unicode="&#xd5;" horiz-adv-x="1406" d="M2 281q0 156 53 349t142.5 375.5t223.5 334.5t281 216q122 148 297 148q150 0 242 -113.5t92 -312.5q0 -200 -65.5 -436.5t-182.5 -454.5q48 -10 87.5 -10.5t76 13.5t64.5 31.5t53 42t41 45.5t29 42q24 0 52.5 -20.5t35.5 -43.5q-82 -134 -225.5 -193t-280.5 -22 q-131 -210 -291.5 -333t-337.5 -123q-80 0 -145 24.5t-109.5 67t-75 102t-44 127t-13.5 144.5zM203 262q0 -54 9.5 -100t31 -87t61 -65t94.5 -24q105 0 218 101t210 267q-5 3 -13.5 9.5t-33 29t-48 49.5t-53.5 72t-54 94.5t-45 118.5t-31 143.5t-7.5 169.5t21.5 197 q-132 -166 -246 -470.5t-114 -504.5zM713 991q0 -162 49 -295t137 -215q103 198 167 426t64 350q0 123 -43 180.5t-116 57.5q-72 0 -131.5 -68.5t-93 -184t-33.5 -251.5zM793 1864q55 70 100 103.5t104 33.5q49 0 93 -19.5t81.5 -39t69.5 -19.5q29 0 59.5 19t51.5 53l61 -76 q-52 -66 -98.5 -99.5t-106.5 -33.5q-49 0 -92.5 19.5t-80.5 39t-70 19.5q-27 0 -57.5 -20.5t-53.5 -53.5z" />
<glyph unicode="&#xd6;" horiz-adv-x="1406" d="M2 281q0 156 53 349t142.5 375.5t223.5 334.5t281 216q122 148 297 148q150 0 242 -113.5t92 -312.5q0 -200 -65.5 -436.5t-182.5 -454.5q48 -10 87.5 -10.5t76 13.5t64.5 31.5t53 42t41 45.5t29 42q24 0 52.5 -20.5t35.5 -43.5q-82 -134 -225.5 -193t-280.5 -22 q-131 -210 -291.5 -333t-337.5 -123q-80 0 -145 24.5t-109.5 67t-75 102t-44 127t-13.5 144.5zM203 262q0 -54 9.5 -100t31 -87t61 -65t94.5 -24q105 0 218 101t210 267q-5 3 -13.5 9.5t-33 29t-48 49.5t-53.5 72t-54 94.5t-45 118.5t-31 143.5t-7.5 169.5t21.5 197 q-132 -166 -246 -470.5t-114 -504.5zM713 991q0 -162 49 -295t137 -215q103 198 167 426t64 350q0 123 -43 180.5t-116 57.5q-72 0 -131.5 -68.5t-93 -184t-33.5 -251.5zM791 1913q0 53 36 89t88 36q53 0 90 -36.5t37 -88.5q0 -53 -37 -90t-90 -37q-52 0 -88 37t-36 90z M1141 1913q0 53 36.5 89t88.5 36q53 0 90 -36.5t37 -88.5q0 -53 -37.5 -90t-89.5 -37t-88.5 37t-36.5 90z" />
<glyph unicode="&#xd7;" horiz-adv-x="1200" d="M59 344l367 262l-139 234l153 110l140 -233l381 270l90 -153l-381 -269q26 -45 80.5 -136t72.5 -122l-153 -108l-154 256l-366 -260z" />
<glyph unicode="&#xd8;" horiz-adv-x="1406" d="M2 281q0 156 53 349t142.5 375.5t223.5 334.5t281 216q57 69 132.5 108.5t158.5 39.5l51 127h113l-57 -141q43 -15 81 -42.5t74 -74.5t57 -123t21 -172q0 -200 -65.5 -436.5t-182.5 -454.5q48 -10 87.5 -10.5t76 13.5t64.5 31.5t53 42t41 45.5t29 42q24 0 52.5 -20.5 t35.5 -43.5q-82 -134 -225.5 -193t-280.5 -22q-92 -145 -191.5 -247t-225.5 -160.5t-257 -46.5l-70 -172h-112l80 194q-106 40 -173 152t-67 289zM203 262q0 -54 9.5 -100t31 -87t61 -65t94.5 -24q105 0 218.5 101t211.5 267q-5 3 -13.5 9.5t-33.5 29t-48.5 49.5t-53.5 72 t-54.5 94.5t-45.5 118.5t-31 143.5t-7.5 169.5t21.5 197q-132 -166 -246 -470.5t-114 -504.5zM713 991q0 -162 49 -295t137 -215q103 198 167 426t64 350q0 123 -43 180.5t-116 57.5q-72 0 -131.5 -68.5t-93 -184t-33.5 -251.5z" />
<glyph unicode="&#xd9;" horiz-adv-x="1675" d="M0 793q0 75 25.5 141.5t66.5 116t102.5 95t124 77.5t141.5 65t144 56t142 51.5t126 50.5q54 78 125.5 125t151.5 47l39 -129q-4 -1 -11.5 -4.5t-30 -19t-43.5 -37t-47.5 -61.5t-47.5 -89l-357 -883q-92 -227 -17 -274q15 -10 36 -10q62 0 140.5 55t151 139t133 170.5 t99.5 161.5l342 850h215l-453 -1131q-88 -231 5 -231q78 0 183.5 117t217.5 309q24 0 52.5 -20.5t35.5 -43.5q-63 -110 -124 -196.5t-131 -161.5t-145 -115.5t-149 -40.5q-42 0 -76.5 13.5t-62.5 41t-40.5 76.5t-6.5 115q-241 -297 -443 -297q-42 0 -78 12.5t-68.5 38.5 t-50.5 71.5t-22 106.5t16 149t64 194l297 735q-36 -15 -114 -44.5t-133 -50.5t-125 -58t-114 -73t-75 -89t-31 -113q0 -78 45.5 -128t118.5 -50v-179q-155 0 -250.5 103t-93.5 246zM1130 1980h240l240 -280h-156z" />
<glyph unicode="&#xda;" horiz-adv-x="1675" d="M0 793q0 75 25.5 141.5t66.5 116t102.5 95t124 77.5t141.5 65t144 56t142 51.5t126 50.5q54 78 125.5 125t151.5 47l39 -129q-4 -1 -11.5 -4.5t-30 -19t-43.5 -37t-47.5 -61.5t-47.5 -89l-357 -883q-92 -227 -17 -274q15 -10 36 -10q62 0 140.5 55t151 139t133 170.5 t99.5 161.5l342 850h215l-453 -1131q-88 -231 5 -231q78 0 183.5 117t217.5 309q24 0 52.5 -20.5t35.5 -43.5q-63 -110 -124 -196.5t-131 -161.5t-145 -115.5t-149 -40.5q-42 0 -76.5 13.5t-62.5 41t-40.5 76.5t-6.5 115q-241 -297 -443 -297q-42 0 -78 12.5t-68.5 38.5 t-50.5 71.5t-22 106.5t16 149t64 194l297 735q-36 -15 -114 -44.5t-133 -50.5t-125 -58t-114 -73t-75 -89t-31 -113q0 -78 45.5 -128t118.5 -50v-179q-155 0 -250.5 103t-93.5 246zM1303 1700l239 280h240l-324 -280h-155z" />
<glyph unicode="&#xdb;" horiz-adv-x="1675" d="M0 793q0 75 25.5 141.5t66.5 116t102.5 95t124 77.5t141.5 65t144 56t142 51.5t126 50.5q54 78 125.5 125t151.5 47l39 -129q-4 -1 -11.5 -4.5t-30 -19t-43.5 -37t-47.5 -61.5t-47.5 -89l-357 -883q-92 -227 -17 -274q15 -10 36 -10q62 0 140.5 55t151 139t133 170.5 t99.5 161.5l342 850h215l-453 -1131q-88 -231 5 -231q78 0 183.5 117t217.5 309q24 0 52.5 -20.5t35.5 -43.5q-63 -110 -124 -196.5t-131 -161.5t-145 -115.5t-149 -40.5q-42 0 -76.5 13.5t-62.5 41t-40.5 76.5t-6.5 115q-241 -297 -443 -297q-42 0 -78 12.5t-68.5 38.5 t-50.5 71.5t-22 106.5t16 149t64 194l297 735q-36 -15 -114 -44.5t-133 -50.5t-125 -58t-114 -73t-75 -89t-31 -113q0 -78 45.5 -128t118.5 -50v-179q-155 0 -250.5 103t-93.5 246zM1077 1700l416 325h98l158 -325h-133l-109 184l-247 -184h-183z" />
<glyph unicode="&#xdc;" horiz-adv-x="1675" d="M0 793q0 75 25.5 141.5t66.5 116t102.5 95t124 77.5t141.5 65t144 56t142 51.5t126 50.5q54 78 125.5 125t151.5 47l39 -129q-4 -1 -11.5 -4.5t-30 -19t-43.5 -37t-47.5 -61.5t-47.5 -89l-357 -883q-92 -227 -17 -274q15 -10 36 -10q62 0 140.5 55t151 139t133 170.5 t99.5 161.5l342 850h215l-453 -1131q-88 -231 5 -231q78 0 183.5 117t217.5 309q24 0 52.5 -20.5t35.5 -43.5q-63 -110 -124 -196.5t-131 -161.5t-145 -115.5t-149 -40.5q-42 0 -76.5 13.5t-62.5 41t-40.5 76.5t-6.5 115q-241 -297 -443 -297q-42 0 -78 12.5t-68.5 38.5 t-50.5 71.5t-22 106.5t16 149t64 194l297 735q-36 -15 -114 -44.5t-133 -50.5t-125 -58t-114 -73t-75 -89t-31 -113q0 -78 45.5 -128t118.5 -50v-179q-155 0 -250.5 103t-93.5 246zM1133 1827q0 53 36 89t88 36q53 0 90 -36.5t37 -88.5q0 -53 -37 -90t-90 -37q-52 0 -88 37 t-36 90zM1483 1827q0 53 36.5 89t88.5 36q53 0 90 -36.5t37 -88.5q0 -53 -37.5 -90t-89.5 -37t-88.5 37t-36.5 90z" />
<glyph unicode="&#xdd;" horiz-adv-x="1615" d="M-2 793q0 76 25.5 142t67 116t103.5 95.5t125.5 78t142 65t144.5 55.5t142.5 52t125.5 51q52 76 124.5 123t152.5 47l39 -129q-4 -1 -12 -4.5t-30.5 -19t-43.5 -37t-48 -61.5t-48 -89l-355 -883q-29 -71 -41 -125t-11 -83.5t12 -47.5t23.5 -23t27.5 -5q62 0 143 55 t155 137t136.5 171.5t97.5 162.5l342 850h215l-565 -1405q144 81 260.5 204t196.5 265q24 0 52.5 -20.5t35.5 -43.5q-81 -141 -190 -258.5t-211.5 -190.5t-213.5 -126q-73 -188 -102 -245q-99 -201 -232 -253q-51 -20 -110 -20q-104 0 -161.5 60t-51.5 155q10 150 231 252 q16 8 102 43.5t134 60.5l82 203q-102 -113 -208.5 -179.5t-199.5 -66.5q-46 0 -86 17t-72 59t-43.5 105t6.5 164t70 227l297 735q-33 -14 -98 -37.5t-113 -42t-110.5 -46.5t-107 -57.5t-85 -66.5t-61.5 -82.5t-21 -97.5q0 -77 45.5 -126.5t118.5 -49.5v-179 q-155 0 -250.5 103t-93.5 246zM586 -403q0 -25 18.5 -38.5t40.5 -13.5q50 0 106 63t113 199q-140 -62 -178 -83q-41 -24 -70.5 -57.5t-29.5 -69.5zM1303 1702l239 280h240l-324 -280h-155z" />
<glyph unicode="&#xde;" horiz-adv-x="1466" d="M16 762q0 107 35 213.5t103.5 199.5t161.5 165t218 113.5t263 41.5q47 108 134 180t189 72l39 -129q-3 -1 -9.5 -4t-24.5 -15t-36 -27.5t-41 -43.5t-42 -62q204 -58 326 -215t122 -360q0 -157 -71 -302.5t-195 -239.5t-292.5 -115t-363.5 71l-133 -332h-215l543 1350 q-117 -11 -220 -67.5t-170 -136.5t-105.5 -172t-38.5 -177q0 -46 12.5 -94t24.5 -73l12 -25l-146 -109q-3 5 -8.5 14t-19.5 39t-24.5 62t-19 80.5t-8.5 97.5zM588 442q194 -86 342 -32t235.5 188t87.5 285q0 144 -84 262.5t-233 161.5z" />
<glyph unicode="&#xdf;" horiz-adv-x="1009" d="M-270 -184l403 999q31 76 57 134.5t64.5 132t75 128t85 109.5t98.5 90.5t111.5 57.5t127.5 22q119 0 179 -60t60 -165q0 -148 -95 -288.5t-216 -201.5q70 -43 110.5 -115.5t40.5 -169.5q0 -64 -19.5 -132.5t-34.5 -98.5t-25 -45q164 124 286 338q24 0 52.5 -20.5 t35.5 -43.5q-60 -105 -138 -195.5t-171.5 -163t-205.5 -114t-228 -41.5q-52 0 -97.5 13t-73.5 31.5t-48 37.5t-28 32l-9 13l76 62q5 -6 15 -16t44 -26t70 -16q67 0 125.5 38t96 96.5t58.5 123.5t21 123q0 93 -54 153t-165 60l53 131q74 19 139.5 70.5t107 115t65.5 127.5 t24 113q0 72 -68 72q-179 0 -368 -471l-420 -1040h-217z" />
<glyph unicode="&#xe0;" horiz-adv-x="1062" d="M-45 203q0 57 16.5 142t46 185t77.5 199t105.5 179.5t135 131t160.5 50.5q48 0 86.5 -17t59 -41.5t34.5 -49t18 -41.5l4 -17l273 139l-279 -690q-24 -61 -37.5 -107.5t-16 -75.5t4 -47t17.5 -25t28 -7q73 0 182.5 124.5t221.5 315.5q24 0 52.5 -20.5t35.5 -43.5 q-65 -112 -125 -197.5t-130 -160.5t-146 -115.5t-152 -40.5q-52 0 -90.5 17t-56 41t-28 48t-11.5 41l-1 17q-5 -7 -14 -18t-39 -39t-62 -50t-79.5 -39.5t-93.5 -17.5q-95 0 -146 64.5t-51 165.5zM160 236q0 -84 67 -84q34 0 70.5 19.5t65 47t52 55t35.5 46.5l13 20l170 420 q0 6 -0.5 16t-6 35t-15 44.5t-30 35.5t-49.5 16q-55 0 -112.5 -54t-102.5 -136t-81.5 -174.5t-56 -175t-19.5 -131.5zM408 1468h239l240 -280h-156z" />
<glyph unicode="&#xe1;" horiz-adv-x="1062" d="M-45 203q0 57 16.5 142t46 185t77.5 199t105.5 179.5t135 131t160.5 50.5q48 0 86.5 -17t59 -41.5t34.5 -49t18 -41.5l4 -17l273 139l-279 -690q-24 -61 -37.5 -107.5t-16 -75.5t4 -47t17.5 -25t28 -7q73 0 182.5 124.5t221.5 315.5q24 0 52.5 -20.5t35.5 -43.5 q-65 -112 -125 -197.5t-130 -160.5t-146 -115.5t-152 -40.5q-52 0 -90.5 17t-56 41t-28 48t-11.5 41l-1 17q-5 -7 -14 -18t-39 -39t-62 -50t-79.5 -39.5t-93.5 -17.5q-95 0 -146 64.5t-51 165.5zM160 236q0 -84 67 -84q34 0 70.5 19.5t65 47t52 55t35.5 46.5l13 20l170 420 q0 6 -0.5 16t-6 35t-15 44.5t-30 35.5t-49.5 16q-55 0 -112.5 -54t-102.5 -136t-81.5 -174.5t-56 -175t-19.5 -131.5zM485 1188l240 280h240l-324 -280h-156z" />
<glyph unicode="&#xe2;" horiz-adv-x="1062" d="M-45 203q0 57 16.5 142t46 185t77.5 199t105.5 179.5t135 131t160.5 50.5q48 0 86.5 -17t59 -41.5t34.5 -49t18 -41.5l4 -17l273 139l-279 -690q-24 -61 -37.5 -107.5t-16 -75.5t4 -47t17.5 -25t28 -7q73 0 182.5 124.5t221.5 315.5q24 0 52.5 -20.5t35.5 -43.5 q-65 -112 -125 -197.5t-130 -160.5t-146 -115.5t-152 -40.5q-52 0 -90.5 17t-56 41t-28 48t-11.5 41l-1 17q-5 -7 -14 -18t-39 -39t-62 -50t-79.5 -39.5t-93.5 -17.5q-95 0 -146 64.5t-51 165.5zM160 236q0 -84 67 -84q34 0 70.5 19.5t65 47t52 55t35.5 46.5l13 20l170 420 q0 6 -0.5 16t-6 35t-15 44.5t-30 35.5t-49.5 16q-55 0 -112.5 -54t-102.5 -136t-81.5 -174.5t-56 -175t-19.5 -131.5zM322 1165l415 326h99l157 -326h-133l-108 185l-248 -185h-182z" />
<glyph unicode="&#xe3;" horiz-adv-x="1062" d="M-45 203q0 57 16.5 142t46 185t77.5 199t105.5 179.5t135 131t160.5 50.5q48 0 86.5 -17t59 -41.5t34.5 -49t18 -41.5l4 -17l273 139l-279 -690q-24 -61 -37.5 -107.5t-16 -75.5t4 -47t17.5 -25t28 -7q73 0 182.5 124.5t221.5 315.5q24 0 52.5 -20.5t35.5 -43.5 q-65 -112 -125 -197.5t-130 -160.5t-146 -115.5t-152 -40.5q-52 0 -90.5 17t-56 41t-28 48t-11.5 41l-1 17q-5 -7 -14 -18t-39 -39t-62 -50t-79.5 -39.5t-93.5 -17.5q-95 0 -146 64.5t-51 165.5zM160 236q0 -84 67 -84q34 0 70.5 19.5t65 47t52 55t35.5 46.5l13 20l170 420 q0 6 -0.5 16t-6 35t-15 44.5t-30 35.5t-49.5 16q-55 0 -112.5 -54t-102.5 -136t-81.5 -174.5t-56 -175t-19.5 -131.5zM426 1305q55 69 100.5 103t104.5 34q49 0 93 -19.5t81 -39t69 -19.5q29 0 59.5 19t51.5 53l62 -76q-52 -66 -98.5 -99.5t-106.5 -33.5q-49 0 -92.5 19.5 t-81 39t-70.5 19.5q-27 0 -57.5 -20.5t-53.5 -53.5z" />
<glyph unicode="&#xe4;" horiz-adv-x="1062" d="M-45 203q0 57 16.5 142t46 185t77.5 199t105.5 179.5t135 131t160.5 50.5q48 0 86.5 -17t59 -41.5t34.5 -49t18 -41.5l4 -17l273 139l-279 -690q-24 -61 -37.5 -107.5t-16 -75.5t4 -47t17.5 -25t28 -7q73 0 182.5 124.5t221.5 315.5q24 0 52.5 -20.5t35.5 -43.5 q-65 -112 -125 -197.5t-130 -160.5t-146 -115.5t-152 -40.5q-52 0 -90.5 17t-56 41t-28 48t-11.5 41l-1 17q-5 -7 -14 -18t-39 -39t-62 -50t-79.5 -39.5t-93.5 -17.5q-95 0 -146 64.5t-51 165.5zM160 236q0 -84 67 -84q34 0 70.5 19.5t65 47t52 55t35.5 46.5l13 20l170 420 q0 6 -0.5 16t-6 35t-15 44.5t-30 35.5t-49.5 16q-55 0 -112.5 -54t-102.5 -136t-81.5 -174.5t-56 -175t-19.5 -131.5zM422 1335q0 53 36 89t89 36t90 -36.5t37 -88.5q0 -53 -37 -90t-90 -37q-52 0 -88.5 37t-36.5 90zM772 1335q0 53 36 89t89 36t90 -36.5t37 -88.5 q0 -53 -37 -90t-90 -37q-52 0 -88.5 37t-36.5 90z" />
<glyph unicode="&#xe5;" horiz-adv-x="1062" d="M-45 203q0 57 16.5 142t46 185t77.5 199t105.5 179.5t135 131t160.5 50.5q48 0 86.5 -17t59 -41.5t34.5 -49t18 -41.5l4 -17l273 139l-279 -690q-24 -61 -37.5 -107.5t-16 -75.5t4 -47t17.5 -25t28 -7q73 0 182.5 124.5t221.5 315.5q24 0 52.5 -20.5t35.5 -43.5 q-65 -112 -125 -197.5t-130 -160.5t-146 -115.5t-152 -40.5q-52 0 -90.5 17t-56 41t-28 48t-11.5 41l-1 17q-5 -7 -14 -18t-39 -39t-62 -50t-79.5 -39.5t-93.5 -17.5q-95 0 -146 64.5t-51 165.5zM160 236q0 -84 67 -84q34 0 70.5 19.5t65 47t52 55t35.5 46.5l13 20l170 420 q0 6 -0.5 16t-6 35t-15 44.5t-30 35.5t-49.5 16q-55 0 -112.5 -54t-102.5 -136t-81.5 -174.5t-56 -175t-19.5 -131.5zM526 1389q0 94 67 160.5t161 66.5q95 0 162 -66.5t67 -160.5q0 -95 -67 -162.5t-162 -67.5q-94 0 -161 67.5t-67 162.5zM649 1389q0 -44 31 -75.5 t74 -31.5q44 0 75 31.5t31 75.5q0 43 -31 73.5t-75 30.5q-43 0 -74 -30.5t-31 -73.5z" />
<glyph unicode="&#xe6;" horiz-adv-x="1409" d="M-45 203q0 57 16.5 142t46 185t77.5 199t105.5 179.5t135 131t160.5 50.5q48 0 86.5 -17t59 -41.5t34.5 -49t18 -41.5l4 -17l154 77q117 89 240 89q101 0 163.5 -54.5t70 -148.5t-49.5 -219q-77 -161 -208 -216t-337 -32q-2 -6 -6 -17.5t-11 -43.5t-9.5 -61t3.5 -65 t22 -61.5t52.5 -43t89.5 -17.5q146 0 297 120t269 320q24 0 52.5 -20.5t35.5 -43.5q-58 -101 -124.5 -185.5t-154 -162t-196.5 -122t-226 -44.5q-128 0 -210 56.5t-103 177.5q-58 -76 -99 -115q-126 -119 -261 -119q-95 0 -146 64.5t-51 165.5zM160 236q0 -84 67 -84 q34 0 70.5 19.5t65 47t52 55t35.5 46.5l13 20l170 420q0 6 -0.5 16t-6 35t-15 44.5t-30 35.5t-49.5 16q-55 0 -112.5 -54t-102.5 -136t-81.5 -174.5t-56 -175t-19.5 -131.5zM768 537q51 -6 89 -6.5t71.5 13.5t57.5 29.5t45.5 42.5t35.5 51t29 56q88 190 -19 190 q-50 0 -100 -38.5t-86 -94t-65 -111t-44 -93.5z" />
<glyph unicode="&#xe7;" horiz-adv-x="878" d="M-31 -414l66 101q19 -11 52 -14t66.5 2t58 25.5t24.5 53.5q0 39 -32.5 52t-92.5 8l90 168q-111 22 -168.5 97.5t-57.5 201.5q0 89 27.5 197t80.5 215.5t122 196.5t161.5 144.5t190.5 55.5q109 0 171.5 -59t63.5 -163.5t-71 -246.5h-213q108 222 86 271q-10 21 -45 21 q-71 0 -143.5 -78.5t-122 -186t-80.5 -213.5t-31 -167q0 -73 49 -115t127 -42q137 0 290.5 122t268.5 318q24 0 52.5 -20.5t35.5 -43.5q-46 -79 -95 -147t-116 -137t-138 -117.5t-160 -79.5t-183 -33l-43 -84q48 0 81.5 -32.5t33.5 -94.5q0 -69 -42.5 -117.5t-104.5 -67 t-132 -17t-127 25.5z" />
<glyph unicode="&#xe8;" horiz-adv-x="878" d="M-25 283q0 89 27.5 197t80.5 215t122.5 195.5t163 144t192.5 55.5q101 0 163.5 -54.5t70 -148.5t-49.5 -219q-77 -161 -207.5 -216t-336.5 -32q-2 -6 -6 -17.5t-11 -43.5t-9.5 -61t3.5 -65t22 -61.5t52.5 -43t89.5 -17.5q146 0 296 120t269 320q24 0 52.5 -20.5 t35.5 -43.5q-46 -79 -95.5 -148.5t-117 -138.5t-140 -117.5t-162.5 -79t-185 -30.5q-156 0 -238 79t-82 231zM238 537q51 -6 89 -6.5t71.5 13.5t57 29.5t45 42.5t35.5 51t29 56q30 65 38 107.5t-6 62.5t-50 20q-50 0 -100 -38.5t-86 -94t-65 -111t-44 -93.5zM285 1468h239 l240 -280h-156z" />
<glyph unicode="&#xe9;" horiz-adv-x="878" d="M-25 283q0 89 27.5 197t80.5 215t122.5 195.5t163 144t192.5 55.5q101 0 163.5 -54.5t70 -148.5t-49.5 -219q-77 -161 -207.5 -216t-336.5 -32q-2 -6 -6 -17.5t-11 -43.5t-9.5 -61t3.5 -65t22 -61.5t52.5 -43t89.5 -17.5q146 0 296 120t269 320q24 0 52.5 -20.5 t35.5 -43.5q-46 -79 -95.5 -148.5t-117 -138.5t-140 -117.5t-162.5 -79t-185 -30.5q-156 0 -238 79t-82 231zM238 537q51 -6 89 -6.5t71.5 13.5t57 29.5t45 42.5t35.5 51t29 56q30 65 38 107.5t-6 62.5t-50 20q-50 0 -100 -38.5t-86 -94t-65 -111t-44 -93.5zM449 1188 l239 280h240l-324 -280h-155z" />
<glyph unicode="&#xea;" horiz-adv-x="878" d="M-25 283q0 89 27.5 197t80.5 215t122.5 195.5t163 144t192.5 55.5q101 0 163.5 -54.5t70 -148.5t-49.5 -219q-77 -161 -207.5 -216t-336.5 -32q-2 -6 -6 -17.5t-11 -43.5t-9.5 -61t3.5 -65t22 -61.5t52.5 -43t89.5 -17.5q146 0 296 120t269 320q24 0 52.5 -20.5 t35.5 -43.5q-46 -79 -95.5 -148.5t-117 -138.5t-140 -117.5t-162.5 -79t-185 -30.5q-156 0 -238 79t-82 231zM238 537q51 -6 89 -6.5t71.5 13.5t57 29.5t45 42.5t35.5 51t29 56q30 65 38 107.5t-6 62.5t-50 20q-50 0 -100 -38.5t-86 -94t-65 -111t-44 -93.5zM258 1165 l416 326h98l158 -326h-133l-109 185l-248 -185h-182z" />
<glyph unicode="&#xeb;" horiz-adv-x="878" d="M-25 283q0 89 27.5 197t80.5 215t122.5 195.5t163 144t192.5 55.5q101 0 163.5 -54.5t70 -148.5t-49.5 -219q-77 -161 -207.5 -216t-336.5 -32q-2 -6 -6 -17.5t-11 -43.5t-9.5 -61t3.5 -65t22 -61.5t52.5 -43t89.5 -17.5q146 0 296 120t269 320q24 0 52.5 -20.5 t35.5 -43.5q-46 -79 -95.5 -148.5t-117 -138.5t-140 -117.5t-162.5 -79t-185 -30.5q-156 0 -238 79t-82 231zM238 537q51 -6 89 -6.5t71.5 13.5t57 29.5t45 42.5t35.5 51t29 56q30 65 38 107.5t-6 62.5t-50 20q-50 0 -100 -38.5t-86 -94t-65 -111t-44 -93.5zM342 1335 q0 53 36 89t89 36t90 -36.5t37 -88.5q0 -53 -37 -90t-90 -37q-52 0 -88.5 37t-36.5 90zM692 1335q0 53 36 89t89 36t90 -36.5t37 -88.5q0 -53 -37 -90t-90 -37q-52 0 -88.5 37t-36.5 90z" />
<glyph unicode="&#xec;" horiz-adv-x="540" d="M-79 229.5q14 95.5 67 225.5l245 608h216l-279 -690q-28 -69 -41 -120t-13.5 -77.5t8.5 -42t18.5 -19t21.5 -3.5q74 0 183.5 124t221.5 316q24 0 52.5 -20.5t35.5 -43.5q-66 -115 -127.5 -202t-131.5 -160.5t-144 -112.5t-148 -39q-67 0 -111 25.5t-66 80.5t-8 150.5z M31 1468h239l240 -280h-156z" />
<glyph unicode="&#xed;" horiz-adv-x="540" d="M-79 229.5q14 95.5 67 225.5l245 608h216l-279 -690q-28 -69 -41 -120t-13.5 -77.5t8.5 -42t18.5 -19t21.5 -3.5q74 0 183.5 124t221.5 316q24 0 52.5 -20.5t35.5 -43.5q-66 -115 -127.5 -202t-131.5 -160.5t-144 -112.5t-148 -39q-67 0 -111 25.5t-66 80.5t-8 150.5z M283 1188l239 280h240l-324 -280h-155z" />
<glyph unicode="&#xee;" horiz-adv-x="540" d="M-79 229.5q14 95.5 67 225.5l245 608h216l-279 -690q-28 -69 -41 -120t-13.5 -77.5t8.5 -42t18.5 -19t21.5 -3.5q74 0 183.5 124t221.5 316q24 0 52.5 -20.5t35.5 -43.5q-66 -115 -127.5 -202t-131.5 -160.5t-144 -112.5t-148 -39q-67 0 -111 25.5t-66 80.5t-8 150.5z M31 1165l415 326h99l157 -326h-133l-108 185l-248 -185h-182z" />
<glyph unicode="&#xef;" horiz-adv-x="540" d="M-79 229.5q14 95.5 67 225.5l245 608h216l-279 -690q-28 -69 -41 -120t-13.5 -77.5t8.5 -42t18.5 -19t21.5 -3.5q74 0 183.5 124t221.5 316q24 0 52.5 -20.5t35.5 -43.5q-66 -115 -127.5 -202t-131.5 -160.5t-144 -112.5t-148 -39q-67 0 -111 25.5t-66 80.5t-8 150.5z M119 1335q0 53 36.5 89t88.5 36q53 0 90 -36.5t37 -88.5q0 -53 -37.5 -90t-89.5 -37t-88.5 37t-36.5 90zM469 1335q0 53 36.5 89t88.5 36q53 0 90 -36.5t37 -88.5q0 -53 -37.5 -90t-89.5 -37t-88.5 37t-36.5 90z" />
<glyph unicode="&#xf0;" horiz-adv-x="882" d="M-27 252q0 92 23.5 195.5t71 204t111.5 181.5t152.5 131t186.5 50q38 0 67.5 -10t39.5 -20l10 -9q0 69 -15.5 127t-37.5 91.5t-44 56.5t-38 32l-15 8l-100 -149l-92 61l90 133q-7 3 -20.5 6t-61.5 7t-106 -5l-27 140q86 12 154 8.5t110 -14.5l41 -11l84 123l92 -61 l-74 -109q5 -2 14.5 -7t36 -25t50.5 -45t53.5 -69.5t50 -97t34 -129t11.5 -163.5q-2 -101 -21 -206.5t-53 -207.5t-85.5 -191.5t-113.5 -157.5t-141.5 -107.5t-166.5 -39.5q-125 0 -198 75.5t-73 203.5zM166 240q0 -61 24 -91t66 -30q52 0 106 47.5t96 120.5t76 157t52 162 t18 129q0 67 -24.5 101t-67.5 34q-65 0 -131 -73.5t-111.5 -176t-74.5 -207.5t-29 -173z" />
<glyph unicode="&#xf1;" horiz-adv-x="1028" d="M-195 0l428 1063l173 -107q145 134 284 134q69 0 114.5 -41.5t45.5 -116.5q0 -80 -68 -252l-125 -307q-28 -69 -41 -120t-13.5 -77.5t8.5 -42t18.5 -19t21.5 -3.5q74 0 184 124t222 316q24 0 52.5 -20.5t35.5 -43.5q-66 -115 -127.5 -202t-131.5 -160.5t-144 -112.5 t-148 -39q-67 0 -111 25.5t-66.5 80.5t-8.5 150.5t67 225.5l82 202q72 179 72 209q0 21 -16 33t-42 12q-45 0 -112 -39t-131 -110l-308 -762h-215zM279 1305q55 70 100 103.5t104 33.5q49 0 93 -19.5t81.5 -39t69.5 -19.5q29 0 59.5 19t51.5 53l61 -76q-52 -66 -98.5 -99.5 t-106.5 -33.5q-49 0 -92.5 19.5t-80.5 39t-70 19.5q-27 0 -57.5 -20.5t-53.5 -53.5z" />
<glyph unicode="&#xf2;" d="M-27 264q0 67 17.5 153t50 178.5t84 180.5t114 158.5t145.5 113t173 42.5q120 0 193 -73.5t73 -215.5q0 -99 -36.5 -233t-100.5 -255q85 -18 175.5 41t172.5 197q24 0 52.5 -20.5t35.5 -43.5q-97 -169 -228.5 -249.5t-281.5 -42.5q-162 -222 -370 -222q-120 0 -194.5 74 t-74.5 217zM164 244q0 -58 24.5 -91.5t65.5 -33.5q90 0 190 160q-36 36 -36 90q0 58 42.5 96t100.5 29q82 209 82 329q0 61 -23 91t-61 30q-64 0 -135.5 -82.5t-125 -196t-89 -231.5t-35.5 -190zM346 1468h240l239 -280h-155z" />
<glyph unicode="&#xf3;" d="M-27 264q0 67 17.5 153t50 178.5t84 180.5t114 158.5t145.5 113t173 42.5q120 0 193 -73.5t73 -215.5q0 -99 -36.5 -233t-100.5 -255q85 -18 175.5 41t172.5 197q24 0 52.5 -20.5t35.5 -43.5q-97 -169 -228.5 -249.5t-281.5 -42.5q-162 -222 -370 -222q-120 0 -194.5 74 t-74.5 217zM164 244q0 -58 24.5 -91.5t65.5 -33.5q90 0 190 160q-36 36 -36 90q0 58 42.5 96t100.5 29q82 209 82 329q0 61 -23 91t-61 30q-64 0 -135.5 -82.5t-125 -196t-89 -231.5t-35.5 -190zM496 1188l239 280h240l-324 -280h-155z" />
<glyph unicode="&#xf4;" d="M-27 264q0 67 17.5 153t50 178.5t84 180.5t114 158.5t145.5 113t173 42.5q120 0 193 -73.5t73 -215.5q0 -99 -36.5 -233t-100.5 -255q85 -18 175.5 41t172.5 197q24 0 52.5 -20.5t35.5 -43.5q-97 -169 -228.5 -249.5t-281.5 -42.5q-162 -222 -370 -222q-120 0 -194.5 74 t-74.5 217zM164 244q0 -58 24.5 -91.5t65.5 -33.5q90 0 190 160q-36 36 -36 90q0 58 42.5 96t100.5 29q82 209 82 329q0 61 -23 91t-61 30q-64 0 -135.5 -82.5t-125 -196t-89 -231.5t-35.5 -190zM256 1165l416 326h98l158 -326h-133l-109 185l-248 -185h-182z" />
<glyph unicode="&#xf5;" d="M-27 264q0 67 17.5 153t50 178.5t84 180.5t114 158.5t145.5 113t173 42.5q120 0 193 -73.5t73 -215.5q0 -99 -36.5 -233t-100.5 -255q85 -18 175.5 41t172.5 197q24 0 52.5 -20.5t35.5 -43.5q-97 -169 -228.5 -249.5t-281.5 -42.5q-162 -222 -370 -222q-120 0 -194.5 74 t-74.5 217zM164 244q0 -58 24.5 -91.5t65.5 -33.5q90 0 190 160q-36 36 -36 90q0 58 42.5 96t100.5 29q82 209 82 329q0 61 -23 91t-61 30q-64 0 -135.5 -82.5t-125 -196t-89 -231.5t-35.5 -190zM385 1305q55 69 100.5 103t104.5 34q49 0 93 -19.5t81.5 -39t69.5 -19.5 q29 0 59 19t51 53l62 -76q-52 -66 -98.5 -99.5t-106.5 -33.5q-49 0 -92.5 19.5t-81 39t-70.5 19.5q-27 0 -57.5 -20.5t-53.5 -53.5z" />
<glyph unicode="&#xf6;" d="M-27 264q0 67 17.5 153t50 178.5t84 180.5t114 158.5t145.5 113t173 42.5q120 0 193 -73.5t73 -215.5q0 -99 -36.5 -233t-100.5 -255q85 -18 175.5 41t172.5 197q24 0 52.5 -20.5t35.5 -43.5q-97 -169 -228.5 -249.5t-281.5 -42.5q-162 -222 -370 -222q-120 0 -194.5 74 t-74.5 217zM164 244q0 -58 24.5 -91.5t65.5 -33.5q90 0 190 160q-36 36 -36 90q0 58 42.5 96t100.5 29q82 209 82 329q0 61 -23 91t-61 30q-64 0 -135.5 -82.5t-125 -196t-89 -231.5t-35.5 -190zM377 1335q0 53 36.5 89t88.5 36q53 0 90 -36.5t37 -88.5q0 -53 -37.5 -90 t-89.5 -37t-88.5 37t-36.5 90zM727 1335q0 53 36.5 89t88.5 36q53 0 90 -36.5t37 -88.5q0 -53 -37.5 -90t-89.5 -37t-88.5 37t-36.5 90z" />
<glyph unicode="&#xf7;" horiz-adv-x="1198" d="M70 494l75 184h908l-76 -184h-907zM311 279q0 52 36 88t89 36t90 -36t37 -88q0 -53 -37.5 -90t-89.5 -37t-88.5 37t-36.5 90zM561 895q0 53 36.5 90t88.5 37t89.5 -37t37.5 -90q0 -52 -37 -88.5t-90 -36.5q-52 0 -88.5 36t-36.5 89z" />
<glyph unicode="&#xf8;" d="M-27 264q0 58 12.5 129.5t38.5 151.5t62 158t87 149t109.5 124.5t132.5 84.5t154 29l117 290h113l-127 -313q70 -29 110.5 -96.5t40.5 -169.5q0 -99 -36.5 -233t-100.5 -255q85 -18 175.5 41t172.5 197q24 0 52.5 -20.5t35.5 -43.5q-97 -169 -228.5 -249.5t-281.5 -42.5 q-166 -227 -381 -222l-71 -178h-113l80 199q-72 29 -113 97t-41 173zM164 244.5q-3 -65.5 24 -94.5l318 784q-43 -16 -93 -73t-92 -133.5t-79 -166t-56 -170.5t-22 -146.5zM293 125q39 10 86.5 63.5t89 129.5t79.5 166t58.5 173.5t24.5 152.5t-21 103z" />
<glyph unicode="&#xf9;" horiz-adv-x="1028" d="M-82.5 123q-7.5 53 9.5 138t61 194l245 608h216l-279 -690q-24 -60 -37.5 -104.5t-16.5 -70.5t2.5 -41.5t14.5 -20.5t23 -5q43 0 93 38t97.5 100.5t85.5 124.5t72 128l217 541h215l-279 -690q-24 -61 -37.5 -107.5t-16 -75.5t4 -47t17.5 -25t28 -7q73 0 182.5 124.5 t221.5 315.5q24 0 52.5 -20.5t35.5 -43.5q-50 -87 -97.5 -158.5t-104 -139.5t-111 -114t-116.5 -74t-122 -28q-82 0 -135 44.5t-56 134.5q-76 -85 -148 -132t-153 -47q-49 0 -86 13.5t-64 48.5t-34.5 88zM297 1468h240l239 -280h-155z" />
<glyph unicode="&#xfa;" horiz-adv-x="1028" d="M-82.5 123q-7.5 53 9.5 138t61 194l245 608h216l-279 -690q-24 -60 -37.5 -104.5t-16.5 -70.5t2.5 -41.5t14.5 -20.5t23 -5q43 0 93 38t97.5 100.5t85.5 124.5t72 128l217 541h215l-279 -690q-24 -61 -37.5 -107.5t-16 -75.5t4 -47t17.5 -25t28 -7q73 0 182.5 124.5 t221.5 315.5q24 0 52.5 -20.5t35.5 -43.5q-50 -87 -97.5 -158.5t-104 -139.5t-111 -114t-116.5 -74t-122 -28q-83 0 -135.5 44t-55.5 135q-76 -85 -148 -132t-153 -47q-49 0 -86 13.5t-64 48.5t-34.5 88zM481 1188l240 280h240l-324 -280h-156z" />
<glyph unicode="&#xfb;" horiz-adv-x="1028" d="M-82.5 123q-7.5 53 9.5 138t61 194l245 608h216l-279 -690q-24 -60 -37.5 -104.5t-16.5 -70.5t2.5 -41.5t14.5 -20.5t23 -5q43 0 93 38t97.5 100.5t85.5 124.5t72 128l217 541h215l-279 -690q-24 -61 -37.5 -107.5t-16 -75.5t4 -47t17.5 -25t28 -7q73 0 182.5 124.5 t221.5 315.5q24 0 52.5 -20.5t35.5 -43.5q-50 -87 -97.5 -158.5t-104 -139.5t-111 -114t-116.5 -74t-122 -28q-83 0 -135.5 44t-55.5 135q-76 -85 -148 -132t-153 -47q-49 0 -86 13.5t-64 48.5t-34.5 88zM268 1165l416 326h98l158 -326h-133l-109 185l-247 -185h-183z" />
<glyph unicode="&#xfc;" horiz-adv-x="1028" d="M-82.5 123q-7.5 53 9.5 138t61 194l245 608h216l-279 -690q-24 -60 -37.5 -104.5t-16.5 -70.5t2.5 -41.5t14.5 -20.5t23 -5q43 0 93 38t97.5 100.5t85.5 124.5t72 128l217 541h215l-279 -690q-24 -61 -37.5 -107.5t-16 -75.5t4 -47t17.5 -25t28 -7q73 0 182.5 124.5 t221.5 315.5q24 0 52.5 -20.5t35.5 -43.5q-50 -87 -97.5 -158.5t-104 -139.5t-111 -114t-116.5 -74t-122 -28q-83 0 -135.5 44t-55.5 135q-76 -85 -148 -132t-153 -47q-49 0 -86 13.5t-64 48.5t-34.5 88zM358 1335q0 53 36 89t89 36t90 -36.5t37 -88.5q0 -53 -37 -90 t-90 -37q-52 0 -88.5 37t-36.5 90zM709 1335q0 53 36.5 89t88.5 36q53 0 90 -36.5t37 -88.5q0 -53 -37.5 -90t-89.5 -37t-88.5 37t-36.5 90z" />
<glyph unicode="&#xfd;" horiz-adv-x="1007" d="M-188 -403q10 148 225 253q22 11 116.5 52.5t120.5 58.5l58 139q-4 -5 -11.5 -13.5t-32.5 -30.5t-51 -39t-64.5 -30.5t-76.5 -13.5q-60 0 -102 24.5t-65 77.5t-9.5 150.5t68.5 229.5l245 608h216l-279 -690q-24 -60 -37.5 -104.5t-16.5 -70.5t2.5 -41.5t14.5 -20.5t23 -5 q43 0 93 38t97.5 100.5t85.5 124.5t72 128l217 541h215l-408 -1004q156 79 280.5 195t227.5 297q24 0 52.5 -20.5t35.5 -43.5q-34 -60 -72.5 -115t-72.5 -97t-77.5 -83t-75 -69t-77.5 -59t-73 -48t-74.5 -41.5t-68 -34.5t-66.5 -32q-26 -70 -59 -146q-35 -81 -67.5 -137.5 t-79 -112t-107 -84t-134.5 -28.5q-100 0 -157 55t-51 142zM-68 -399q0 -25 17 -40t45 -14q50 2 108 62t109 194q-14 -6 -44 -17.5t-46.5 -18.5t-41 -19t-44.5 -24q-103 -65 -103 -123zM481 1188l240 280h240l-324 -280h-156z" />
<glyph unicode="&#xfe;" horiz-adv-x="976" d="M-360 -406l770 1901h211l-209 -512q4 4 10.5 11.5t29 26t46 32.5t60 25.5t73.5 11.5q89 0 137.5 -67.5t48.5 -184.5q0 -127 -57 -289.5t-129 -284t-129 -172.5q139 41 268.5 159t235.5 300q24 0 52.5 -20.5t35.5 -43.5q-61 -107 -135.5 -197.5t-164 -162.5t-196 -113 t-217.5 -41q-62 0 -114.5 13t-83 31.5t-52 37.5t-29.5 32l-8 13l80 72q29 -43 68 -43q64 0 154 133.5t153 300t63 262.5q0 86 -63 86q-51 0 -113 -47t-119 -125l-462 -1145h-215z" />
<glyph unicode="&#xff;" horiz-adv-x="1007" d="M-188 -403q10 148 225 253q22 11 116.5 52.5t120.5 58.5l58 139q-4 -5 -11.5 -13.5t-32.5 -30.5t-51 -39t-64.5 -30.5t-76.5 -13.5q-60 0 -102 24.5t-65 77.5t-9.5 150.5t68.5 229.5l245 608h216l-279 -690q-24 -60 -37.5 -104.5t-16.5 -70.5t2.5 -41.5t14.5 -20.5t23 -5 q43 0 93 38t97.5 100.5t85.5 124.5t72 128l217 541h215l-408 -1004q156 79 280.5 195t227.5 297q24 0 52.5 -20.5t35.5 -43.5q-34 -60 -72.5 -115t-72.5 -97t-77.5 -83t-75 -69t-77.5 -59t-73 -48t-74.5 -41.5t-68 -34.5t-66.5 -32q-26 -70 -59 -146q-35 -81 -67.5 -137.5 t-79 -112t-107 -84t-134.5 -28.5q-100 0 -157 55t-51 142zM-68 -399q0 -25 17 -40t45 -14q50 2 108 62t109 194q-14 -6 -44 -17.5t-46.5 -18.5t-41 -19t-44.5 -24q-103 -65 -103 -123zM358 1335q0 53 36 89t89 36t90 -36.5t37 -88.5q0 -53 -37 -90t-90 -37q-52 0 -88.5 37 t-36.5 90zM709 1335q0 53 36.5 89t88.5 36q53 0 90 -36.5t37 -88.5q0 -53 -37.5 -90t-89.5 -37t-88.5 37t-36.5 90z" />
<glyph unicode="&#x152;" horiz-adv-x="2187" d="M2 281q0 156 53 349t142.5 375.5t223.5 334.5t281 216q122 148 297 148q150 0 242 -113.5t92 -312.5q0 -181 -47 -365q109 43 252 31q-35 84 -35 193q0 160 92 303q-50 162 -32 350l137 -21q-12 -107 6 -202q150 127 348 127q90 0 162 -28.5t114.5 -75t64 -100 t20.5 -108.5q-2 -132 -100 -229.5t-261 -97.5q-106 0 -196.5 48t-149.5 134q-18 -77 -14 -151.5t39.5 -144t95.5 -112.5l-94 -147q-4 3 -11.5 9t-32 20.5t-51 25.5t-67.5 20t-82 9q-157 0 -260 -113.5t-103 -273.5q0 -156 100 -265.5t261 -109.5q84 0 155.5 31t117 82 t74.5 117t28.5 136t-21.5 138l182 51q34 -126 26 -237t-57.5 -204t-125 -160t-177 -104.5t-212.5 -37.5q-182 0 -323.5 101t-199.5 263q-267 -364 -567 -364q-80 0 -145 24.5t-109.5 67t-75 102t-44 127t-13.5 144.5zM203 262q0 -54 9.5 -100t31 -87t61 -65t94.5 -24 q105 0 218 101t210 267q-5 3 -13.5 9.5t-33 29t-48 49.5t-53.5 72t-54 94.5t-45 118.5t-31 143.5t-7.5 169.5t21.5 197q-132 -166 -246 -470.5t-114 -504.5zM713 991q0 -161 49 -294.5t137 -215.5q103 198 167 426t64 350q0 123 -43 180.5t-116 57.5q-72 0 -131.5 -68.5 t-93 -184t-33.5 -251.5zM1778 1376q47 -76 117.5 -121t148.5 -45q88 0 137 49t49 103q0 53 -47.5 97t-142.5 44q-161 0 -262 -127z" />
<glyph unicode="&#x153;" horiz-adv-x="1431" d="M-27 264q0 67 17.5 153t50 178.5t84 180.5t114 158.5t145.5 113t173 42.5q85 0 148.5 -39t93.5 -115q151 154 315 154q101 0 163.5 -54.5t70 -148.5t-49.5 -219q-77 -161 -207.5 -216t-336.5 -32q-2 -6 -6 -17.5t-11 -43.5t-9.5 -61t3.5 -65t22 -61.5t52.5 -43 t89.5 -17.5q146 0 296 120t269 320q24 0 52.5 -20.5t35.5 -43.5q-46 -79 -95.5 -148.5t-117 -138.5t-140 -117.5t-162.5 -79t-185 -30.5q-223 0 -291 154q-144 -154 -315 -154q-120 0 -194.5 74t-74.5 217zM164 244q0 -58 24.5 -91.5t65.5 -33.5q64 0 134.5 82t123 196 t87 233t34.5 193q0 61 -23 91t-61 30q-64 0 -135.5 -82.5t-125 -196t-89 -231.5t-35.5 -190zM791 537q51 -6 89 -6.5t71.5 13.5t57 29.5t45 42.5t35.5 51t29 56q30 65 38 107.5t-6 62.5t-50 20q-50 0 -100 -38.5t-86 -94t-65 -111t-43 -93.5z" />
<glyph unicode="&#x178;" horiz-adv-x="1615" d="M-2 793q0 76 25.5 142t67 116t103.5 95.5t125.5 78t142 65t144.5 55.5t142.5 52t125.5 51q52 76 124.5 123t152.5 47l39 -129q-4 -1 -12 -4.5t-30.5 -19t-43.5 -37t-48 -61.5t-48 -89l-355 -883q-29 -71 -41 -125t-11 -83.5t12 -47.5t23.5 -23t27.5 -5q62 0 143 55 t155 137t136.5 171.5t97.5 162.5l342 850h215l-565 -1405q144 81 260.5 204t196.5 265q24 0 52.5 -20.5t35.5 -43.5q-81 -141 -190 -258.5t-211.5 -190.5t-213.5 -126q-73 -188 -102 -245q-99 -201 -232 -253q-51 -20 -110 -20q-104 0 -161.5 60t-51.5 155q10 150 231 252 q16 8 102 43.5t134 60.5l82 203q-102 -113 -208.5 -179.5t-199.5 -66.5q-46 0 -86 17t-72 59t-43.5 105t6.5 164t70 227l297 735q-33 -14 -98 -37.5t-113 -42t-110.5 -46.5t-107 -57.5t-85 -66.5t-61.5 -82.5t-21 -97.5q0 -77 45.5 -126.5t118.5 -49.5v-179 q-155 0 -250.5 103t-93.5 246zM586 -403q0 -25 18.5 -38.5t40.5 -13.5q50 0 106 63t113 199q-140 -62 -178 -83q-41 -24 -70.5 -57.5t-29.5 -69.5zM1133 1827q0 53 36 89t88 36q53 0 90 -36.5t37 -88.5q0 -53 -37 -90t-90 -37q-52 0 -88 37t-36 90zM1483 1827q0 53 36.5 89 t88.5 36q53 0 90 -36.5t37 -88.5q0 -53 -37.5 -90t-89.5 -37t-88.5 37t-36.5 90z" />
<glyph unicode="&#x2c6;" horiz-adv-x="757" d="M49 1165l416 326h98l158 -326h-133l-109 185l-248 -185h-182z" />
<glyph unicode="&#x2dc;" horiz-adv-x="757" d="M143 1305q55 69 100.5 103t104.5 34q49 0 93 -19.5t81.5 -39t69.5 -19.5q29 0 59 19t51 53l62 -76q-52 -66 -98.5 -99.5t-106.5 -33.5q-49 0 -92.5 19.5t-81 39t-70.5 19.5q-26 0 -56.5 -20t-53.5 -54z" />
<glyph unicode="&#x2000;" horiz-adv-x="1103" />
<glyph unicode="&#x2001;" horiz-adv-x="2206" />
<glyph unicode="&#x2002;" horiz-adv-x="1103" />
<glyph unicode="&#x2003;" horiz-adv-x="2206" />
<glyph unicode="&#x2004;" horiz-adv-x="735" />
<glyph unicode="&#x2005;" horiz-adv-x="551" />
<glyph unicode="&#x2006;" horiz-adv-x="367" />
<glyph unicode="&#x2007;" horiz-adv-x="367" />
<glyph unicode="&#x2008;" horiz-adv-x="275" />
<glyph unicode="&#x2009;" horiz-adv-x="441" />
<glyph unicode="&#x200a;" horiz-adv-x="122" />
<glyph unicode="&#x2010;" horiz-adv-x="1003" d="M260 506l66 164h538l-65 -164h-539z" />
<glyph unicode="&#x2011;" horiz-adv-x="1003" d="M260 506l66 164h538l-65 -164h-539z" />
<glyph unicode="&#x2012;" horiz-adv-x="1003" d="M260 506l66 164h538l-65 -164h-539z" />
<glyph unicode="&#x2013;" horiz-adv-x="1386" d="M258 506l68 164h921l-65 -164h-924z" />
<glyph unicode="&#x2014;" horiz-adv-x="1755" d="M260 506l68 164h1288l-66 -164h-1290z" />
<glyph unicode="&#x2018;" horiz-adv-x="483" d="M164 1057q0 49 21.5 99.5t55.5 92.5t75.5 81t82.5 68.5t75 51.5t56 34l21 11l45 -90q-87 -58 -142.5 -109t-71.5 -75.5t-20 -42.5q43 -15 71 -54t28 -86q0 -61 -43 -104t-105 -43q-61 0 -105 46t-44 120z" />
<glyph unicode="&#x2019;" horiz-adv-x="444" d="M131 981q87 58 142.5 109t71.5 75.5t20 42.5q-44 15 -71.5 53t-27.5 87q0 60 43.5 103.5t104.5 43.5q23 0 47 -8.5t47.5 -26t38 -50.5t14.5 -77q0 -51 -21 -103.5t-55 -94.5t-75.5 -81.5t-82.5 -68.5t-75 -50.5t-55 -32.5l-21 -11z" />
<glyph unicode="&#x201a;" horiz-adv-x="552" d="M-33 -246q87 58 142.5 109.5t71.5 76t20 42.5q-44 15 -71.5 53t-27.5 86q0 60 43.5 103.5t104.5 43.5q23 0 47 -8.5t47.5 -26t38 -50.5t14.5 -77q0 -51 -21 -103.5t-55 -94.5t-75 -81.5t-82.5 -68.5t-75.5 -50.5t-55 -32.5l-21 -11z" />
<glyph unicode="&#x201c;" horiz-adv-x="866" d="M166 1038q0 56 21 112t55 99.5t75 84t82.5 69t75.5 50t55 31.5l21 11l45 -90q-87 -58 -142.5 -109t-71.5 -75.5t-20 -42.5q43 -15 71 -54t28 -86q0 -61 -43 -104t-105 -43q-59 0 -102.5 42.5t-44.5 104.5zM588 1038q0 56 21 112t55 99.5t75 84t82.5 69t75.5 50t55 31.5 l21 11l45 -90q-87 -58 -142.5 -109t-71.5 -75.5t-20 -42.5q43 -15 71 -54t28 -86q0 -61 -43 -104t-105 -43q-59 0 -102.5 42.5t-44.5 104.5z" />
<glyph unicode="&#x201d;" horiz-adv-x="866" d="M131 981q87 58 142.5 109t71.5 75.5t20 42.5q-43 15 -71 54t-28 86q0 61 43 104t105 43q59 0 102.5 -42.5t44.5 -104.5q0 -56 -21 -112t-55 -99.5t-75.5 -84t-82.5 -69t-75 -50t-55 -31.5l-21 -11zM553 981q87 58 142.5 109t71 75.5t19.5 42.5q-43 15 -70.5 54t-27.5 86 q0 61 43 104t105 43q59 0 102.5 -42.5t44.5 -104.5q0 -56 -21 -112t-55 -99.5t-75.5 -84t-82.5 -69t-75 -50t-55 -31.5l-21 -11z" />
<glyph unicode="&#x201e;" horiz-adv-x="974" d="M-33 -246q87 58 142.5 109.5t71.5 76t20 42.5q-43 15 -71 53.5t-28 85.5q0 61 43 104t105 43q59 0 102.5 -42.5t44.5 -104.5q0 -56 -21 -112t-55 -99.5t-75 -84t-82.5 -69t-75.5 -50t-55 -32.5l-21 -10zM389 -246q87 58 142.5 109.5t71.5 76t20 42.5q-43 15 -71 53.5 t-28 85.5q0 61 43 104t105 43q59 0 102.5 -42.5t44.5 -104.5q0 -56 -21 -112t-55 -99.5t-75.5 -84t-82.5 -69t-75 -50t-55 -32.5l-21 -10z" />
<glyph unicode="&#x2022;" horiz-adv-x="860" d="M274 586q0 77 54.5 131.5t130.5 54.5q78 0 132 -54.5t54 -131.5t-54 -131t-132 -54q-77 0 -131 54.5t-54 130.5z" />
<glyph unicode="&#x2026;" horiz-adv-x="1429" d="M102 121q0 61 43 104t105 43t104.5 -43t42.5 -104q0 -62 -43 -105t-104 -43q-62 0 -105 43.5t-43 104.5zM541 121q0 61 42.5 104t104.5 43t105 -43t43 -104t-43 -104.5t-105 -43.5q-61 0 -104 43t-43 105zM979 121q0 61 42.5 104t104.5 43t105 -43t43 -104t-43 -104.5 t-105 -43.5q-61 0 -104 43t-43 105z" />
<glyph unicode="&#x202f;" horiz-adv-x="441" />
<glyph unicode="&#x2039;" horiz-adv-x="1046" d="M229 504l47 119l598 344l-90 -226l-344 -213l170 -219l-63 -153z" />
<glyph unicode="&#x203a;" horiz-adv-x="1046" d="M182 156l90 225l344 213l-170 219l62 154l319 -349l-47 -118z" />
<glyph unicode="&#x205f;" horiz-adv-x="551" />
<glyph unicode="&#x20ac;" horiz-adv-x="1167" d="M100 494l54 129h125q18 61 34 104h-118l53 129h117q55 129 122 239.5t146.5 202t172 144.5t185.5 53q83 0 136.5 -35.5t73 -91.5t18 -126.5t-20 -139.5t-49.5 -131h-219q70 110 90 218q16 123 -59 130q-85 0 -184.5 -132.5t-184.5 -330.5h356l-51 -129h-358l-37 -104h352 l-51 -129h-342q-31 -110 -31 -224q0 -141 137 -141q63 0 147.5 45t168.5 119l104 -96q-108 -102 -228 -163t-235 -61q-303 0 -303 312q0 87 25 209h-146z" />
<glyph unicode="&#x2122;" horiz-adv-x="1271" d="M158 1042q0 63 45 108.5t133 41.5l-2 -105q-38 3 -52 -11t-14 -32q0 -19 14 -34t46 -15q82 0 135 142l88 219q-144 37 -186 37q-66 0 -66 -39q0 -15 8.5 -25.5t29 -12.5t54.5 17l35 -82q-94 -45 -165 -13t-71 112q0 59 44.5 102t130.5 43q60 0 163.5 -28t188.5 -46.5 t125 0.5l20 49l99 -65q64 45 135 45q36 0 55.5 -18.5t22.5 -45.5q32 32 77.5 48t79.5 16q42 0 61 -24.5t19 -51.5q0 -35 -39 -135l-106 -266q-12 -30 -7.5 -50.5t33.5 -33.5l-45 -111q-164 62 -106 215q133 328 133 346q0 4 -6 8.5t-17 4.5q-42 0 -88 -43l-157 -396h-134 q166 412 166 422q0 17 -22 17q-39 0 -84 -39l-160 -400h-133l166 416q-42 -15 -131 -2l-96 -240q-39 -98 -103 -149t-143 -51q-77 0 -125.5 44.5t-48.5 110.5z" />
<glyph unicode="&#xfb01;" horiz-adv-x="1331" d="M-354 -491.5q-9 80.5 45 210.5l606 1502q89 226 186 318.5t215 92.5q125 0 169.5 -98t-7.5 -268q-38 -121 -113.5 -296t-148.5 -308q-35 -64 -62 -104.5t-63.5 -79t-77.5 -59.5t-98 -34.5t-131 -15.5l-47 -115q74 -66 178 -66q161 0 285 85t229 264l213 526h215 l-278 -690q-26 -64 -39.5 -112.5t-15 -76.5t5 -45t17 -22.5t25.5 -5.5q74 0 184 124t222 316q24 0 52.5 -20.5t35.5 -43.5q-66 -115 -127.5 -202t-131.5 -160.5t-144 -112.5t-148 -39q-225 0 -184 263q-196 -177 -465 -160q6 -58 -4 -119q-36 -207 -135 -387 q-118 -213 -289 -213q-75 0 -120 35.5t-54 116zM-145 -397q-37 -97 2 -103q40 -6 84.5 46t79.5 132t60.5 156t37.5 133q29 140 -49 164q-35 -84 -107.5 -264t-107.5 -264zM213 485q75 10 127 57.5t109 151.5q100 186 171 360t99 267q38 137 -19 137q-54 0 -104 -76.5 t-102 -205.5zM1106 1315q0 53 36 89t89 36t90 -36.5t37 -88.5q0 -53 -37 -90t-90 -37q-52 0 -88.5 37t-36.5 90z" />
<glyph unicode="&#xfb02;" horiz-adv-x="1331" d="M-354 -491.5q-9 80.5 45 210.5l606 1502q89 226 186 318.5t215 92.5q125 0 169.5 -98t-7.5 -268q-38 -121 -113.5 -296t-148.5 -308q-35 -64 -62 -104.5t-63.5 -79t-77.5 -59.5t-98 -34.5t-131 -15.5l-47 -115q74 -66 178 -66q161 0 285 85t229 264l377 931h215 l-442 -1095q-26 -64 -39.5 -112.5t-15 -76.5t5 -45t17 -22.5t25.5 -5.5q74 0 184 124t222 316q24 0 52.5 -20.5t35.5 -43.5q-66 -115 -127.5 -202t-131.5 -160.5t-144 -112.5t-148 -39q-225 0 -184 263q-196 -177 -465 -160q6 -58 -4 -119q-38 -219 -135 -387 q-58 -102 -127 -157.5t-162 -55.5q-75 0 -120 35.5t-54 116zM-145 -397q-37 -97 2 -103q40 -6 84.5 46t79.5 132t60.5 156t37.5 133q29 140 -49 164zM213 485q75 10 127 57.5t109 151.5q100 186 171 360t99 267q38 137 -19 137q-54 0 -104 -76.5t-102 -205.5z" />
</font>
</defs>
</svg>
