<svg class="shadow bike" version="1.1" xmlns="http://www.w3.org/2000/svg" xmlns:xlink="http://www.w3.org/1999/xlink" viewBox="0 0 127 127">
<g>
	<path fill="#FFFFFF" d="M91.8,53.4c-3.6,0-6.9,1.1-9.7,2.9l-5.2-6.8l0.6-2.1c1.1-0.2,2.1-0.5,3-1.2c3.8-2.7,3.8-4.3-0.2-4
		s-0.5,0-5.4,0.4c-5.6-0.2-9.8,1.3-7,2.6c1.4,0.7,3.5,1.5,5.7,2l-0.2,0.9h-24c0.1-0.4,0.3-0.8,0.4-1.2l-0.4-0.1
		c0.7-2.3,1.2-3.9,1.2-3.9l0.2-0.6l-1.1-1.8l1-0.9l4.5-0.2c0.8,0,1.5-0.7,1.4-1.6c0-0.8-0.7-1.5-1.6-1.4l-5.6,0.2l-3.6,3.3l1.6,2.8
		c-0.2,0.7-0.6,1.8-1,3.2l-0.4-0.1c-0.9,3-2.2,7-3.3,10.7c-2.3-1.1-4.9-1.7-7.6-1.7c-9.9,0-17.9,8.1-17.9,17.9c0,9.9,8.1,18,17.9,18
		s18-8.1,18-18c0-5.8-2.8-10.9-7-14.2c0.1-0.5,0.3-1,0.4-1.5l17.7,18c0,0.2-0.1,0.4-0.1,0.7c0,1.4,0.9,2.6,2.2,3l1,4.5
		c-0.3,0.3-0.5,0.6-0.5,0.9c0,0.9,1.1,1.6,2.5,1.6s2.5-0.7,2.5-1.6c0-0.7-0.6-1.2-1.5-1.4l-1-4.4c0.5-0.4,0.9-0.9,1.1-1.5l4-0.8
		c2.1,7.6,9,13.2,17.3,13.2c9.9,0,18-8.1,18-18C109.8,61.5,101.7,53.4,91.8,53.4z M49.6,72.7c0,7.8-6.4,14.2-14.2,14.2
		c-7.8,0-14.2-6.4-14.2-14.2s6.4-14.2,14.2-14.2c2.3,0,4.5,0.6,6.5,1.6c-1.7,4.3-5,8.2-6.7,10c-1.2,0.2-2.1,1.2-2.1,2.5
		c0,1.4,1.1,2.5,2.5,2.5c1.4,0,2.5-1.1,2.5-2.5v-0.1c1.8-2,5-5.8,6.9-10.2C47.8,64.9,49.6,68.6,49.6,72.7z M77.6,71.4
		c0-3.8,1.5-7.2,3.9-9.7l6.2,8.1l-10.1,2C77.6,71.6,77.6,71.5,77.6,71.4z M48.3,51.9h24.1l-4.7,16.2c-0.4-0.5-1.3-0.9-2.3-0.9
		c-1.2,0-2.1,0.5-2.4,1.2L47.9,53C48.1,52.6,48.2,52.2,48.3,51.9z M70.1,73.1L75.6,54l3.6,4.6c-3.3,3.3-5.3,7.8-5.3,12.8
		c0,0.3,0,0.7,0.1,1L70.1,73.1z M91.8,85.6c-6.4,0-11.9-4.3-13.6-10.2l16.2-3.1l-10-13c2.2-1.3,4.7-2.1,7.4-2.1
		c7.8,0,14.2,6.4,14.2,14.2C106,79.2,99.6,85.6,91.8,85.6z"/>
</g>
</svg>