<svg version="1.1" xmlns="http://www.w3.org/2000/svg" xmlns:xlink="http://www.w3.org/1999/xlink" viewBox="0 0 222.2 98.3">
<g>
	<g>
		<g>
			<path fill="#FFFFFF" d="M57.1,97.9L55,90.8h-0.1c0.1,1.4,0.1,2.4,0.1,2.9v4.2h-1.7v-9h2.6l2.1,6.9h0l2.3-6.9h2.6v9h-1.8v-4.3
				c0-0.2,0-0.4,0-0.7s0-1,0.1-2.1h-0.1l-2.3,7H57.1z"/>
			<path fill="#FFFFFF" d="M71.8,97.9l-0.7-2.1h-3.3l-0.7,2.1h-2.1l3.2-9h2.3l3.2,9H71.8z M70.7,94.1c-0.6-1.9-0.9-3-1-3.3
				c-0.1-0.3-0.1-0.5-0.2-0.6c-0.1,0.5-0.5,1.8-1.2,3.9H70.7z"/>
			<path fill="#FFFFFF" d="M82.3,91.7c0,1-0.3,1.7-0.9,2.2c-0.6,0.5-1.5,0.8-2.6,0.8H78v3.2h-1.9v-9H79c1.1,0,1.9,0.2,2.5,0.7
				S82.3,90.8,82.3,91.7z M78,93.1h0.6c0.6,0,1-0.1,1.3-0.3c0.3-0.2,0.4-0.6,0.4-1c0-0.4-0.1-0.8-0.4-1c-0.2-0.2-0.6-0.3-1.1-0.3H78
				V93.1z"/>
			<path fill="#FFFFFF" d="M94.7,97.9l-0.7-2.1h-3.3l-0.7,2.1h-2.1l3.2-9h2.3l3.2,9H94.7z M93.6,94.1c-0.6-1.9-0.9-3-1-3.3
				c-0.1-0.3-0.1-0.5-0.2-0.6c-0.1,0.5-0.5,1.8-1.2,3.9H93.6z"/>
			<path fill="#FFFFFF" d="M105.2,91.7c0,1-0.3,1.7-0.9,2.2c-0.6,0.5-1.5,0.8-2.6,0.8h-0.8v3.2H99v-9h2.9c1.1,0,1.9,0.2,2.5,0.7
				S105.2,90.8,105.2,91.7z M100.9,93.1h0.6c0.6,0,1-0.1,1.3-0.3c0.3-0.2,0.4-0.6,0.4-1c0-0.4-0.1-0.8-0.4-1
				c-0.2-0.2-0.6-0.3-1.1-0.3h-0.9V93.1z"/>
			<path fill="#FFFFFF" d="M114,91.7c0,1-0.3,1.7-0.9,2.2c-0.6,0.5-1.5,0.8-2.6,0.8h-0.8v3.2h-1.9v-9h2.9c1.1,0,1.9,0.2,2.5,0.7
				S114,90.8,114,91.7z M109.7,93.1h0.6c0.6,0,1-0.1,1.3-0.3c0.3-0.2,0.4-0.6,0.4-1c0-0.4-0.1-0.8-0.4-1c-0.2-0.2-0.6-0.3-1.1-0.3
				h-0.9V93.1z"/>
			<path fill="#FFFFFF" d="M116.5,97.9v-9h1.9v7.4h3.6v1.6H116.5z"/>
			<path fill="#FFFFFF" d="M124.5,97.9v-9h1.9v9H124.5z"/>
			<path fill="#FFFFFF" d="M133.5,90.3c-0.7,0-1.3,0.3-1.7,0.8c-0.4,0.5-0.6,1.3-0.6,2.3c0,2,0.8,3,2.3,3c0.6,0,1.4-0.2,2.3-0.5v1.6
				c-0.7,0.3-1.6,0.5-2.5,0.5c-1.3,0-2.3-0.4-3-1.2c-0.7-0.8-1-1.9-1-3.4c0-0.9,0.2-1.8,0.5-2.5c0.3-0.7,0.8-1.2,1.5-1.6
				c0.6-0.4,1.4-0.6,2.2-0.6c0.9,0,1.8,0.2,2.6,0.6l-0.6,1.6c-0.3-0.2-0.7-0.3-1-0.4S133.8,90.3,133.5,90.3z"/>
			<path fill="#FFFFFF" d="M144.5,97.9l-0.7-2.1h-3.3l-0.7,2.1h-2.1l3.2-9h2.3l3.2,9H144.5z M143.4,94.1c-0.6-1.9-0.9-3-1-3.3
				c-0.1-0.3-0.1-0.5-0.2-0.6c-0.1,0.5-0.5,1.8-1.2,3.9H143.4z"/>
			<path fill="#FFFFFF" d="M151.4,97.9h-1.9v-7.4h-2.4v-1.6h6.8v1.6h-2.4V97.9z"/>
			<path fill="#FFFFFF" d="M156.3,97.9v-9h1.9v9H156.3z"/>
			<path fill="#FFFFFF" d="M169.5,93.4c0,1.5-0.4,2.6-1.1,3.4s-1.8,1.2-3.2,1.2s-2.4-0.4-3.2-1.2c-0.7-0.8-1.1-1.9-1.1-3.4
				c0-1.5,0.4-2.6,1.1-3.4c0.7-0.8,1.8-1.2,3.2-1.2s2.4,0.4,3.2,1.2S169.5,91.9,169.5,93.4z M163,93.4c0,1,0.2,1.8,0.6,2.3
				c0.4,0.5,1,0.8,1.7,0.8c1.5,0,2.3-1,2.3-3c0-2-0.8-3-2.3-3c-0.8,0-1.3,0.3-1.7,0.8S163,92.4,163,93.4z"/>
			<path fill="#FFFFFF" d="M180.3,97.9h-2.4l-3.9-6.8h-0.1c0.1,1.2,0.1,2.1,0.1,2.6v4.2h-1.7v-9h2.4l3.9,6.7h0
				c-0.1-1.2-0.1-2-0.1-2.5v-4.3h1.7V97.9z"/>
		</g>
	</g>
	<g>
		<g>
			<path fill="#FFFFFF" d="M60.6,15.6c-0.8,0.2-1.6,0.4-2.4,0.5c-1.8-1.9-3.6-3.8-5.5-5.7c0,0,0,0-0.1,0c0.4,1.1,0.6,2,0.7,2.5
				c0.3,1.4,0.7,2.7,1,4.1c-0.6,0.1-1.1,0.3-1.7,0.4c-0.7-2.9-1.5-5.8-2.2-8.7c0.8-0.2,1.6-0.4,2.5-0.6c1.9,1.9,3.7,3.7,5.5,5.6
				c0,0,0,0,0,0c-0.3-1.1-0.5-1.9-0.6-2.4c-0.3-1.4-0.6-2.8-1-4.2c0.6-0.1,1.2-0.3,1.8-0.4C59.3,9.8,60,12.7,60.6,15.6z"/>
			<path fill="#FFFFFF" d="M71.2,8.9c0.3,1.5,0.1,2.7-0.5,3.6c-0.6,0.9-1.6,1.5-2.9,1.8c-1.4,0.3-2.5,0.1-3.4-0.5
				c-0.9-0.6-1.5-1.7-1.8-3.1c-0.3-1.5-0.2-2.7,0.4-3.6c0.6-0.9,1.6-1.5,3-1.8c1.4-0.3,2.6-0.1,3.5,0.6C70.3,6.4,70.9,7.5,71.2,8.9z
				 M64.5,10.2c0.2,1,0.5,1.7,1,2.1c0.5,0.4,1.1,0.6,1.9,0.4c1.5-0.3,2.1-1.4,1.7-3.4c-0.4-2-1.3-2.9-2.9-2.6
				c-0.8,0.2-1.3,0.5-1.6,1.1C64.4,8.4,64.3,9.2,64.5,10.2z"/>
			<path fill="#FFFFFF" d="M76.1,9.2c0.2,1.1,0.4,2.3,0.5,3.4c-0.6,0.1-1.3,0.2-1.9,0.3c-0.5-3-1-5.9-1.5-8.9
				c0.9-0.1,1.8-0.3,2.7-0.4c1.3-0.2,2.2-0.1,2.9,0.2c0.7,0.4,1.1,1,1.2,1.9c0.1,0.5,0,1-0.3,1.5c-0.2,0.5-0.6,0.8-1.1,1.1
				c1.7,1.8,2.7,3,3.2,3.5c-0.7,0.1-1.4,0.2-2.1,0.3c-0.9-1-1.8-2.1-2.7-3.1C76.8,9.1,76.4,9.1,76.1,9.2z M75.9,7.7
				c0.2,0,0.4-0.1,0.6-0.1c0.6-0.1,1.1-0.3,1.3-0.5c0.3-0.2,0.4-0.6,0.3-1c-0.1-0.4-0.3-0.7-0.6-0.8c-0.3-0.1-0.8-0.2-1.4-0.1
				c-0.2,0-0.4,0.1-0.6,0.1C75.6,6.1,75.7,6.9,75.9,7.7z"/>
			<path fill="#FFFFFF" d="M87.5,11.2c-0.6,0.1-1.3,0.1-1.9,0.2C85.3,8.9,85,6.5,84.8,4c-0.8,0.1-1.7,0.2-2.5,0.3
				c-0.1-0.5-0.1-1-0.2-1.6c2.4-0.3,4.7-0.6,7.1-0.8c0.1,0.5,0.1,1.1,0.2,1.6c-0.8,0.1-1.7,0.2-2.5,0.3C87,6.2,87.3,8.7,87.5,11.2z"
				/>
			<path fill="#FFFFFF" d="M99.8,10.1c-0.6,0-1.3,0.1-1.9,0.1c-0.1-1.3-0.2-2.6-0.3-3.9c-1.2,0.1-2.4,0.2-3.6,0.3
				c0.1,1.3,0.2,2.6,0.3,3.9c-0.6,0.1-1.3,0.1-1.9,0.2c-0.3-3-0.6-6-0.8-9c0.7-0.1,1.3-0.1,2-0.2c0.1,1.2,0.2,2.3,0.3,3.5
				c1.2-0.1,2.4-0.2,3.7-0.3c-0.1-1.2-0.2-2.3-0.2-3.5c0.7,0,1.3-0.1,2-0.1C99.4,4.1,99.6,7.1,99.8,10.1z"/>
			<path fill="#FFFFFF" d="M111,2.1c-0.7,0-1.3,0.3-1.7,0.8c-0.4,0.5-0.6,1.3-0.6,2.3c0.1,2,0.8,3,2.4,3c0.6,0,1.4-0.2,2.3-0.5
				c0,0.5,0,1.1,0,1.6c-0.7,0.3-1.6,0.5-2.5,0.5c-1.3,0-2.3-0.3-3.1-1.1c-0.7-0.8-1.1-1.9-1.2-3.4c0-0.9,0.1-1.8,0.4-2.5
				c0.3-0.7,0.8-1.3,1.5-1.7c0.7-0.4,1.4-0.6,2.3-0.6c0.9,0,1.8,0.2,2.8,0.6c-0.2,0.5-0.4,1-0.6,1.6c-0.3-0.2-0.7-0.3-1.1-0.4
				C111.7,2.1,111.4,2.1,111,2.1z"/>
			<path fill="#FFFFFF" d="M122.2,9.7c-0.2-0.7-0.4-1.4-0.6-2.2c-1.1,0-2.2,0-3.3-0.1c-0.2,0.7-0.5,1.4-0.7,2.1c-0.7,0-1.4,0-2.1,0
				c1.1-3,2.2-6,3.3-9c0.8,0,1.6,0,2.4,0c1,3,2.1,6.1,3,9.1C123.6,9.7,122.9,9.7,122.2,9.7z M121.2,5.9c-0.6-2-0.9-3.1-1-3.3
				c-0.1-0.3-0.1-0.5-0.2-0.6c-0.1,0.5-0.6,1.8-1.3,3.9C119.6,5.9,120.4,5.9,121.2,5.9z"/>
			<path fill="#FFFFFF" d="M128.7,6.5c-0.1,1.1-0.1,2.3-0.2,3.4c-0.6,0-1.3-0.1-1.9-0.1c0.1-3,0.3-6,0.4-9c0.9,0,1.8,0.1,2.7,0.1
				c1.3,0.1,2.2,0.4,2.8,0.8c0.6,0.5,0.8,1.2,0.8,2.1c0,0.5-0.2,1-0.5,1.4c-0.3,0.4-0.8,0.7-1.3,0.9c1.3,2.1,2.1,3.5,2.4,4.1
				c-0.7-0.1-1.4-0.1-2.1-0.1c-0.6-1.2-1.3-2.4-2-3.6C129.4,6.5,129,6.5,128.7,6.5z M128.7,4.9c0.2,0,0.4,0,0.6,0
				c0.6,0,1.1,0,1.4-0.2c0.3-0.2,0.5-0.5,0.5-0.9c0-0.4-0.1-0.7-0.4-0.9c-0.3-0.2-0.8-0.3-1.4-0.3c-0.2,0-0.4,0-0.6,0
				C128.8,3.3,128.8,4.1,128.7,4.9z"/>
			<path fill="#FFFFFF" d="M144.4,6.7c-0.2,1.5-0.7,2.6-1.5,3.3c-0.8,0.7-1.9,1-3.3,0.9c-1.4-0.1-2.4-0.6-3.1-1.5
				c-0.7-0.9-1-2-0.9-3.5c0.1-1.5,0.6-2.6,1.4-3.3c0.8-0.7,2-1,3.4-0.9c1.4,0.1,2.5,0.6,3.2,1.5C144.4,4,144.6,5.2,144.4,6.7z
				 M137.7,6c-0.1,1,0,1.8,0.4,2.3c0.3,0.5,0.9,0.8,1.7,0.9c1.5,0.1,2.4-0.8,2.6-2.8c0.2-2-0.5-3.1-2-3.3c-0.8-0.1-1.4,0.1-1.8,0.6
				C138.1,4.3,137.8,5,137.7,6z"/>
			<path fill="#FFFFFF" d="M146.7,11.5c0.4-3,0.7-6,1.1-8.9c0.7,0.1,1.3,0.2,2,0.3c-0.3,2.5-0.6,4.9-1,7.4c1.2,0.2,2.5,0.3,3.7,0.5
				c-0.1,0.5-0.2,1-0.2,1.6C150.4,12,148.6,11.7,146.7,11.5z"/>
			<path fill="#FFFFFF" d="M154.8,12.6c0.5-3,0.9-5.9,1.4-8.9c0.7,0.1,1.3,0.2,2,0.3c-0.5,3-1,5.9-1.5,8.9
				C156,12.8,155.4,12.7,154.8,12.6z"/>
			<path fill="#FFFFFF" d="M167.8,15c-0.8-0.2-1.6-0.3-2.4-0.5c-0.9-2.5-1.7-5-2.7-7.4c0,0,0,0-0.1,0c-0.1,1.2-0.3,2-0.3,2.6
				c-0.3,1.4-0.5,2.8-0.8,4.2c-0.6-0.1-1.1-0.2-1.7-0.3c0.5-3,1-5.9,1.6-8.9c0.8,0.1,1.7,0.3,2.5,0.5c0.9,2.5,1.8,4.9,2.7,7.4
				c0,0,0,0,0,0c0.2-1.2,0.3-2,0.4-2.4c0.3-1.4,0.6-2.8,0.8-4.2c0.6,0.1,1.2,0.2,1.8,0.4C169,9.1,168.4,12.1,167.8,15z"/>
			<path fill="#FFFFFF" d="M176.6,17c0-0.7-0.1-1.5-0.1-2.2c-1.1-0.3-2.2-0.5-3.3-0.8c-0.4,0.6-0.8,1.3-1.1,1.9
				c-0.7-0.2-1.4-0.3-2-0.5c1.7-2.7,3.4-5.4,5.2-8.1c0.8,0.2,1.6,0.4,2.4,0.6c0.4,3.2,0.7,6.4,1,9.6C177.9,17.4,177.2,17.2,176.6,17
				z M176.4,13.1c-0.1-2-0.2-3.2-0.3-3.4c0-0.3,0-0.5,0-0.6c-0.3,0.5-1,1.6-2.1,3.5C174.8,12.7,175.6,12.9,176.4,13.1z"/>
		</g>
	</g>
	<path fill="#FFFFFF" d="M0.6,60.7c0-2.8,2.1-6.2,6.6-6.2c2.1,0,4,0.8,6.9,2.8c1.1-1.8,2-3.9,2.7-5.6l5.1-12.6
		c1.2-3.1,4-5.8,7.1-5.8l0.8,2.8c0,0-2.4,0.9-3.9,4.5l-1.5,3.7c4.6,1.6,10.3-0.9,10.3-6.5c0-3.8-2.9-7-8.3-7
		c-7.8,0-11.7,6.4-11.7,11.2c0,2.4,1,4.3,1,4.3l-3.3,2.4c0,0-1.6-2.7-1.6-6.3c0-7.7,5.8-15.2,16-15.2c7.4,0,12,4.9,12,10.8
		c0,7.9-7.8,9.2-7.8,9.2s5.1,2.7,5.1,9.1c0,5.1-3.4,11.3-10.5,11.3c-3.8,0-6.6-1.7-10.4-4.7c-2,2.2-4.5,3.8-7.9,3.8
		C2.9,66.6,0.6,63.7,0.6,60.7z M4.2,60.5c0,1.3,1.3,2.4,3.1,2.4c1.7,0,3.3-1.1,4.8-2.7c-1.7-1.2-3.3-2.3-4.8-2.3
		C5.4,57.9,4.2,59.3,4.2,60.5z M31.9,55.6c0-2.2-0.9-6.5-8.7-8.2c-1,2.6-2.1,5.2-2.8,6.8c-0.7,1.6-1.6,3.7-2.9,5.8
		c2,1.6,4.7,3.5,7.7,3.5C30,63.4,31.9,58.9,31.9,55.6z"/>
	<path fill="#FFFFFF" d="M55,54.4c-3.6,6.2-7.5,11.1-11.9,11.1c-3.6,0-5.8-2.5-2.6-10.4l5.3-13.2h4.7l-6,15c-2,4.8-1.1,5.7-0.1,5.7
		c2.3,0,5.8-4.4,8.8-9.5C53.8,53,54.8,53.7,55,54.4z M47.6,36.5c0-1.5,1.2-2.7,2.7-2.7c1.5,0,2.8,1.2,2.8,2.7c0,1.5-1.2,2.8-2.8,2.8
		C48.8,39.2,47.6,38,47.6,36.5z"/>
	<path fill="#FFFFFF" d="M76.7,54.4C74.1,59,68,65.6,63,65.6c-4.3,0-5.5-4.8-5.2-8.5c0.2-2.4,0.9-2.7,1.9-2.7c1.6,0,4-0.2,5.6-4
		c0.1-0.3,1.3-3.1,1.3-4.1c0-0.7-0.5-1.1-1.2-1.1c-1.2,0-3.3,1.1-5.3,3.2L53.4,65h-4.7l12.9-31.8h4.7l-4.5,11.1c0,0,2.8-2.9,6-2.9
		c2,0,3.6,1.2,3.6,3.4c0,2.4-1.9,6.2-2.1,6.7c-1.6,3.2-4,5-7.2,5.3c-0.3,4.8,0.8,5.7,2.1,5.7c2.6,0,7.7-4,10.7-9.5
		C75.5,53,76.5,53.7,76.7,54.4z"/>
	<path fill="#FFFFFF" d="M95.5,54.4c-3.1,5.3-8.1,11.1-15.2,11.1c-4.5,0-6.9-2.3-6.9-6.7c0-6.4,5.2-17.5,12.7-17.5
		c4.4,0,6.6,3.8,4,9.1c-2.3,4.8-6.1,6-11.8,5.4c0,0-2.6,6.7,3.1,6.7c4.3,0,8.9-3.9,12.3-9.5C94.3,53,95.3,53.7,95.5,54.4z
		 M79.1,53.3c4.3,0.8,5.9-1.6,7.1-4c1.3-2.8,1.2-4.1-0.4-4.1C82,45.2,79.1,53.3,79.1,53.3z"/>
	<path fill="#FFFFFF" d="M112.8,48c8.3,4.1,13.7-2.5,13.7-8.6c0-4.8-3.7-8.7-9.9-8.7c-8.4,0-13.1,7.2-13.1,12.1
		c0,2.3,1.1,4.2,1.1,4.2l-3.2,2.4c0,0-1.7-2.6-1.7-6.3c0-7.8,6.6-15.9,17-15.9c8.2,0,14.1,4.9,14.1,12.3c0,6.5-4.3,12.6-11,13.2
		c3,2.1,2.7,5.9,2.2,9l-1.4,7.6c-0.3,3.2,0.2,4.4,2.9,4.4v3.8c-5.2,0.5-7.9-3.2-7.1-8.6l1.2-6.3c1.1-6.2,0.6-8.6-2.3-10.3
		c-1.2-0.3-2.4-0.8-3.6-1.3l-5.9,14.7h-4.7l10.7-26.5c1.2-3.1,4-5.8,7.1-5.8l0.8,2.8c0,0-2.4,0.8-3.9,4.5L112.8,48z"/>
	<path fill="#FFFFFF" d="M151.4,54.4c-2.7,4.7-6.6,7.5-11.1,6.3c-2,2.8-4.7,4.8-8,4.8c-3.3,0-5.8-2-5.8-6.3
		c0-5.7,4.5-17.9,12.7-17.9c3.3,0,5.8,2,5.8,6.3c0,2.8-1.1,7-3,10.6c2.4,0.5,5.1-1,7.5-5.1C150.1,53,151.1,53.7,151.4,54.4z
		 M136.7,58.9c-0.5-0.5-0.8-1.2-0.8-2c0-1.6,1.4-3,3.1-2.7c1.1-2.7,1.8-5.5,1.8-7.1c0-1.9-0.8-2.6-1.8-2.6c-3.9,0-8.3,11.1-8.3,15.2
		c0,1.7,0.8,2.7,2,2.7C133.9,62.4,135.4,61,136.7,58.9z"/>
	<path fill="#FFFFFF" d="M173.6,54.4c-3.4,5.9-7.5,11.1-11.9,11.1c-2.3,0-4-1.1-4.1-3.9c-1.9,2.1-4,3.9-6.5,3.9
		c-3.3,0-5.8-2.3-2.5-10.4l5.3-13.2h4.7l-6,15c-1.8,4.5-1.2,5.2-0.3,5.2c2.6,0,5.8-5.1,7.5-8.5l4.7-11.7h4.7l-6,15
		c-1.8,4.5-1.2,5.7-0.1,5.7c2.2,0,5.7-4.4,8.7-9.5C172.3,53,173.3,53.7,173.6,54.4z"/>
	<path fill="#FFFFFF" d="M186.3,54.4c-3.4,5.9-7.7,11.1-12.6,11.1c-3.8,0-5.9-2.5-2.7-10.4l5.3-13.2h-4.1l1-2.4h4.1l2.6-6.4h4.7
		l-2.6,6.4h3.9l-1,2.4H181l-6,15c-2,5.1-1,5.7,0,5.7c2.6,0,6.3-4.2,9.4-9.5C185.1,53,186.1,53.7,186.3,54.4z"/>
	<path fill="#FFFFFF" d="M205.1,54.4c-3.1,5.3-8.1,11.1-15.2,11.1c-4.5,0-6.9-2.3-6.9-6.7c0-6.4,5.2-17.5,12.7-17.5
		c4.4,0,6.6,3.8,4,9.1c-2.3,4.8-6.1,6-11.8,5.4c0,0-2.6,6.7,3.1,6.7c4.3,0,8.9-3.9,12.3-9.5C203.9,53,204.9,53.7,205.1,54.4z
		 M188.7,53.3c4.3,0.8,5.9-1.6,7.1-4c1.3-2.8,1.2-4.1-0.4-4.1C191.6,45.2,188.7,53.3,188.7,53.3z"/>
	<path fill="#FFFFFF" d="M203.2,53c2-3.4,4.9-8.9,6.6-12.7l3.7,1.6c-1.6,6.2-0.6,13.4-0.6,16c0,1.3-0.1,2.5-0.5,3.6
		c2.4-1.2,5-5,7-8.5c0.7,0,1.7,0.7,1.9,1.4c-3.2,5.7-6.8,11.1-14,11.1c-4,0-5.9-2.4-6.1-3l2.4-1.5c0.8,0.9,1.6,1.2,2.5,1.2
		c1.7,0,2.7-1.2,2.7-5.3c0-2.3-0.3-5.6-0.2-9.1c-1.2,2.3-2.4,4.6-3.6,6.6C204.5,54.4,203.4,53.7,203.2,53z"/>
</g>
</svg>
