<svg version="1.1" xmlns="http://www.w3.org/2000/svg" xmlns:xlink="http://www.w3.org/1999/xlink" viewBox="0 0 185 175">
<g>
	<g>
		<g>
			<path fill="#D4BCD9" d="M4.5,41.5L81.4,3.8l0.8,0.8c0.3,0.3,24.7,25.4,30.8,31.7c3.3-1.4,11.1-4.5,19.3-7.8
				c7.1-2.9,14.6-5.9,19.9-8.1l-6-14.3l35.1,9.4L163.6,47l-5.7-13.4l-48.5,19.6l-0.7-0.7c0,0-24.1-24.8-30.3-31.2
				C68,26.4,7.3,55.6,6.6,55.9l-2.1,1V41.5z"/>
			<path fill="#FFFFFF" d="M81.1,5.6c0,0,27,27.7,31.5,32.4c4.7-2,30-12.2,41.6-16.9l-5.4-12.8l30.3,8.1l-15.2,27.3l-5.1-11.9
				l-48.9,19.8c0,0-26.4-27.1-31.1-32C72,22.8,6,54.5,6,54.5V42.5L81.1,5.6 M81.7,2l-2,1L4.6,39.8L3,40.6v1.9v12.1v4.8l4.3-2.1
				c0.6-0.3,58.1-27.9,70.8-34.1c7.2,7.4,29.6,30.4,29.6,30.4l1.4,1.4l1.9-0.8l46.2-18.7l4,9.2l2.4,5.6l3-5.3l15.2-27.3l1.9-3.4
				l-3.7-1l-30.3-8.1l-5.9-1.6l2.4,5.6l4.2,10.1c-5.2,2.1-12,4.9-18.5,7.5c-7.5,3-14.6,5.9-18.3,7.5c-6.9-7.2-29.1-29.9-30.1-30.9
				L81.7,2L81.7,2z"/>
		</g>
		<g>
			<path fill="#A061A2" d="M132.3,92.6v-39L159,42.9l2.4,5.6v44.2H132.3z M70.2,92.6V34.8l0.9-0.4c1.3-0.6,2.4-1.1,3.3-1.6
				c1.6-0.8,2.7-1.3,3.3-1.6l0.9-0.4l0.7,0.7c2.7,2.7,12.1,12.3,19.6,20.1l0.4,0.4v40.5H70.2z M101.2,92.5V54.2l2.6,2.6
				c2.1,2.1,3.8,3.9,5,5.1c0.3,0.3,0.6,0.6,0.8,0.9l20.7-8.3v38.1H101.2z M39.1,92.5V49.8l0.8-0.4c9.3-4.5,18.9-9.2,26.1-12.6l2.1-1
				v56.7H39.1z M8,92.5V64.6l0.8-0.4c2.2-1.1,5.2-2.5,8.8-4.2c5-2.4,11-5.3,17.3-8.4l2.2-1.1v41.9H8z"/>
			<path fill="#FFFFFF" d="M78.2,32.6c2.6,2.6,11.8,12.1,19.5,20.1v38.4H71.7V35.8C74.9,34.2,77.3,33,78.2,32.6 M66.7,38.1V91H40.6
				V50.7C50,46.1,59.5,41.5,66.7,38.1 M158.2,44.8l1.7,3.9v42.3h-26.1V54.7L158.2,44.8 M35.6,53v38H9.5V65.5
				C14.9,62.9,24.8,58.2,35.6,53 M128.8,56.6V91h-26.1V57.8c3.8,3.8,6.4,6.7,6.6,6.7c0,0,0,0,0,0L128.8,56.6 M78.9,29.1L77,29.9
				c-0.6,0.3-1.7,0.8-3.4,1.6c-1,0.5-2.1,1-3.3,1.6l-0.7,0.3v0l-4.3,2c-7.2,3.4-16.8,8.1-26.1,12.6l-0.7,0.3v-0.2l-4.3,2.1
				c-6.3,3.1-12.4,6-17.3,8.4c-3.5,1.7-6.6,3.1-8.8,4.2l-1.7,0.8v1.9V91v3h3h26.1h2h3h26.1h2v0.1h3h26.1h3V94h2h26.1h2v0.1h3h26.1h3
				v-3V48.8v-0.6l-0.2-0.6l-1.7-3.9l-1.2-2.7l-2.7,1.1l-24.4,9.8l-0.9,0.3v0l-4.1,1.7L110,61c0,0-0.1-0.1-0.1-0.1
				c-1.2-1.2-2.9-3-5-5.1l-4.1-4.1v-0.1l-0.8-0.9c-7.7-8-16.9-17.4-19.6-20.1L78.9,29.1L78.9,29.1z"/>
		</g>
		<g>
			<path fill="#CBAED0" d="M75.1,170.9v-11.5c-19-1.3-30.8-12.4-30.8-29.5v-1.5h24.2v1.5c0,5.1,2.3,8.6,6.6,10.2v-15.2
				c-16.6-4.8-29.2-10-29.2-26.7c0-19.7,16.3-25,29.2-27.1v-7.4h12.7v7.3c19.5,1.4,30.2,10.8,30.2,26.6V99H94.8l-0.1-1.4
				c-0.3-3.5-2.7-7-6.8-7.7v13.5c10.1,2.8,16.8,5.7,21.7,9.4c6.4,4.8,9.6,11,9.7,18.9c0,16.9-10.8,26.5-31.3,27.7v11.5H75.1z
				 M87.8,141.2c3.7-0.5,7.2-2.7,7.2-6c0-4.5-4-6.6-7.2-7.5V141.2z M75.1,89.8c-2.5,0.3-5.8,1.6-5.8,4.8c0,3.5,2.2,4.6,5.8,5.9V89.8
				z"/>
			<path fill="#FFFFFF" d="M86.3,65.1v7.2c15.5,0.8,30.2,7.1,30.2,25.2H96.2c-0.4-4.6-3.9-9.2-9.8-9.2v16.3
				c17.7,4.9,31.2,11.3,31.3,27.1c0,19.1-14.4,25.6-31.3,26.2v11.4h-9.7V158c-16.9-0.7-30.8-9.8-30.8-28.1h21.2
				c0,6.4,3.4,10.9,9.6,12.2v-18.4c-16.3-4.6-29.2-9.3-29.2-25.6c0-18.2,14.3-23.6,29.2-25.8v-7.2H86.3 M76.6,102.8V88.2
				c-4.2,0-8.8,2-8.8,6.4C67.9,100.3,72.8,101.2,76.6,102.8 M86.3,142.8c4.7,0,10.2-2.8,10.2-7.6c0-5.2-4.5-8.3-10.2-9.4V142.8
				 M89.3,62.1h-3h-9.7h-3v3v4.7c-13.2,2.3-29.2,8.1-29.2,28.4c0,18.6,15.7,24,29.2,27.8v11.7c-2.9-2-3.6-5.1-3.6-7.8v-3h-3H45.8h-3
				v3c0,9.5,3.5,17.4,10.1,22.9c5.3,4.4,12.4,7.2,20.7,7.9v8.6v3h3h9.7h3v-3v-8.6c8.6-0.7,15.6-2.9,20.8-6.6
				c7-5,10.6-12.6,10.6-22.5c-0.1-17.6-14.9-24.7-31.3-29.4V92c2.3,1.1,3.6,3.5,3.8,5.8l0.2,2.7h2.8h20.3h3v-3
				c0-16.1-10.9-26.1-30.2-28v-4.4V62.1L89.3,62.1z M73.6,98.4c-2-0.9-2.8-1.8-2.8-3.7c0-1.6,1.3-2.5,2.8-3V98.4L73.6,98.4z
				 M89.3,139.3v-9.5c2.2,1,4.2,2.6,4.2,5.4C93.6,137.2,91.6,138.6,89.3,139.3L89.3,139.3z"/>
		</g>
	</g>
</g>
</svg>
