<svg version="1.1" xmlns="http://www.w3.org/2000/svg" xmlns:xlink="http://www.w3.org/1999/xlink" viewBox="4.2 -3 176.7 186.1">
<g>
	<path fill="#F4D1A4" stroke="#FFFFFF" stroke-width="6" stroke-miterlimit="10" d="M87.7,0c-1.1,0-2.5,0.4-3.8,2.3
		c-0.7,0.9-1.7,2.4-5.3,25.6c0.1,0.1,0.3,0.1,0.4,0.3c3.6-23.3,4.6-24.8,5.2-25.6c1.2-1.7,2.5-2,3.4-2.1c0.4,0,0.8,0.1,1.1,0.1
		c1.2,0.4,2,1.2,2.5,2.8s0.8,4,0.8,7.7c0,1.1,0,2.3,0,3.4v0.3v0.1l0,0l0,0l0,0c0,0.5,0.4,10.1,1.1,24.3c0.1-0.1,0.3-0.4,0.4-0.5
		c-0.7-13.9-1.1-23.2-1.1-23.7l0,0v-0.4c0-1.2,0-2.4,0-3.4c0-3.6-0.3-6.1-0.8-7.7c-0.5-1.7-1.5-2.5-2.8-3C88.7,0.1,88.2,0,87.7,0
		L87.7,0 M92.2,14.7L92.2,14.7L92.2,14.7z"/>
	<path fill="#F4D0A3" stroke="#FFFFFF" stroke-width="6" stroke-miterlimit="10" d="M128,22.5c-12.7,0-26.1,4.9-35.4,17.4
		c-9.4-12.5-22.7-17.4-35.4-17.4c-9.7,0-19,2.8-25.7,7.3C11.7,42.7,0.7,68.9,11.3,90.9c15.8,32.6,69.9,59.3,81.3,84.1
		c8.8-25.9,65.9-51.2,81.3-84.1c10.3-22-0.4-48.3-20-61.1C146.9,25.5,137.6,22.5,128,22.5 M128,22.5v3.2c8.6,0,17.4,2.5,23.9,6.8
		c17.1,11.1,28.9,35.5,18.8,57.1c-7.6,16-25.7,30.5-43.4,44.4c-14.6,11.5-28.5,22.5-35.1,33.8c-7.2-10.3-19.9-20.7-33.3-31.7
		C41,121.4,22.4,106.3,14.3,89.6C4,68.3,15.8,43.9,33.2,32.6c6.5-4.2,15.2-6.8,23.9-6.8c13.4,0,24.9,5.7,32.6,16
		c0.7,0.8,1.7,1.3,2.8,1.3l0,0c1.1,0,2.1-0.5,2.8-1.3c10.3-13.9,24.9-16,32.7-16L128,22.5L128,22.5z"/>
	<rect x="32.4" y="89.4" fill="#F29922" width="116.3" height="12.6"/>
	<path fill="#F59B22" d="M92.3,171c-6.5-10.9-20.2-22-34.5-33.7c-18-14.7-36.7-30.1-44.9-47.1C2.3,68.1,14.3,42.8,32.4,31.2
		c6.8-4.5,15.9-7,24.8-7c13.9,0,26,6,34.1,16.7c0.3,0.4,0.8,0.7,1.3,0.7s1.1-0.3,1.3-0.7C102,30.1,114,24.1,128,24.1
		c9,0,18,2.5,24.9,7c17.6,11.5,29.8,36.9,19.4,59.1c-7.7,16.4-26,30.9-43.8,44.9C113,147.6,98.1,159.1,92.3,171"/>
	<path fill="#F4D0A3" d="M128,22.5c-12.7,0-26.1,4.9-35.4,17.4c-9.4-12.5-22.7-17.4-35.4-17.4c-9.7,0-19,2.8-25.7,7.3
		C11.7,42.7,0.7,68.9,11.3,90.9c15.8,32.6,69.9,59.3,81.3,84.1c8.8-25.9,65.9-51.2,81.3-84.1c10.3-22-0.4-48.3-20-61.1
		C146.9,25.5,137.6,22.5,128,22.5 M128,22.5v3.2c8.6,0,17.4,2.5,23.9,6.8c17.1,11.1,28.9,35.5,18.8,57.1
		c-7.6,16-25.7,30.5-43.4,44.4c-14.6,11.5-28.5,22.5-35.1,33.8c-7.2-10.3-19.9-20.7-33.3-31.7C41,121.4,22.4,106.3,14.3,89.6
		C4,68.3,15.8,43.9,33.2,32.6c6.5-4.2,15.2-6.8,23.9-6.8c13.4,0,24.9,5.7,32.6,16c0.7,0.8,1.7,1.3,2.8,1.3l0,0
		c1.1,0,2.1-0.5,2.8-1.3c10.3-13.9,24.9-16,32.7-16L128,22.5L128,22.5z"/>
	<path fill="#F4D1A4" d="M87.8,0.4c-0.9,0-2.3,0.4-3.4,2.1c-0.5,0.8-1.6,2.3-5.2,25.6c1.9,1.1,3.7,2.3,5.4,3.6
		c0.5-3.7,1.1-7,1.6-10.2c-0.1-4.1-0.3-6.5-0.3-6.6c0-0.1,0-0.3,0-0.7c0-1.2,0-2.1,0-3c-0.1-4.6-0.5-5.8-0.5-6l0.1-0.3L85.8,5
		c0.1,0.3,0.7,0.9,1.6,1.1h0.4l0,0c0.7,0,1.2-0.3,1.5-0.4l0.1-0.1l0.3-0.1l0.1,0.3c-0.3,0.5-0.7,2.1-1.1,4.4
		c-0.5,2.3-0.9,5.3-1.6,8.9c-0.1,0.8-0.3,1.7-0.4,2.7c0.1,3.2,0.3,7.4,0.5,12.3c2,1.7,3.8,3.8,5.4,6.1c0.3-0.3,0.4-0.5,0.7-0.9
		C92.6,24.9,92,15.4,92,14.8l0,0l0,0l0,0v-0.1v-0.3c0-1.2,0-2.4,0-3.4c0-3.6-0.3-6-0.8-7.6s-1.3-2.4-2.5-2.8
		C88.6,0.5,88.2,0.4,87.8,0.4"/>
	<path fill="#F4D0A3" d="M78.5,31.6c-1.1,7.3-2.4,16.3-3.8,27.7c-1.5,11.3-2.9,22.4-4.1,31.6c1.3,0.7,2,1.7,2.3,3
		c0.4,1.5,0.4,3.3,0.4,5.2c0,3.6,0.5,8.7,0.9,11.1c2.8-22.5,6.6-52.5,9.9-74.6C82.2,34.1,80.4,32.7,78.5,31.6 M87.3,38.7
		c1.5,32,4,86.6,4.8,105.7c0.9-8.8,2.7-24.7,4.2-37.7c-1.1-22.3-2.1-45.9-2.9-63.6c-0.3,0.1-0.5,0.1-0.8,0.1c-1.1,0-2.1-0.5-2.8-1.3
		C89,40.7,88.2,39.8,87.3,38.7"/>
	<path fill="#F4D0A3" d="M79,28.1c-0.1,1.1-0.4,2.3-0.5,3.4c1.9,1.2,3.7,2.5,5.4,4c0.1-1.3,0.4-2.7,0.5-3.8
		C82.8,30.4,80.9,29.2,79,28.1 M87,33.8c0.1,1.6,0.1,3.2,0.3,4.9c0.9,0.9,1.7,2,2.5,3c0.7,0.8,1.7,1.3,2.8,1.3c0.3,0,0.5,0,0.8-0.1
		c0-1.3-0.1-2.7-0.1-4c-0.3,0.3-0.4,0.5-0.7,0.8C90.8,37.7,89,35.7,87,33.8"/>
	<path fill="#F4D1A4" d="M85.9,5.8c0.1,0.8,0.3,2.4,0.3,5.3c0,0.9,0,1.9,0,3c0,0.4,0,0.5,0,0.7s0.1,1.7,0.1,4.6
		c0.7-3.8,1.2-7.2,1.7-9.5C88.5,8.2,88.7,7,89,6.2c-0.3,0.1-0.7,0.3-1.2,0.3c-0.1,0-0.3,0-0.4,0C86.7,6.4,86.3,6.1,85.9,5.8
		 M92,14.7L92,14.7L92,14.7z"/>
	<path fill="#F4D0A3" d="M120.9,77.3c-0.3,0-0.5,0-0.8,0.1c-1.7,0.3-2.9,1.5-4,2.9c-1.1,1.6-2,3.6-2.9,5.7c-0.5,1.2-1.1,2.4-1.6,3.3
		c-0.7,1.2-1.3,2.1-2,2.8c-0.1,0.1-0.3,0.3-0.5,0.4c0.1,0.7,0.3,0.9,0.3,0.9v0.3l-0.1,0.1h-0.1l0,0l0,0l0,0l0,0l0,0l0,0
		c-0.1-0.1-0.5-0.4-0.8-0.4l0,0h-0.1h-0.1l-0.1-0.1v-0.1l0.1-0.1c0.1,0,0.4-0.3,0.8-0.5c-0.7-4.1-1.6-6.4-2.7-7.7
		c-0.9-1.3-2-1.6-2.9-1.7h-0.1c-1.3,0-2.9,0.7-3.6,2.9c-0.1,0.5-0.7,3.8-1.2,8.6c-0.4,3.4-0.9,7.7-1.5,12.3
		c0.7,13.7,1.2,26.8,1.7,37.9c1.2-10.9,2.7-23.9,3.8-34.7c0.5-4.8,1.1-9.1,1.5-12.7c-0.7-0.8-1.1-2-1.3-3.6c-0.7-3.4-1.3-5-1.6-5.4
		l0,0v-0.1l0.1-0.1h0.1l0.1,0.1l0,0c0.1,0.3,0.8,0.7,1.6,0.7l0,0h0.4c1.1-0.1,1.7-0.9,1.7-1.2l0,0v-0.1l0.3-0.1l0.1,0.3
		c-0.1,0.7-0.7,4.2-1.3,9.5c1.1,1.3,2.3,1.7,3,1.9c0.3,0,0.5,0.1,0.8,0.1l0,0c3.4,0,6.8-3.6,8.6-6.9c0.7-1.1,1.2-2.5,1.9-3.7
		c0.4-0.8,0.9-2,1.5-3c0.3-0.5,0.5-0.9,0.7-1.3c-0.3-0.3-0.4-0.5-0.5-0.7l0,0v-0.3h0.3c0.1,0.1,0.3,0.1,0.5,0.1l0,0l0,0
		c0.3,0,0.4,0,0.5-0.1l0,0h0.1l0.1,0.1v0.1l-0.1,0.1l0,0l0,0c-0.1,0.1-0.4,0.4-0.5,0.7c0.5,0.8,1.2,1.9,1.9,3c0.9,1.9,2,4,2.8,5.8
		c1.7,3.7,3,6.4,4.2,8.1c1.2,1.7,2.3,2.4,3.7,2.4l0,0c0.8,0,2.4-0.5,4.1-1.3c1.9-0.8,4-1.9,6-3.2c3-1.7,6.1-3.7,8.1-5.3
		c-0.3-0.1-0.4-0.1-0.4-0.1l0,0l-0.1-0.3l0.3-0.1h0.1c0.3,0,0.7-0.1,1.2-0.4l0.5-0.4h0.3v0.3c-0.3,0.3-0.7,0.7-1.1,1.1
		c0.5,0.4,1.5,0.9,2.5,2l0.5,0.5l0.8,0.1l0,0l8.6,2.7c1.3-2,2.7-3.8,3.7-5.8l-9.4-2c0,0,0,0,0.1,0v0.3h-0.3l-1.5-0.7l-0.1-0.3
		l0.3-0.1c-2.8-2.1-4.8-2.9-6.2-2.9l0,0c-0.9,0-1.7,0.3-2.3,0.7l-0.3,0.1l-0.1,0.3c-1.2,1.3-4.6,3.4-8,5.3c-2.4,1.3-4.6,2.5-6.2,3.2
		c0.3,0.4,0.4,0.7,0.5,0.8v0.1v0.1h-0.1h-0.1c-0.1-0.1-0.7-0.5-1.5-0.5l0,0h-0.3l0,0l-0.3-0.1l0.1-0.3c0.3,0,0.5-0.1,1.1-0.4
		c-0.3-0.5-0.7-1.2-1.1-1.9c-0.8-1.5-1.6-3.2-2.1-4.5c-2.8-5.8-4.6-9.7-6.6-11.5C123.3,77.6,122,77.3,120.9,77.3"/>
	<path fill="#F4D0A3" d="M169.1,92.9c-1.1,2-2.4,3.8-3.7,5.8l2.5,0.8l3.8-6L169.1,92.9z"/>
	<path fill="#F4D0A3" d="M55.4,77.8c-0.8,0-1.5,0.1-1.6,0.3l-0.8,0.1l-0.5,0.5l-15.8,16l0.9-0.1l0.3,0.1l-0.1,0.3L35.6,96l-0.3-0.1
		v-0.3l0.4-0.4l-16.8,2.1c1.2,1.9,2.5,3.6,4,5.4l15-2l0,0h1.3l0.9-0.9L54.5,85c0-0.3,0-0.5,0-0.8c0-0.7-0.1-0.9-0.1-0.9v-0.1
		l0.1-0.1l0.3,0.1l0,0l0,0l0,0l0.1,0.1c0.1,0.1,0.3,0.1,0.5,0.1h0.3l1.3-0.8h0.3v0.3l-2.4,2.4c0,5,0.4,14.8,0.4,15.2l0.1,3.2
		l3.3-0.4c0.3,0,4.2-0.7,7.8-3.6c0-0.1,0-0.4,0-0.5c0-2.5-0.1-3.4-0.1-3.7l0,0l0,0l0.1-0.3l0.3,0.1c0,0.1,0.4,0.8,1.3,1.1
		c0.3,0.1,0.5,0.1,0.7,0.1l0,0c0.3,0,0.5,0,0.7-0.1c0.3-1.7,0.4-3.4,0.7-5.3c-0.1,0-0.1,0-0.3-0.1c-0.4-0.1-0.8-0.1-1.1-0.1l0,0
		c-2.3,0-4,2.1-4.8,3.2c-0.7,0.9-1.6,1.6-2.4,2.1c0,2.4,0.1,4.1,0.1,4.1l-0.1,0.3h-0.3l-3.8-2.9v-0.3l0.1-0.1l0,0h0.1
		c0.1,0,0.3,0,0.4-0.1c0.4-0.1,0.9-0.3,1.5-0.5c0.4-0.1,0.8-0.4,1.2-0.5c-0.1-3.7-0.3-9-0.3-11.7c0-2.7-0.8-4.5-2.4-5.6
		C57.3,78,56.2,77.8,55.4,77.8"/>
	<path fill="#F4D0A3" d="M18.9,97.3L17,97.6l4.4,5.3l1.5-0.1C21.4,100.9,20,99,18.9,97.3"/>
	<path fill="#F4D0A3" d="M120.9,83.4L120.9,83.4c0.1,0.1,0.1,0,0.1,0S121.1,83.4,120.9,83.4L120.9,83.4 M54.9,83.8
		c0,0.1,0,0.3,0,0.5v0.4l0.8-0.8h-0.4C55.2,83.8,55,83.8,54.9,83.8 M104.9,88.3c-0.4,0.3-0.9,0.7-1.6,0.7c-0.1,0-0.3,0-0.4,0
		c-0.5,0-0.9-0.1-1.3-0.3c0.4,0.8,0.8,2.4,1.2,4.8c0.3,1.3,0.5,2.3,1.1,3C104.2,92.7,104.6,89.8,104.9,88.3 M70.4,91.3
		c-0.3,1.7-0.4,3.4-0.7,4.9h0.1v0.3l0,0l0,0l0,0l-0.1,0.3c-1.1,8-1.7,13.4-1.9,14.6l5.8-0.1c-0.1-1.3-1.1-7.8-1.1-12.2
		c0-1.9,0-3.7-0.4-5.2C72,92.8,71.5,91.9,70.4,91.3 M108.6,92.8C108.6,92.9,108.6,92.9,108.6,92.8c-0.1,0.1,0,0.1,0,0.1
		S108.6,92.9,108.6,92.8 M36.4,95.2L36.4,95.2L36.4,95.2L36.4,95.2z M66.7,96.1c0,0.5,0.1,1.5,0.1,2.9v0.3c0.7-0.5,1.2-1.2,1.9-1.9
		c0.1-0.3,0.3-0.4,0.4-0.5c-0.1,0-0.3,0-0.4,0l0,0c-0.3,0-0.5,0-0.8-0.1C67.4,96.6,67,96.4,66.7,96.1 M61,96.4
		c-0.4,0.3-0.7,0.4-1.1,0.5c-0.8,0.3-1.3,0.5-1.7,0.5l2.9,2.4C61.1,99.3,61,98,61,96.4 M134.6,97.2
		C134.6,97.3,134.6,97.3,134.6,97.2C134.6,97.3,134.6,97.3,134.6,97.2C134.7,97.3,134.7,97.3,134.6,97.2 M69.2,97.3
		c-0.1,0.1-0.1,0.3-0.3,0.4c-0.7,0.8-1.3,1.6-2.1,2.3c0,3.4,0.5,7.8,0.8,10.3C67.9,108,68.4,103.4,69.2,97.3"/>
	<path fill="#F4D0A3" d="M96.4,109.4c-0.1,0.9-0.3,1.9-0.3,2.8c-1.5,13.1-3,27.6-3.8,34.6l5.8,0.1C97.6,136.2,96.9,123,96.4,109.4
		 M73.9,111.6l-6,0.1c0,0.1,0,0.3,0,0.3h5.8C73.9,111.9,73.9,111.8,73.9,111.6 M92.2,147.2L92.2,147.2l6,0.3l0,0L92.2,147.2z"/>
	<path fill="#F4D1A4" d="M87.7,0c-1.1,0-2.5,0.4-3.8,2.3c-0.7,0.9-1.7,2.4-5.3,25.6c0.1,0.1,0.3,0.1,0.4,0.3
		c3.6-23.3,4.6-24.8,5.2-25.6c1.2-1.7,2.5-2,3.4-2.1c0.4,0,0.8,0.1,1.1,0.1c1.2,0.4,2,1.2,2.5,2.8s0.8,4,0.8,7.7c0,1.1,0,2.3,0,3.4
		v0.3v0.1l0,0l0,0l0,0c0,0.5,0.4,10.1,1.1,24.3c0.1-0.1,0.3-0.4,0.4-0.5c-0.7-13.9-1.1-23.2-1.1-23.7l0,0v-0.4c0-1.2,0-2.4,0-3.4
		c0-3.6-0.3-6.1-0.8-7.7c-0.5-1.7-1.5-2.5-2.8-3C88.7,0.1,88.2,0,87.7,0L87.7,0 M92.2,14.7L92.2,14.7L92.2,14.7z"/>
	<path fill="#F4D0A3" d="M78.1,31.3c-1.1,7.3-2.4,16.4-4,27.8c-1.5,11.1-2.9,22.4-4.1,31.4c-0.1,0-0.1,0-0.1,0
		c-0.4-0.1-0.9-0.3-1.3-0.3c-2.5,0-4.2,2.3-5,3.3c-0.7,0.8-1.3,1.5-2.1,2c-0.1-3.7-0.3-8.9-0.3-11.4c0-2.7-0.8-4.6-2.5-5.8
		c-1.1-0.8-2.3-0.9-3.2-0.9s-1.6,0.1-1.9,0.3L52.8,78h-0.1l-0.4,0.5l-16,16.3l-17.6,2.1c0.1,0.1,0.1,0.3,0.3,0.4l16.8-2l-0.4,0.4V96
		l0.3,0.1l2.3-0.9l0.1-0.3l-0.3-0.1l-0.9,0.1l15.8-16l0.5-0.5l0.7-0.3c0.1,0,0.8-0.3,1.7-0.3s2,0.3,2.9,0.9c1.6,1.1,2.4,2.9,2.4,5.6
		c0,2.7,0.1,8,0.3,11.7c-0.4,0.3-0.8,0.4-1.2,0.5c-0.5,0.3-1.1,0.4-1.5,0.5c-0.1,0-0.4,0.1-0.4,0.1h-0.1l0,0l0,0l-0.3,0.1l0.1,0.3
		l3.6,2.9h0.3l0.1-0.3c0,0,0-1.7-0.1-4.1c0.8-0.5,1.7-1.2,2.5-2.1c0.8-1.1,2.5-3.2,4.8-3.2l0,0c0.4,0,0.8,0,1.2,0.1
		c0.1,0,0.1,0,0.3,0.1c-0.3,1.9-0.4,3.6-0.7,5.3c-0.1,0-0.4,0.1-0.7,0.1l0,0c-0.3,0-0.4,0-0.7-0.1c-0.9-0.3-1.3-0.9-1.3-1.1
		l-0.3-0.1l-0.5,0.3c0.1,0.3,0.3,1.2,0.3,3.7c0,0.1,0,0.4,0,0.7c-3.6,2.9-7.7,3.6-7.8,3.6l-3.3,0.4l-0.1-3.2
		c0-0.4-0.3-10.3-0.4-15.2l2.3-2.3v-0.3h-0.3l-1.3,0.8h-0.3c-0.1,0-0.4-0.1-0.5-0.1l-0.1-0.1l0,0l0,0l0,0l-0.3-0.1l-0.1,0.3v0.1
		c0,0,0.1,0.3,0.1,0.9c0,0.3,0,0.5,0,0.8l-14.6,14.7l-0.5,0.7h-1.3l0,0l-15,1.9c0.1,0.1,0.1,0.3,0.3,0.4l14.6-1.9H39l0.1-0.1
		l0.9-0.9l14.2-14.5c0,5.2,0.3,14.5,0.4,14.8l0.1,3.4l0.1,0.1H55l3.4-0.5c0.3,0,4.1-0.7,7.8-3.4c0.1,5.2,1.1,11.8,1.1,12.1l0.3,0.1
		h6.2l0.3-0.1c2.4-19.4,5.6-44.8,8.6-65.9c0.5-3.6,1.1-7.2,1.5-10.5c-0.1-0.1-0.3-0.3-0.4-0.4c-3.2,22.1-7.2,52.1-9.9,74.6
		c-0.3-2.4-0.9-7.6-0.9-11.1c0-1.9,0-3.7-0.4-5.2c-0.4-1.3-1.1-2.4-2.3-3c1.2-9.1,2.7-20.4,4.1-31.6c1.6-11.4,2.8-20.4,3.8-27.7
		C78.4,31.6,78.2,31.4,78.1,31.3 M54.9,84.6v-0.4c0-0.3,0-0.4,0-0.5c0.1,0.1,0.3,0.1,0.5,0.1h0.4L54.9,84.6z M69.9,96.2
		c0.1-1.6,0.4-3.2,0.7-4.9c1.1,0.5,1.6,1.5,1.9,2.7c0.4,1.5,0.4,3.2,0.4,5.2c0,4.4,0.8,10.9,0.9,12.2h-5.8c0.1-1.2,0.8-6.6,1.9-14.6
		l0.1-0.1l0,0l0,0v-0.3V96.2z M36.4,95.2L36.4,95.2L36.4,95.2L36.4,95.2z M66.8,99.3V99c0-1.5,0-2.4-0.1-2.9
		c0.3,0.3,0.5,0.4,1.1,0.7c0.3,0.1,0.5,0.1,0.8,0.1l0,0c0.1,0,0.3,0,0.4,0c-0.1,0.1-0.3,0.3-0.4,0.5C68,98.1,67.5,98.8,66.8,99.3
		 M58.2,97.6c0.4-0.1,1.1-0.3,1.7-0.5c0.4-0.1,0.7-0.3,1.1-0.5c0,1.6,0.1,2.8,0.1,3.4L58.2,97.6z M66.8,99.8
		c0.8-0.7,1.5-1.3,2.1-2.3c0.1-0.1,0.1-0.3,0.3-0.4c-0.8,6.1-1.3,10.7-1.6,12.9C67.4,107.7,67,103.3,66.8,99.8 M67.9,111.8h6
		c0,0.1,0,0.3,0,0.4h-6C67.9,112,67.9,111.9,67.9,111.8 M86.7,38.3c1.5,33.7,4.2,93.5,4.9,109.1l0.1,0.1l6.4,0.1l0.3-0.1
		c1.2-11.4,2.8-25.9,4.2-37.8c0.5-4.6,1.1-8.8,1.5-12.3c1.1,1.2,2.3,1.6,3,1.7c0.3,0,0.5,0,0.9,0c3.7,0,7.2-3.7,9-7.2
		c0.7-1.2,1.2-2.5,1.9-3.8c0.4-0.8,0.9-2,1.5-3c0.1-0.4,0.4-0.8,0.5-1.1c0.5,0.8,1.1,1.7,1.7,2.9c0.9,1.9,2,4,2.8,5.8
		c1.7,3.7,3,6.4,4.2,8.1c1.2,1.7,2.4,2.5,4.1,2.5l0,0c0.9,0,2.5-0.5,4.4-1.3c4.6-2,11.1-6,14.3-8.6c0.5,0.3,1.5,0.9,2.7,2l0.7,0.5
		h0.1l0.8,0.1l8.5,2.5c0.1-0.1,0.1-0.3,0.3-0.4l-8.6-2.7l0,0l-0.8-0.1l-0.5-0.5c-1.2-1.1-2-1.6-2.5-2c0.5-0.4,0.8-0.7,1.1-1.1v-0.3
		h-0.3l-0.5,0.4c-0.5,0.4-0.9,0.4-1.2,0.4H152l-0.3,0.1l0.1,0.3l0,0c0,0,0.1,0,0.4,0.1c-1.9,1.5-4.9,3.4-8.1,5.3
		c-2.1,1.2-4.2,2.3-6,3.2c-1.9,0.8-3.3,1.3-4.1,1.3l0,0c-1.5,0-2.5-0.7-3.7-2.4c-1.2-1.7-2.4-4.4-4.2-8.1c-0.8-1.9-1.9-4-2.8-5.8
		c-0.7-1.2-1.3-2.3-1.9-3c0.3-0.4,0.4-0.7,0.5-0.7l0,0l0.1-0.1v-0.1l-0.1-0.1h-0.1l0,0c-0.1,0.1-0.4,0.1-0.5,0.1l0,0l0,0
		c-0.3,0-0.5,0-0.5-0.1h-0.3v0.3l0,0c0.1,0.1,0.4,0.4,0.5,0.7c-0.3,0.4-0.5,0.8-0.7,1.3c-0.5,1.1-1.1,2.3-1.5,3
		c-0.5,1.3-1.2,2.7-1.9,3.7c-1.9,3.3-5.2,6.9-8.6,6.9l0,0c-0.3,0-0.5,0-0.8-0.1c-0.8-0.1-2.1-0.5-3-1.9c0.7-5.3,1.1-8.9,1.3-9.5
		l-0.7,0.5l-0.3,0.1v0.1l0,0c-0.1,0.3-0.7,1.1-1.7,1.2h-0.4l0,0c-0.9,0-1.5-0.4-1.6-0.7l0,0l-0.1-0.1h-0.1l-0.1,0.1v0.1l0,0
		c0.3,0.3,0.9,1.9,1.6,5.4c0.3,1.6,0.8,2.8,1.3,3.6c-0.4,3.6-0.9,8-1.5,12.7c-1.2,10.9-2.7,23.9-3.8,34.7c-0.5-11-1.1-24.1-1.7-37.9
		c0.5-4.6,1.1-8.9,1.5-12.3c0.5-4.8,1.1-8.1,1.2-8.6c0.7-2.1,2.3-2.9,3.6-2.9h0.1c0.9,0.1,2,0.4,2.9,1.7c0.9,1.3,1.9,3.7,2.7,7.7
		c-0.4,0.3-0.7,0.5-0.8,0.5l-0.1,0.1v0.1l0.1,0.1h0.1l0,0h0.1l0,0c0.3,0,0.7,0.3,0.8,0.4l0,0l0,0l0,0l0,0l0,0h0.1l0.1-0.1v-0.3
		c0,0-0.1-0.3-0.3-0.9c0.1-0.1,0.3-0.3,0.5-0.4c0.7-0.7,1.3-1.6,2-2.8c0.5-0.9,1.1-2.1,1.6-3.3c0.9-2.1,1.9-4.1,2.9-5.7
		c1.1-1.6,2.4-2.7,4.1-2.9c0.3,0,0.5-0.1,0.8-0.1c0.9,0,2.4,0.3,3.7,1.6c2,1.9,3.8,5.8,6.6,11.5c0.7,1.3,1.5,3,2.1,4.5
		c0.4,0.7,0.7,1.3,1.1,1.9c-0.4,0.1-0.8,0.3-1.1,0.4l-0.1,0.3l0.3,0.1l0,0h0.3l0,0c0.8,0,1.3,0.4,1.5,0.5h0.1h0.1v-0.1v-0.1
		c-0.1-0.1-0.3-0.4-0.5-0.8c1.6-0.7,3.8-1.9,6.2-3.2c3.3-1.9,6.6-4.1,8-5.3l0.1-0.3l0.3-0.1c0.5-0.4,1.3-0.7,2.3-0.7l0,0
		c1.5,0,3.4,0.7,6.2,2.9l-0.3,0.1l0.1,0.3l1.5,0.7h0.3v-0.3c0,0,0,0-0.1,0l9.4,2c0-0.1,0.1-0.3,0.3-0.4l-10.3-2.1
		c-3-2.5-5.3-3.4-7-3.4c-1.1,0-1.9,0.4-2.5,0.8l-0.3,0.1l0,0l-0.3,0.3c-1.2,1.2-4.5,3.4-7.8,5.3c-2.4,1.3-4.6,2.5-6.2,3.2
		c-0.3-0.5-0.7-1.2-1.1-1.9c-0.8-1.5-1.6-3.2-2.1-4.5c-2.8-5.8-4.6-9.7-6.6-11.7c-1.5-1.3-2.9-1.7-4-1.7l0,0c-0.4,0-0.7,0-0.9,0.1
		c-1.9,0.3-3.2,1.5-4.4,3.2c-1.2,1.6-2,3.6-3,5.7c-0.5,1.2-1.1,2.4-1.6,3.3c-0.7,1.1-1.3,2-2,2.7c-0.1,0.1-0.1,0.1-0.3,0.3
		c-0.7-4-1.6-6.2-2.7-7.7c-1.1-1.5-2.3-1.9-3.2-1.9h-0.3l0,0c-1.5,0-3.2,0.9-4,3.2c-0.1,0.7-0.7,3.8-1.2,8.6
		c-0.4,2.8-0.8,6.1-1.2,9.7c-0.9-21.6-2-44.1-2.8-61.1c-0.1,0-0.3,0.1-0.4,0.1c0.8,17.8,1.9,41.4,2.9,63.6
		c-1.5,13.1-3.3,29-4.2,37.7c-0.9-19.1-3.3-73.7-4.8-105.7C87.1,38.6,87,38.4,86.7,38.3 M120.9,83.5
		C120.9,83.5,120.9,83.4,120.9,83.5C120.9,83.4,120.9,83.4,120.9,83.5C121.1,83.4,121.1,83.4,120.9,83.5
		C121.1,83.4,121.1,83.5,120.9,83.5 M102.8,89c0.1,0,0.3,0,0.4,0c0.7-0.1,1.2-0.4,1.6-0.8c-0.3,1.5-0.5,4.4-1.1,8.2
		c-0.4-0.8-0.8-1.7-1.1-2.9c-0.4-2.4-0.9-4-1.2-4.8C101.8,88.8,102.2,89,102.8,89 M108.5,92.9C108.6,92.9,108.6,92.8,108.5,92.9
		c0.1,0,0.1,0,0.1,0S108.6,92.9,108.5,92.9 M134.5,97.3C134.6,97.3,134.6,97.3,134.5,97.3c0.1,0,0.1,0,0.1,0S134.6,97.3,134.5,97.3
		 M92.2,146.8c0.8-6.9,2.4-21.5,3.8-34.6c0.1-0.9,0.1-1.9,0.3-2.8c0.7,13.7,1.2,26.8,1.7,37.5L92.2,146.8z M92.2,147.2L92.2,147.2
		l6,0.1l0,0L92.2,147.2z"/>
	<path fill="#F4D0A3" d="M78.6,27.8c-0.1,1.1-0.4,2.3-0.5,3.4c0.1,0.1,0.3,0.1,0.4,0.3c0.1-1.2,0.4-2.4,0.5-3.4
		C78.9,28,78.8,28,78.6,27.8 M86.6,33.4c0,1.6,0.1,3.2,0.3,4.9c0.1,0.1,0.3,0.3,0.4,0.5c-0.1-1.7-0.1-3.3-0.3-4.9
		C86.9,33.7,86.7,33.5,86.6,33.4 M93.5,38.6c-0.1,0.1-0.3,0.4-0.4,0.5c0,1.3,0.1,2.7,0.3,4c0.1,0,0.3-0.1,0.4-0.1
		C93.8,41.5,93.6,40,93.5,38.6 M169.2,92.5c-0.1,0.1-0.1,0.3-0.3,0.4l2.7,0.5l-3.8,6l-2.4-0.8c-0.1,0.1-0.1,0.3-0.3,0.4l2.8,0.8
		l0.3-0.1l4.1-6.4v-0.1l-0.1-0.1L169.2,92.5z M18.6,96.9l-2,0.3l-0.1,0v0.1l4.8,5.7l0.1,0.1l1.9-0.3c-0.1-0.1-0.3-0.3-0.3-0.4
		l-1.5,0.1l-4.4-5.3L19,97C18.7,97.2,18.7,97,18.6,96.9 M21.4,103L21.4,103l0.1-0.1L21.4,103z"/>
	<path fill="#F4D1A4" d="M85.5,4.9l-0.1,0.3c0,0.1,0.4,1.3,0.4,6c0,0.9,0,1.9,0,3c0,0.4,0,0.5,0,0.7s0.1,2.5,0.3,6.6
		c-0.5,3-1.1,6.5-1.6,10.2c0.1,0.1,0.3,0.3,0.4,0.3c0.4-2.9,0.9-5.7,1.3-8.4c0.1,2.8,0.3,6.1,0.4,9.8c0.1,0.1,0.3,0.3,0.4,0.4
		c-0.3-4.9-0.4-9.1-0.5-12.3c0.1-0.9,0.3-1.7,0.4-2.7c0.5-3.6,1.1-6.6,1.6-8.9c0.4-2.3,0.8-3.8,1.1-4.4l-0.1-0.3l-0.3,0.1L89,5.6
		C88.7,5.7,88.3,6,87.5,6l0,0h-0.4C86.2,5.8,85.7,5.2,85.5,4.9L85.5,4.9z M86.3,19.5c-0.1-2.8-0.1-4.5-0.1-4.6c0-0.1,0-0.3,0-0.7
		c0-1.2,0-2.1,0-3c0-2.9-0.1-4.5-0.3-5.3c0.3,0.3,0.8,0.4,1.3,0.5c0.1,0,0.3,0,0.5,0c0.5,0,0.9-0.1,1.2-0.3
		c-0.3,0.8-0.5,2.1-0.9,3.7C87.5,12.3,87,15.6,86.3,19.5"/>
	<path fill="#F4D0A3" d="M84.5,31.7c-0.1,1.2-0.4,2.5-0.5,3.8c0.1,0.1,0.3,0.3,0.4,0.4c0.1-1.3,0.4-2.7,0.5-3.8
		C84.7,32,84.6,31.8,84.5,31.7"/>
</g>
</svg>
