<?xml version="1.0" encoding="utf-8"?>
<!-- Generator: Adobe Illustrator 18.1.0, SVG Export Plug-In . SVG Version: 6.00 Build 0)  -->
<svg version="1.1" id="Layer_1" xmlns="http://www.w3.org/2000/svg" xmlns:xlink="http://www.w3.org/1999/xlink" x="0px" y="0px"
	 viewBox="0 0 92 82" enable-background="new 0 0 92 82" xml:space="preserve">
<polyline fill="none" stroke="#484C4F" stroke-width="3" stroke-miterlimit="10" points="19.1,12.8 19.1,3.8 72.7,3.8 72.7,12.8 "/>
<path fill="none" stroke="#484C4F" stroke-width="3" stroke-miterlimit="10" d="M3,36.7V23.3c0-6.3,2.3-10.5,8.6-10.5h68.9
	c6.3,0,8.6,4.2,8.6,10.5v13.5V49H68v31.2H24.2V49H3V36.7z"/>
<circle fill="#494C4F" cx="13.3" cy="22.2" r="4"/>
<line fill="none" stroke="#484C4F" stroke-width="1.5" stroke-miterlimit="10" x1="25.5" y1="36.9" x2="66.7" y2="36.9"/>
<g>
	<g>
		<path fill="none" stroke="#484C4F" stroke-width="3" stroke-linecap="round" stroke-miterlimit="10" d="M31.1,73c0-0.5,0-1,0-1.5"
			/>
		
			<path fill="none" stroke="#484C4F" stroke-width="3" stroke-linecap="round" stroke-miterlimit="10" stroke-dasharray="2.9542,7.8778" d="
			M32.4,63.7c0.8-2.6,2.3-4.8,4.6-5.6c9.5-3.2,13.4,11.1,18.8,10.8c4-0.3,5.4-10.3,5.8-17.8"/>
		<path fill="none" stroke="#484C4F" stroke-width="3" stroke-linecap="round" stroke-miterlimit="10" d="M61.7,47.2
			c0-0.5,0-1,0-1.5"/>
		<g>
			<g>
				<circle fill="#FFFFFF" cx="31.2" cy="72.8" r="2.8"/>
				<path fill="#484C4F" d="M34.3,72.7c0-1.8-1.5-3.2-3.3-3.1c-1.8,0-3.2,1.5-3.1,3.3c0,1.8,1.5,3.2,3.3,3.1
					C33,76,34.4,74.5,34.3,72.7C34.3,71,34.4,74.5,34.3,72.7z M28.7,72.9c0-1.3,1-2.5,2.4-2.5c1.3,0,2.5,1,2.5,2.4
					c0,1.3-1,2.5-2.4,2.5C29.9,75.3,28.7,74.2,28.7,72.9C28.7,71.5,28.7,74.2,28.7,72.9z"/>
			</g>
		</g>
		<g>
			<circle fill="#484C4F" cx="61.7" cy="45.8" r="2.8"/>
		</g>
	</g>
</g>
</svg>
