<svg version="1.1" xmlns="http://www.w3.org/2000/svg" xmlns:xlink="http://www.w3.org/1999/xlink" viewBox="0 0 140 19">
<g>
	<polygon fill="#474B4E" points="10.5,6.6 8.2,18.4 4.5,18.4 0.4,0.7 4.3,0.7 6.6,13 9.2,0.7 12,0.7 14.5,13 16.8,0.7 20.6,0.7 
		16.6,18.4 12.9,18.4 	"/>
	<path fill="#474B4E" d="M28.6,15.3h-5.5l-0.9,3.1h-3.9l5.3-17.8H28l5.3,17.8h-3.9L28.6,15.3z M23.8,12.1h4.1l-2.1-7.7L23.8,12.1z"
		/>
	<polygon fill="#474B4E" points="34.8,0.7 38.4,0.7 38.4,15.3 44.4,15.3 44.4,18.4 34.8,18.4 	"/>
	<polygon fill="#474B4E" points="50.4,11.5 49.2,13.5 49.2,18.4 45.6,18.4 45.6,0.7 49.2,0.7 49.2,8.7 54.2,0.7 58.4,0.7 52.7,9 
		58.8,18.4 54.5,18.4 	"/>
	<path fill="#474B4E" d="M61,0.7h7.4c0.8,0,1.5,0.1,2.1,0.4c0.6,0.2,1.1,0.6,1.5,1c0.4,0.4,0.7,0.9,0.9,1.4C73,4,73.1,4.6,73.1,5.2
		c0,1.1-0.3,2-0.8,2.7c-0.6,0.7-1.2,1.1-2.1,1.3c0.4,0.1,0.9,0.2,1.3,0.5c0.4,0.3,0.7,0.6,1,1c0.3,0.4,0.5,0.8,0.7,1.3
		c0.2,0.5,0.2,1,0.2,1.6c0,0.7-0.1,1.3-0.3,1.9c-0.2,0.6-0.5,1.1-0.9,1.5c-0.4,0.4-0.9,0.8-1.5,1s-1.3,0.4-2.1,0.4H61V0.7z
		 M68.9,7.3c0.3-0.4,0.5-0.9,0.5-1.5c0-0.6-0.2-1.1-0.5-1.4c-0.3-0.4-0.8-0.6-1.4-0.6h-3v4h3C68.1,7.8,68.6,7.6,68.9,7.3 M69.2,14.7
		c0.4-0.4,0.5-0.9,0.5-1.6c0-0.6-0.2-1.1-0.5-1.6c-0.4-0.4-0.9-0.6-1.5-0.6h-3.1v4.3h3.1C68.3,15.3,68.8,15.1,69.2,14.7"/>
	<rect x="75.9" y="0.7" fill="#474B4E" width="3.6" height="17.8"/>
	<polygon fill="#474B4E" points="87.5,11.5 86.2,13.5 86.2,18.4 82.6,18.4 82.6,0.7 86.2,0.7 86.2,8.7 91.2,0.7 95.4,0.7 89.7,9 
		95.8,18.4 91.6,18.4 	"/>
	<polygon fill="#474B4E" points="96.5,0.7 106.7,0.7 106.7,3.8 100.1,3.8 100.1,7.8 106.6,7.8 106.6,10.9 100.1,10.9 100.1,15.3 
		106.7,15.3 106.7,18.4 96.5,18.4 	"/>
	<polygon fill="#EF4638" points="114.3,7.6 114.3,18.4 110.7,18.4 110.7,0.7 114.4,0.7 120.3,11.1 120.3,0.7 123.8,0.7 123.8,18.4 
		120.4,18.4 	"/>
	<path fill="#EF4638" d="M130.7,18.1c-0.9-0.5-1.7-1.1-2.4-1.9c-0.6-0.8-1.2-1.8-1.5-2.9c-0.4-1.1-0.5-2.4-0.5-3.7
		c0-1.3,0.2-2.6,0.5-3.7c0.4-1.1,0.9-2.1,1.5-2.9c0.6-0.8,1.4-1.4,2.4-1.9c0.9-0.5,2-0.7,3.2-0.7c0.9,0,1.6,0.1,2.2,0.4
		c0.6,0.2,1.2,0.6,1.7,1c0.5,0.4,0.9,0.9,1.2,1.4c0.3,0.5,0.6,1,0.8,1.5l-3,1.3c-0.3-0.7-0.7-1.3-1.2-1.7c-0.5-0.4-1.1-0.7-1.8-0.7
		c-0.6,0-1.2,0.2-1.7,0.5c-0.5,0.3-0.9,0.7-1.2,1.3c-0.3,0.5-0.6,1.2-0.8,1.9c-0.2,0.7-0.3,1.5-0.3,2.4c0,0.9,0.1,1.7,0.3,2.4
		c0.2,0.7,0.4,1.4,0.8,1.9c0.3,0.5,0.7,0.9,1.2,1.3c0.5,0.3,1,0.5,1.7,0.5c0.7,0,1.4-0.2,1.9-0.7c0.5-0.5,0.9-1.1,1.1-1.9l3,1.3
		c-0.2,0.5-0.5,1.1-0.8,1.6c-0.3,0.5-0.7,1-1.2,1.4c-0.5,0.4-1,0.8-1.7,1c-0.6,0.3-1.4,0.4-2.3,0.4
		C132.6,18.7,131.6,18.5,130.7,18.1"/>
</g>
</svg>
