<svg version="1.1" xmlns="http://www.w3.org/2000/svg" xmlns:xlink="http://www.w3.org/1999/xlink" viewBox="0 0 91.8 10">
<g>
	<polygon fill="#484C4F" points="5.8,3.4 4.5,9.7 2.5,9.7 0.3,0.2 2.4,0.2 3.7,6.8 5.1,0.2 6.6,0.2 7.9,6.8 9.2,0.2 11.2,0.2 
		9.1,9.7 7.1,9.7 	"/>
	<path fill="#484C4F" d="M15.6,8.1h-3l-0.5,1.7H10l2.9-9.6h2.4l2.9,9.6H16L15.6,8.1z M13,6.3h2.2l-1.1-4.2L13,6.3z"/>
	<polygon fill="#484C4F" points="18.9,0.2 20.9,0.2 20.9,8.1 24.1,8.1 24.1,9.7 18.9,9.7 	"/>
	<polygon fill="#484C4F" points="27.4,6 26.7,7.1 26.7,9.7 24.8,9.7 24.8,0.2 26.7,0.2 26.7,4.5 29.4,0.2 31.7,0.2 28.6,4.6 
		31.9,9.7 29.6,9.7 	"/>
	<path fill="#484C4F" d="M33.1,0.2h4c0.4,0,0.8,0.1,1.1,0.2c0.3,0.1,0.6,0.3,0.8,0.5s0.4,0.5,0.5,0.8c0.1,0.3,0.1,0.6,0.1,0.9
		c0,0.6-0.2,1.1-0.4,1.5c-0.3,0.4-0.6,0.6-1.1,0.7c0.2,0.1,0.5,0.1,0.7,0.3s0.4,0.3,0.5,0.5c0.2,0.2,0.3,0.4,0.4,0.7
		c0.1,0.3,0.1,0.5,0.1,0.9c0,0.4-0.1,0.7-0.2,1c-0.1,0.3-0.3,0.6-0.5,0.8s-0.5,0.4-0.8,0.5s-0.7,0.2-1.1,0.2h-4.1V0.2z M37.4,3.7
		c0.2-0.2,0.3-0.5,0.3-0.8s-0.1-0.6-0.3-0.8c-0.2-0.2-0.4-0.3-0.8-0.3H35V4h1.6C36.9,4,37.2,3.9,37.4,3.7 M37.5,7.7
		c0.2-0.2,0.3-0.5,0.3-0.9c0-0.3-0.1-0.6-0.3-0.9c-0.2-0.2-0.5-0.3-0.8-0.3H35V8h1.7C37,8.1,37.3,7.9,37.5,7.7"/>
	<rect x="41.1" y="0.2" fill="#484C4F" width="1.9" height="9.6"/>
	<polygon fill="#484C4F" points="47.4,6 46.7,7.1 46.7,9.7 44.8,9.7 44.8,0.2 46.7,0.2 46.7,4.5 49.4,0.2 51.7,0.2 48.6,4.6 
		51.9,9.7 49.6,9.7 	"/>
	<polygon fill="#484C4F" points="52.3,0.2 57.8,0.2 57.8,1.8 54.2,1.8 54.2,4 57.7,4 57.7,5.7 54.2,5.7 54.2,8.1 57.8,8.1 57.8,9.7 
		52.3,9.7 	"/>
	<polygon fill="#EF4739" points="61.9,3.9 61.9,9.7 59.9,9.7 59.9,0.2 61.9,0.2 65.1,5.8 65.1,0.2 67,0.2 67,9.7 65.2,9.7 	"/>
	<path fill="#EF4739" d="M70.8,9.6c-0.5-0.3-0.9-0.6-1.3-1c-0.3-0.4-0.6-1-0.8-1.6c-0.2-0.6-0.3-1.3-0.3-2s0.1-1.4,0.3-2
		c0.2-0.6,0.5-1.1,0.8-1.6s0.8-0.8,1.3-1C71.2,0.1,71.8,0,72.5,0c0.5,0,0.9,0.1,1.2,0.2c0.3,0.1,0.6,0.3,0.9,0.5s0.5,0.5,0.6,0.8
		s0.3,0.5,0.4,0.8L74.1,3c-0.2-0.4-0.4-0.7-0.6-0.9c-0.3-0.2-0.6-0.4-1-0.4c-0.3,0-0.6,0.1-0.9,0.3S71,2.4,70.9,2.7
		c-0.2,0.3-0.3,0.6-0.4,1c-0.1,0.4-0.2,0.8-0.2,1.3s0.1,0.9,0.2,1.3c0.1,0.4,0.2,0.8,0.4,1c0.2,0.3,0.4,0.5,0.6,0.7
		c0.3,0.2,0.5,0.3,0.9,0.3c0.4,0,0.8-0.1,1-0.4c0.3-0.3,0.5-0.6,0.6-1l1.6,0.7c-0.1,0.3-0.3,0.6-0.4,0.9c-0.2,0.3-0.4,0.5-0.6,0.8
		s-0.5,0.4-0.9,0.5c-0.3,0.2-0.8,0.2-1.2,0.2C71.8,9.9,71.2,9.8,70.8,9.6"/>
	<path fill="#AAA670" d="M77.6,9.7V6.1h1.3c0.3,0,0.5,0,0.6,0.1s0.3,0.1,0.4,0.2s0.2,0.2,0.2,0.3c0.1,0.1,0.1,0.3,0.1,0.4
		c0,0.1,0,0.2,0,0.2s-0.1,0.1-0.1,0.2c0,0.1-0.1,0.1-0.2,0.2c-0.1,0.1-0.2,0.1-0.3,0.1C80,7.9,80.1,8,80.3,8.1s0.2,0.3,0.2,0.5
		c0,0.2,0,0.3-0.1,0.4c-0.1,0.1-0.1,0.2-0.3,0.3c-0.1,0.1-0.3,0.2-0.4,0.2s-0.4,0.1-0.6,0.1H77.6z M78.5,7.6h0.4c0.1,0,0.2,0,0.3,0
		c0.1,0,0.1,0,0.2-0.1c0.1,0,0.1-0.1,0.1-0.1c0-0.1,0-0.1,0-0.2c0-0.1,0-0.2,0-0.2s-0.1-0.1-0.1-0.1s-0.1-0.1-0.2-0.1
		c-0.1,0-0.2,0-0.2,0h-0.5V7.6z M78.5,8.2v0.9H79c0.1,0,0.2,0,0.3,0c0.1,0,0.1-0.1,0.2-0.1s0.1-0.1,0.1-0.2c0-0.1,0-0.1,0-0.2
		c0-0.1,0-0.1,0-0.2c0-0.1,0-0.1-0.1-0.1c0,0-0.1-0.1-0.2-0.1c-0.1,0-0.2,0-0.3,0H78.5z"/>
	<path fill="#AAA670" d="M83.7,6.1v0.7h-1.5v0.8h1.1v0.6h-1.1v0.9h1.5v0.6h-2.3V6.1H83.7z"/>
	<path fill="#AAA670" d="M87.4,6.1v0.7h-1v3h-0.8v-3h-1V6.1H87.4z"/>
	<path fill="#AAA670" d="M91.2,9.7h-0.7c-0.1,0-0.1,0-0.2-0.1c0,0-0.1-0.1-0.1-0.1L90,8.9h-1.4l-0.2,0.6c0,0,0,0.1-0.1,0.1
		c0,0-0.1,0.1-0.2,0.1h-0.7l1.4-3.6h0.9L91.2,9.7z M88.9,8.3h1l-0.3-1c0-0.1,0-0.1-0.1-0.2s-0.1-0.2-0.1-0.3c0,0.1-0.1,0.2-0.1,0.3
		c0,0.1-0.1,0.2-0.1,0.2L88.9,8.3z"/>
</g>
</svg>
