<svg version="1.1" id="Layer_1" xmlns="http://www.w3.org/2000/svg" xmlns:xlink="http://www.w3.org/1999/xlink" x="0px" y="0px"
	 viewBox="0 0 410 192" enable-background="new 0 0 410 192" xml:space="preserve">
<line fill="none" stroke="#86888A" stroke-width="0.5" stroke-miterlimit="10" x1="184.2" y1="127.6" x2="131.1" y2="127.6"/>
<polygon fill="#86888A" points="188.9,127.6 182.6,125.3 182.6,129.9 "/>
<path fill="#2C85C1" d="M399,51.4l0.1,0.1l0.1,0.3l0.1,0.1l0.1,0.1l0.4,0.7l0.7,1.6l-0.1,0.4v0.1v0.4l0.1,0.5v0.1l0.1,0.7l-0.3,0.4
	h-0.1l-0.8-0.5l-1.3-0.3l-0.3-0.4l0.7-0.4v-0.1v-0.1V55v-0.1v-0.4l-0.1-0.5l-0.1-0.4l-0.4-0.7h-0.4l-0.8-1.1v-0.4v-0.1l-0.3-0.3
	l-0.9-0.5l-0.3-0.4V50l0.4-0.3h0.7l0.7,0.1l0.1,0.3l0.5,0.1l0.1,0.1l0.5,0.4h0.1l-0.1,0.3v0.5h0.4L399,51.4z M395.4,91.2l0.4-0.3
	l0.5-0.1l0.8-0.3l0.4-0.3l0.4-0.4l0.3-0.1l0.3-0.4l0.1-0.1h0.1l0.3,0.3h0.5l1.1-0.4l0.3-0.1l0.3-0.1l0.5-0.5l0.1-0.1l0.7-0.4
	l0.1-0.3v-0.4V87l0.1,0.1h0.4l0.1,0.1l1.1-0.1l0.7-0.3l0.4-0.1l0.1-0.3l0.1-0.7l0.3-1.6l0.1-1.1l0.3-1.4l0.3-1.4l0.1-2.1l0.3-1.6
	l0.3-1.8l-0.1-0.7v-0.5v-1.1l0.3-0.7l0.1-0.8l-0.1-2.6l-0.1-1.3l-0.4-1.4l-0.3-0.5l-0.1-0.4h-0.1l-0.1-0.4l-0.3-0.4l-0.1-0.7
	l-0.3-1.1v-0.7l-0.1-0.4v-0.3l-0.3-0.5l-0.1-0.5l-0.1-0.3l-0.1-0.4l-0.1-0.4l0.1-0.3l0.3,0.1l0.9,1.6l0.1,0.1v0.1l0.3,0.7l0.9,2.8
	l0.3,1.1l0.4,2l0.4,1.6v0.5v0.3v0.1v0.4l-0.1,1.1v0.3v0.7l-0.1,3.3l-0.5,4.1v0.5l-0.1,0.3l-0.5,4.1l-0.5,2.8V87v0.1l-0.1,0.3v0.4
	l-0.1,0.5v0.1l-0.1,0.4l-0.3,0.5h-0.1l-0.4-0.1l-0.8-0.1h-0.9l-1.3,0.3l-1.2,0.5l-1.6,0.7l-2.6,1.1l-0.9,0.4l-0.4,0.1l-0.3,0.1h-0.3
	l-0.9,0.5l-2.2,1.2l-3.3,1.8l-1.4,0.9l-0.8,0.8l-0.9,0.5l-0.8,0.9h-0.3v0.1l-0.3,0.1l-0.1-0.1l0.1-0.3l0.5-0.9l0.4-0.4l0.1-0.5
	l-0.1-0.4v-0.4h0.1l0.1-0.1V96h0.1h0.3l0.1-0.1l0.3,0.3l0.5-0.1l1.4-0.9l0.7-0.4l0.7-0.5l2.5-1.3l0.9-0.3l0.3-0.1l0.5-0.3l0.4-0.3
	l0.3-0.4L395.4,91.2z M16,82.7l0.1-0.1l0.1-0.1l0.1-0.3l-0.3-0.5l-0.3-0.1h-0.1l0.1-0.3l0.1-0.5v-0.1l0.1-0.1v-0.1L16,80.2l-0.3-0.7
	l0.1-0.1l0.5-0.3l0.3-0.1v-0.1l0.3-0.3l0.3-0.4v-0.4v-0.1v-0.1h-0.1l0.1-0.1l0.1-0.1v-0.1l-0.3-0.4h-0.1l-0.1-0.1l-0.1-0.3v-0.1
	l0.1-0.1l0.1-0.1h0.1l0.1-0.1l0.3-0.4h0.1l0.1-0.1v-0.1l0.1-0.3l0.1-0.1l0.1-0.3l0.4-0.1l0.3-0.4h0.3v-0.1l0.1-0.1v-0.1l0.1,0.1h0.1
	l0.1-0.3v-0.3h0.1h0.1l0.1,0.3l0.1-0.1l0.4-0.1V73l0.3-0.3h0.4v-0.1h0.1l0.3,0.1h0.1l0.3-0.1l0.1-0.3v-0.3l0.1-0.3h0.3v-0.1v-0.1
	v-0.1l0.3-0.3h0.1l0.4-0.5l0.1-0.3l0.1-0.1l0.3-0.1h0.4h0.3h0.1l0.1,0.1H25h0.4l0.4-0.3l0.1,0.1H26l0.7-0.5l0.1-0.1l0.3-0.3l0.8-0.3
	l0.3-0.3l0.4-0.3v-0.3h0.4h0.1l0.1-0.1l0.4,0.1l0.7-0.1l0.1,0.1h0.4h0.1l0.7-0.3h0.1h0.1H32h0.7h0.3H33h0.4h0.1l0.1,0.1l0.1-0.1
	l0.1,0.1l0.4,0.1h0.3h0.1V68H35l0.8-0.3l0.3-0.3h0.1l0.1,0.1l0.4,0.3l0.3,0.4v0.1h0.1h0.1h0.3l0.1-0.1h0.3l0.4,0.1h0.3h0.5h0.4H40
	l0.1,0.1l0.9,0.1l0.3-0.3h0.3l0.3-0.5l0.1-0.1v-0.1v-0.1h0.1l0.1-0.1v-0.1l0.1-0.1h0.4l0.3-0.4l0.3-0.3l0.3-0.3v-0.1h0.3l0.4,0.1
	h0.1l0.3-0.1h0.1v-0.1l0.4-0.1l0.3-0.1l0.1-0.1h0.3l0.3-0.1l0.1-0.4v-0.1h0.4h0.1v-0.1l0.3-0.1l0.1,0.1h0.1l0.4-0.4v-0.1l0.1-0.1
	v-0.1v-0.1l0.1-0.1l0.1-0.1v-0.1l0.1,0.1l0.4-0.1l0.1-0.1l0.7,0.1l0.1,0.3l0.3,0.3h0.1l0.4-0.1h0.1l0.3-0.3l0.1-0.3v-0.4l0.4-0.3
	h0.3l0.3-0.1l0.1-0.3l0.1-0.1h0.1l0.1-0.1l0.1-0.1v-0.1l0.1-0.3l-0.1-0.1l0.1-0.3v-0.1v-0.1v-0.1v-0.1l0.1-0.1l0.4-0.1l0.1-0.1V60
	h0.4l0.4,0.1l0.1-0.1l0.1,0.1h0.1h0.5H55h0.1l0.4-0.1h0.1l0.3-0.4v-0.1l0.1-0.3l0.3-0.1h0.1l0.3-0.5v-0.1v-0.1l0.1-0.1L57,58h0.3
	l0.3,0.1V58l0.9-0.1l0.4,0.1l0.3-0.1l0.1-0.1l0.3-0.1h0.1h0.1v-0.1h0.1l0.5-0.4V57l0.3-0.1h0.3l0.4,0.1h0.1h0.1l0.3-0.1l0.3,0.1v0.1
	h0.1h0.1h0.1l0.1-0.1l0.3,0.1l0.3,0.1l0.3,0.1l0.3,0.1l0.3,0.1l0.3,0.3h0.3h0.1l0.4-0.3l0.3-0.3l0.1-0.3l0.3-0.1H66l0.1-0.1L66,56.7
	l0.1-0.3l0.1-0.1v-0.1l0.1-0.1v-0.1l0.1-0.4l0.4-0.4V55h0.4l0.1-0.4l0.1-0.1l0.1-0.1h0.1h0.1l0.1-0.1v-0.1v-0.4l0.1-0.5v-0.3h0.1
	l0.3-0.3h0.3l0.1-0.1l0.1-0.1v-0.1v-0.1H69V52l-0.1-0.1v-0.1l0.1-0.1v-0.1v-0.1l-0.1-0.1v-0.7l-0.3-0.3v-0.1V50v-0.1v-0.1v-0.3h0.1
	h0.1l0.1-0.1h0.1v-0.1v-0.4l0.1-0.4l0.1,0.1l0.1-0.1l0.4-0.1l0.5-0.3l0.1,0.1l0.4,0.3l0.4-0.1l0.1,0.1l0.4,0.4l0.3,0.3l0.3,0.1
	l0.1,0.3l0.1,0.4l0.3-0.1l0.3-0.1h0.1h0.1l0.1-0.1l-0.1-0.3v-0.1l0.3-0.4l0.5-0.4h0.1v-0.4v-0.3h0.1v-0.1h0.3l0.1-0.3v-0.1L74.8,47
	h-0.1l-0.1-0.1v-0.5l0.1-0.1l0.1-0.1v-0.3l0.1-0.1l0.5-0.1l0.3-0.1H76l0.1-0.1l0.9-0.5l0.1-0.1l0.1,0.1l0.4-0.3l0.1-0.1v-0.1v-0.1
	h0.1h0.1l0.3-0.1l0.1-0.1l0.5-0.3l0.1-0.1v-0.1l0.1-0.1l0.5-0.1l0.1-0.1l0.3-0.1l0.3-0.1h0.1h0.3l0.1-0.1l0.1-0.1l0.3-0.1h0.3
	l0.1,0.1l0.4,0.4l0.1,0.1V43l-0.1,0.3h0.3l0.1,0.1l0.1,0.1l0.3,0.1v0.1l0.1,0.1l0.1,0.1v0.1v0.1v0.1l-0.3,0.3l-0.1,0.1l-0.3,0.4
	l-0.1,0.3l-0.1,0.1v0.3v0.3l0.1,0.1h0.1l0.1,0.3l-0.1,0.1l-0.1,0.7v0.1v0.3h0.1l0.3,0.1h0.3l0.1-0.1l0.5,0.1h0.1v0.3l0.1,0.1
	l0.3,0.1l0.5,0.1l0.1-0.4l0.3-0.1l0.3-0.3h0.1h0.3l0.1-0.1l0.4-0.1h0.1l0.1-0.1h0.3h0.3l0.3-0.3l0.4-0.4l0.3-0.1l0.1-0.1v-0.1
	l0.1-0.1l0.3-0.1l0.5-0.3l0.1-0.1l0.1-0.1l1.7-2.9l0.3-0.5l0.4-0.5l0.3-0.3l0.7-0.5h0.1l0.3-0.1l0.1-0.1l0.1-0.1h0.1l0.3-0.1
	l0.3-0.1V40l0.3-0.1l0.3-0.1v0.1h0.1h0.4h0.3l0.1-0.1h0.1h0.3l0.1-0.1l0.4-0.3l0.1-0.1l0.1-0.1l0.3-0.1l0.4-0.1l0.1,0.1l0.3,0.3h0.1
	H98h0.1v0.1h0.1h0.1l0.1-0.1l0.1-0.3h0.1h0.1L99,39l0.1,0.1l0.1-0.1l0.1-0.1v-0.1l0.3-0.1h0.1v-0.1l0.3-0.3l0.1-0.1l0.1-0.3v-0.1
	l0.3-0.1h0.1h0.1l0.3,0.1l0.1,0.1l0.1,0.1l0.3,0.1l0.1,0.1h0.1l0.1,0.1v0.1h0.1h0.1h0.1l0.1-0.1h0.1h0.4l0.3-0.1h0.3h0.1l0.1,0.3
	l0.1,0.3v0.1l0.1,0.5v0.3V40l0.1,0.3l0.1,0.4l0.1,0.1h0.5l0.3-0.1h0.1h0.1l0.1,0.1h0.1h0.7h0.1h0.1l0.5-0.3l0.3-0.1l0.3-0.4v-0.1
	l0.1-0.3l0.3,0.1h0.1l0.3,0.3h0.1h0.1l0.1-0.1h0.1v-0.3v-0.1l0.4-0.5l0.1-0.3l0.8-1.3v-0.1l0.5-0.7l0.7-1.2l0.1-0.4l0.5-0.9l1.1-1.5
	l0.3-0.5l0.8-1.2l0.4-0.8l0.5-0.4l0.1,0.1l0.4-0.1l0.3-0.3l0.1-0.1l0.1-0.1l0.1-0.3l0.4-0.4l0.3-0.3h0.1l0.1-0.1l0.3-0.1l0.3-0.1
	l0.4-0.3h0.4l0.5-0.1l0.1-0.3l0.4-0.1h0.1h0.1l0.1,0.1v0.1v0.1l0.1,0.1h0.1h0.1l0.3,0.1l0.4,0.3v0.1h0.3v0.1h0.1h0.1h0.1h0.1h0.1
	h0.1l0.1-0.1h0.1h0.1h0.3h0.1l0.3,0.1l0.1,0.1l0.3,0.1l0.3-0.1v-0.1v-0.1v-0.3l-0.3-0.3h-0.3l-0.1-0.1v-0.1l-0.1-0.3v-0.1v-0.1v-0.3
	l-0.3-0.3l-0.1-0.1V26l0.1-0.1v-0.1l0.1-0.3l-0.1-0.1v-0.1l-0.1-0.1l-0.1-0.1l-0.1-0.3v-0.3l0.1-0.3l0.1-0.1l0.3-0.1l0.4-0.4
	l0.1-0.3V23l0.1-0.3v-0.1v-0.1v-0.1l0.1-0.1v-0.3l-0.1-0.1v-0.1l0.4-0.3l0.3-0.1h0.1l0.1-0.1V21l0.1-0.3v-0.1h-0.1v-0.5v-0.3v-0.1
	v-0.1v-0.1l-0.1-0.1v-0.1l0.1-0.1v-0.3l-0.1-0.1v-0.1v-0.1v-0.3h-0.1V18l-0.1-0.1v-0.1v-0.3v-0.3h0.3l0.1-0.1v-0.3l0.3-0.3l0.1-0.1
	v-0.3v-0.3l-0.1-0.1v-0.1l0.1-0.1v-0.1l0.1,0.1h0.4v-0.1h0.1v-0.1v-0.1l-0.1-0.3v-0.1v-0.3l0.1-0.1l3.4,0.3l3,0.3l0.5,0.1h1.1
	l0.1,0.1h0.3l0.7-0.1l0.8,0.1l0.5,0.1h0.1l3,0.3h1.1h1.3h0.7l1.7,0.1h0.4h0.1h0.4l1.4,0.1h0.7h1.2l0.3,0.1h0.8h0.1l0.1,0.1h0.3h0.3
	h0.5h0.7l0.3,0.1h0.9h0.7h0.3h0.1l2.2,0.3h0.3h0.9h0.3l1.4,0.1h0.1l1.8,0.1h0.1l2.8,0.1h0.7h0.8h0.1h0.1h0.3h0.9h1.3l0.7-0.1
	l1.2,0.1h0.1h0.3l1.1,0.1h0.4h0.4l0.9,0.1h0.4h0.5l1.3,0.1h0.9h0.1l0.9,0.1h1.3l1.3,0.1l1.8,0.1h0.4l2.2,0.1l0.1,0.1h1.5l0.5,0.1
	h0.7l1.2,0.1h3h0.1h1.5h0.4h0.1h0.4h0.1l2.1,0.1h0.9h0.3h1.4h0.5h1.2h1.6h0.1h0.9l2.1,0.1h0.5h0.3h0.1h0.7h0.9h1.1h0.1h0.4h1.1h1.1
	h0.4h0.1h1.6h0.3h0.8l2.1,0.1h1.7h1.1h3.8h0.1h0.4h0.7h1.2h0.1h0.9h0.3h1.7h0.5h1.2h0.9l3.6,0.1h0.7l1.4-0.1h0.3h0.1h0.1h0.9h2.1
	h0.5h0.1h3.2h3.4h0.3h0.1h0.3h0.9h1.1h0.3h0.5h1.4h1.1h2.2h0.5h0.5h0.3h0.1h0.3h1.2h2.9h0.3h0.4h0.1h1.2h0.1h0.8h0.4h2.5h0.4h0.1
	h0.9h1.2h0.3h0.3h0.7l0.7-0.1h0.3h2.4h2.6h0.5l2.2-0.1h0.8h0.5h1.6h3h0.1h0.7h0.4h2.6h0.4l6.3-0.1h0.5h0.3h0.3h0.3l4.6-0.1h0.1h0.7
	h0.5h3h1.2h2.1l0.5-0.1h0.1h0.3h3.6h1.1h2.8h1.8l2.6-0.1h0.8h2h1.2h1.1l0.7-0.1l0.9-0.1l0.1,0.1l0.7,0.1l1.2-0.1h1.1h0.1h0.1h0.7
	h0.5h2.6l4.1-0.1h0.3l-0.1-0.1V17h0.1h0.8l4.1-0.1h1.2h1.2h0.3h0.4l1.2-0.1h2h1.7l2.5-0.1h1.6h2.2l1.2-0.1h3.6h0.4l2.9-0.1l3.6-0.1
	h1.8h1.8l1.3-0.1l4-0.1h0.4h3.2h0.1l1.4-0.1h0.5h0.1h0.1h0.1h0.4h0.3h0.3h0.1h0.5l0.5,2.8l1.2,4.3v0.3l0.8,3.3l0.8,2.6l0.4,1.1
	l0.4,1.2l0.1,0.4l0.5,1.6v0.1l0.1,0.1l0.5,1.3l1.1,2.8l0.1,0.1V38l0.4,0.8L395,39l0.4,0.9l0.4,0.8l0.7,1.3l0.7,1.2l0.3,0.3l0.5,0.9
	l0.4,0.7l0.7,1.4l0.3,0.7l0.5,0.9v0.1h0.1l1.7,3.6l0.9,1.7v0.1l0.1,0.1v0.1l0.3,0.8l0.5,1.3l0.1,0.1l0.5,1.2v0.1l0.3,0.4l0.1,0.1
	h-0.1l-0.1,0.4H404l-0.1-0.3V58l-0.3-0.5l-0.1-0.1l-0.3-0.3l-0.3-0.5l-0.4-0.8l-0.7-0.8l-0.1-0.1l-0.5-1.2l-0.1-0.1l-0.8-1.2v-0.3
	l0.1-0.3v-0.4l-0.1-0.4l-0.1-0.7l-0.5-0.8l-0.8-1.5l-0.3-0.1l-0.7-0.5l-0.1-0.3v-0.1l-0.1-0.1l-0.1-0.1l-0.1-0.1l-0.3-0.1l-1.7-0.4
	l-0.3-0.4v-0.5l0.3-0.7v-0.3l-0.3-0.1h-0.3h-0.3v-0.1l-0.1-0.3v-0.5V43v-0.3v-0.1v-0.4l-0.3-0.9l-0.3-1.6v-0.5V39l-0.1-0.5l-0.3-0.7
	l-0.9-2.6l-0.4-0.8l-0.4-0.7h-0.1l-0.1-0.1l-0.3-0.3l-0.4-0.5v-0.1l0.1-0.7l-0.4-1.4l-0.4-0.4h-0.4l-0.3-0.1l-0.3-0.7l0.1-1.2
	l0.4-0.7v-0.4l-0.3-0.9l-0.4-0.4l-0.1-0.1l-0.3-0.4v-0.3v-1.6v-0.1l-0.7-0.8l-0.7-0.3l-0.4-0.4l-0.1-1.1l-0.4-1.2h-0.1l-0.3-0.1
	l-0.3-0.1l-0.1,0.1l-0.4,0.1h-0.1l-0.4-0.4l-1.1-0.3l-0.7,0.1l-1.3-0.7l-0.4,0.1h-0.4l-0.1,0.3l-0.3,0.3l-0.1,0.7l0.7,1.3l0.3,0.7
	l0.4,0.3l0.7,0.3l0.5,0.1l0.8,0.9h0.4l0.5-0.1l0.3-0.1l0.1-0.3l0.1-0.1l0.3,0.1l0.4,2.1v0.3l-0.1,0.4l-0.1,0.4v0.1v0.3l0.3,0.5h0.1
	l0.9,1.8l0.3,0.9l0.1,0.5l0.3,0.5h0.4h0.4l0.3,0.1l-0.1,0.8l-0.1,0.8l0.1,0.9l0.3,0.8l0.5,0.3l0.4,0.8v0.1v0.3v0.1v0.1v0.8l0.1,0.1
	l0.1,0.3l0.5,0.7l0.1,0.7l0.4,0.5l0.7,1.3l0.4,1.7v0.1l-0.1,0.4h-0.3l-1.6-1.1l-0.7-0.5l-0.9-1.4l0.1-0.8l-0.1-0.5l-0.1-0.1
	l-0.3-0.1l-0.5-0.1l-0.8-0.3h-0.7l-0.3,0.1l-0.7-0.1l-2.5-0.7l-1.1-0.4l-0.1-0.1h-0.5l-0.7,0.4h-0.3l-0.5,0.5v0.1v0.3l0.3,0.7v0.3
	l-0.3,0.3l-0.3,0.3l-0.9,0.3l-1.1,0.3l-2.9,0.5l-0.3,0.1l-0.3,0.3v0.3V41l-1.1,0.7l-1.1-0.1l-1.2-0.3h-1.1l-0.5,0.3l-0.3,0.4
	l-0.8,0.5h-0.4l-0.3-0.1l-0.8,0.1l-2.4,0.4l-0.1,0.1v0.1l-0.1,0.1l-0.3,0.7l-1.1,1.1l-0.4,0.3l-0.3,0.5V46l-1.4,0.4l-1.1,0.7
	l-1.6-0.1h-0.7l-0.5,0.3l-0.3-0.1l-0.4-0.4l-0.3-0.4l-0.4-0.7l-0.5-0.1l-0.8-0.1l-0.9,0.3l-0.7,0.8l-0.1,0.1l-0.7,0.5l0.1,0.5
	L352,48l-0.3,0.5l-0.4,0.5l-0.3,0.5l0.1,0.8l0.3,0.3v0.1l0.9,0.5h0.3l0.4-0.1l2.2-0.1l0.3-0.1l0.8-0.1h0.8l0.5-0.1h1.3l0.5-0.3
	l0.4-0.1l0.4-0.3l1.1-0.4l0.7-0.5l2.8-0.9l0.4,0.3l0.4,0.5v0.4l0.8,1.1l0.1,0.1l1.1-0.1l0.7-0.1l0.3-0.1l2.1-1.4l2.6-0.9l1.7-0.4
	h0.5h3.2l0.5,0.1l0.9-0.3l1.7,1.2l0.5,0.7v0.1l-0.3,1.3l0.5,1.1l0.3,0.5l0.3,0.1l0.9,0.3l0.5-0.1l0.3-0.1l0.5-1.1l0.7-0.4l0.1-0.1
	l0.1-0.1V50l-0.5-0.5l-0.3-0.1l-0.1-0.1v-0.3l0.4-0.3l1.7-0.8h0.9h0.7h0.3h0.4l2,0.9l0.1,0.3l0.3,0.5l0.8,0.5v0.4l0.3,0.5l0.4,0.9
	l0.9,1.3l-0.1,0.4l0.3,1.1l0.7,0.7l0.4,0.9V57l-0.1,1.2l-0.3,0.7l-0.1,0.4l0.1,0.1l0.1,0.1l0.5,1.3v0.1v0.3l0.3,1.2l0.1,0.1l0.1,0.3
	l0.1,0.5l-0.1,0.3l-1.2,1.2v0.9l0.1,0.5l0.1,0.4l0.4,0.5v0.3l-0.8,0.8l-0.1,0.1l-0.4,0.1l-0.1,0.1l-0.1,0.1l-0.1,0.1l-0.4,0.4
	l0.1,0.8l-1.1,0.3l-1.8,0.3l-0.7-0.4l-0.4-0.4l-0.4,0.1l-1.2,0.7l-0.5,0.8v0.3V72l-0.4,0.5l-1.3,0.3l-0.1,0.1l-0.3,0.3l-0.4,0.9v0.4
	l0.1,0.4V75l-1.2,0.5l-0.3,0.5v0.4v0.3l-0.1,0.7l-0.5,0.7l-0.1,0.5l0.1,0.5l-0.1,0.3l-0.3,0.4l-0.3,0.1l-0.5-0.3l-0.7-0.1l-0.4,0.4
	l-0.1,0.3v0.4l0.1,0.3l0.1,0.5l-0.5,0.7l-1.1,0.7l-1.3,0.5l-0.4,0.1l-0.5,0.7v0.5l-0.3,0.1l-0.8-0.1l-0.1-0.1l-0.5-0.3h-1.2
	l-1.3-0.7h-0.7h-0.1l-0.3,0.4h-0.3l-0.8-0.1l-1.1-0.5h-1.1l-0.4,0.1l-0.3,0.4l-0.4,0.1l-0.7-0.1l-0.5-0.4l-0.3-0.1l-0.3,0.1
	l-0.5,0.4h-0.4l-0.1-0.3l-0.5-0.3l-0.3-0.1h-0.3l-0.1-0.9l-0.7-0.3H363l-0.3,0.1l-0.5,0.5h-0.5L361,82l-1.1-0.5l-1.2,0.1l-1.4,0.1
	l-1.2,0.1l-0.7,0.5l-0.4,0.5l0.4,1.2l0.7,0.4l0.1,0.1l0.7,0.1l1.6,0.1l0.3,0.1l2.2,0.3l0.8,0.5l0.5,1.1l0.3,0.9v0.9l-0.4,1.1
	l-0.3,0.1l-0.3,0.4l-0.1,0.7l-0.1,0.5l-0.3,0.1l-0.1,0.1l-0.8,0.8l-0.7,1.1v0.3l-0.1,0.3l0.1,0.9v0.4l-0.4,1.1l-0.5,0.4l-0.1,0.4
	l-0.3,0.7l-0.4,0.3h-0.5l-0.3,0.5v0.5l-0.3,0.4l-0.7,0.4h-0.4l-0.4,0.3l-0.4,0.3l-0.3,0.5v0.7v0.4l0.1,0.3l0.1,0.4l0.7,0.9l1.7,0.1
	h0.1l0.9-0.4l1.3-0.1l1.7-0.4l0.3-0.3l0.1-0.3l0.1-1.1l0.4-0.9l0.3-1.1l0.3-0.3l0.3-0.1l1.2,1.1l0.3,0.5v0.9l0.4,1.7l0.3,0.3h0.1
	l0.1,0.1l0.3,0.3h0.1l0.3,0.7l0.1,0.1l3,0.1l0.3-0.4l-0.3-0.5l-0.9-1.7l-0.5-0.4l-0.1-0.4v-0.1l0.5,0.1l1.6,0.7l1.2,0.5l0.1,0.3v0.4
	v0.1l-0.1,0.1l-0.1,0.4v0.5l0.3,0.4l0.7,0.4l0.1,0.4l-0.1,0.8l-0.3,0.3l-1.1,1.2l-0.1,0.3l-0.4,0.8l-0.7,0.8l-0.7,0.7h-0.8h-0.1
	l-0.4,0.3l-0.1,0.3l-0.7,0.4h-0.3l-0.1,0.3l-0.4,0.5l-0.1,0.9v0.7l0.4,0.3l0.3,0.1h0.5l0.3-0.1l0.5-0.5l0.1-0.1l0.4-0.3l0.9-1.1
	l0.1-0.3l0.5-0.7l0.1-0.1l1.7-1.6l0.5-0.5l1.8-1.6l1.7-2.1l1.5-1.7l2.2-2.4l0.8-0.9l1.1-1.4l0.3-0.1l0.9,0.4l0.3,0.3l0.1,0.3
	l-1.7,1.7l-2.9,2.5l-4.2,4.7l-1.8,1.6l-1.6,1.4l-0.1,0.1l-0.7,0.7l-1.4,1.7l-1.2,1.2v0.1l-0.1,0.3l-1.3,1.7l-0.1,0.1l-1.3,2
	l-1.7,2.6l-0.3,0.3l-0.5,1.2l-0.7,1.4h-0.1v0.1l-0.1,0.5l-0.3,0.8l-0.1,0.1l-0.4-0.8l-0.5-0.8l0.1-0.7l0.1-0.1v-0.8l-0.1-0.1
	l-0.9-0.5l-0.4-0.1l-0.5-0.3l-0.5-0.1l-0.7-0.3l-1.2-0.3l-0.9-0.4V121l-0.4-0.1l-0.3-0.1H353h-0.4l-0.9-0.1h-0.3h-0.1h-1.6h-0.1
	h-0.1h-0.3h-0.3l-0.7,0.1l-0.9,0.1l-2.1,0.3H345l-0.4,0.1l-0.7,0.1h-0.1h-0.1l-0.4,0.1H343l-1.2,0.3l-2.1,0.4l-0.4,0.1l-0.3,0.1
	h-0.1l-1.5,0.4h-0.3l-0.1,0.1l-2.4,0.8l-0.4,0.1l-0.5,0.3h-0.1h-0.1l-0.9,0.4l-0.9,0.4l-0.5,0.1l-0.3,0.3h-0.1l-0.8,0.4l-0.5,0.3
	l-0.1,0.1l-0.1,0.1l-0.4,0.1l-0.4,0.4l-0.1,0.1l-0.4,0.3h-0.1l-0.3,0.3l-1.2,0.9l-2.1,1.7l-0.3,0.1l-0.3,0.1l-0.3,0.1l-0.5,0.4
	l-5.1,2.9l-1.3,0.9l-0.7,0.5h-0.1l-0.4,0.4h-0.1l-0.8,0.5l-0.9,0.8l-0.3,0.1l-0.9,0.8l-0.4,0.4l-2,1.8l-0.8,0.8l-0.4,0.3l-0.3,0.3
	l-0.9,0.9l-0.7,0.9l-0.5,0.5l-0.1,0.1l-1.1,1.2l-1.2,1.4v0.1l-0.1,0.1l-0.9,1.6l-0.3,0.3l-0.8,1.3v0.1l-0.8,1.2l-0.7,1.2l-0.7,1.8
	l-0.5,1.6L299,156l-0.1,0.1l-0.1,0.4l-0.1,0.4l-0.5,1.7l-0.1,0.4l-0.4,1.3l-0.1,0.3l-0.1,0.5L297,162l-0.5,1.6l-0.4,0.8l-0.5,1.1
	l-0.4,1.8l-0.1,1.2v0.3l-0.5,0.4l-1.7-0.7l-0.1-0.3v-0.3v-0.3l-0.3-0.7l-0.1-0.3l-0.4-0.1h-0.3h-0.1l-1.6-0.5h-0.3l-0.5-0.1
	l-0.1-0.1h-0.3l-0.3-0.1h-0.1h-0.5l-0.7-0.1l-0.4-0.1h-0.1h-0.1h-0.9h-0.4h-0.3h-0.7h-0.4h-1.4h-0.3l-1.8,0.1l-3.6,0.4l-1.3,0.1
	h-0.1h-0.1l-3.3,1.3l-0.5,0.1l-0.3,0.1h-0.1l-0.3,0.1h-0.1l-1.2,0.4l-0.4,0.3h-0.1l-0.3,0.3l-0.7,0.3l-0.8-0.8l-0.7-0.8h-0.1
	l-0.3-0.3l-0.3-0.3l-0.3-0.3v-0.1l-1.1-1.1l-0.3-0.3l-0.4-0.4l-1.1-0.9v-0.1h-0.1l-0.4-0.5l-1.8-1.8l-0.4-0.4h-0.1l-1.1-1.2
	l-0.1-0.1l-1.4-1.4l-0.8-0.8L256,157l-0.1-0.1l-0.7-0.7l-0.7-0.8l-1.3-1.3l-0.9-0.8v-0.1h-0.1l-0.3-0.3l-0.4-0.5l-0.9-0.8l-0.1-0.3
	l-0.8-0.8l-0.9-0.8l-0.1-0.3l-0.4-0.3l-0.1-0.1l-0.1-0.3l-0.3-0.3l-0.7-0.7H247l-0.3-0.4l-0.5-0.5l-1.4-1.4l-0.1-0.1l-1.3-1.4
	l-1.8-1.7l-1.6-1.6l-0.4-0.4l-1.7-1.8l-0.1-0.1l-0.3-0.3l-0.1-0.1l-0.7-0.7l-0.1-0.3l-0.8-0.8l-0.3-0.1l-0.1-0.3l-0.3-0.3l-0.5-0.5
	l-0.7-0.7l-0.5-0.7l-0.5-0.5l-0.4-0.4v-0.1l-0.5-0.4l-0.3-0.3l-0.1-0.1l-0.3-0.3l-1.2-1.3l-0.4-0.4l-2.5-2.5l-1.3-1.4l-0.5-0.4v-0.1
	l-0.4-0.3h-0.1l-0.4-0.5l-0.4-0.5l-0.7-0.7l-0.7-0.7h-0.1l-0.5-0.5l-1.1-1.1l-0.3-0.3l-1.6-1.7l-0.7-0.5l-0.5-0.5l-0.5-0.5l-0.1-0.1
	l-0.4-0.4l-0.7-0.7l-0.5-0.5l-0.3-0.3h-0.5h-0.1h-1.1h-0.5l-0.9-0.1h-0.8h-0.5h-4.5h-0.9h-1.7l-1.8-0.1h-0.8h-0.4h-0.4l-0.3-0.1
	h-0.3h-0.7h-0.4h-0.3h-1.3H197h-0.1l-1.1-0.1h-1.2h-0.3h-0.5h-0.3h-0.5h-0.3l-1.2-0.1h-1.8h-0.1l-2.1-0.1h-0.3h-0.4h-0.5h-0.8h-0.9
	l-0.4-0.1H182h-0.8h-0.1h-0.4l-0.4-0.1h-0.4h-0.1h-0.3h-0.7h-0.1h-0.7h-0.1h-0.3h-0.3l-1.3-0.1h-1.6h-1.3l-1.4-0.1h-0.3h-0.8h-0.1
	h-0.8h-0.3H169h-0.1h-0.4l-1.2-0.1h-0.1h-0.3h-2.1h-0.3h-0.9l0.1-0.3v-0.3v-0.3v-0.3l0.5-3.6l0.1-1.1l0.1-0.8l-0.3-0.4l-0.9-1.2
	l-0.7-0.9l-0.8-1.3l-0.5-0.7l-0.5-0.8l-0.3-0.5l-0.7-0.9l-0.7-0.8l-0.4-0.5l-0.5-0.8l-0.5-0.7l-0.1-0.3l-0.7,0.4l-0.1,0.1l-0.1,0.1
	l-0.1,0.1l-1.1,0.7l-0.3,0.1l-0.1,0.1l-2.5,1.7l-0.4-0.7l-0.3-0.3v-0.1v-0.7v-0.1V99v-0.1l0.1-0.4h0.1l0.1-0.1v-0.1h0.1l0.1-0.1h0.1
	h0.1h0.1v-0.1l0.1-0.1v-0.1v-0.3l-0.3-0.4v-0.3l-0.5-0.3h-0.1v-0.1l0.3-0.5v-0.1l0.1-0.1v-0.1h-0.5l-0.9-0.1l-0.8-0.1h-0.8h-0.1
	l-0.5-0.1h-0.3h-0.4l-1.4-0.1h-0.4l-1.4-0.1l-1.3-0.1h-0.1h-1.1l-0.1-0.1h-1.1h-0.7l-0.4-0.1H140h-0.4l-1.7-0.1l-3.3-0.3h-0.1h-0.1
	h-0.1h-0.1h-0.1h-0.4h-0.3l-0.1-0.1h-1.1H132l-1.1-0.1H130h-0.3h-0.1l-0.8-0.1h-0.4H128l-1.3-0.1h-0.3H126l-1.1-0.1l-1.3-0.1h-0.3
	h-0.7l-0.3-0.1h-0.7h-0.1h-0.3h-0.7l-0.1-0.1h-0.9h-0.3h-0.1h-0.1l-1.3-0.1l-1.8-0.1h-0.3h-0.4l-0.8-0.1l-2-0.1h-0.4l-2-0.1H110
	h-0.4l-0.8-0.1h-0.3l-1.4-0.1h-0.4l-2-0.1h-0.4H104l-1.6-0.1l-1.3-0.1h-0.4h-0.4l-0.5-0.1h-0.5h-0.4l-0.3-0.1h-0.1h-0.3H98l-0.7-0.1
	H97l-0.8-0.1h-0.4l-0.3,0.1l-0.3,0.1l-0.5,0.1l-0.4,0.1h-0.1v0.1h-0.1L94,91.9h-0.1l-0.3-0.1v-0.1h-0.1v-0.1l-0.1,0.1h-0.1v-0.1
	L93,91.4h-0.1l-0.3,0.1h-0.3l-0.1,0.1v0.1v0.1H92L91.9,92h-0.1h-0.1l-0.1-0.1l-0.1-0.1v-0.3v-0.1v-0.1l0.1-0.1l-0.1-0.3l-0.1-0.3
	v-0.3L91,90.2V90h-0.1l-0.1,0.1l-0.4,0.5l-0.4,0.1h-0.3L89.5,91l-0.1,0.3l-0.3,0.5v0.1L89,92.1l-0.1,0.4l-0.1,0.1l-0.1,0.1h-0.3
	h-0.1h-0.1L88,92.5v-0.1h0.1L88,92.3v-0.1L87.7,92l-0.4,0.3h-0.1l-0.3-0.1l-0.3,0.1h-0.3l-0.1,0.1L86,92.8h-0.1h-0.3h-0.5l-0.1,0.1
	l-0.1,0.1h-0.1v0.1h-0.1h-0.1h-0.1v-0.1h-0.1v-0.1H84h-0.3h-0.1h-0.1l-0.1,0.1v0.1v0.1h-0.1l-0.1,0.1v-0.1h-0.1l-0.1,0.1l-0.1,0.1
	l-0.1,0.1h-0.1l-0.3,0.1H82h-0.1h-0.1L81.5,94l-0.3,0.1L81.1,94h-0.4h-0.1v0.1l-0.3,0.1h-0.1L80,94.4l-0.1,0.3h-0.1h-0.1h-0.1
	l-0.1-0.1h-0.1h-0.1L79,94.6l-0.1,0.1h-0.1v0.1L78.5,95h-0.1h-0.4h-0.1v-0.1l-0.1-0.1v-0.1h-0.1h-0.1h-0.1h-0.1v0.1v0.1L77,95v0.1
	l-0.1,0.1l0.1,0.1v0.1v0.1v0.1l-0.3,0.3l-0.1,0.1l-0.1-0.1h-0.1l-0.1,0.1l-0.4,0.1h-0.3h-0.1h-0.1h-0.1v0.1v0.1L75,96.8l-0.3,0.1
	v0.3h-0.3h-0.1h-0.1l-0.1,0.1v0.1L74,97.7h-0.1h-0.4l-0.3,0.1h-0.1l-0.1,0.1l-0.1-0.1l-0.1-0.1l0.1-0.1v-0.1l0.1-0.3v-0.3v-0.1h-0.1
	l-0.1-0.1l-0.1,0.1h-0.1L71.5,97l-4.1,1.1l-4.7,1.3l-0.5,0.1l-0.4,0.1l-0.9,0.3l-0.9,0.3l-2.4,0.7l-3.7-0.1h-0.4h-1.8h-2.4h-0.4
	h-1.2h-0.5H47h-0.7h-0.1l-0.7-0.1h-0.7l-4.6-0.1h-3l-2.2-0.1h-1.1v0.3l-4.5-0.3h-0.1h-0.1l-1.2-0.1h-1.2h-0.7h-0.5l-1.2-0.1h-0.1H23
	h-0.4l-0.3-0.1h-0.9h-1.3l-0.7-0.1h-1.2h-0.8l-1.2-0.1h-0.8h-0.4l-2.8-0.1h-0.3l-1.4-0.1H9.8l-1.6-0.1l-1.2-0.1H6.5H5.7L4.6,99
	l-2.8-0.1l0.3-1.7V97v-0.3l0.1-0.5l0.3-2l0.1-0.4l0.1-0.8L3,91.5L3.4,89v-0.1l0.1-0.8l0.3-1.3l0.1-1.1L4,85.8l0.1-0.1l0.1-0.1
	l0.3-0.4l0.8-0.3l0.1-0.3l0.1-0.1l0.5-0.3l0.1-0.1l0.4-0.4l0.3-0.3h0.1h0.4l0.1,0.1v0.1L7.9,84v0.1L8,84.2v0.4l0.1,0.3h0.3l0.3,0.3
	H9L9.2,85l0.3-0.1h0.1L9.8,85l0.1-0.1h0.1h0.3h0.4h0.1L11,85h0.1h0.1h0.1v-0.1l0.1-0.1h0.1h0.3h0.1h0.3l0.3,0.1h0.1h0.1H13v-0.1h0.1
	l0.3-0.3h0.1v-0.1v-0.1h0.1l0.3-0.1H14l0.4-0.1l0.3-0.1H15l0.4-0.5l0.4-0.5L16,82.7z"/>
<g>
	<path fill="#FFFFFF" d="M88.2,53.2h3.1v10.7h-2v-8.8H87L88.2,53.2z"/>
	<path fill="#FFFFFF" d="M96.6,53.2h5v1.9h-3.5l-0.4,1.9c0.1,0,0.2-0.1,0.4-0.1c0.1,0,0.2,0,0.3,0c1,0,1.8,0.3,2.4,1s1,1.5,1,2.5
		c0,1-0.4,1.9-1.1,2.6c-0.7,0.7-1.6,1.1-2.6,1.1c-0.9,0-1.7-0.3-2.4-0.8c-0.7-0.5-1.1-1.2-1.3-2.1h2.1c0.2,0.3,0.4,0.6,0.7,0.8
		c0.3,0.2,0.6,0.3,0.9,0.3c0.5,0,0.8-0.2,1.2-0.5c0.3-0.3,0.5-0.7,0.5-1.3c0-0.5-0.1-0.9-0.4-1.2c-0.3-0.3-0.6-0.5-1.1-0.5
		c-0.2,0-0.4,0.1-0.7,0.2s-0.4,0.3-0.6,0.5l-1.7-0.4L96.6,53.2z"/>
	<path fill="#FFFFFF" d="M106.6,53c0.8,0,1.5,0.2,2,0.6s1,1,1.3,1.8s0.5,1.9,0.5,3.3c0,1.4-0.2,2.5-0.5,3.3
		c-0.3,0.8-0.7,1.4-1.3,1.7s-1.2,0.6-2,0.6c-0.8,0-1.5-0.2-2-0.6c-0.5-0.4-1-0.9-1.3-1.7s-0.5-1.8-0.5-3.3c0-2,0.3-3.4,0.9-4.3
		C104.4,53.4,105.4,53,106.6,53z M106.6,54.9c-0.3,0-0.6,0.1-0.9,0.3c-0.3,0.2-0.5,0.6-0.6,1.1s-0.2,1.3-0.2,2.4
		c0,1.4,0.2,2.3,0.5,2.8c0.3,0.5,0.7,0.8,1.3,0.8c0.5,0,0.9-0.2,1.2-0.7c0.4-0.6,0.5-1.6,0.5-3c0-1.4-0.2-2.4-0.5-2.9
		C107.6,55.2,107.1,54.9,106.6,54.9z"/>
	<path fill="#FFFFFF" d="M114.4,57.7v-2.7h1.8v2.7h2.7v1.8h-2.7v2.7h-1.8v-2.7h-2.7v-1.8H114.4z"/>
</g>
<g>
	<path fill="#FFFFFF" d="M68.2,66h1.2v5.4h1.8v1.2h-3.1V66z"/>
	<path fill="#FFFFFF" d="M74.4,67.6c0.5,0,0.9,0.1,1.3,0.3c0.4,0.2,0.7,0.5,0.9,0.9c0.2,0.4,0.3,0.8,0.3,1.3c0,0.5-0.1,0.9-0.3,1.3
		c-0.2,0.4-0.5,0.7-0.9,0.9c-0.4,0.2-0.8,0.3-1.3,0.3c-0.7,0-1.3-0.2-1.8-0.7c-0.5-0.5-0.7-1.1-0.7-1.8c0-0.8,0.3-1.4,0.8-1.9
		C73.2,67.8,73.7,67.6,74.4,67.6z M74.4,68.7c-0.4,0-0.7,0.1-0.9,0.4c-0.3,0.3-0.4,0.6-0.4,1c0,0.4,0.1,0.8,0.4,1
		c0.2,0.3,0.6,0.4,0.9,0.4c0.4,0,0.7-0.1,0.9-0.4c0.3-0.3,0.4-0.6,0.4-1s-0.1-0.8-0.4-1C75.1,68.8,74.8,68.7,74.4,68.7z"/>
	<path fill="#FFFFFF" d="M82.7,68.7l-1,0.6c-0.2-0.2-0.4-0.3-0.6-0.4c-0.2-0.1-0.4-0.1-0.7-0.1c-0.5,0-0.8,0.1-1.1,0.4
		c-0.3,0.3-0.4,0.6-0.4,1c0,0.4,0.1,0.7,0.4,1c0.3,0.3,0.6,0.4,1.1,0.4c0.5,0,1-0.2,1.3-0.6l1,0.7c-0.5,0.7-1.3,1-2.2,1
		c-0.9,0-1.5-0.3-2-0.8c-0.5-0.5-0.7-1.1-0.7-1.8c0-0.5,0.1-0.9,0.4-1.3c0.2-0.4,0.6-0.7,1-0.9c0.4-0.2,0.9-0.3,1.4-0.3
		c0.5,0,0.9,0.1,1.3,0.3C82.1,68,82.4,68.3,82.7,68.7z"/>
	<path fill="#FFFFFF" d="M87.3,67.7h1.2v4.8h-1.2V72c-0.2,0.2-0.5,0.4-0.7,0.5c-0.2,0.1-0.5,0.1-0.8,0.1c-0.6,0-1.2-0.2-1.6-0.7
		c-0.5-0.5-0.7-1.1-0.7-1.8c0-0.7,0.2-1.4,0.7-1.8c0.4-0.5,1-0.7,1.6-0.7c0.3,0,0.6,0.1,0.8,0.2c0.3,0.1,0.5,0.3,0.7,0.5V67.7z
		 M86,68.7c-0.4,0-0.7,0.1-0.9,0.4c-0.2,0.3-0.4,0.6-0.4,1c0,0.4,0.1,0.8,0.4,1c0.3,0.3,0.6,0.4,0.9,0.4c0.4,0,0.7-0.1,0.9-0.4
		c0.3-0.3,0.4-0.6,0.4-1c0-0.4-0.1-0.8-0.4-1C86.7,68.8,86.4,68.7,86,68.7z"/>
	<path fill="#FFFFFF" d="M89.6,65.8h1.2v6.7h-1.2V65.8z"/>
	<path fill="#FFFFFF" d="M94.6,66H96c0.7,0,1.2,0.1,1.5,0.2c0.3,0.1,0.6,0.3,0.7,0.6c0.2,0.3,0.3,0.6,0.3,1.1c0,0.5-0.1,0.8-0.4,1.1
		c-0.2,0.3-0.6,0.5-1,0.6c-0.2,0.1-0.7,0.1-1.3,0.1v2.8h-1.2V66z M95.9,68.5h0.4c0.3,0,0.5,0,0.6-0.1c0.1,0,0.2-0.1,0.3-0.2
		c0.1-0.1,0.1-0.2,0.1-0.4c0-0.3-0.1-0.4-0.3-0.6c-0.1-0.1-0.4-0.1-0.8-0.1h-0.4V68.5z"/>
	<path fill="#FFFFFF" d="M104.5,70.4h-3.9c0.1,0.3,0.2,0.6,0.5,0.8c0.2,0.2,0.6,0.3,0.9,0.3c0.5,0,0.8-0.2,1.2-0.5l1,0.5
		c-0.3,0.4-0.6,0.6-0.9,0.8c-0.4,0.2-0.8,0.3-1.3,0.3c-0.8,0-1.4-0.2-1.9-0.7c-0.5-0.5-0.7-1.1-0.7-1.8c0-0.7,0.2-1.4,0.7-1.8
		c0.5-0.5,1.1-0.7,1.8-0.7c0.8,0,1.4,0.2,1.9,0.7c0.5,0.5,0.7,1.1,0.7,1.9L104.5,70.4z M103.2,69.5c-0.1-0.3-0.2-0.5-0.5-0.7
		s-0.5-0.3-0.8-0.3c-0.3,0-0.6,0.1-0.9,0.3c-0.2,0.1-0.3,0.3-0.4,0.6H103.2z"/>
	<path fill="#FFFFFF" d="M109,65.8h1.2v6.7H109V72c-0.2,0.2-0.5,0.4-0.7,0.5c-0.2,0.1-0.5,0.1-0.8,0.1c-0.6,0-1.2-0.2-1.6-0.7
		c-0.5-0.5-0.7-1.1-0.7-1.8c0-0.7,0.2-1.4,0.7-1.8c0.4-0.5,1-0.7,1.6-0.7c0.3,0,0.6,0.1,0.8,0.2c0.3,0.1,0.5,0.3,0.7,0.5V65.8z
		 M107.7,68.7c-0.4,0-0.7,0.1-0.9,0.4c-0.2,0.3-0.4,0.6-0.4,1c0,0.4,0.1,0.8,0.4,1c0.3,0.3,0.6,0.4,0.9,0.4c0.4,0,0.7-0.1,0.9-0.4
		c0.3-0.3,0.4-0.6,0.4-1c0-0.4-0.1-0.8-0.4-1C108.4,68.8,108.1,68.7,107.7,68.7z"/>
	<path fill="#FFFFFF" d="M116.3,70.4h-3.9c0.1,0.3,0.2,0.6,0.5,0.8c0.2,0.2,0.6,0.3,0.9,0.3c0.5,0,0.8-0.2,1.2-0.5l1,0.5
		c-0.3,0.4-0.6,0.6-0.9,0.8c-0.4,0.2-0.8,0.3-1.3,0.3c-0.8,0-1.4-0.2-1.9-0.7c-0.5-0.5-0.7-1.1-0.7-1.8c0-0.7,0.2-1.4,0.7-1.8
		c0.5-0.5,1.1-0.7,1.8-0.7c0.8,0,1.4,0.2,1.9,0.7c0.5,0.5,0.7,1.1,0.7,1.9L116.3,70.4z M115.1,69.5c-0.1-0.3-0.2-0.5-0.5-0.7
		c-0.2-0.2-0.5-0.3-0.8-0.3c-0.3,0-0.6,0.1-0.9,0.3c-0.2,0.1-0.3,0.3-0.4,0.6H115.1z"/>
	<path fill="#FFFFFF" d="M120.3,68.4l-0.8,0.8c-0.3-0.3-0.6-0.5-0.8-0.5c-0.1,0-0.2,0-0.3,0.1c-0.1,0.1-0.1,0.1-0.1,0.2
		c0,0.1,0,0.1,0.1,0.2c0,0.1,0.2,0.1,0.4,0.2l0.4,0.2c0.5,0.2,0.8,0.5,1,0.7s0.3,0.5,0.3,0.8c0,0.4-0.2,0.8-0.5,1.1
		c-0.3,0.3-0.7,0.4-1.3,0.4c-0.7,0-1.3-0.3-1.7-0.8l0.7-0.8c0.1,0.2,0.3,0.3,0.5,0.4c0.2,0.1,0.4,0.2,0.5,0.2c0.2,0,0.3,0,0.4-0.1
		c0.1-0.1,0.1-0.2,0.1-0.3c0-0.2-0.2-0.4-0.5-0.5l-0.4-0.2c-0.8-0.4-1.2-0.9-1.2-1.5c0-0.4,0.1-0.7,0.4-1c0.3-0.3,0.7-0.4,1.1-0.4
		c0.3,0,0.6,0.1,0.9,0.2C119.8,67.9,120.1,68.1,120.3,68.4z"/>
	<path fill="#FFFFFF" d="M121.4,65.9h1.2v1.8h0.7v1h-0.7v3.8h-1.2v-3.8h-0.6v-1h0.6V65.9z"/>
	<path fill="#FFFFFF" d="M123.7,67.7h1v0.6c0.1-0.2,0.3-0.4,0.4-0.5c0.2-0.1,0.4-0.2,0.6-0.2c0.2,0,0.3,0,0.5,0.1l-0.4,1
		c-0.1-0.1-0.3-0.1-0.4-0.1c-0.2,0-0.3,0.1-0.5,0.3c-0.1,0.2-0.2,0.7-0.2,1.4l0,0.2v2h-1.2V67.7z"/>
	<path fill="#FFFFFF" d="M127.4,65.7c0.2,0,0.4,0.1,0.5,0.2c0.2,0.2,0.2,0.3,0.2,0.6c0,0.2-0.1,0.4-0.2,0.6
		c-0.2,0.2-0.3,0.2-0.5,0.2c-0.2,0-0.4-0.1-0.6-0.2c-0.2-0.2-0.2-0.3-0.2-0.6c0-0.2,0.1-0.4,0.2-0.5C127,65.8,127.2,65.7,127.4,65.7
		z M126.8,67.7h1.2v4.8h-1.2V67.7z"/>
	<path fill="#FFFFFF" d="M132.7,67.7h1.2v4.8h-1.2V72c-0.2,0.2-0.5,0.4-0.7,0.5c-0.2,0.1-0.5,0.1-0.8,0.1c-0.6,0-1.2-0.2-1.6-0.7
		c-0.5-0.5-0.7-1.1-0.7-1.8c0-0.7,0.2-1.4,0.7-1.8c0.4-0.5,1-0.7,1.6-0.7c0.3,0,0.6,0.1,0.8,0.2s0.5,0.3,0.7,0.5V67.7z M131.4,68.7
		c-0.4,0-0.7,0.1-0.9,0.4c-0.2,0.3-0.4,0.6-0.4,1c0,0.4,0.1,0.8,0.4,1c0.3,0.3,0.6,0.4,0.9,0.4c0.4,0,0.7-0.1,0.9-0.4
		c0.3-0.3,0.4-0.6,0.4-1c0-0.4-0.1-0.8-0.4-1C132.1,68.8,131.8,68.7,131.4,68.7z"/>
	<path fill="#FFFFFF" d="M135.1,67.7h1.2v0.5c0.3-0.2,0.5-0.4,0.7-0.5c0.2-0.1,0.5-0.1,0.7-0.1c0.5,0,0.9,0.2,1.2,0.5
		c0.3,0.3,0.4,0.7,0.4,1.3v3.2h-1.2v-2.1c0-0.6,0-1-0.1-1.2c-0.1-0.2-0.1-0.3-0.3-0.4c-0.1-0.1-0.3-0.1-0.5-0.1
		c-0.2,0-0.5,0.1-0.6,0.2c-0.2,0.2-0.3,0.4-0.4,0.7c0,0.2-0.1,0.5-0.1,1v1.9h-1.2V67.7z"/>
</g>
<g>
	<path fill="#FFFFFF" d="M72.3,79.1l0.7,0.8l-0.3,0.3l-0.3,0.3l1.1,1.1h-1.5l-0.4-0.4c-0.7,0.4-1.3,0.6-1.9,0.6
		c-0.5,0-0.9-0.1-1.2-0.4c-0.3-0.3-0.5-0.7-0.5-1.1c0-0.3,0.1-0.7,0.3-1c0.2-0.3,0.5-0.6,0.9-1c-0.4-0.6-0.6-1.1-0.6-1.5
		c0-0.3,0.1-0.6,0.4-1c0.3-0.3,0.7-0.5,1.2-0.5c0.5,0,0.9,0.2,1.2,0.5c0.3,0.3,0.4,0.6,0.4,0.9c0,0.2-0.1,0.5-0.2,0.7
		c-0.1,0.2-0.4,0.6-0.9,1c0.5,0.6,0.9,1,1,1.2C71.7,79.6,71.9,79.4,72.3,79.1z M70.7,80.3c-0.2-0.2-0.6-0.6-1-1.1
		c-0.4,0.4-0.7,0.7-0.7,1c0,0.1,0.1,0.2,0.2,0.4c0.1,0.1,0.3,0.2,0.5,0.2C70,80.7,70.3,80.6,70.7,80.3z M69.9,77.6
		c0.3-0.3,0.5-0.5,0.5-0.7c0-0.1,0-0.2-0.1-0.3c-0.1-0.1-0.2-0.1-0.3-0.1c-0.1,0-0.2,0-0.3,0.1c-0.1,0.1-0.1,0.2-0.1,0.3
		C69.6,77.1,69.7,77.3,69.9,77.6z"/>
	<path fill="#FFFFFF" d="M77,81.6v-6.5h1c0.6,0,1,0,1.3,0.1c0.4,0.1,0.7,0.3,0.9,0.6c0.2,0.3,0.3,0.6,0.3,1c0,0.2-0.1,0.5-0.2,0.7
		c-0.1,0.2-0.3,0.4-0.5,0.6c0.4,0.2,0.7,0.4,0.9,0.7c0.2,0.3,0.3,0.6,0.3,1c0,0.4-0.1,0.7-0.3,1c-0.2,0.3-0.4,0.5-0.7,0.7
		c-0.3,0.2-0.7,0.2-1.2,0.2H77z M78.2,76.3v1.4h0.3c0.3,0,0.5-0.1,0.7-0.2c0.1-0.1,0.2-0.3,0.2-0.5c0-0.2-0.1-0.4-0.2-0.5
		c-0.1-0.1-0.4-0.2-0.6-0.2H78.2z M78.2,78.8v1.7h0.3c0.5,0,0.9-0.1,1-0.2c0.2-0.1,0.3-0.3,0.3-0.6c0-0.3-0.1-0.5-0.3-0.7
		c-0.2-0.2-0.6-0.2-1.1-0.2H78.2z"/>
	<path fill="#FFFFFF" d="M82.6,74.8c0.2,0,0.4,0.1,0.5,0.2s0.2,0.3,0.2,0.6c0,0.2-0.1,0.4-0.2,0.6c-0.2,0.2-0.3,0.2-0.5,0.2
		c-0.2,0-0.4-0.1-0.6-0.2c-0.2-0.2-0.2-0.3-0.2-0.6c0-0.2,0.1-0.4,0.2-0.5S82.4,74.8,82.6,74.8z M82,76.8h1.2v4.8H82V76.8z"/>
	<path fill="#FFFFFF" d="M89,77.8l-1,0.6c-0.2-0.2-0.4-0.3-0.6-0.4c-0.2-0.1-0.4-0.1-0.7-0.1c-0.5,0-0.8,0.1-1.1,0.4
		c-0.3,0.3-0.4,0.6-0.4,1c0,0.4,0.1,0.7,0.4,1c0.3,0.3,0.6,0.4,1.1,0.4c0.5,0,1-0.2,1.3-0.6l1,0.7c-0.5,0.7-1.3,1-2.2,1
		c-0.9,0-1.5-0.3-2-0.8c-0.5-0.5-0.7-1.1-0.7-1.8c0-0.5,0.1-0.9,0.4-1.3c0.2-0.4,0.6-0.7,1-0.9c0.4-0.2,0.9-0.3,1.4-0.3
		c0.5,0,0.9,0.1,1.3,0.3C88.5,77.1,88.8,77.4,89,77.8z"/>
	<path fill="#FFFFFF" d="M89.6,76.8h1.2l1.3,3l1.4-3h1.2l-3,6.6h-1.3l1-2.1L89.6,76.8z"/>
	<path fill="#FFFFFF" d="M100.2,77.8l-1,0.6c-0.2-0.2-0.4-0.3-0.6-0.4c-0.2-0.1-0.4-0.1-0.7-0.1c-0.5,0-0.8,0.1-1.1,0.4
		c-0.3,0.3-0.4,0.6-0.4,1c0,0.4,0.1,0.7,0.4,1c0.3,0.3,0.6,0.4,1.1,0.4c0.5,0,1-0.2,1.3-0.6l1,0.7c-0.5,0.7-1.3,1-2.2,1
		c-0.9,0-1.5-0.3-2-0.8c-0.5-0.5-0.7-1.1-0.7-1.8c0-0.5,0.1-0.9,0.4-1.3c0.2-0.4,0.6-0.7,1-0.9c0.4-0.2,0.9-0.3,1.4-0.3
		c0.5,0,0.9,0.1,1.3,0.3C99.6,77.1,99.9,77.4,100.2,77.8z"/>
	<path fill="#FFFFFF" d="M101.1,74.9h1.2v6.7h-1.2V74.9z"/>
	<path fill="#FFFFFF" d="M108.3,79.6h-3.9c0.1,0.3,0.2,0.6,0.5,0.8c0.2,0.2,0.6,0.3,0.9,0.3c0.5,0,0.8-0.2,1.2-0.5l1,0.5
		c-0.3,0.4-0.6,0.6-0.9,0.8c-0.4,0.2-0.8,0.3-1.3,0.3c-0.8,0-1.4-0.2-1.9-0.7c-0.5-0.5-0.7-1.1-0.7-1.8c0-0.7,0.2-1.4,0.7-1.8
		c0.5-0.5,1.1-0.7,1.8-0.7c0.8,0,1.4,0.2,1.9,0.7c0.5,0.5,0.7,1.1,0.7,1.9L108.3,79.6z M107.1,78.6c-0.1-0.3-0.2-0.5-0.5-0.7
		c-0.2-0.2-0.5-0.3-0.8-0.3c-0.3,0-0.6,0.1-0.9,0.3c-0.2,0.1-0.3,0.3-0.4,0.6H107.1z"/>
	<path fill="#FFFFFF" d="M111.9,75.1h1.3c0.7,0,1.2,0.1,1.5,0.2c0.3,0.1,0.6,0.3,0.7,0.6c0.2,0.3,0.3,0.6,0.3,1.1
		c0,0.5-0.1,0.8-0.4,1.1c-0.2,0.3-0.6,0.5-1,0.6c-0.2,0.1-0.7,0.1-1.3,0.1v2.8h-1.2V75.1z M113.2,77.6h0.4c0.3,0,0.5,0,0.6-0.1
		c0.1,0,0.2-0.1,0.3-0.2c0.1-0.1,0.1-0.2,0.1-0.4c0-0.3-0.1-0.4-0.3-0.6c-0.1-0.1-0.4-0.1-0.8-0.1h-0.4V77.6z"/>
	<path fill="#FFFFFF" d="M116.8,74.9h1.2v6.7h-1.2V74.9z"/>
	<path fill="#FFFFFF" d="M122.7,76.8h1.2v4.8h-1.2v-0.5c-0.2,0.2-0.5,0.4-0.7,0.5c-0.2,0.1-0.5,0.1-0.8,0.1c-0.6,0-1.2-0.2-1.6-0.7
		c-0.5-0.5-0.7-1.1-0.7-1.8c0-0.7,0.2-1.4,0.7-1.8c0.4-0.5,1-0.7,1.6-0.7c0.3,0,0.6,0.1,0.8,0.2c0.3,0.1,0.5,0.3,0.7,0.5V76.8z
		 M121.4,77.8c-0.4,0-0.7,0.1-0.9,0.4c-0.2,0.3-0.4,0.6-0.4,1c0,0.4,0.1,0.8,0.4,1c0.3,0.3,0.6,0.4,0.9,0.4c0.4,0,0.7-0.1,0.9-0.4
		c0.3-0.3,0.4-0.6,0.4-1c0-0.4-0.1-0.8-0.4-1C122.1,77.9,121.8,77.8,121.4,77.8z"/>
	<path fill="#FFFFFF" d="M125.1,76.8h1.2v0.5c0.3-0.2,0.5-0.4,0.7-0.5c0.2-0.1,0.5-0.1,0.7-0.1c0.5,0,0.9,0.2,1.2,0.5
		c0.3,0.3,0.4,0.7,0.4,1.3v3.2h-1.2v-2.1c0-0.6,0-1-0.1-1.2c-0.1-0.2-0.1-0.3-0.3-0.4c-0.1-0.1-0.3-0.1-0.5-0.1
		c-0.2,0-0.5,0.1-0.6,0.2c-0.2,0.2-0.3,0.4-0.4,0.7c0,0.2-0.1,0.5-0.1,1v1.9h-1.2V76.8z"/>
	<path fill="#FFFFFF" d="M133.6,77.5l-0.8,0.8c-0.3-0.3-0.6-0.5-0.8-0.5c-0.1,0-0.2,0-0.3,0.1c-0.1,0.1-0.1,0.1-0.1,0.2
		c0,0.1,0,0.1,0.1,0.2c0,0.1,0.2,0.1,0.4,0.2l0.4,0.2c0.5,0.2,0.8,0.5,1,0.7c0.2,0.2,0.3,0.5,0.3,0.8c0,0.4-0.2,0.8-0.5,1.1
		c-0.3,0.3-0.7,0.4-1.3,0.4c-0.7,0-1.3-0.3-1.7-0.8l0.7-0.8c0.1,0.2,0.3,0.3,0.5,0.4c0.2,0.1,0.4,0.2,0.5,0.2c0.2,0,0.3,0,0.4-0.1
		c0.1-0.1,0.1-0.2,0.1-0.3c0-0.2-0.2-0.4-0.5-0.5l-0.4-0.2c-0.8-0.4-1.2-0.9-1.2-1.5c0-0.4,0.1-0.7,0.4-1c0.3-0.3,0.7-0.4,1.1-0.4
		c0.3,0,0.6,0.1,0.9,0.2C133.1,77,133.4,77.2,133.6,77.5z"/>
</g>
<g>
	<path fill="#FFFFFF" d="M173.5,29.3c0.5,0.3,0.9,0.7,1.2,1.3c0.3,0.5,0.4,1.1,0.4,1.7c0,0.6-0.2,1.2-0.5,1.8
		c-0.3,0.5-0.8,1-1.3,1.2c-0.5,0.3-1.2,0.4-2.1,0.4c-0.9,0-1.6-0.1-2.1-0.4c-0.5-0.3-1-0.7-1.3-1.2c-0.3-0.5-0.5-1.1-0.5-1.8
		c0-0.6,0.1-1.1,0.4-1.6c0.3-0.5,0.6-0.9,1.2-1.3c-0.3-0.3-0.6-0.7-0.8-1.1c-0.2-0.4-0.3-0.8-0.3-1.2c0-0.6,0.1-1.1,0.4-1.6
		c0.3-0.5,0.7-0.8,1.2-1.1c0.5-0.3,1.1-0.4,1.8-0.4c0.7,0,1.2,0.1,1.7,0.4c0.5,0.3,0.9,0.6,1.2,1.1s0.4,1,0.4,1.6
		c0,0.4-0.1,0.8-0.2,1.1C174.2,28.5,173.9,28.9,173.5,29.3z M171.3,30.4c-0.5,0-0.9,0.2-1.3,0.5c-0.3,0.3-0.5,0.7-0.5,1.1
		c0,0.5,0.2,0.8,0.5,1.1s0.8,0.5,1.3,0.5c0.5,0,1-0.1,1.3-0.4c0.3-0.3,0.5-0.7,0.5-1.1c0-0.5-0.2-0.8-0.5-1.2
		C172.2,30.6,171.8,30.4,171.3,30.4z M171.2,26c-0.3,0-0.6,0.1-0.9,0.3c-0.2,0.2-0.3,0.5-0.3,0.9c0,0.4,0.1,0.7,0.4,0.9
		c0.2,0.2,0.5,0.4,0.9,0.4c0.4,0,0.7-0.1,0.9-0.4c0.2-0.2,0.3-0.5,0.3-0.9c0-0.4-0.1-0.6-0.3-0.9C171.9,26.1,171.6,26,171.2,26z"/>
</g>
<g>
	<path fill="#FFFFFF" d="M151.6,37.5h1.4c0.8,0,1.3,0.1,1.6,0.2c0.3,0.1,0.6,0.4,0.8,0.7c0.2,0.3,0.3,0.7,0.3,1.1
		c0,0.4-0.1,0.8-0.3,1.1c-0.2,0.3-0.5,0.5-1,0.7l1.6,3h-1.4l-1.5-2.9h-0.1v2.9h-1.3V37.5z M152.9,40.2h0.4c0.4,0,0.7-0.1,0.9-0.2
		c0.2-0.1,0.2-0.3,0.2-0.5c0-0.1,0-0.3-0.1-0.4c-0.1-0.1-0.2-0.2-0.3-0.2c-0.1,0-0.4-0.1-0.7-0.1h-0.4V40.2z"/>
	<path fill="#FFFFFF" d="M162,42.2h-4.1c0.1,0.4,0.2,0.6,0.5,0.9c0.3,0.2,0.6,0.3,1,0.3c0.5,0,0.9-0.2,1.2-0.5l1.1,0.5
		c-0.3,0.4-0.6,0.7-1,0.8c-0.4,0.2-0.8,0.3-1.3,0.3c-0.8,0-1.4-0.2-1.9-0.7c-0.5-0.5-0.7-1.1-0.7-1.9c0-0.8,0.2-1.4,0.7-1.9
		c0.5-0.5,1.1-0.8,1.9-0.8c0.8,0,1.4,0.3,1.9,0.8c0.5,0.5,0.7,1.2,0.7,2L162,42.2z M160.7,41.2c-0.1-0.3-0.2-0.5-0.5-0.7
		c-0.2-0.2-0.5-0.3-0.9-0.3c-0.4,0-0.7,0.1-0.9,0.3c-0.2,0.1-0.3,0.3-0.5,0.7H160.7z"/>
	<path fill="#FFFFFF" d="M166.7,39.3h1.3v4.3c0,0.9-0.2,1.5-0.5,1.9c-0.5,0.5-1.2,0.8-2.1,0.8c-0.5,0-0.9-0.1-1.2-0.2
		s-0.6-0.3-0.9-0.5c-0.2-0.2-0.4-0.5-0.5-0.9h1.4c0.1,0.1,0.3,0.2,0.5,0.3c0.2,0.1,0.4,0.1,0.7,0.1c0.3,0,0.6-0.1,0.8-0.2
		c0.2-0.1,0.4-0.2,0.4-0.4c0.1-0.2,0.1-0.5,0.1-0.9c-0.2,0.2-0.5,0.4-0.7,0.5c-0.2,0.1-0.5,0.1-0.8,0.1c-0.7,0-1.3-0.2-1.7-0.7
		c-0.5-0.5-0.7-1.1-0.7-1.9c0-0.8,0.2-1.4,0.7-1.9c0.4-0.4,1-0.7,1.6-0.7c0.3,0,0.6,0.1,0.8,0.2c0.3,0.1,0.5,0.3,0.8,0.5V39.3z
		 M165.4,40.3c-0.4,0-0.7,0.1-1,0.4c-0.3,0.3-0.4,0.6-0.4,1c0,0.4,0.1,0.8,0.4,1c0.3,0.3,0.6,0.4,1,0.4c0.4,0,0.7-0.1,1-0.4
		c0.3-0.3,0.4-0.6,0.4-1c0-0.4-0.1-0.8-0.4-1C166.1,40.5,165.8,40.3,165.4,40.3z"/>
	<path fill="#FFFFFF" d="M169.8,37.2c0.2,0,0.4,0.1,0.6,0.2c0.2,0.2,0.2,0.4,0.2,0.6c0,0.2-0.1,0.4-0.2,0.6
		c-0.2,0.2-0.3,0.2-0.6,0.2c-0.2,0-0.4-0.1-0.6-0.2c-0.2-0.2-0.2-0.4-0.2-0.6c0-0.2,0.1-0.4,0.2-0.6S169.5,37.2,169.8,37.2z
		 M169.1,39.3h1.3v5h-1.3V39.3z"/>
	<path fill="#FFFFFF" d="M173.9,39.1c0.5,0,0.9,0.1,1.3,0.4c0.4,0.2,0.7,0.6,1,1c0.2,0.4,0.4,0.8,0.4,1.3c0,0.5-0.1,0.9-0.4,1.3
		c-0.2,0.4-0.6,0.7-1,1c-0.4,0.2-0.9,0.4-1.4,0.4c-0.7,0-1.3-0.3-1.9-0.8c-0.5-0.5-0.8-1.1-0.8-1.9c0-0.8,0.3-1.4,0.9-2
		C172.7,39.4,173.3,39.1,173.9,39.1z M173.9,40.3c-0.4,0-0.7,0.1-1,0.4c-0.3,0.3-0.4,0.6-0.4,1.1c0,0.4,0.1,0.8,0.4,1.1
		c0.3,0.3,0.6,0.4,1,0.4c0.4,0,0.7-0.1,1-0.4c0.3-0.3,0.4-0.6,0.4-1.1c0-0.4-0.1-0.8-0.4-1.1C174.7,40.5,174.3,40.3,173.9,40.3z"/>
	<path fill="#FFFFFF" d="M177.6,39.3h1.3v0.5c0.3-0.2,0.5-0.4,0.8-0.5c0.2-0.1,0.5-0.1,0.7-0.1c0.5,0,0.9,0.2,1.3,0.5
		c0.3,0.3,0.4,0.7,0.4,1.3v3.3h-1.3v-2.2c0-0.6,0-1-0.1-1.2c-0.1-0.2-0.1-0.3-0.3-0.5c-0.1-0.1-0.3-0.2-0.5-0.2
		c-0.3,0-0.5,0.1-0.7,0.3c-0.2,0.2-0.3,0.4-0.4,0.7c0,0.2-0.1,0.5-0.1,1v2h-1.3V39.3z"/>
	<path fill="#FFFFFF" d="M187.1,39.3h1.3v5h-1.3v-0.5c-0.2,0.2-0.5,0.4-0.7,0.5c-0.2,0.1-0.5,0.2-0.8,0.2c-0.7,0-1.2-0.3-1.7-0.8
		c-0.5-0.5-0.7-1.1-0.7-1.9c0-0.8,0.2-1.4,0.7-1.9c0.5-0.5,1-0.7,1.7-0.7c0.3,0,0.6,0.1,0.9,0.2c0.3,0.1,0.5,0.3,0.7,0.5V39.3z
		 M185.7,40.3c-0.4,0-0.7,0.1-1,0.4c-0.3,0.3-0.4,0.6-0.4,1.1c0,0.4,0.1,0.8,0.4,1.1c0.3,0.3,0.6,0.4,1,0.4c0.4,0,0.7-0.1,1-0.4
		c0.3-0.3,0.4-0.6,0.4-1.1c0-0.4-0.1-0.8-0.4-1.1C186.5,40.4,186.1,40.3,185.7,40.3z"/>
	<path fill="#FFFFFF" d="M189.5,37.3h1.3v7h-1.3V37.3z"/>
</g>
<g>
	<path fill="#FFFFFF" d="M141.6,53.8V47h1.1c0.6,0,1.1,0,1.4,0.1c0.4,0.1,0.7,0.3,1,0.6c0.2,0.3,0.4,0.6,0.4,1
		c0,0.3-0.1,0.5-0.2,0.7c-0.1,0.2-0.3,0.4-0.5,0.6c0.4,0.2,0.7,0.4,0.9,0.7c0.2,0.3,0.3,0.6,0.3,1c0,0.4-0.1,0.7-0.3,1
		c-0.2,0.3-0.5,0.6-0.8,0.7c-0.3,0.2-0.7,0.2-1.3,0.2H141.6z M142.9,48.2v1.4h0.3c0.3,0,0.6-0.1,0.7-0.2c0.2-0.1,0.2-0.3,0.2-0.5
		c0-0.2-0.1-0.4-0.2-0.5c-0.1-0.1-0.4-0.2-0.7-0.2H142.9z M142.9,50.8v1.7h0.3c0.5,0,0.9-0.1,1.1-0.2c0.2-0.1,0.3-0.3,0.3-0.6
		c0-0.3-0.1-0.5-0.3-0.7c-0.2-0.2-0.6-0.3-1.1-0.3H142.9z"/>
	<path fill="#FFFFFF" d="M147.5,46.7c0.2,0,0.4,0.1,0.6,0.2c0.2,0.2,0.2,0.4,0.2,0.6c0,0.2-0.1,0.4-0.2,0.6
		c-0.2,0.2-0.3,0.2-0.6,0.2c-0.2,0-0.4-0.1-0.6-0.2c-0.2-0.2-0.2-0.4-0.2-0.6c0-0.2,0.1-0.4,0.2-0.6
		C147.1,46.8,147.3,46.7,147.5,46.7z M146.9,48.8h1.3v5h-1.3V48.8z"/>
	<path fill="#FFFFFF" d="M154.2,49.8l-1.1,0.6c-0.2-0.2-0.4-0.4-0.6-0.4c-0.2-0.1-0.4-0.1-0.7-0.1c-0.5,0-0.9,0.1-1.1,0.4
		c-0.3,0.3-0.4,0.6-0.4,1.1c0,0.4,0.1,0.8,0.4,1.1c0.3,0.3,0.7,0.4,1.1,0.4c0.6,0,1-0.2,1.3-0.6l1,0.7c-0.5,0.7-1.3,1.1-2.3,1.1
		c-0.9,0-1.6-0.3-2.1-0.8c-0.5-0.5-0.8-1.1-0.8-1.8c0-0.5,0.1-0.9,0.4-1.4s0.6-0.7,1-1c0.4-0.2,0.9-0.4,1.5-0.4c0.5,0,1,0.1,1.4,0.3
		C153.7,49.1,154,49.4,154.2,49.8z"/>
	<path fill="#FFFFFF" d="M154.8,48.8h1.3l1.3,3.2l1.4-3.2h1.3l-3.2,6.9h-1.3l1-2.2L154.8,48.8z"/>
	<path fill="#FFFFFF" d="M165.8,49.8l-1.1,0.6c-0.2-0.2-0.4-0.4-0.6-0.4c-0.2-0.1-0.4-0.1-0.7-0.1c-0.5,0-0.9,0.1-1.1,0.4
		c-0.3,0.3-0.4,0.6-0.4,1.1c0,0.4,0.1,0.8,0.4,1.1c0.3,0.3,0.7,0.4,1.1,0.4c0.6,0,1-0.2,1.3-0.6l1,0.7c-0.5,0.7-1.3,1.1-2.3,1.1
		c-0.9,0-1.6-0.3-2.1-0.8c-0.5-0.5-0.8-1.1-0.8-1.8c0-0.5,0.1-0.9,0.4-1.4s0.6-0.7,1-1c0.4-0.2,0.9-0.4,1.5-0.4c0.5,0,1,0.1,1.4,0.3
		C165.3,49.1,165.6,49.4,165.8,49.8z"/>
	<path fill="#FFFFFF" d="M166.8,46.8h1.3v7h-1.3V46.8z"/>
	<path fill="#FFFFFF" d="M174.3,51.7h-4.1c0.1,0.4,0.2,0.6,0.5,0.9c0.3,0.2,0.6,0.3,1,0.3c0.5,0,0.9-0.2,1.2-0.5l1.1,0.5
		c-0.3,0.4-0.6,0.7-1,0.8c-0.4,0.2-0.8,0.3-1.3,0.3c-0.8,0-1.4-0.2-1.9-0.7c-0.5-0.5-0.7-1.1-0.7-1.9c0-0.8,0.2-1.4,0.7-1.9
		c0.5-0.5,1.1-0.8,1.9-0.8c0.8,0,1.4,0.3,1.9,0.8c0.5,0.5,0.7,1.2,0.7,2L174.3,51.7z M173,50.7c-0.1-0.3-0.2-0.5-0.5-0.7
		c-0.2-0.2-0.5-0.3-0.9-0.3c-0.4,0-0.7,0.1-0.9,0.3c-0.2,0.1-0.3,0.3-0.5,0.7H173z"/>
	<path fill="#FFFFFF" d="M178.1,47h1.4c0.7,0,1.3,0.1,1.6,0.2c0.3,0.1,0.6,0.4,0.8,0.7c0.2,0.3,0.3,0.7,0.3,1.1
		c0,0.5-0.1,0.9-0.4,1.2c-0.2,0.3-0.6,0.5-1,0.7c-0.3,0.1-0.7,0.1-1.4,0.1v2.9h-1.3V47z M179.4,49.7h0.4c0.3,0,0.6,0,0.7-0.1
		c0.1,0,0.2-0.1,0.3-0.2c0.1-0.1,0.1-0.2,0.1-0.4c0-0.3-0.1-0.5-0.3-0.6c-0.1-0.1-0.4-0.1-0.8-0.1h-0.4V49.7z"/>
	<path fill="#FFFFFF" d="M183.2,46.8h1.3v7h-1.3V46.8z"/>
	<path fill="#FFFFFF" d="M189.3,48.8h1.3v5h-1.3v-0.5c-0.2,0.2-0.5,0.4-0.7,0.5c-0.2,0.1-0.5,0.2-0.8,0.2c-0.7,0-1.2-0.3-1.7-0.8
		c-0.5-0.5-0.7-1.1-0.7-1.9c0-0.8,0.2-1.4,0.7-1.9c0.5-0.5,1-0.7,1.7-0.7c0.3,0,0.6,0.1,0.9,0.2c0.3,0.1,0.5,0.3,0.7,0.5V48.8z
		 M188,49.8c-0.4,0-0.7,0.1-1,0.4c-0.3,0.3-0.4,0.6-0.4,1.1c0,0.4,0.1,0.8,0.4,1.1c0.3,0.3,0.6,0.4,1,0.4c0.4,0,0.7-0.1,1-0.4
		c0.3-0.3,0.4-0.6,0.4-1.1c0-0.4-0.1-0.8-0.4-1.1C188.7,50,188.4,49.8,188,49.8z"/>
	<path fill="#FFFFFF" d="M191.9,48.8h1.3v0.5c0.3-0.2,0.5-0.4,0.8-0.5c0.2-0.1,0.5-0.1,0.7-0.1c0.5,0,0.9,0.2,1.3,0.5
		c0.3,0.3,0.4,0.7,0.4,1.3v3.3h-1.3v-2.2c0-0.6,0-1-0.1-1.2c-0.1-0.2-0.1-0.3-0.3-0.5c-0.1-0.1-0.3-0.2-0.5-0.2
		c-0.3,0-0.5,0.1-0.7,0.3c-0.2,0.2-0.3,0.4-0.4,0.7c0,0.2-0.1,0.5-0.1,1v2h-1.3V48.8z"/>
	<path fill="#FFFFFF" d="M200.7,49.5l-0.8,0.8c-0.3-0.3-0.6-0.5-0.9-0.5c-0.1,0-0.3,0-0.3,0.1c-0.1,0.1-0.1,0.1-0.1,0.2
		c0,0.1,0,0.1,0.1,0.2c0.1,0.1,0.2,0.1,0.4,0.2l0.5,0.2c0.5,0.2,0.8,0.5,1,0.7c0.2,0.3,0.3,0.5,0.3,0.9c0,0.4-0.2,0.8-0.5,1.1
		c-0.3,0.3-0.8,0.5-1.3,0.5c-0.7,0-1.3-0.3-1.8-0.9l0.8-0.8c0.1,0.2,0.3,0.3,0.5,0.4c0.2,0.1,0.4,0.2,0.5,0.2c0.2,0,0.3,0,0.4-0.1
		c0.1-0.1,0.2-0.2,0.2-0.3c0-0.2-0.2-0.4-0.6-0.6l-0.4-0.2c-0.8-0.4-1.2-0.9-1.2-1.5c0-0.4,0.2-0.7,0.5-1c0.3-0.3,0.7-0.4,1.2-0.4
		c0.3,0,0.6,0.1,0.9,0.2C200.2,49,200.5,49.2,200.7,49.5z"/>
</g>
<g>
	<path fill="#FFFFFF" d="M218.9,61.7h-2c0.1-0.8,0.4-1.5,0.9-2c0.7-0.7,1.5-1,2.5-1c0.9,0,1.7,0.3,2.3,0.9c0.6,0.6,0.9,1.3,0.9,2
		c0,0.5-0.1,0.9-0.4,1.3c-0.3,0.4-0.7,0.7-1.2,1c0.7,0.2,1.2,0.5,1.6,1c0.4,0.5,0.6,1.1,0.6,1.8c0,1-0.4,1.8-1.1,2.5
		c-0.7,0.7-1.7,1-2.8,1c-1.1,0-1.9-0.3-2.6-1c-0.7-0.6-1-1.5-1.1-2.6h2.1c0.1,0.6,0.3,1,0.6,1.3c0.3,0.3,0.7,0.4,1.2,0.4
		c0.5,0,0.9-0.2,1.2-0.5c0.3-0.3,0.5-0.7,0.5-1.2c0-0.5-0.2-0.9-0.7-1.3c-0.4-0.3-1.1-0.5-1.9-0.5v-1.8c0.5,0,0.9-0.1,1.1-0.2
		c0.2-0.1,0.4-0.3,0.6-0.5c0.1-0.2,0.2-0.4,0.2-0.7c0-0.3-0.1-0.5-0.3-0.7c-0.2-0.2-0.5-0.3-0.8-0.3c-0.3,0-0.6,0.1-0.8,0.3
		C219.1,61.2,218.9,61.4,218.9,61.7z"/>
	<path fill="#FFFFFF" d="M226.5,67.9l1.5,0.7l-1.8,3.2l-1-0.5L226.5,67.9z"/>
	<path fill="#FFFFFF" d="M233.1,58.7c0.8,0,1.5,0.2,2.1,0.6c0.6,0.4,1,1,1.3,1.8s0.5,1.9,0.5,3.4c0,1.5-0.2,2.6-0.5,3.4
		c-0.3,0.8-0.8,1.4-1.3,1.8s-1.2,0.6-2.1,0.6s-1.5-0.2-2.1-0.6c-0.6-0.4-1-1-1.3-1.8s-0.5-1.9-0.5-3.3c0-2,0.3-3.5,0.9-4.4
		C230.9,59.2,231.8,58.7,233.1,58.7z M233.1,60.7c-0.4,0-0.7,0.1-0.9,0.3c-0.3,0.2-0.5,0.6-0.6,1.2c-0.1,0.6-0.2,1.4-0.2,2.4
		c0,1.4,0.2,2.4,0.5,2.9c0.3,0.5,0.8,0.8,1.3,0.8c0.5,0,0.9-0.3,1.2-0.8c0.4-0.6,0.5-1.6,0.5-3.1c0-1.4-0.2-2.4-0.5-3
		S233.7,60.7,233.1,60.7z"/>
	<path fill="#FFFFFF" d="M241.7,58.7c0.8,0,1.5,0.2,2.1,0.6c0.6,0.4,1,1,1.3,1.8s0.5,1.9,0.5,3.4c0,1.5-0.2,2.6-0.5,3.4
		c-0.3,0.8-0.8,1.4-1.3,1.8s-1.2,0.6-2.1,0.6s-1.5-0.2-2.1-0.6s-1-1-1.3-1.8c-0.3-0.8-0.5-1.9-0.5-3.3c0-2,0.3-3.5,0.9-4.4
		C239.5,59.2,240.4,58.7,241.7,58.7z M241.7,60.7c-0.4,0-0.7,0.1-0.9,0.3c-0.3,0.2-0.5,0.6-0.6,1.2c-0.1,0.6-0.2,1.4-0.2,2.4
		c0,1.4,0.2,2.4,0.5,2.9c0.3,0.5,0.8,0.8,1.3,0.8c0.5,0,0.9-0.3,1.2-0.8c0.4-0.6,0.5-1.6,0.5-3.1c0-1.4-0.2-2.4-0.5-3
		S242.2,60.7,241.7,60.7z"/>
	<path fill="#FFFFFF" d="M250.3,58.7c0.8,0,1.5,0.2,2.1,0.6c0.6,0.4,1,1,1.3,1.8s0.5,1.9,0.5,3.4c0,1.5-0.2,2.6-0.5,3.4
		c-0.3,0.8-0.8,1.4-1.3,1.8s-1.2,0.6-2.1,0.6s-1.5-0.2-2.1-0.6s-1-1-1.3-1.8c-0.3-0.8-0.5-1.9-0.5-3.3c0-2,0.3-3.5,0.9-4.4
		C248.1,59.2,249,58.7,250.3,58.7z M250.3,60.7c-0.4,0-0.7,0.1-0.9,0.3c-0.3,0.2-0.5,0.6-0.6,1.2c-0.1,0.6-0.2,1.4-0.2,2.4
		c0,1.4,0.2,2.4,0.5,2.9c0.3,0.5,0.8,0.8,1.3,0.8c0.5,0,0.9-0.3,1.2-0.8c0.4-0.6,0.5-1.6,0.5-3.1c0-1.4-0.2-2.4-0.5-3
		S250.8,60.7,250.3,60.7z"/>
	<path fill="#FFFFFF" d="M255.6,61.8h2v0.9c0.3-0.4,0.7-0.7,1.2-0.9c0.4-0.2,0.9-0.3,1.4-0.3c0.5,0,1,0.1,1.4,0.4
		c0.4,0.2,0.7,0.6,1,1.1c0.3-0.5,0.7-0.8,1.2-1.1c0.5-0.2,1-0.4,1.5-0.4c0.6,0,1.1,0.1,1.5,0.4c0.4,0.3,0.8,0.6,0.9,1.1
		s0.3,1.1,0.3,2.1V70H266v-4.1c0-0.9-0.1-1.5-0.3-1.9s-0.6-0.5-1-0.5c-0.3,0-0.7,0.1-0.9,0.3c-0.3,0.2-0.5,0.5-0.6,0.8
		s-0.2,0.9-0.2,1.7V70h-2.1V66c0-0.7-0.1-1.3-0.2-1.6c-0.1-0.3-0.3-0.6-0.5-0.7c-0.2-0.2-0.5-0.2-0.8-0.2c-0.3,0-0.6,0.1-0.9,0.3
		s-0.5,0.5-0.6,0.9c-0.1,0.4-0.2,0.9-0.2,1.7V70h-2V61.8z"/>
	<path fill="#FFFFFF" d="M270.8,58.5c0.4,0,0.7,0.1,0.9,0.4c0.3,0.3,0.4,0.6,0.4,0.9c0,0.4-0.1,0.7-0.4,0.9s-0.6,0.4-0.9,0.4
		c-0.4,0-0.7-0.1-0.9-0.4s-0.4-0.6-0.4-1c0-0.4,0.1-0.7,0.4-0.9C270.2,58.6,270.5,58.5,270.8,58.5z M269.8,61.8h2V70h-2V61.8z"/>
</g>
<g>
	<path fill="#FFFFFF" d="M220.3,73l-0.9,0.8c-0.3-0.5-0.7-0.7-1-0.7c-0.2,0-0.3,0-0.4,0.1c-0.1,0.1-0.2,0.2-0.2,0.3s0,0.2,0.1,0.3
		c0.1,0.1,0.4,0.4,0.9,0.9c0.5,0.4,0.8,0.7,0.9,0.8c0.3,0.3,0.4,0.5,0.6,0.8c0.1,0.2,0.2,0.5,0.2,0.8c0,0.6-0.2,1-0.6,1.4
		c-0.4,0.4-0.9,0.5-1.5,0.5c-0.5,0-0.9-0.1-1.3-0.4s-0.7-0.6-0.9-1.1l1.1-0.6c0.3,0.6,0.7,0.9,1.1,0.9c0.2,0,0.4-0.1,0.6-0.2
		c0.1-0.1,0.2-0.3,0.2-0.4c0-0.2-0.1-0.3-0.2-0.5c-0.1-0.2-0.4-0.4-0.7-0.7c-0.7-0.6-1.2-1.1-1.4-1.4c-0.2-0.3-0.3-0.6-0.3-1
		c0-0.5,0.2-0.9,0.5-1.2c0.4-0.3,0.8-0.5,1.3-0.5c0.3,0,0.7,0.1,1,0.2C219.6,72.3,219.9,72.6,220.3,73z"/>
	<path fill="#FFFFFF" d="M222,71.8c0.2,0,0.4,0.1,0.6,0.2s0.2,0.4,0.2,0.6c0,0.2-0.1,0.4-0.2,0.6c-0.2,0.2-0.3,0.2-0.6,0.2
		c-0.2,0-0.4-0.1-0.6-0.2c-0.2-0.2-0.2-0.4-0.2-0.6c0-0.2,0.1-0.4,0.2-0.6C221.6,71.9,221.8,71.8,222,71.8z M221.4,73.8h1.2v5h-1.2
		V73.8z"/>
	<path fill="#FFFFFF" d="M227.4,73.8h1.2v4.3c0,0.8-0.2,1.5-0.5,1.9c-0.5,0.5-1.1,0.8-2.1,0.8c-0.5,0-0.9-0.1-1.2-0.2
		c-0.3-0.1-0.6-0.3-0.8-0.5c-0.2-0.2-0.4-0.5-0.5-0.9h1.4c0.1,0.1,0.3,0.2,0.5,0.3c0.2,0.1,0.4,0.1,0.7,0.1c0.3,0,0.6-0.1,0.8-0.2
		c0.2-0.1,0.3-0.2,0.4-0.4s0.1-0.4,0.1-0.9c-0.2,0.2-0.5,0.4-0.7,0.5c-0.2,0.1-0.5,0.1-0.8,0.1c-0.7,0-1.2-0.2-1.7-0.7
		c-0.5-0.5-0.7-1.1-0.7-1.8c0-0.8,0.2-1.4,0.7-1.9c0.4-0.4,1-0.6,1.6-0.6c0.3,0,0.6,0.1,0.8,0.2c0.3,0.1,0.5,0.3,0.8,0.5V73.8z
		 M226.1,74.9c-0.4,0-0.7,0.1-1,0.4c-0.3,0.3-0.4,0.6-0.4,1c0,0.4,0.1,0.8,0.4,1c0.3,0.3,0.6,0.4,1,0.4c0.4,0,0.7-0.1,1-0.4
		c0.3-0.3,0.4-0.6,0.4-1c0-0.4-0.1-0.8-0.4-1C226.9,75,226.5,74.9,226.1,74.9z"/>
	<path fill="#FFFFFF" d="M229.9,73.8h1.2v0.5c0.3-0.2,0.5-0.4,0.8-0.5c0.2-0.1,0.5-0.1,0.7-0.1c0.5,0,0.9,0.2,1.3,0.5
		c0.3,0.3,0.4,0.7,0.4,1.3v3.3h-1.2v-2.2c0-0.6,0-1-0.1-1.2c-0.1-0.2-0.1-0.3-0.3-0.4c-0.1-0.1-0.3-0.2-0.5-0.2
		c-0.3,0-0.5,0.1-0.7,0.3c-0.2,0.2-0.3,0.4-0.4,0.7c0,0.2-0.1,0.5-0.1,1v2h-1.2V73.8z"/>
	<path fill="#FFFFFF" d="M240.6,76.7h-4c0.1,0.4,0.2,0.6,0.5,0.8c0.3,0.2,0.6,0.3,1,0.3c0.5,0,0.9-0.2,1.2-0.5l1.1,0.5
		c-0.3,0.4-0.6,0.6-0.9,0.8c-0.4,0.2-0.8,0.3-1.3,0.3c-0.8,0-1.4-0.2-1.9-0.7c-0.5-0.5-0.7-1.1-0.7-1.9c0-0.8,0.2-1.4,0.7-1.9
		c0.5-0.5,1.1-0.8,1.8-0.8c0.8,0,1.4,0.3,1.9,0.8c0.5,0.5,0.7,1.2,0.7,2L240.6,76.7z M239.3,75.7c-0.1-0.3-0.2-0.5-0.5-0.7
		c-0.2-0.2-0.5-0.3-0.8-0.3c-0.3,0-0.7,0.1-0.9,0.3c-0.2,0.1-0.3,0.3-0.5,0.6H239.3z"/>
	<path fill="#FFFFFF" d="M245.2,71.9h1.2v6.9h-1.2v-0.5c-0.2,0.2-0.5,0.4-0.7,0.5c-0.2,0.1-0.5,0.2-0.8,0.2c-0.6,0-1.2-0.2-1.7-0.7
		c-0.5-0.5-0.7-1.1-0.7-1.9c0-0.8,0.2-1.4,0.7-1.9c0.5-0.5,1-0.7,1.7-0.7c0.3,0,0.6,0.1,0.8,0.2c0.3,0.1,0.5,0.3,0.7,0.5V71.9z
		 M243.9,74.9c-0.4,0-0.7,0.1-1,0.4c-0.3,0.3-0.4,0.6-0.4,1.1c0,0.4,0.1,0.8,0.4,1.1c0.3,0.3,0.6,0.4,1,0.4c0.4,0,0.7-0.1,1-0.4
		c0.3-0.3,0.4-0.6,0.4-1.1c0-0.4-0.1-0.8-0.4-1.1C244.6,75,244.3,74.9,243.9,74.9z"/>
	<path fill="#FFFFFF" d="M254,73l-0.9,0.8c-0.3-0.5-0.7-0.7-1-0.7c-0.2,0-0.3,0-0.4,0.1c-0.1,0.1-0.2,0.2-0.2,0.3s0,0.2,0.1,0.3
		c0.1,0.1,0.4,0.4,0.9,0.9c0.5,0.4,0.8,0.7,0.9,0.8c0.3,0.3,0.4,0.5,0.6,0.8c0.1,0.2,0.2,0.5,0.2,0.8c0,0.6-0.2,1-0.6,1.4
		c-0.4,0.4-0.9,0.5-1.5,0.5c-0.5,0-0.9-0.1-1.3-0.4c-0.4-0.2-0.7-0.6-0.9-1.1l1.1-0.6c0.3,0.6,0.7,0.9,1.1,0.9
		c0.2,0,0.4-0.1,0.6-0.2c0.1-0.1,0.2-0.3,0.2-0.4c0-0.2-0.1-0.3-0.2-0.5c-0.1-0.2-0.4-0.4-0.7-0.7c-0.7-0.6-1.2-1.1-1.4-1.4
		c-0.2-0.3-0.3-0.6-0.3-1c0-0.5,0.2-0.9,0.5-1.2c0.4-0.3,0.8-0.5,1.3-0.5c0.3,0,0.7,0.1,1,0.2C253.4,72.3,253.7,72.6,254,73z"/>
	<path fill="#FFFFFF" d="M255.4,72h1.2v1.8h0.7v1.1h-0.7v3.9h-1.2v-3.9h-0.6v-1.1h0.6V72z"/>
	<path fill="#FFFFFF" d="M261.7,73.8h1.2v5h-1.2v-0.5c-0.2,0.2-0.5,0.4-0.7,0.5c-0.2,0.1-0.5,0.2-0.8,0.2c-0.6,0-1.2-0.2-1.7-0.7
		c-0.5-0.5-0.7-1.1-0.7-1.9c0-0.8,0.2-1.4,0.7-1.9c0.5-0.5,1-0.7,1.7-0.7c0.3,0,0.6,0.1,0.8,0.2c0.3,0.1,0.5,0.3,0.7,0.5V73.8z
		 M260.4,74.9c-0.4,0-0.7,0.1-1,0.4c-0.3,0.3-0.4,0.6-0.4,1.1c0,0.4,0.1,0.8,0.4,1.1c0.3,0.3,0.6,0.4,1,0.4c0.4,0,0.7-0.1,1-0.4
		c0.3-0.3,0.4-0.6,0.4-1.1c0-0.4-0.1-0.8-0.4-1.1C261.1,75,260.8,74.9,260.4,74.9z"/>
	<path fill="#FFFFFF" d="M264.4,72h1.2v1.8h0.7v1.1h-0.7v3.9h-1.2v-3.9h-0.6v-1.1h0.6V72z"/>
	<path fill="#FFFFFF" d="M272,76.7h-4c0.1,0.4,0.2,0.6,0.5,0.8c0.3,0.2,0.6,0.3,1,0.3c0.5,0,0.9-0.2,1.2-0.5l1.1,0.5
		c-0.3,0.4-0.6,0.6-0.9,0.8c-0.4,0.2-0.8,0.3-1.3,0.3c-0.8,0-1.4-0.2-1.9-0.7c-0.5-0.5-0.7-1.1-0.7-1.9c0-0.8,0.2-1.4,0.7-1.9
		c0.5-0.5,1.1-0.8,1.8-0.8c0.8,0,1.4,0.3,1.9,0.8c0.5,0.5,0.7,1.2,0.7,2L272,76.7z M270.8,75.7c-0.1-0.3-0.2-0.5-0.5-0.7
		c-0.2-0.2-0.5-0.3-0.8-0.3c-0.3,0-0.7,0.1-0.9,0.3c-0.2,0.1-0.3,0.3-0.5,0.6H270.8z"/>
</g>
<g>
	<path fill="#FFFFFF" d="M212,88.2v-6.7h1.1c0.6,0,1.1,0,1.3,0.1c0.4,0.1,0.7,0.3,1,0.6c0.2,0.3,0.4,0.6,0.4,1
		c0,0.3-0.1,0.5-0.2,0.7c-0.1,0.2-0.3,0.4-0.5,0.6c0.4,0.2,0.7,0.4,0.9,0.7c0.2,0.3,0.3,0.6,0.3,1c0,0.4-0.1,0.7-0.3,1
		c-0.2,0.3-0.4,0.5-0.8,0.7c-0.3,0.2-0.7,0.2-1.3,0.2H212z M213.3,82.7v1.4h0.3c0.3,0,0.5-0.1,0.7-0.2c0.2-0.1,0.2-0.3,0.2-0.5
		c0-0.2-0.1-0.4-0.2-0.5c-0.1-0.1-0.4-0.2-0.7-0.2H213.3z M213.3,85.2V87h0.3c0.5,0,0.9-0.1,1.1-0.2c0.2-0.1,0.3-0.3,0.3-0.6
		c0-0.3-0.1-0.5-0.3-0.7c-0.2-0.2-0.6-0.3-1.1-0.3H213.3z"/>
	<path fill="#FFFFFF" d="M217.8,81.2c0.2,0,0.4,0.1,0.6,0.2c0.2,0.2,0.2,0.4,0.2,0.6c0,0.2-0.1,0.4-0.2,0.6
		c-0.2,0.2-0.3,0.2-0.6,0.2c-0.2,0-0.4-0.1-0.6-0.2c-0.2-0.2-0.2-0.4-0.2-0.6c0-0.2,0.1-0.4,0.2-0.6
		C217.4,81.2,217.6,81.2,217.8,81.2z M217.1,83.2h1.2v5h-1.2V83.2z"/>
	<path fill="#FFFFFF" d="M224.4,84.2l-1,0.6c-0.2-0.2-0.4-0.3-0.6-0.4c-0.2-0.1-0.4-0.1-0.7-0.1c-0.5,0-0.8,0.1-1.1,0.4
		c-0.3,0.3-0.4,0.6-0.4,1.1c0,0.4,0.1,0.8,0.4,1c0.3,0.3,0.6,0.4,1.1,0.4c0.6,0,1-0.2,1.3-0.6l1,0.7c-0.5,0.7-1.3,1-2.3,1
		c-0.9,0-1.6-0.3-2.1-0.8c-0.5-0.5-0.7-1.1-0.7-1.8c0-0.5,0.1-0.9,0.4-1.3s0.6-0.7,1-1c0.4-0.2,0.9-0.3,1.4-0.3
		c0.5,0,0.9,0.1,1.3,0.3C223.8,83.6,224.2,83.8,224.4,84.2z"/>
	<path fill="#FFFFFF" d="M225,83.2h1.3l1.3,3.1l1.4-3.1h1.3l-3.1,6.8h-1.3l1-2.2L225,83.2z"/>
	<path fill="#FFFFFF" d="M235.8,84.2l-1,0.6c-0.2-0.2-0.4-0.3-0.6-0.4c-0.2-0.1-0.4-0.1-0.7-0.1c-0.5,0-0.8,0.1-1.1,0.4
		c-0.3,0.3-0.4,0.6-0.4,1.1c0,0.4,0.1,0.8,0.4,1c0.3,0.3,0.6,0.4,1.1,0.4c0.6,0,1-0.2,1.3-0.6l1,0.7c-0.5,0.7-1.3,1-2.3,1
		c-0.9,0-1.6-0.3-2.1-0.8c-0.5-0.5-0.7-1.1-0.7-1.8c0-0.5,0.1-0.9,0.4-1.3c0.2-0.4,0.6-0.7,1-1c0.4-0.2,0.9-0.3,1.4-0.3
		c0.5,0,0.9,0.1,1.3,0.3C235.3,83.6,235.6,83.8,235.8,84.2z"/>
	<path fill="#FFFFFF" d="M236.8,81.3h1.2v6.9h-1.2V81.3z"/>
	<path fill="#FFFFFF" d="M244.2,86.1h-4c0.1,0.4,0.2,0.6,0.5,0.8c0.3,0.2,0.6,0.3,1,0.3c0.5,0,0.9-0.2,1.2-0.5l1.1,0.5
		c-0.3,0.4-0.6,0.6-0.9,0.8c-0.4,0.2-0.8,0.3-1.3,0.3c-0.8,0-1.4-0.2-1.9-0.7c-0.5-0.5-0.7-1.1-0.7-1.9c0-0.8,0.2-1.4,0.7-1.9
		c0.5-0.5,1.1-0.8,1.8-0.8c0.8,0,1.4,0.3,1.9,0.8c0.5,0.5,0.7,1.2,0.7,2L244.2,86.1z M243,85.1c-0.1-0.3-0.2-0.5-0.5-0.7
		c-0.2-0.2-0.5-0.3-0.8-0.3c-0.3,0-0.7,0.1-0.9,0.3c-0.2,0.1-0.3,0.3-0.5,0.6H243z"/>
	<path fill="#FFFFFF" d="M248.1,81.4h1.4c0.7,0,1.3,0.1,1.6,0.2c0.3,0.1,0.6,0.4,0.8,0.7c0.2,0.3,0.3,0.7,0.3,1.1
		c0,0.4-0.1,0.8-0.3,1.1c-0.2,0.3-0.5,0.5-1,0.7l1.6,3H251l-1.5-2.9h-0.1v2.9h-1.3V81.4z M249.3,84.1h0.4c0.4,0,0.7-0.1,0.8-0.2
		c0.2-0.1,0.2-0.3,0.2-0.5c0-0.1,0-0.3-0.1-0.4c-0.1-0.1-0.2-0.2-0.3-0.2c-0.1,0-0.4-0.1-0.7-0.1h-0.4V84.1z"/>
	<path fill="#FFFFFF" d="M255.6,83.1c0.5,0,0.9,0.1,1.3,0.4s0.7,0.6,1,1s0.3,0.8,0.3,1.3c0,0.5-0.1,0.9-0.4,1.3
		c-0.2,0.4-0.6,0.7-1,1c-0.4,0.2-0.8,0.3-1.3,0.3c-0.7,0-1.3-0.3-1.8-0.8c-0.5-0.5-0.8-1.1-0.8-1.9c0-0.8,0.3-1.4,0.9-1.9
		C254.4,83.3,255,83.1,255.6,83.1z M255.6,84.2c-0.4,0-0.7,0.1-1,0.4c-0.3,0.3-0.4,0.6-0.4,1c0,0.4,0.1,0.8,0.4,1.1
		c0.3,0.3,0.6,0.4,1,0.4c0.4,0,0.7-0.1,1-0.4c0.3-0.3,0.4-0.6,0.4-1s-0.1-0.8-0.4-1C256.4,84.4,256,84.2,255.6,84.2z"/>
	<path fill="#FFFFFF" d="M259.3,83.2h1.3v2.4c0,0.5,0,0.8,0.1,1c0.1,0.2,0.2,0.3,0.3,0.4c0.1,0.1,0.3,0.2,0.5,0.2
		c0.2,0,0.4,0,0.5-0.1c0.1-0.1,0.3-0.2,0.3-0.4c0.1-0.1,0.1-0.5,0.1-0.9v-2.4h1.2v2.1c0,0.9-0.1,1.5-0.2,1.8
		c-0.2,0.4-0.4,0.7-0.7,0.9c-0.3,0.2-0.7,0.3-1.2,0.3c-0.5,0-1-0.1-1.3-0.4c-0.3-0.2-0.6-0.6-0.7-1c-0.1-0.3-0.1-0.9-0.1-1.6V83.2z"
		/>
	<path fill="#FFFFFF" d="M265.1,81.4h1.2v1.8h0.7v1.1h-0.7v3.9h-1.2v-3.9h-0.6v-1.1h0.6V81.4z"/>
	<path fill="#FFFFFF" d="M272.7,86.1h-4c0.1,0.4,0.2,0.6,0.5,0.8c0.3,0.2,0.6,0.3,1,0.3c0.5,0,0.9-0.2,1.2-0.5l1.1,0.5
		c-0.3,0.4-0.6,0.6-0.9,0.8c-0.4,0.2-0.8,0.3-1.3,0.3c-0.8,0-1.4-0.2-1.9-0.7c-0.5-0.5-0.7-1.1-0.7-1.9c0-0.8,0.2-1.4,0.7-1.9
		c0.5-0.5,1.1-0.8,1.8-0.8c0.8,0,1.4,0.3,1.9,0.8c0.5,0.5,0.7,1.2,0.7,2L272.7,86.1z M271.5,85.1c-0.1-0.3-0.2-0.5-0.5-0.7
		c-0.2-0.2-0.5-0.3-0.8-0.3c-0.3,0-0.7,0.1-0.9,0.3c-0.2,0.1-0.3,0.3-0.5,0.6H271.5z"/>
	<path fill="#FFFFFF" d="M276.8,83.9l-0.8,0.8c-0.3-0.3-0.6-0.5-0.9-0.5c-0.1,0-0.3,0-0.3,0.1c-0.1,0.1-0.1,0.1-0.1,0.2
		c0,0.1,0,0.1,0.1,0.2c0,0.1,0.2,0.1,0.4,0.2l0.5,0.2c0.5,0.2,0.8,0.5,1,0.7c0.2,0.2,0.3,0.5,0.3,0.9c0,0.4-0.2,0.8-0.5,1.1
		c-0.3,0.3-0.8,0.4-1.3,0.4c-0.7,0-1.3-0.3-1.7-0.9l0.8-0.8c0.1,0.2,0.3,0.3,0.5,0.4c0.2,0.1,0.4,0.2,0.5,0.2c0.2,0,0.3,0,0.4-0.1
		c0.1-0.1,0.2-0.2,0.2-0.3c0-0.2-0.2-0.4-0.5-0.6l-0.4-0.2c-0.8-0.4-1.2-0.9-1.2-1.5c0-0.4,0.2-0.7,0.5-1c0.3-0.3,0.7-0.4,1.2-0.4
		c0.3,0,0.6,0.1,0.9,0.2C276.3,83.4,276.6,83.6,276.8,83.9z"/>
</g>
<g>
	<path fill="#FFFFFF" d="M298.2,33.9h2.1v7h1v1.9h-1V45h-2v-2.2h-4.7v-1.9L298.2,33.9z M298.3,40.9v-3.6l-2.5,3.6H298.3z"/>
	<path fill="#FFFFFF" d="M305.9,33.9c0.8,0,1.5,0.2,2,0.6c0.6,0.4,1,1,1.3,1.8c0.3,0.8,0.5,1.9,0.5,3.3c0,1.4-0.2,2.6-0.5,3.4
		c-0.3,0.8-0.7,1.4-1.3,1.8c-0.5,0.4-1.2,0.6-2,0.6c-0.8,0-1.5-0.2-2.1-0.6s-1-1-1.3-1.7c-0.3-0.8-0.5-1.9-0.5-3.3
		c0-2,0.3-3.4,0.9-4.3C303.7,34.4,304.6,33.9,305.9,33.9z M305.9,35.9c-0.3,0-0.7,0.1-0.9,0.3c-0.3,0.2-0.5,0.6-0.6,1.2
		c-0.1,0.5-0.2,1.3-0.2,2.4c0,1.4,0.2,2.3,0.5,2.8c0.3,0.5,0.7,0.8,1.3,0.8c0.5,0,0.9-0.2,1.2-0.7c0.4-0.6,0.5-1.6,0.5-3
		c0-1.4-0.2-2.4-0.5-2.9C306.8,36.1,306.4,35.9,305.9,35.9z"/>
	<path fill="#FFFFFF" d="M314.3,33.9c0.8,0,1.5,0.2,2,0.6c0.6,0.4,1,1,1.3,1.8c0.3,0.8,0.5,1.9,0.5,3.3c0,1.4-0.2,2.6-0.5,3.4
		c-0.3,0.8-0.7,1.4-1.3,1.8c-0.5,0.4-1.2,0.6-2,0.6s-1.5-0.2-2.1-0.6s-1-1-1.3-1.7c-0.3-0.8-0.5-1.9-0.5-3.3c0-2,0.3-3.4,0.9-4.3
		C312.1,34.4,313.1,33.9,314.3,33.9z M314.3,35.9c-0.3,0-0.7,0.1-0.9,0.3c-0.3,0.2-0.5,0.6-0.6,1.2c-0.1,0.5-0.2,1.3-0.2,2.4
		c0,1.4,0.2,2.3,0.5,2.8c0.3,0.5,0.7,0.8,1.3,0.8c0.5,0,0.9-0.2,1.2-0.7c0.4-0.6,0.5-1.6,0.5-3c0-1.4-0.2-2.4-0.5-2.9
		C315.3,36.1,314.9,35.9,314.3,35.9z"/>
	<path fill="#FFFFFF" d="M319.6,37h2v0.9c0.3-0.4,0.7-0.7,1.1-0.8c0.4-0.2,0.9-0.3,1.4-0.3c0.5,0,1,0.1,1.4,0.4
		c0.4,0.2,0.7,0.6,1,1.1c0.3-0.5,0.7-0.8,1.2-1.1c0.5-0.2,1-0.4,1.5-0.4c0.6,0,1.1,0.1,1.5,0.4c0.4,0.3,0.7,0.6,0.9,1
		c0.2,0.4,0.3,1.1,0.3,2.1V45h-2v-4.1c0-0.9-0.1-1.5-0.3-1.8c-0.2-0.3-0.6-0.5-1-0.5c-0.3,0-0.7,0.1-0.9,0.3
		c-0.3,0.2-0.5,0.5-0.6,0.8s-0.2,0.9-0.2,1.7V45h-2v-3.9c0-0.7-0.1-1.2-0.2-1.6s-0.3-0.6-0.5-0.7c-0.2-0.2-0.5-0.2-0.8-0.2
		c-0.3,0-0.6,0.1-0.9,0.3c-0.3,0.2-0.5,0.5-0.6,0.8s-0.2,0.9-0.2,1.7V45h-2V37z"/>
	<path fill="#FFFFFF" d="M334.5,33.7c0.4,0,0.7,0.1,0.9,0.4c0.3,0.3,0.4,0.6,0.4,0.9c0,0.4-0.1,0.7-0.4,0.9
		c-0.2,0.3-0.5,0.4-0.9,0.4c-0.4,0-0.7-0.1-0.9-0.4c-0.3-0.3-0.4-0.6-0.4-0.9c0-0.4,0.1-0.7,0.4-0.9
		C333.9,33.8,334.2,33.7,334.5,33.7z M333.5,37h2v8h-2V37z"/>
</g>
<g>
	<path fill="#FFFFFF" d="M292.2,47.1h3.6v1.2h-2.4v1.2h2.4v1.2h-2.4v1.7h2.4v1.2h-3.6V47.1z"/>
	<path fill="#FFFFFF" d="M300.5,48.8h1.2v4.9h-1.2v-0.5c-0.2,0.2-0.5,0.4-0.7,0.5c-0.2,0.1-0.5,0.2-0.8,0.2c-0.6,0-1.2-0.2-1.6-0.7
		c-0.5-0.5-0.7-1.1-0.7-1.8c0-0.8,0.2-1.4,0.7-1.9c0.4-0.5,1-0.7,1.6-0.7c0.3,0,0.6,0.1,0.8,0.2s0.5,0.3,0.7,0.5V48.8z M299.2,49.8
		c-0.4,0-0.7,0.1-0.9,0.4c-0.3,0.3-0.4,0.6-0.4,1c0,0.4,0.1,0.8,0.4,1c0.3,0.3,0.6,0.4,0.9,0.4c0.4,0,0.7-0.1,1-0.4
		c0.3-0.3,0.4-0.6,0.4-1.1c0-0.4-0.1-0.8-0.4-1C299.9,49.9,299.6,49.8,299.2,49.8z"/>
	<path fill="#FFFFFF" d="M305.9,49.5l-0.8,0.8c-0.3-0.3-0.6-0.5-0.8-0.5c-0.1,0-0.2,0-0.3,0.1c-0.1,0.1-0.1,0.1-0.1,0.2
		c0,0.1,0,0.1,0.1,0.2c0,0.1,0.2,0.1,0.4,0.2l0.4,0.2c0.5,0.2,0.8,0.5,1,0.7c0.2,0.2,0.3,0.5,0.3,0.9c0,0.4-0.2,0.8-0.5,1.1
		c-0.3,0.3-0.7,0.4-1.3,0.4c-0.7,0-1.3-0.3-1.7-0.8l0.8-0.8c0.1,0.2,0.3,0.3,0.5,0.4c0.2,0.1,0.4,0.2,0.5,0.2c0.2,0,0.3,0,0.4-0.1
		c0.1-0.1,0.1-0.2,0.1-0.3c0-0.2-0.2-0.4-0.5-0.6l-0.4-0.2c-0.8-0.4-1.2-0.9-1.2-1.5c0-0.4,0.1-0.7,0.4-1c0.3-0.3,0.7-0.4,1.1-0.4
		c0.3,0,0.6,0.1,0.9,0.2C305.5,49,305.7,49.2,305.9,49.5z"/>
	<path fill="#FFFFFF" d="M307.1,47h1.2v1.8h0.7v1.1h-0.7v3.8h-1.2v-3.8h-0.6v-1.1h0.6V47z"/>
	<path fill="#FFFFFF" d="M318.5,48.2l-0.9,0.8c-0.6-0.6-1.3-0.9-2-0.9c-0.6,0-1.2,0.2-1.6,0.6c-0.4,0.4-0.6,1-0.6,1.6
		c0,0.4,0.1,0.8,0.3,1.2c0.2,0.3,0.5,0.6,0.8,0.8c0.3,0.2,0.7,0.3,1.2,0.3c0.4,0,0.7-0.1,1-0.2s0.6-0.4,1-0.7l0.9,0.9
		c-0.5,0.5-0.9,0.8-1.4,1c-0.4,0.2-0.9,0.3-1.5,0.3c-1,0-1.9-0.3-2.5-1c-0.7-0.7-1-1.5-1-2.5c0-0.7,0.1-1.2,0.4-1.8s0.7-0.9,1.3-1.2
		c0.6-0.3,1.2-0.5,1.8-0.5c0.5,0,1.1,0.1,1.6,0.3C317.7,47.5,318.2,47.8,318.5,48.2z"/>
	<path fill="#FFFFFF" d="M321.8,48.7c0.5,0,0.9,0.1,1.3,0.3c0.4,0.2,0.7,0.5,1,0.9s0.3,0.8,0.3,1.3c0,0.5-0.1,0.9-0.3,1.3
		c-0.2,0.4-0.5,0.7-0.9,0.9c-0.4,0.2-0.8,0.3-1.3,0.3c-0.7,0-1.3-0.2-1.8-0.7c-0.5-0.5-0.7-1.1-0.7-1.8c0-0.8,0.3-1.4,0.8-1.9
		C320.6,48.9,321.2,48.7,321.8,48.7z M321.8,49.8c-0.4,0-0.7,0.1-1,0.4c-0.3,0.3-0.4,0.6-0.4,1c0,0.4,0.1,0.8,0.4,1
		c0.3,0.3,0.6,0.4,1,0.4c0.4,0,0.7-0.1,1-0.4c0.3-0.3,0.4-0.6,0.4-1c0-0.4-0.1-0.8-0.4-1C322.5,49.9,322.2,49.8,321.8,49.8z"/>
	<path fill="#FFFFFF" d="M329,48.8h1.2v4.9H329v-0.5c-0.2,0.2-0.5,0.4-0.7,0.5c-0.2,0.1-0.5,0.2-0.8,0.2c-0.6,0-1.2-0.2-1.6-0.7
		c-0.5-0.5-0.7-1.1-0.7-1.8c0-0.8,0.2-1.4,0.7-1.9c0.4-0.5,1-0.7,1.6-0.7c0.3,0,0.6,0.1,0.8,0.2s0.5,0.3,0.7,0.5V48.8z M327.7,49.8
		c-0.4,0-0.7,0.1-0.9,0.4c-0.3,0.3-0.4,0.6-0.4,1c0,0.4,0.1,0.8,0.4,1c0.3,0.3,0.6,0.4,0.9,0.4c0.4,0,0.7-0.1,1-0.4
		c0.3-0.3,0.4-0.6,0.4-1.1c0-0.4-0.1-0.8-0.4-1C328.4,49.9,328.1,49.8,327.7,49.8z"/>
	<path fill="#FFFFFF" d="M334.5,49.5l-0.8,0.8c-0.3-0.3-0.6-0.5-0.8-0.5c-0.1,0-0.2,0-0.3,0.1c-0.1,0.1-0.1,0.1-0.1,0.2
		c0,0.1,0,0.1,0.1,0.2c0,0.1,0.2,0.1,0.4,0.2l0.4,0.2c0.5,0.2,0.8,0.5,1,0.7c0.2,0.2,0.3,0.5,0.3,0.9c0,0.4-0.2,0.8-0.5,1.1
		c-0.3,0.3-0.7,0.4-1.3,0.4c-0.7,0-1.3-0.3-1.7-0.8l0.8-0.8c0.1,0.2,0.3,0.3,0.5,0.4c0.2,0.1,0.4,0.2,0.5,0.2c0.2,0,0.3,0,0.4-0.1
		c0.1-0.1,0.1-0.2,0.1-0.3c0-0.2-0.2-0.4-0.5-0.6l-0.4-0.2c-0.8-0.4-1.2-0.9-1.2-1.5c0-0.4,0.1-0.7,0.4-1c0.3-0.3,0.7-0.4,1.1-0.4
		c0.3,0,0.6,0.1,0.9,0.2C334,49,334.3,49.2,334.5,49.5z"/>
	<path fill="#FFFFFF" d="M335.7,47h1.2v1.8h0.7v1.1h-0.7v3.8h-1.2v-3.8H335v-1.1h0.6V47z"/>
</g>
<g>
	<path fill="#FFFFFF" d="M298,57.3l-0.9,0.9c-0.6-0.6-1.2-0.9-2-0.9c-0.7,0-1.2,0.2-1.6,0.6c-0.4,0.4-0.7,1-0.7,1.6
		c0,0.6,0.2,1.2,0.7,1.6c0.5,0.4,1,0.7,1.7,0.7c0.4,0,0.8-0.1,1.1-0.3c0.3-0.2,0.5-0.5,0.7-0.9h-1.9v-1.2h3.3l0,0.3
		c0,0.6-0.1,1.1-0.4,1.6c-0.3,0.5-0.7,0.9-1.2,1.2c-0.5,0.3-1,0.4-1.7,0.4c-0.7,0-1.3-0.1-1.8-0.4c-0.5-0.3-1-0.7-1.3-1.3
		c-0.3-0.6-0.5-1.1-0.5-1.8c0-0.9,0.3-1.6,0.9-2.3c0.7-0.8,1.6-1.2,2.7-1.2c0.6,0,1.1,0.1,1.6,0.3C297.2,56.6,297.6,56.9,298,57.3z"
		/>
	<path fill="#FFFFFF" d="M299.2,58h1.1v0.6c0.1-0.2,0.3-0.4,0.5-0.6c0.2-0.1,0.4-0.2,0.6-0.2c0.2,0,0.3,0,0.5,0.1l-0.4,1.1
		c-0.1-0.1-0.3-0.1-0.4-0.1c-0.2,0-0.3,0.1-0.5,0.4c-0.1,0.2-0.2,0.7-0.2,1.4l0,0.2v2h-1.2V58z"/>
	<path fill="#FFFFFF" d="M307.4,60.8h-3.9c0.1,0.3,0.2,0.6,0.5,0.8c0.2,0.2,0.6,0.3,0.9,0.3c0.5,0,0.9-0.2,1.2-0.5l1,0.5
		c-0.3,0.4-0.6,0.6-0.9,0.8c-0.4,0.2-0.8,0.3-1.3,0.3c-0.8,0-1.4-0.2-1.9-0.7c-0.5-0.5-0.7-1.1-0.7-1.8c0-0.7,0.2-1.4,0.7-1.9
		c0.5-0.5,1.1-0.7,1.8-0.7c0.8,0,1.4,0.2,1.9,0.7c0.5,0.5,0.7,1.1,0.7,2L307.4,60.8z M306.1,59.8c-0.1-0.3-0.2-0.5-0.5-0.7
		c-0.2-0.2-0.5-0.3-0.8-0.3c-0.3,0-0.6,0.1-0.9,0.3c-0.2,0.1-0.3,0.3-0.5,0.6H306.1z"/>
	<path fill="#FFFFFF" d="M313.3,60.8h-3.9c0.1,0.3,0.2,0.6,0.5,0.8c0.2,0.2,0.6,0.3,0.9,0.3c0.5,0,0.9-0.2,1.2-0.5l1,0.5
		c-0.3,0.4-0.6,0.6-0.9,0.8c-0.4,0.2-0.8,0.3-1.3,0.3c-0.8,0-1.4-0.2-1.9-0.7c-0.5-0.5-0.7-1.1-0.7-1.8c0-0.7,0.2-1.4,0.7-1.9
		c0.5-0.5,1.1-0.7,1.8-0.7c0.8,0,1.4,0.2,1.9,0.7c0.5,0.5,0.7,1.1,0.7,2L313.3,60.8z M312,59.8c-0.1-0.3-0.2-0.5-0.5-0.7
		c-0.2-0.2-0.5-0.3-0.8-0.3c-0.3,0-0.6,0.1-0.9,0.3c-0.2,0.1-0.3,0.3-0.5,0.6H312z"/>
	<path fill="#FFFFFF" d="M314.2,58h1.2v0.5c0.3-0.2,0.5-0.4,0.8-0.5c0.2-0.1,0.5-0.1,0.7-0.1c0.5,0,0.9,0.2,1.2,0.5
		c0.3,0.3,0.4,0.7,0.4,1.3v3.2h-1.2v-2.1c0-0.6,0-1-0.1-1.2c-0.1-0.2-0.1-0.3-0.3-0.4c-0.1-0.1-0.3-0.2-0.5-0.2
		c-0.2,0-0.5,0.1-0.6,0.2c-0.2,0.2-0.3,0.4-0.4,0.7c0,0.2-0.1,0.5-0.1,1v2h-1.2V58z"/>
	<path fill="#FFFFFF" d="M319.2,58h1.2l1,2.8l1.1-2.8h0.7l1,2.8l1-2.8h1.2l-1.8,4.9h-0.8l-1-2.8l-1.1,2.8H321L319.2,58z"/>
	<path fill="#FFFFFF" d="M330.7,58h1.2v4.9h-1.2v-0.5c-0.2,0.2-0.5,0.4-0.7,0.5c-0.2,0.1-0.5,0.2-0.8,0.2c-0.6,0-1.2-0.2-1.6-0.7
		c-0.5-0.5-0.7-1.1-0.7-1.8c0-0.8,0.2-1.4,0.7-1.9c0.4-0.5,1-0.7,1.6-0.7c0.3,0,0.6,0.1,0.8,0.2s0.5,0.3,0.7,0.5V58z M329.5,59
		c-0.4,0-0.7,0.1-0.9,0.4c-0.3,0.3-0.4,0.6-0.4,1c0,0.4,0.1,0.8,0.4,1c0.3,0.3,0.6,0.4,0.9,0.4c0.4,0,0.7-0.1,1-0.4
		c0.3-0.3,0.4-0.6,0.4-1.1c0-0.4-0.1-0.8-0.4-1C330.2,59.1,329.8,59,329.5,59z"/>
	<path fill="#FFFFFF" d="M332.7,58h1.3l1.3,3.1l1.4-3.1h1.3l-3.1,6.7h-1.3l1-2.2L332.7,58z"/>
</g>
<g>
	<path fill="#FFFFFF" d="M247.2,108.9h3.2v11.2h-2.1v-9.2H246L247.2,108.9z"/>
	<path fill="#FFFFFF" d="M255.4,118l1.5,0.7l-1.9,3.2l-1-0.5L255.4,118z"/>
	<path fill="#FFFFFF" d="M262.1,108.6c0.8,0,1.5,0.2,2.1,0.6c0.6,0.4,1,1,1.4,1.8c0.3,0.8,0.5,2,0.5,3.4c0,1.5-0.2,2.6-0.5,3.5
		c-0.3,0.8-0.8,1.4-1.3,1.8c-0.6,0.4-1.3,0.6-2.1,0.6s-1.5-0.2-2.1-0.6c-0.6-0.4-1-1-1.3-1.8c-0.3-0.8-0.5-1.9-0.5-3.4
		c0-2.1,0.3-3.5,1-4.5C259.8,109.1,260.8,108.6,262.1,108.6z M262.1,110.6c-0.4,0-0.7,0.1-1,0.3c-0.3,0.2-0.5,0.6-0.6,1.2
		c-0.1,0.6-0.2,1.4-0.2,2.5c0,1.4,0.2,2.4,0.5,2.9c0.3,0.5,0.8,0.8,1.3,0.8c0.5,0,0.9-0.3,1.2-0.8c0.4-0.6,0.6-1.7,0.6-3.1
		c0-1.5-0.2-2.5-0.5-3C263.1,110.9,262.6,110.6,262.1,110.6z"/>
	<path fill="#FFFFFF" d="M270.8,108.6c0.8,0,1.5,0.2,2.1,0.6c0.6,0.4,1,1,1.4,1.8c0.3,0.8,0.5,2,0.5,3.4c0,1.5-0.2,2.6-0.5,3.5
		c-0.3,0.8-0.8,1.4-1.3,1.8c-0.6,0.4-1.3,0.6-2.1,0.6s-1.5-0.2-2.1-0.6c-0.6-0.4-1-1-1.3-1.8c-0.3-0.8-0.5-1.9-0.5-3.4
		c0-2.1,0.3-3.5,1-4.5C268.6,109.1,269.5,108.6,270.8,108.6z M270.8,110.6c-0.4,0-0.7,0.1-1,0.3c-0.3,0.2-0.5,0.6-0.6,1.2
		c-0.1,0.6-0.2,1.4-0.2,2.5c0,1.4,0.2,2.4,0.5,2.9c0.3,0.5,0.8,0.8,1.3,0.8c0.5,0,0.9-0.3,1.2-0.8c0.4-0.6,0.6-1.7,0.6-3.1
		c0-1.5-0.2-2.5-0.5-3C271.8,110.9,271.4,110.6,270.8,110.6z"/>
	<path fill="#FFFFFF" d="M279.5,108.6c0.8,0,1.5,0.2,2.1,0.6c0.6,0.4,1,1,1.4,1.8s0.5,2,0.5,3.4c0,1.5-0.2,2.6-0.5,3.5
		c-0.3,0.8-0.8,1.4-1.3,1.8c-0.6,0.4-1.3,0.6-2.1,0.6c-0.8,0-1.5-0.2-2.1-0.6c-0.6-0.4-1-1-1.3-1.8s-0.5-1.9-0.5-3.4
		c0-2.1,0.3-3.5,1-4.5C277.3,109.1,278.3,108.6,279.5,108.6z M279.6,110.6c-0.4,0-0.7,0.1-1,0.3c-0.3,0.2-0.5,0.6-0.6,1.2
		c-0.1,0.6-0.2,1.4-0.2,2.5c0,1.4,0.2,2.4,0.5,2.9c0.3,0.5,0.8,0.8,1.3,0.8c0.5,0,0.9-0.3,1.2-0.8c0.4-0.6,0.6-1.7,0.6-3.1
		c0-1.5-0.2-2.5-0.5-3C280.5,110.9,280.1,110.6,279.6,110.6z"/>
	<path fill="#FFFFFF" d="M285,111.8h2.1v1c0.4-0.4,0.7-0.7,1.2-0.9c0.4-0.2,0.9-0.3,1.4-0.3c0.5,0,1,0.1,1.4,0.4
		c0.4,0.3,0.8,0.6,1,1.1c0.3-0.5,0.7-0.9,1.2-1.1c0.5-0.3,1-0.4,1.6-0.4c0.6,0,1.1,0.1,1.6,0.4c0.4,0.3,0.8,0.6,1,1.1
		c0.2,0.4,0.3,1.2,0.3,2.2v4.9h-2.1v-4.2c0-0.9-0.1-1.6-0.4-1.9c-0.2-0.3-0.6-0.5-1.1-0.5c-0.4,0-0.7,0.1-1,0.3
		c-0.3,0.2-0.5,0.5-0.6,0.8c-0.1,0.4-0.2,0.9-0.2,1.7v3.7h-2.1v-4c0-0.7-0.1-1.3-0.2-1.6c-0.1-0.3-0.3-0.6-0.5-0.7
		c-0.2-0.2-0.5-0.2-0.8-0.2c-0.3,0-0.7,0.1-0.9,0.3c-0.3,0.2-0.5,0.5-0.6,0.9c-0.1,0.4-0.2,1-0.2,1.8v3.7H285V111.8z"/>
	<path fill="#FFFFFF" d="M300.4,108.4c0.4,0,0.7,0.1,0.9,0.4c0.3,0.3,0.4,0.6,0.4,1c0,0.4-0.1,0.7-0.4,0.9c-0.3,0.3-0.6,0.4-0.9,0.4
		c-0.4,0-0.7-0.1-0.9-0.4c-0.3-0.3-0.4-0.6-0.4-1c0-0.4,0.1-0.7,0.4-0.9C299.8,108.5,300.1,108.4,300.4,108.4z M299.4,111.8h2.1v8.3
		h-2.1V111.8z"/>
</g>
<g>
	<path fill="#FFFFFF" d="M250.2,122.2h1.3l1.6,4.8l1.6-4.8h1.3l1.1,6.8h-1.3l-0.7-4.3l-1.5,4.3h-1.1l-1.4-4.3l-0.8,4.3H249
		L250.2,122.2z"/>
	<path fill="#FFFFFF" d="M260.4,123.8c0.5,0,0.9,0.1,1.3,0.4c0.4,0.2,0.7,0.6,1,1c0.2,0.4,0.4,0.9,0.4,1.3c0,0.5-0.1,0.9-0.4,1.3
		c-0.2,0.4-0.6,0.7-1,1c-0.4,0.2-0.9,0.4-1.4,0.4c-0.7,0-1.3-0.3-1.9-0.8c-0.5-0.5-0.8-1.1-0.8-1.9c0-0.8,0.3-1.4,0.9-2
		C259.1,124.1,259.7,123.8,260.4,123.8z M260.4,125c-0.4,0-0.7,0.1-1,0.4c-0.3,0.3-0.4,0.6-0.4,1.1c0,0.4,0.1,0.8,0.4,1.1
		c0.3,0.3,0.6,0.4,1,0.4s0.7-0.1,1-0.4c0.3-0.3,0.4-0.6,0.4-1.1s-0.1-0.8-0.4-1.1C261.1,125.2,260.8,125,260.4,125z"/>
	<path fill="#FFFFFF" d="M264.1,124h1.3v2.4c0,0.5,0,0.8,0.1,1c0.1,0.2,0.2,0.3,0.3,0.4c0.1,0.1,0.3,0.2,0.5,0.2s0.4-0.1,0.5-0.2
		c0.1-0.1,0.3-0.2,0.3-0.4c0.1-0.1,0.1-0.5,0.1-0.9V124h1.3v2.1c0,0.9-0.1,1.5-0.2,1.8c-0.2,0.4-0.4,0.7-0.8,0.9s-0.8,0.3-1.3,0.3
		c-0.6,0-1-0.1-1.3-0.4c-0.3-0.2-0.6-0.6-0.7-1c-0.1-0.3-0.1-0.9-0.1-1.7V124z"/>
	<path fill="#FFFFFF" d="M269.8,124h1.3v0.5c0.3-0.2,0.5-0.4,0.8-0.5c0.2-0.1,0.5-0.1,0.7-0.1c0.5,0,0.9,0.2,1.3,0.5
		c0.3,0.3,0.4,0.7,0.4,1.3v3.3H273v-2.2c0-0.6,0-1-0.1-1.2s-0.1-0.3-0.3-0.5c-0.1-0.1-0.3-0.2-0.5-0.2c-0.3,0-0.5,0.1-0.7,0.3
		c-0.2,0.2-0.3,0.4-0.4,0.7c0,0.2-0.1,0.5-0.1,1v2h-1.3V124z"/>
	<path fill="#FFFFFF" d="M275.7,122.1h1.3v1.9h0.8v1.1h-0.8v4h-1.3v-4H275V124h0.7V122.1z"/>
	<path fill="#FFFFFF" d="M282.1,124h1.3v5.1h-1.3v-0.5c-0.2,0.2-0.5,0.4-0.7,0.5c-0.2,0.1-0.5,0.2-0.8,0.2c-0.7,0-1.2-0.3-1.7-0.8
		c-0.5-0.5-0.7-1.1-0.7-1.9c0-0.8,0.2-1.4,0.7-1.9c0.5-0.5,1-0.7,1.7-0.7c0.3,0,0.6,0.1,0.9,0.2c0.3,0.1,0.5,0.3,0.7,0.5V124z
		 M280.8,125c-0.4,0-0.7,0.1-1,0.4c-0.3,0.3-0.4,0.6-0.4,1.1c0,0.4,0.1,0.8,0.4,1.1c0.3,0.3,0.6,0.4,1,0.4c0.4,0,0.7-0.1,1-0.4
		c0.3-0.3,0.4-0.6,0.4-1.1c0-0.4-0.1-0.8-0.4-1.1C281.5,125.2,281.2,125,280.8,125z"/>
	<path fill="#FFFFFF" d="M285.1,121.9c0.2,0,0.4,0.1,0.6,0.2c0.2,0.2,0.2,0.4,0.2,0.6c0,0.2-0.1,0.4-0.2,0.6
		c-0.2,0.2-0.3,0.2-0.6,0.2c-0.2,0-0.4-0.1-0.6-0.2c-0.2-0.2-0.2-0.4-0.2-0.6c0-0.2,0.1-0.4,0.2-0.6
		C284.7,122,284.9,121.9,285.1,121.9z M284.5,124h1.3v5.1h-1.3V124z"/>
	<path fill="#FFFFFF" d="M286.9,124h1.3v0.5c0.3-0.2,0.5-0.4,0.8-0.5c0.2-0.1,0.5-0.1,0.7-0.1c0.5,0,0.9,0.2,1.3,0.5
		c0.3,0.3,0.4,0.7,0.4,1.3v3.3h-1.3v-2.2c0-0.6,0-1-0.1-1.2s-0.1-0.3-0.3-0.5c-0.1-0.1-0.3-0.2-0.5-0.2c-0.3,0-0.5,0.1-0.7,0.3
		c-0.2,0.2-0.3,0.4-0.4,0.7c0,0.2-0.1,0.5-0.1,1v2h-1.3V124z"/>
	<path fill="#FFFFFF" d="M295.7,124.7l-0.8,0.8c-0.3-0.3-0.6-0.5-0.9-0.5c-0.1,0-0.3,0-0.3,0.1c-0.1,0.1-0.1,0.1-0.1,0.2
		c0,0.1,0,0.1,0.1,0.2c0.1,0.1,0.2,0.1,0.4,0.2l0.5,0.2c0.5,0.2,0.8,0.5,1,0.7c0.2,0.3,0.3,0.5,0.3,0.9c0,0.4-0.2,0.8-0.5,1.1
		c-0.3,0.3-0.8,0.5-1.3,0.5c-0.7,0-1.3-0.3-1.8-0.9l0.8-0.9c0.1,0.2,0.3,0.3,0.5,0.4c0.2,0.1,0.4,0.2,0.5,0.2c0.2,0,0.3,0,0.4-0.1
		c0.1-0.1,0.2-0.2,0.2-0.3c0-0.2-0.2-0.4-0.6-0.6l-0.4-0.2c-0.8-0.4-1.2-0.9-1.2-1.5c0-0.4,0.2-0.7,0.5-1c0.3-0.3,0.7-0.4,1.2-0.4
		c0.3,0,0.6,0.1,0.9,0.2C295.3,124.2,295.5,124.4,295.7,124.7z"/>
	<path fill="#FFFFFF" d="M297,125.9h2.4v1.2H297V125.9z"/>
</g>
<g>
	<path fill="#FFFFFF" d="M249.9,131.6h1.3v1.9h0.8v1.1h-0.8v4h-1.3v-4h-0.7v-1.1h0.7V131.6z"/>
	<path fill="#FFFFFF" d="M254.9,133.4c0.5,0,0.9,0.1,1.3,0.4c0.4,0.2,0.7,0.6,1,1c0.2,0.4,0.4,0.9,0.4,1.3c0,0.5-0.1,0.9-0.4,1.3
		c-0.2,0.4-0.6,0.7-1,1c-0.4,0.2-0.9,0.4-1.4,0.4c-0.7,0-1.3-0.3-1.9-0.8c-0.5-0.5-0.8-1.1-0.8-1.9c0-0.8,0.3-1.4,0.9-2
		C253.7,133.6,254.3,133.4,254.9,133.4z M255,134.6c-0.4,0-0.7,0.1-1,0.4c-0.3,0.3-0.4,0.6-0.4,1.1c0,0.4,0.1,0.8,0.4,1.1
		c0.3,0.3,0.6,0.4,1,0.4c0.4,0,0.7-0.1,1-0.4c0.3-0.3,0.4-0.6,0.4-1.1s-0.1-0.8-0.4-1.1C255.7,134.7,255.4,134.6,255,134.6z"/>
	<path fill="#FFFFFF" d="M258.8,135.4h2.4v1.2h-2.4V135.4z"/>
	<path fill="#FFFFFF" d="M266.4,132.6l-1,0.9c-0.3-0.5-0.7-0.7-1-0.7c-0.2,0-0.3,0-0.4,0.1c-0.1,0.1-0.2,0.2-0.2,0.3
		c0,0.1,0,0.2,0.1,0.3c0.1,0.1,0.4,0.4,1,0.9c0.5,0.4,0.8,0.7,0.9,0.8c0.3,0.3,0.5,0.5,0.6,0.8c0.1,0.2,0.2,0.5,0.2,0.8
		c0,0.6-0.2,1-0.6,1.4c-0.4,0.4-0.9,0.5-1.5,0.5c-0.5,0-0.9-0.1-1.3-0.4c-0.4-0.2-0.7-0.6-0.9-1.1l1.1-0.7c0.3,0.6,0.7,0.9,1.1,0.9
		c0.2,0,0.4-0.1,0.6-0.2c0.2-0.1,0.2-0.3,0.2-0.5c0-0.2-0.1-0.3-0.2-0.5c-0.1-0.2-0.4-0.4-0.8-0.7c-0.7-0.6-1.2-1.1-1.4-1.4
		c-0.2-0.3-0.3-0.7-0.3-1c0-0.5,0.2-0.9,0.5-1.2c0.4-0.3,0.8-0.5,1.3-0.5c0.3,0,0.7,0.1,1,0.2C265.7,131.9,266,132.2,266.4,132.6z"
		/>
	<path fill="#FFFFFF" d="M272.7,136.4h-4.1c0.1,0.4,0.2,0.6,0.5,0.9c0.3,0.2,0.6,0.3,1,0.3c0.5,0,0.9-0.2,1.2-0.5l1.1,0.5
		c-0.3,0.4-0.6,0.7-1,0.8c-0.4,0.2-0.8,0.3-1.3,0.3c-0.8,0-1.4-0.3-1.9-0.8c-0.5-0.5-0.7-1.1-0.7-1.9c0-0.8,0.2-1.4,0.7-1.9
		c0.5-0.5,1.1-0.8,1.9-0.8c0.8,0,1.4,0.3,1.9,0.8c0.5,0.5,0.7,1.2,0.7,2L272.7,136.4z M271.4,135.4c-0.1-0.3-0.2-0.5-0.5-0.7
		s-0.5-0.3-0.9-0.3c-0.4,0-0.7,0.1-0.9,0.3c-0.2,0.1-0.3,0.3-0.5,0.7H271.4z"/>
	<path fill="#FFFFFF" d="M277.4,133.5h1.3v5.1h-1.3V138c-0.2,0.2-0.5,0.4-0.7,0.5c-0.2,0.1-0.5,0.2-0.8,0.2c-0.7,0-1.2-0.3-1.7-0.8
		c-0.5-0.5-0.7-1.1-0.7-1.9c0-0.8,0.2-1.4,0.7-1.9c0.5-0.5,1-0.7,1.7-0.7c0.3,0,0.6,0.1,0.9,0.2c0.3,0.1,0.5,0.3,0.7,0.5V133.5z
		 M276.1,134.5c-0.4,0-0.7,0.1-1,0.4s-0.4,0.6-0.4,1.1c0,0.4,0.1,0.8,0.4,1.1c0.3,0.3,0.6,0.4,1,0.4c0.4,0,0.7-0.1,1-0.4
		c0.3-0.3,0.4-0.6,0.4-1.1c0-0.4-0.1-0.8-0.4-1.1C276.8,134.7,276.5,134.5,276.1,134.5z"/>
	<path fill="#FFFFFF" d="M282.1,131.7h3.8v1.3h-1.2v5.6h-1.3V133h-1.2V131.7z"/>
	<path fill="#FFFFFF" d="M286.4,133.5h1.1v0.6c0.1-0.3,0.3-0.4,0.5-0.6c0.2-0.1,0.4-0.2,0.6-0.2c0.2,0,0.3,0,0.5,0.1l-0.4,1.1
		c-0.1-0.1-0.3-0.1-0.4-0.1c-0.2,0-0.4,0.1-0.5,0.4c-0.1,0.2-0.2,0.7-0.2,1.4l0,0.2v2h-1.3V133.5z"/>
	<path fill="#FFFFFF" d="M293.4,133.5h1.3v5.1h-1.3V138c-0.2,0.2-0.5,0.4-0.7,0.5c-0.2,0.1-0.5,0.2-0.8,0.2c-0.7,0-1.2-0.3-1.7-0.8
		c-0.5-0.5-0.7-1.1-0.7-1.9c0-0.8,0.2-1.4,0.7-1.9c0.5-0.5,1-0.7,1.7-0.7c0.3,0,0.6,0.1,0.9,0.2c0.3,0.1,0.5,0.3,0.7,0.5V133.5z
		 M292.1,134.5c-0.4,0-0.7,0.1-1,0.4s-0.4,0.6-0.4,1.1c0,0.4,0.1,0.8,0.4,1.1c0.3,0.3,0.6,0.4,1,0.4c0.4,0,0.7-0.1,1-0.4
		c0.3-0.3,0.4-0.6,0.4-1.1c0-0.4-0.1-0.8-0.4-1.1C292.8,134.7,292.5,134.5,292.1,134.5z"/>
	<path fill="#FFFFFF" d="M296.5,131.4c0.2,0,0.4,0.1,0.6,0.2c0.2,0.2,0.2,0.4,0.2,0.6c0,0.2-0.1,0.4-0.2,0.6
		c-0.2,0.2-0.3,0.2-0.6,0.2c-0.2,0-0.4-0.1-0.6-0.2c-0.2-0.2-0.2-0.4-0.2-0.6c0-0.2,0.1-0.4,0.2-0.6
		C296.1,131.5,296.3,131.4,296.5,131.4z M295.8,133.5h1.3v5.1h-1.3V133.5z"/>
	<path fill="#FFFFFF" d="M298.1,131.5h1.3v7h-1.3V131.5z"/>
</g>
<g>
	<path fill="#666766" d="M10.6,123H9.6l-3.9-6h0c0.1,0.7,0.1,1.3,0.1,1.9v4.1H5v-7.1h0.9l3.9,6h0c0-0.1,0-0.4,0-0.8c0-0.5,0-0.8,0-1
		v-4.1h0.8V123z"/>
	<path fill="#666766" d="M17,120.3c0,0.9-0.2,1.6-0.7,2c-0.4,0.5-1,0.7-1.8,0.7c-0.5,0-0.9-0.1-1.3-0.3s-0.7-0.5-0.9-1
		s-0.3-0.9-0.3-1.5c0-0.9,0.2-1.6,0.7-2c0.4-0.5,1-0.7,1.8-0.7c0.7,0,1.3,0.2,1.8,0.7S17,119.4,17,120.3z M13,120.3
		c0,0.7,0.1,1.2,0.4,1.6s0.7,0.5,1.2,0.5s0.9-0.2,1.2-0.5c0.3-0.4,0.4-0.9,0.4-1.6c0-0.7-0.1-1.2-0.4-1.5c-0.3-0.4-0.7-0.5-1.2-0.5
		c-0.5,0-0.9,0.2-1.2,0.5S13,119.6,13,120.3z"/>
	<path fill="#666766" d="M20.9,117.5c0.2,0,0.5,0,0.6,0.1l-0.1,0.8c-0.2,0-0.4-0.1-0.6-0.1c-0.4,0-0.8,0.2-1.1,0.5s-0.5,0.8-0.5,1.3
		v2.9h-0.8v-5.4h0.7l0.1,1h0c0.2-0.3,0.4-0.6,0.7-0.8S20.6,117.5,20.9,117.5z"/>
	<path fill="#666766" d="M24.3,122.4c0.1,0,0.3,0,0.4,0c0.1,0,0.2,0,0.3-0.1v0.6c-0.1,0-0.2,0.1-0.4,0.1c-0.2,0-0.3,0-0.5,0
		c-1,0-1.6-0.5-1.6-1.6v-3.2h-0.8v-0.4l0.8-0.3l0.3-1.1h0.5v1.2H25v0.6h-1.6v3.1c0,0.3,0.1,0.6,0.2,0.7S24,122.4,24.3,122.4z"/>
	<path fill="#666766" d="M29.7,123v-3.5c0-0.4-0.1-0.8-0.3-1s-0.5-0.3-0.9-0.3c-0.6,0-1,0.2-1.2,0.5s-0.4,0.8-0.4,1.5v2.8h-0.8v-7.6
		h0.8v2.3c0,0.3,0,0.5,0,0.7h0c0.2-0.3,0.4-0.5,0.7-0.6c0.3-0.1,0.6-0.2,1-0.2c0.7,0,1.1,0.2,1.5,0.5c0.3,0.3,0.5,0.8,0.5,1.5v3.5
		H29.7z"/>
	<path fill="#666766" d="M38,116.5c-0.8,0-1.4,0.3-1.9,0.8c-0.5,0.5-0.7,1.2-0.7,2.1c0,0.9,0.2,1.7,0.7,2.2c0.4,0.5,1.1,0.8,1.9,0.8
		c0.5,0,1.1-0.1,1.7-0.3v0.7c-0.5,0.2-1.1,0.3-1.8,0.3c-1.1,0-1.9-0.3-2.4-1s-0.9-1.5-0.9-2.7c0-0.7,0.1-1.4,0.4-1.9s0.7-1,1.2-1.3
		s1.1-0.4,1.8-0.4c0.7,0,1.4,0.1,2,0.4l-0.4,0.7C39.1,116.6,38.5,116.5,38,116.5z"/>
	<path fill="#666766" d="M44.4,123l-0.2-0.8h0c-0.3,0.3-0.5,0.6-0.8,0.7c-0.3,0.1-0.6,0.2-1,0.2c-0.5,0-0.9-0.1-1.2-0.4
		s-0.5-0.7-0.5-1.2c0-1.1,0.9-1.6,2.6-1.7l0.9,0v-0.3c0-0.4-0.1-0.7-0.3-0.9c-0.2-0.2-0.5-0.3-0.9-0.3c-0.4,0-1,0.1-1.5,0.4
		l-0.2-0.6c0.3-0.1,0.6-0.3,0.9-0.3s0.6-0.1,0.9-0.1c0.6,0,1.1,0.1,1.4,0.4s0.5,0.7,0.5,1.4v3.7H44.4z M42.6,122.4
		c0.5,0,0.9-0.1,1.2-0.4s0.4-0.7,0.4-1.2v-0.5l-0.8,0c-0.6,0-1.1,0.1-1.4,0.3c-0.3,0.2-0.4,0.5-0.4,0.8c0,0.3,0.1,0.5,0.3,0.7
		S42.2,122.4,42.6,122.4z"/>
	<path fill="#666766" d="M49.1,117.5c0.2,0,0.5,0,0.6,0.1l-0.1,0.8c-0.2,0-0.4-0.1-0.6-0.1c-0.4,0-0.8,0.2-1.1,0.5s-0.5,0.8-0.5,1.3
		v2.9h-0.8v-5.4h0.7l0.1,1h0c0.2-0.3,0.4-0.6,0.7-0.8S48.8,117.5,49.1,117.5z"/>
	<path fill="#666766" d="M55.4,120.3c0,0.9-0.2,1.6-0.7,2c-0.4,0.5-1,0.7-1.8,0.7c-0.5,0-0.9-0.1-1.3-0.3s-0.7-0.5-0.9-1
		s-0.3-0.9-0.3-1.5c0-0.9,0.2-1.6,0.7-2c0.4-0.5,1-0.7,1.8-0.7c0.7,0,1.3,0.2,1.8,0.7S55.4,119.4,55.4,120.3z M51.3,120.3
		c0,0.7,0.1,1.2,0.4,1.6s0.7,0.5,1.2,0.5s0.9-0.2,1.2-0.5c0.3-0.4,0.4-0.9,0.4-1.6c0-0.7-0.1-1.2-0.4-1.5c-0.3-0.4-0.7-0.5-1.2-0.5
		c-0.5,0-0.9,0.2-1.2,0.5S51.3,119.6,51.3,120.3z"/>
	<path fill="#666766" d="M57.6,123h-0.8v-7.6h0.8V123z"/>
	<path fill="#666766" d="M59.2,116.2c0-0.2,0-0.3,0.1-0.4c0.1-0.1,0.2-0.1,0.3-0.1c0.1,0,0.2,0,0.3,0.1s0.1,0.2,0.1,0.4
		s0,0.3-0.1,0.4c-0.1,0.1-0.2,0.1-0.3,0.1c-0.1,0-0.3,0-0.3-0.1C59.3,116.5,59.2,116.3,59.2,116.2z M60.1,123h-0.8v-5.4h0.8V123z"/>
	<path fill="#666766" d="M65.5,123v-3.5c0-0.4-0.1-0.8-0.3-1s-0.5-0.3-0.9-0.3c-0.6,0-1,0.2-1.2,0.5s-0.4,0.8-0.4,1.5v2.8h-0.8v-5.4
		h0.7l0.1,0.7h0c0.2-0.3,0.4-0.5,0.7-0.6c0.3-0.1,0.6-0.2,1-0.2c0.6,0,1.1,0.2,1.5,0.5c0.3,0.3,0.5,0.8,0.5,1.5v3.5H65.5z"/>
	<path fill="#666766" d="M71.3,123l-0.2-0.8h0c-0.3,0.3-0.5,0.6-0.8,0.7c-0.3,0.1-0.6,0.2-1,0.2c-0.5,0-0.9-0.1-1.2-0.4
		s-0.5-0.7-0.5-1.2c0-1.1,0.9-1.6,2.6-1.7l0.9,0v-0.3c0-0.4-0.1-0.7-0.3-0.9c-0.2-0.2-0.5-0.3-0.9-0.3c-0.4,0-1,0.1-1.5,0.4
		l-0.2-0.6c0.3-0.1,0.6-0.3,0.9-0.3s0.6-0.1,0.9-0.1c0.6,0,1.1,0.1,1.4,0.4s0.5,0.7,0.5,1.4v3.7H71.3z M69.4,122.4
		c0.5,0,0.9-0.1,1.2-0.4s0.4-0.7,0.4-1.2v-0.5l-0.8,0c-0.6,0-1.1,0.1-1.4,0.3c-0.3,0.2-0.4,0.5-0.4,0.8c0,0.3,0.1,0.5,0.3,0.7
		S69.1,122.4,69.4,122.4z"/>
	<path fill="#666766" d="M76.3,115.8h2c0.9,0,1.6,0.1,2.1,0.4s0.6,0.7,0.6,1.3c0,0.4-0.1,0.8-0.4,1c-0.2,0.3-0.6,0.5-1,0.5v0
		c1.1,0.2,1.6,0.8,1.6,1.7c0,0.6-0.2,1.1-0.6,1.5s-1,0.5-1.8,0.5h-2.5V115.8z M77.1,118.9h1.4c0.6,0,1-0.1,1.3-0.3
		c0.3-0.2,0.4-0.5,0.4-0.9c0-0.4-0.1-0.7-0.4-0.9c-0.3-0.2-0.7-0.3-1.4-0.3h-1.2V118.9z M77.1,119.6v2.7h1.5c0.6,0,1-0.1,1.3-0.3
		c0.3-0.2,0.4-0.6,0.4-1c0-0.4-0.1-0.8-0.4-1s-0.8-0.3-1.4-0.3H77.1z"/>
	<path fill="#666766" d="M82.6,116.2c0-0.2,0-0.3,0.1-0.4c0.1-0.1,0.2-0.1,0.3-0.1c0.1,0,0.2,0,0.3,0.1s0.1,0.2,0.1,0.4
		s0,0.3-0.1,0.4c-0.1,0.1-0.2,0.1-0.3,0.1c-0.1,0-0.3,0-0.3-0.1C82.6,116.5,82.6,116.3,82.6,116.2z M83.4,123h-0.8v-5.4h0.8V123z"/>
	<path fill="#666766" d="M87.3,123.1c-0.8,0-1.4-0.2-1.8-0.7c-0.4-0.5-0.6-1.2-0.6-2c0-0.9,0.2-1.6,0.6-2.1s1-0.7,1.8-0.7
		c0.3,0,0.5,0,0.8,0.1s0.5,0.1,0.6,0.2l-0.2,0.7c-0.2-0.1-0.4-0.1-0.6-0.2c-0.2,0-0.4-0.1-0.6-0.1c-1.1,0-1.6,0.7-1.6,2.1
		c0,0.7,0.1,1.2,0.4,1.5s0.7,0.5,1.2,0.5c0.4,0,0.9-0.1,1.4-0.3v0.7C88.3,123,87.8,123.1,87.3,123.1z"/>
	<path fill="#666766" d="M89.1,117.6h0.9l1.2,3.1c0.3,0.7,0.4,1.2,0.5,1.5h0c0-0.2,0.1-0.5,0.3-0.9c0.1-0.4,0.6-1.6,1.3-3.7h0.9
		l-2.3,6.1c-0.2,0.6-0.5,1-0.8,1.3c-0.3,0.3-0.7,0.4-1.1,0.4c-0.2,0-0.5,0-0.7-0.1v-0.6c0.2,0,0.4,0.1,0.6,0.1c0.6,0,1-0.3,1.2-0.9
		l0.3-0.8L89.1,117.6z"/>
	<path fill="#666766" d="M97.1,123.1c-0.8,0-1.4-0.2-1.8-0.7c-0.4-0.5-0.6-1.2-0.6-2c0-0.9,0.2-1.6,0.6-2.1s1-0.7,1.8-0.7
		c0.3,0,0.5,0,0.8,0.1s0.5,0.1,0.6,0.2l-0.2,0.7c-0.2-0.1-0.4-0.1-0.6-0.2c-0.2,0-0.4-0.1-0.6-0.1c-1.1,0-1.6,0.7-1.6,2.1
		c0,0.7,0.1,1.2,0.4,1.5s0.7,0.5,1.2,0.5c0.4,0,0.9-0.1,1.4-0.3v0.7C98.1,123,97.6,123.1,97.1,123.1z"/>
	<path fill="#666766" d="M100.5,123h-0.8v-7.6h0.8V123z"/>
	<path fill="#666766" d="M104.5,123.1c-0.8,0-1.4-0.2-1.9-0.7s-0.7-1.2-0.7-2c0-0.9,0.2-1.5,0.6-2.1s1-0.8,1.7-0.8
		c0.7,0,1.2,0.2,1.6,0.7c0.4,0.4,0.6,1,0.6,1.7v0.5h-3.7c0,0.6,0.2,1.1,0.5,1.4s0.7,0.5,1.3,0.5c0.6,0,1.1-0.1,1.7-0.4v0.7
		c-0.3,0.1-0.6,0.2-0.8,0.3C105.2,123,104.9,123.1,104.5,123.1z M104.3,118.2c-0.4,0-0.8,0.1-1,0.4s-0.4,0.7-0.5,1.2h2.8
		c0-0.5-0.1-0.9-0.3-1.2C105,118.3,104.7,118.2,104.3,118.2z"/>
	<path fill="#666766" d="M113.7,123l-0.2-0.8h0c-0.3,0.3-0.5,0.6-0.8,0.7c-0.3,0.1-0.6,0.2-1,0.2c-0.5,0-0.9-0.1-1.2-0.4
		s-0.5-0.7-0.5-1.2c0-1.1,0.9-1.6,2.6-1.7l0.9,0v-0.3c0-0.4-0.1-0.7-0.3-0.9c-0.2-0.2-0.5-0.3-0.9-0.3c-0.4,0-1,0.1-1.5,0.4
		l-0.2-0.6c0.3-0.1,0.6-0.3,0.9-0.3s0.6-0.1,0.9-0.1c0.6,0,1.1,0.1,1.4,0.4s0.5,0.7,0.5,1.4v3.7H113.7z M111.9,122.4
		c0.5,0,0.9-0.1,1.2-0.4s0.4-0.7,0.4-1.2v-0.5l-0.8,0c-0.6,0-1.1,0.1-1.4,0.3c-0.3,0.2-0.4,0.5-0.4,0.8c0,0.3,0.1,0.5,0.3,0.7
		S111.6,122.4,111.9,122.4z"/>
	<path fill="#666766" d="M119.7,123v-3.5c0-0.4-0.1-0.8-0.3-1s-0.5-0.3-0.9-0.3c-0.6,0-1,0.2-1.2,0.5s-0.4,0.8-0.4,1.5v2.8H116v-5.4
		h0.7l0.1,0.7h0c0.2-0.3,0.4-0.5,0.7-0.6c0.3-0.1,0.6-0.2,1-0.2c0.6,0,1.1,0.2,1.5,0.5c0.3,0.3,0.5,0.8,0.5,1.5v3.5H119.7z"/>
	<path fill="#666766" d="M125.8,122.2L125.8,122.2c-0.4,0.5-1,0.8-1.7,0.8c-0.7,0-1.2-0.2-1.6-0.7s-0.6-1.2-0.6-2s0.2-1.6,0.6-2.1
		s0.9-0.7,1.6-0.7c0.7,0,1.3,0.3,1.7,0.8h0.1l0-0.4l0-0.4v-2.2h0.8v7.6h-0.7L125.8,122.2z M124.2,122.4c0.6,0,1-0.2,1.2-0.5
		c0.2-0.3,0.4-0.8,0.4-1.5v-0.2c0-0.8-0.1-1.3-0.4-1.6c-0.3-0.3-0.7-0.5-1.2-0.5c-0.5,0-0.8,0.2-1.1,0.6c-0.3,0.4-0.4,0.9-0.4,1.6
		c0,0.7,0.1,1.2,0.4,1.5S123.7,122.4,124.2,122.4z"/>
	<path fill="#666766" d="M14.9,133.9c0,0.7-0.2,1.3-0.7,1.7c-0.5,0.4-1.2,0.6-2.1,0.6h-0.8v2.8h-0.8v-7.1h1.9
		C14,131.8,14.9,132.5,14.9,133.9z M11.2,135.4h0.7c0.7,0,1.3-0.1,1.6-0.4s0.5-0.6,0.5-1.1c0-0.5-0.2-0.8-0.5-1.1s-0.8-0.3-1.4-0.3
		h-0.9V135.4z"/>
	<path fill="#666766" d="M18.5,139.1c-0.8,0-1.4-0.2-1.9-0.7s-0.7-1.2-0.7-2c0-0.9,0.2-1.5,0.6-2.1s1-0.8,1.7-0.8
		c0.7,0,1.2,0.2,1.6,0.7c0.4,0.4,0.6,1,0.6,1.7v0.5h-3.7c0,0.6,0.2,1.1,0.5,1.4s0.7,0.5,1.3,0.5c0.6,0,1.1-0.1,1.7-0.4v0.7
		c-0.3,0.1-0.6,0.2-0.8,0.3C19.2,139,18.9,139.1,18.5,139.1z M18.3,134.2c-0.4,0-0.8,0.1-1,0.4s-0.4,0.7-0.5,1.2h2.8
		c0-0.5-0.1-0.9-0.3-1.2C19,134.3,18.7,134.2,18.3,134.2z"/>
	<path fill="#666766" d="M25.5,138.2L25.5,138.2c-0.4,0.5-1,0.8-1.7,0.8c-0.7,0-1.2-0.2-1.6-0.7s-0.6-1.2-0.6-2s0.2-1.6,0.6-2.1
		s0.9-0.7,1.6-0.7c0.7,0,1.3,0.3,1.7,0.8h0.1l0-0.4l0-0.4v-2.2h0.8v7.6h-0.7L25.5,138.2z M23.9,138.4c0.6,0,1-0.2,1.2-0.5
		c0.2-0.3,0.4-0.8,0.4-1.5v-0.2c0-0.8-0.1-1.3-0.4-1.6c-0.3-0.3-0.7-0.5-1.2-0.5c-0.5,0-0.8,0.2-1.1,0.6c-0.3,0.4-0.4,0.9-0.4,1.6
		c0,0.7,0.1,1.2,0.4,1.5S23.4,138.4,23.9,138.4z"/>
	<path fill="#666766" d="M30.2,139.1c-0.8,0-1.4-0.2-1.9-0.7s-0.7-1.2-0.7-2c0-0.9,0.2-1.5,0.6-2.1s1-0.8,1.7-0.8
		c0.7,0,1.2,0.2,1.6,0.7c0.4,0.4,0.6,1,0.6,1.7v0.5h-3.7c0,0.6,0.2,1.1,0.5,1.4s0.7,0.5,1.3,0.5c0.6,0,1.1-0.1,1.7-0.4v0.7
		c-0.3,0.1-0.6,0.2-0.8,0.3C30.9,139,30.6,139.1,30.2,139.1z M30,134.2c-0.4,0-0.8,0.1-1,0.4s-0.4,0.7-0.5,1.2h2.8
		c0-0.5-0.1-0.9-0.3-1.2C30.8,134.3,30.4,134.2,30,134.2z"/>
	<path fill="#666766" d="M37,137.5c0,0.5-0.2,0.9-0.6,1.2s-0.9,0.4-1.6,0.4c-0.7,0-1.3-0.1-1.7-0.3V138c0.3,0.1,0.5,0.2,0.8,0.3
		s0.6,0.1,0.9,0.1c0.4,0,0.7-0.1,1-0.2c0.2-0.1,0.3-0.3,0.3-0.6c0-0.2-0.1-0.4-0.3-0.5c-0.2-0.1-0.5-0.3-1.1-0.5
		c-0.5-0.2-0.9-0.3-1.1-0.5c-0.2-0.1-0.4-0.3-0.5-0.5s-0.2-0.4-0.2-0.6c0-0.4,0.2-0.8,0.5-1c0.4-0.3,0.8-0.4,1.5-0.4
		c0.6,0,1.1,0.1,1.7,0.4l-0.3,0.7c-0.5-0.2-1-0.3-1.5-0.3c-0.4,0-0.7,0.1-0.9,0.2s-0.3,0.3-0.3,0.5c0,0.1,0,0.3,0.1,0.4
		s0.2,0.2,0.4,0.3s0.5,0.2,0.9,0.4c0.6,0.2,1.1,0.5,1.3,0.7S37,137.1,37,137.5z"/>
	<path fill="#666766" d="M40.1,138.4c0.1,0,0.3,0,0.4,0c0.1,0,0.2,0,0.3-0.1v0.6c-0.1,0-0.2,0.1-0.4,0.1c-0.2,0-0.3,0-0.5,0
		c-1,0-1.6-0.5-1.6-1.6v-3.2h-0.8v-0.4l0.8-0.3l0.3-1.1h0.5v1.2h1.6v0.6h-1.6v3.1c0,0.3,0.1,0.6,0.2,0.7S39.8,138.4,40.1,138.4z"/>
	<path fill="#666766" d="M44.3,133.5c0.2,0,0.5,0,0.6,0.1l-0.1,0.8c-0.2,0-0.4-0.1-0.6-0.1c-0.4,0-0.8,0.2-1.1,0.5s-0.5,0.8-0.5,1.3
		v2.9h-0.8v-5.4h0.7l0.1,1h0c0.2-0.3,0.4-0.6,0.7-0.8S44,133.5,44.3,133.5z"/>
	<path fill="#666766" d="M45.9,132.2c0-0.2,0-0.3,0.1-0.4c0.1-0.1,0.2-0.1,0.3-0.1c0.1,0,0.2,0,0.3,0.1s0.1,0.2,0.1,0.4
		s0,0.3-0.1,0.4c-0.1,0.1-0.2,0.1-0.3,0.1c-0.1,0-0.3,0-0.3-0.1C45.9,132.5,45.9,132.3,45.9,132.2z M46.8,139H46v-5.4h0.8V139z"/>
	<path fill="#666766" d="M51.8,139l-0.2-0.8h0c-0.3,0.3-0.5,0.6-0.8,0.7c-0.3,0.1-0.6,0.2-1,0.2c-0.5,0-0.9-0.1-1.2-0.4
		s-0.5-0.7-0.5-1.2c0-1.1,0.9-1.6,2.6-1.7l0.9,0v-0.3c0-0.4-0.1-0.7-0.3-0.9c-0.2-0.2-0.5-0.3-0.9-0.3c-0.4,0-1,0.1-1.5,0.4
		l-0.2-0.6c0.3-0.1,0.6-0.3,0.9-0.3s0.6-0.1,0.9-0.1c0.6,0,1.1,0.1,1.4,0.4s0.5,0.7,0.5,1.4v3.7H51.8z M50,138.4
		c0.5,0,0.9-0.1,1.2-0.4s0.4-0.7,0.4-1.2v-0.5l-0.8,0c-0.6,0-1.1,0.1-1.4,0.3c-0.3,0.2-0.4,0.5-0.4,0.8c0,0.3,0.1,0.5,0.3,0.7
		S49.6,138.4,50,138.4z"/>
	<path fill="#666766" d="M57.7,139v-3.5c0-0.4-0.1-0.8-0.3-1s-0.5-0.3-0.9-0.3c-0.6,0-1,0.2-1.2,0.5s-0.4,0.8-0.4,1.5v2.8h-0.8v-5.4
		h0.7l0.1,0.7h0c0.2-0.3,0.4-0.5,0.7-0.6c0.3-0.1,0.6-0.2,1-0.2c0.6,0,1.1,0.2,1.5,0.5c0.3,0.3,0.5,0.8,0.5,1.5v3.5H57.7z"/>
	<path fill="#666766" d="M67.4,133.9c0,0.7-0.2,1.3-0.7,1.7c-0.5,0.4-1.2,0.6-2.1,0.6h-0.8v2.8h-0.8v-7.1h1.9
		C66.5,131.8,67.4,132.5,67.4,133.9z M63.7,135.4h0.7c0.7,0,1.3-0.1,1.6-0.4s0.5-0.6,0.5-1.1c0-0.5-0.2-0.8-0.5-1.1
		s-0.8-0.3-1.4-0.3h-0.9V135.4z"/>
	<path fill="#666766" d="M69.6,139h-0.8v-7.6h0.8V139z"/>
	<path fill="#666766" d="M74.6,139l-0.2-0.8h0c-0.3,0.3-0.5,0.6-0.8,0.7c-0.3,0.1-0.6,0.2-1,0.2c-0.5,0-0.9-0.1-1.2-0.4
		s-0.5-0.7-0.5-1.2c0-1.1,0.9-1.6,2.6-1.7l0.9,0v-0.3c0-0.4-0.1-0.7-0.3-0.9c-0.2-0.2-0.5-0.3-0.9-0.3c-0.4,0-1,0.1-1.5,0.4
		l-0.2-0.6c0.3-0.1,0.6-0.3,0.9-0.3s0.6-0.1,0.9-0.1c0.6,0,1.1,0.1,1.4,0.4s0.5,0.7,0.5,1.4v3.7H74.6z M72.8,138.4
		c0.5,0,0.9-0.1,1.2-0.4s0.4-0.7,0.4-1.2v-0.5l-0.8,0c-0.6,0-1.1,0.1-1.4,0.3c-0.3,0.2-0.4,0.5-0.4,0.8c0,0.3,0.1,0.5,0.3,0.7
		S72.5,138.4,72.8,138.4z"/>
	<path fill="#666766" d="M80.6,139v-3.5c0-0.4-0.1-0.8-0.3-1s-0.5-0.3-0.9-0.3c-0.6,0-1,0.2-1.2,0.5s-0.4,0.8-0.4,1.5v2.8h-0.8v-5.4
		h0.7l0.1,0.7h0c0.2-0.3,0.4-0.5,0.7-0.6c0.3-0.1,0.6-0.2,1-0.2c0.6,0,1.1,0.2,1.5,0.5c0.3,0.3,0.5,0.8,0.5,1.5v3.5H80.6z"/>
	<path fill="#666766" d="M86.7,139v-3.5c0-0.4-0.1-0.8-0.3-1s-0.5-0.3-0.9-0.3c-0.6,0-1,0.2-1.2,0.5s-0.4,0.8-0.4,1.5v2.8H83v-5.4
		h0.7l0.1,0.7h0c0.2-0.3,0.4-0.5,0.7-0.6c0.3-0.1,0.6-0.2,1-0.2c0.6,0,1.1,0.2,1.5,0.5c0.3,0.3,0.5,0.8,0.5,1.5v3.5H86.7z"/>
	<path fill="#666766" d="M89.1,132.2c0-0.2,0-0.3,0.1-0.4c0.1-0.1,0.2-0.1,0.3-0.1c0.1,0,0.2,0,0.3,0.1s0.1,0.2,0.1,0.4
		s0,0.3-0.1,0.4c-0.1,0.1-0.2,0.1-0.3,0.1c-0.1,0-0.3,0-0.3-0.1C89.2,132.5,89.1,132.3,89.1,132.2z M90,139h-0.8v-5.4H90V139z"/>
	<path fill="#666766" d="M95.4,139v-3.5c0-0.4-0.1-0.8-0.3-1s-0.5-0.3-0.9-0.3c-0.6,0-1,0.2-1.2,0.5s-0.4,0.8-0.4,1.5v2.8h-0.8v-5.4
		h0.7l0.1,0.7h0c0.2-0.3,0.4-0.5,0.7-0.6c0.3-0.1,0.6-0.2,1-0.2c0.6,0,1.1,0.2,1.5,0.5c0.3,0.3,0.5,0.8,0.5,1.5v3.5H95.4z"/>
	<path fill="#666766" d="M102.2,133.6v0.5l-1,0.1c0.1,0.1,0.2,0.3,0.2,0.4c0.1,0.2,0.1,0.4,0.1,0.6c0,0.5-0.2,0.9-0.5,1.3
		s-0.8,0.5-1.5,0.5c-0.2,0-0.3,0-0.4,0c-0.3,0.2-0.5,0.4-0.5,0.7c0,0.1,0.1,0.3,0.2,0.3c0.1,0.1,0.3,0.1,0.6,0.1h0.9
		c0.6,0,1,0.1,1.3,0.4s0.5,0.6,0.5,1.1c0,0.6-0.2,1-0.7,1.4c-0.5,0.3-1.2,0.5-2.1,0.5c-0.7,0-1.2-0.1-1.6-0.4s-0.6-0.6-0.6-1.1
		c0-0.3,0.1-0.6,0.3-0.8s0.5-0.4,0.9-0.5c-0.1-0.1-0.3-0.2-0.3-0.3s-0.1-0.3-0.1-0.5c0-0.2,0.1-0.4,0.2-0.5s0.3-0.3,0.5-0.4
		c-0.3-0.1-0.5-0.3-0.7-0.6s-0.3-0.6-0.3-0.9c0-0.6,0.2-1,0.5-1.4c0.4-0.3,0.8-0.5,1.5-0.5c0.3,0,0.5,0,0.8,0.1H102.2z M98,139.9
		c0,0.3,0.1,0.5,0.4,0.7s0.6,0.2,1,0.2c0.7,0,1.2-0.1,1.5-0.3c0.3-0.2,0.5-0.5,0.5-0.8c0-0.3-0.1-0.5-0.3-0.6
		c-0.2-0.1-0.5-0.2-1-0.2h-1c-0.4,0-0.7,0.1-0.9,0.3S98,139.5,98,139.9z M98.4,135.3c0,0.4,0.1,0.7,0.3,0.8s0.5,0.3,0.9,0.3
		c0.8,0,1.2-0.4,1.2-1.2c0-0.8-0.4-1.2-1.2-1.2c-0.4,0-0.7,0.1-0.9,0.3S98.4,134.9,98.4,135.3z"/>
	<path fill="#666766" d="M109.2,139l-0.2-0.8h0c-0.3,0.3-0.5,0.6-0.8,0.7c-0.3,0.1-0.6,0.2-1,0.2c-0.5,0-0.9-0.1-1.2-0.4
		s-0.5-0.7-0.5-1.2c0-1.1,0.9-1.6,2.6-1.7l0.9,0v-0.3c0-0.4-0.1-0.7-0.3-0.9c-0.2-0.2-0.5-0.3-0.9-0.3c-0.4,0-1,0.1-1.5,0.4
		l-0.2-0.6c0.3-0.1,0.6-0.3,0.9-0.3s0.6-0.1,0.9-0.1c0.6,0,1.1,0.1,1.4,0.4s0.5,0.7,0.5,1.4v3.7H109.2z M107.4,138.4
		c0.5,0,0.9-0.1,1.2-0.4s0.4-0.7,0.4-1.2v-0.5l-0.8,0c-0.6,0-1.1,0.1-1.4,0.3c-0.3,0.2-0.4,0.5-0.4,0.8c0,0.3,0.1,0.5,0.3,0.7
		S107.1,138.4,107.4,138.4z"/>
	<path fill="#666766" d="M114.9,137.5c0,0.5-0.2,0.9-0.6,1.2s-0.9,0.4-1.6,0.4c-0.7,0-1.3-0.1-1.7-0.3V138c0.3,0.1,0.5,0.2,0.8,0.3
		s0.6,0.1,0.9,0.1c0.4,0,0.7-0.1,1-0.2c0.2-0.1,0.3-0.3,0.3-0.6c0-0.2-0.1-0.4-0.3-0.5c-0.2-0.1-0.5-0.3-1.1-0.5
		c-0.5-0.2-0.9-0.3-1.1-0.5c-0.2-0.1-0.4-0.3-0.5-0.5s-0.2-0.4-0.2-0.6c0-0.4,0.2-0.8,0.5-1c0.4-0.3,0.8-0.4,1.5-0.4
		c0.6,0,1.1,0.1,1.7,0.4l-0.3,0.7c-0.5-0.2-1-0.3-1.5-0.3c-0.4,0-0.7,0.1-0.9,0.2s-0.3,0.3-0.3,0.5c0,0.1,0,0.3,0.1,0.4
		s0.2,0.2,0.4,0.3s0.5,0.2,0.9,0.4c0.6,0.2,1.1,0.5,1.3,0.7S114.9,137.1,114.9,137.5z"/>
	<path fill="#666766" d="M123.5,136.3c0,0.9-0.2,1.6-0.7,2c-0.4,0.5-1,0.7-1.8,0.7c-0.5,0-0.9-0.1-1.3-0.3s-0.7-0.5-0.9-1
		s-0.3-0.9-0.3-1.5c0-0.9,0.2-1.6,0.7-2c0.4-0.5,1-0.7,1.8-0.7c0.7,0,1.3,0.2,1.8,0.7S123.5,135.4,123.5,136.3z M119.4,136.3
		c0,0.7,0.1,1.2,0.4,1.6s0.7,0.5,1.2,0.5s0.9-0.2,1.2-0.5c0.3-0.4,0.4-0.9,0.4-1.6c0-0.7-0.1-1.2-0.4-1.5c-0.3-0.4-0.7-0.5-1.2-0.5
		c-0.5,0-0.9,0.2-1.2,0.5S119.4,135.6,119.4,136.3z"/>
	<path fill="#666766" d="M127.3,134.2h-1.4v4.7h-0.8v-4.7h-1v-0.4l1-0.3v-0.3c0-1.3,0.6-2,1.7-2c0.3,0,0.6,0.1,1,0.2l-0.2,0.6
		c-0.3-0.1-0.6-0.2-0.8-0.2c-0.3,0-0.5,0.1-0.7,0.3c-0.1,0.2-0.2,0.5-0.2,1v0.3h1.4V134.2z"/>
	<path fill="#666766" d="M54.6,151.4c0,1.1-0.3,2-0.9,2.7s-1.4,1-2.4,1c-1.1,0-1.9-0.3-2.4-1c-0.6-0.6-0.9-1.5-0.9-2.7
		c0-1.2,0.3-2.1,0.9-2.7c0.6-0.6,1.4-1,2.4-1c1,0,1.8,0.3,2.4,1S54.6,150.2,54.6,151.4z M48.9,151.4c0,1,0.2,1.7,0.6,2.2
		c0.4,0.5,1,0.7,1.8,0.7c0.8,0,1.4-0.2,1.8-0.7s0.6-1.2,0.6-2.2c0-1-0.2-1.7-0.6-2.2c-0.4-0.5-1-0.7-1.8-0.7c-0.8,0-1.4,0.2-1.8,0.7
		C49.1,149.7,48.9,150.4,48.9,151.4z"/>
	<path fill="#666766" d="M58.2,155.1c-0.8,0-1.4-0.2-1.8-0.7c-0.4-0.5-0.6-1.2-0.6-2c0-0.9,0.2-1.6,0.6-2.1s1-0.7,1.8-0.7
		c0.3,0,0.5,0,0.8,0.1s0.5,0.1,0.6,0.2l-0.2,0.7c-0.2-0.1-0.4-0.1-0.6-0.2c-0.2,0-0.4-0.1-0.6-0.1c-1.1,0-1.6,0.7-1.6,2.1
		c0,0.7,0.1,1.2,0.4,1.5s0.7,0.5,1.2,0.5c0.4,0,0.9-0.1,1.4-0.3v0.7C59.2,155,58.8,155.1,58.2,155.1z"/>
	<path fill="#666766" d="M62.6,154.4c0.1,0,0.3,0,0.4,0c0.1,0,0.2,0,0.3-0.1v0.6c-0.1,0-0.2,0.1-0.4,0.1c-0.2,0-0.3,0-0.5,0
		c-1,0-1.6-0.5-1.6-1.6v-3.2h-0.8v-0.4l0.8-0.3l0.3-1.1h0.5v1.2h1.6v0.6h-1.6v3.1c0,0.3,0.1,0.6,0.2,0.7S62.3,154.4,62.6,154.4z"/>
	<path fill="#666766" d="M69,152.3c0,0.9-0.2,1.6-0.7,2c-0.4,0.5-1,0.7-1.8,0.7c-0.5,0-0.9-0.1-1.3-0.3s-0.7-0.5-0.9-1
		s-0.3-0.9-0.3-1.5c0-0.9,0.2-1.6,0.7-2c0.4-0.5,1-0.7,1.8-0.7c0.7,0,1.3,0.2,1.8,0.7S69,151.4,69,152.3z M64.9,152.3
		c0,0.7,0.1,1.2,0.4,1.6s0.7,0.5,1.2,0.5s0.9-0.2,1.2-0.5c0.3-0.4,0.4-0.9,0.4-1.6c0-0.7-0.1-1.2-0.4-1.5c-0.3-0.4-0.7-0.5-1.2-0.5
		c-0.5,0-0.9,0.2-1.2,0.5S64.9,151.6,64.9,152.3z"/>
	<path fill="#666766" d="M72.9,149.5c0.7,0,1.2,0.2,1.6,0.7c0.4,0.5,0.6,1.2,0.6,2s-0.2,1.6-0.6,2c-0.4,0.5-0.9,0.7-1.6,0.7
		c-0.3,0-0.7-0.1-1-0.2c-0.3-0.1-0.5-0.3-0.7-0.6h-0.1L71,155h-0.6v-7.6h0.8v1.8c0,0.4,0,0.8,0,1.1h0
		C71.6,149.8,72.2,149.5,72.9,149.5z M72.8,150.2c-0.6,0-1,0.2-1.2,0.5c-0.2,0.3-0.4,0.9-0.4,1.6s0.1,1.3,0.4,1.6
		c0.3,0.3,0.7,0.5,1.2,0.5c0.5,0,0.9-0.2,1.1-0.5c0.2-0.4,0.4-0.9,0.4-1.6c0-0.7-0.1-1.2-0.4-1.6S73.3,150.2,72.8,150.2z"/>
	<path fill="#666766" d="M78.8,155.1c-0.8,0-1.4-0.2-1.9-0.7s-0.7-1.2-0.7-2c0-0.9,0.2-1.5,0.6-2.1s1-0.8,1.7-0.8
		c0.7,0,1.2,0.2,1.6,0.7c0.4,0.4,0.6,1,0.6,1.7v0.5h-3.7c0,0.6,0.2,1.1,0.5,1.4s0.7,0.5,1.3,0.5c0.6,0,1.1-0.1,1.7-0.4v0.7
		c-0.3,0.1-0.6,0.2-0.8,0.3C79.5,155,79.2,155.1,78.8,155.1z M78.6,150.2c-0.4,0-0.8,0.1-1,0.4s-0.4,0.7-0.5,1.2h2.8
		c0-0.5-0.1-0.9-0.3-1.2C79.3,150.3,79,150.2,78.6,150.2z"/>
	<path fill="#666766" d="M84.6,149.5c0.2,0,0.5,0,0.6,0.1l-0.1,0.8c-0.2,0-0.4-0.1-0.6-0.1c-0.4,0-0.8,0.2-1.1,0.5s-0.5,0.8-0.5,1.3
		v2.9h-0.8v-5.4h0.7l0.1,1h0c0.2-0.3,0.4-0.6,0.7-0.8S84.3,149.5,84.6,149.5z"/>
	<path fill="#666766" d="M93.2,155h-4.7v-0.7l1.9-1.9c0.6-0.6,1-1,1.1-1.2s0.3-0.5,0.4-0.7s0.1-0.5,0.1-0.8c0-0.4-0.1-0.7-0.3-0.9
		c-0.2-0.2-0.6-0.3-1-0.3c-0.3,0-0.6,0-0.8,0.1s-0.6,0.3-0.9,0.5l-0.4-0.6c0.7-0.5,1.4-0.8,2.1-0.8c0.7,0,1.2,0.2,1.6,0.5
		c0.4,0.3,0.6,0.8,0.6,1.4c0,0.5-0.1,0.9-0.4,1.3s-0.7,1-1.4,1.7l-1.6,1.5v0h3.7V155z"/>
	<path fill="#666766" d="M98.9,151.4c0,1.2-0.2,2.2-0.6,2.8s-1,0.9-1.8,0.9c-0.8,0-1.4-0.3-1.8-0.9c-0.4-0.6-0.6-1.5-0.6-2.7
		c0-1.2,0.2-2.2,0.6-2.8s1-0.9,1.8-0.9c0.8,0,1.4,0.3,1.8,0.9S98.9,150.2,98.9,151.4z M95,151.4c0,1,0.1,1.8,0.4,2.3
		c0.2,0.5,0.6,0.7,1.2,0.7c0.5,0,0.9-0.2,1.2-0.7c0.2-0.5,0.4-1.2,0.4-2.3s-0.1-1.8-0.4-2.3c-0.2-0.5-0.6-0.7-1.2-0.7
		c-0.5,0-0.9,0.2-1.2,0.7C95.1,149.6,95,150.3,95,151.4z"/>
	<path fill="#666766" d="M102.9,155h-0.8v-5.1c0-0.4,0-0.8,0-1.2c-0.1,0.1-0.1,0.1-0.2,0.2s-0.5,0.4-1.2,1l-0.4-0.6l1.9-1.5h0.7V155
		z"/>
	<path fill="#666766" d="M110,149.5c0,0.5-0.1,0.8-0.4,1.1s-0.6,0.5-1.1,0.6v0c0.6,0.1,1,0.3,1.3,0.5s0.4,0.7,0.4,1.2
		c0,0.7-0.2,1.2-0.7,1.6c-0.5,0.4-1.1,0.5-2,0.5c-0.4,0-0.7,0-1-0.1c-0.3-0.1-0.6-0.2-0.9-0.3v-0.8c0.3,0.2,0.6,0.3,1,0.3
		c0.4,0.1,0.7,0.1,1,0.1c1.2,0,1.9-0.5,1.9-1.5c0-0.9-0.7-1.3-2-1.3h-0.7v-0.7h0.7c0.6,0,1-0.1,1.3-0.4c0.3-0.2,0.5-0.6,0.5-1
		c0-0.3-0.1-0.6-0.4-0.8s-0.6-0.3-1-0.3c-0.3,0-0.6,0-0.9,0.1s-0.6,0.2-0.9,0.5l-0.4-0.5c0.3-0.2,0.6-0.4,1-0.5
		c0.4-0.1,0.8-0.2,1.2-0.2c0.7,0,1.2,0.2,1.6,0.5C109.9,148.5,110,148.9,110,149.5z"/>
	<path fill="#666766" d="M112.6,153.8l0.1,0.1c-0.1,0.3-0.2,0.7-0.4,1.1c-0.2,0.4-0.3,0.8-0.5,1.2h-0.6c0.1-0.3,0.2-0.8,0.3-1.3
		s0.2-0.9,0.2-1.2H112.6z"/>
	<path fill="#666766" d="M116.9,147.8h2c0.9,0,1.6,0.1,2.1,0.4s0.6,0.7,0.6,1.3c0,0.4-0.1,0.8-0.4,1c-0.2,0.3-0.6,0.5-1,0.5v0
		c1.1,0.2,1.6,0.8,1.6,1.7c0,0.6-0.2,1.1-0.6,1.5s-1,0.5-1.8,0.5h-2.5V147.8z M117.7,150.9h1.4c0.6,0,1-0.1,1.3-0.3
		c0.3-0.2,0.4-0.5,0.4-0.9c0-0.4-0.1-0.7-0.4-0.9c-0.3-0.2-0.7-0.3-1.4-0.3h-1.2V150.9z M117.7,151.6v2.7h1.5c0.6,0,1-0.1,1.3-0.3
		c0.3-0.2,0.4-0.6,0.4-1c0-0.4-0.1-0.8-0.4-1s-0.8-0.3-1.4-0.3H117.7z"/>
	<path fill="#666766" d="M122.4,149.6h0.9l1.2,3.1c0.3,0.7,0.4,1.2,0.5,1.5h0c0-0.2,0.1-0.5,0.3-0.9c0.1-0.4,0.6-1.6,1.3-3.7h0.9
		l-2.3,6.1c-0.2,0.6-0.5,1-0.8,1.3c-0.3,0.3-0.7,0.4-1.1,0.4c-0.2,0-0.5,0-0.7-0.1v-0.6c0.2,0,0.4,0.1,0.6,0.1c0.6,0,1-0.3,1.2-0.9
		l0.3-0.8L122.4,149.6z"/>
	<path fill="#666766" d="M68.6,170.4c0.1,0,0.3,0,0.4,0c0.1,0,0.2,0,0.3-0.1v0.6c-0.1,0-0.2,0.1-0.4,0.1c-0.2,0-0.3,0-0.5,0
		c-1,0-1.6-0.5-1.6-1.6v-3.2h-0.8v-0.4l0.8-0.3l0.3-1.1h0.5v1.2h1.6v0.6h-1.6v3.1c0,0.3,0.1,0.6,0.2,0.7S68.3,170.4,68.6,170.4z"/>
	<path fill="#666766" d="M74,171v-3.5c0-0.4-0.1-0.8-0.3-1s-0.5-0.3-0.9-0.3c-0.6,0-1,0.2-1.2,0.5s-0.4,0.8-0.4,1.5v2.8h-0.8v-7.6
		h0.8v2.3c0,0.3,0,0.5,0,0.7h0c0.2-0.3,0.4-0.5,0.7-0.6c0.3-0.1,0.6-0.2,1-0.2c0.7,0,1.1,0.2,1.5,0.5c0.3,0.3,0.5,0.8,0.5,1.5v3.5
		H74z"/>
	<path fill="#666766" d="M78.8,171.1c-0.8,0-1.4-0.2-1.9-0.7s-0.7-1.2-0.7-2c0-0.9,0.2-1.5,0.6-2.1s1-0.8,1.7-0.8
		c0.7,0,1.2,0.2,1.6,0.7c0.4,0.4,0.6,1,0.6,1.7v0.5H77c0,0.6,0.2,1.1,0.5,1.4s0.7,0.5,1.3,0.5c0.6,0,1.1-0.1,1.7-0.4v0.7
		c-0.3,0.1-0.6,0.2-0.8,0.3C79.4,171,79.1,171.1,78.8,171.1z M78.5,166.2c-0.4,0-0.8,0.1-1,0.4s-0.4,0.7-0.5,1.2h2.8
		c0-0.5-0.1-0.9-0.3-1.2C79.3,166.3,79,166.2,78.5,166.2z"/>
	<path fill="#666766" d="M90.4,171h-0.9l-3.9-6h0c0.1,0.7,0.1,1.3,0.1,1.9v4.1h-0.8v-7.1h0.9l3.9,6h0c0-0.1,0-0.4,0-0.8
		c0-0.5,0-0.8,0-1v-4.1h0.8V171z"/>
	<path fill="#666766" d="M93,165.6v3.5c0,0.4,0.1,0.8,0.3,1s0.5,0.3,0.9,0.3c0.6,0,1-0.2,1.2-0.5s0.4-0.8,0.4-1.5v-2.8h0.8v5.4H96
		l-0.1-0.7h0c-0.2,0.3-0.4,0.5-0.7,0.6s-0.6,0.2-1,0.2c-0.7,0-1.1-0.2-1.5-0.5s-0.5-0.8-0.5-1.5v-3.5H93z"/>
	<path fill="#666766" d="M105.2,171v-3.5c0-0.4-0.1-0.7-0.3-1c-0.2-0.2-0.5-0.3-0.8-0.3c-0.5,0-0.9,0.1-1.1,0.4s-0.4,0.7-0.4,1.3v3
		h-0.8v-3.5c0-0.4-0.1-0.7-0.3-1c-0.2-0.2-0.5-0.3-0.9-0.3c-0.5,0-0.9,0.2-1.1,0.5c-0.2,0.3-0.4,0.8-0.4,1.5v2.8h-0.8v-5.4H99
		l0.1,0.7h0c0.2-0.3,0.4-0.5,0.6-0.6s0.6-0.2,0.9-0.2c0.8,0,1.4,0.3,1.6,0.9h0c0.2-0.3,0.4-0.5,0.7-0.7s0.6-0.2,1-0.2
		c0.6,0,1.1,0.2,1.4,0.5c0.3,0.3,0.5,0.8,0.5,1.5v3.5H105.2z"/>
	<path fill="#666766" d="M110.2,165.5c0.7,0,1.2,0.2,1.6,0.7c0.4,0.5,0.6,1.2,0.6,2s-0.2,1.6-0.6,2c-0.4,0.5-0.9,0.7-1.6,0.7
		c-0.3,0-0.7-0.1-1-0.2c-0.3-0.1-0.5-0.3-0.7-0.6h-0.1l-0.2,0.7h-0.6v-7.6h0.8v1.8c0,0.4,0,0.8,0,1.1h0
		C108.9,165.8,109.4,165.5,110.2,165.5z M110.1,166.2c-0.6,0-1,0.2-1.2,0.5c-0.2,0.3-0.4,0.9-0.4,1.6s0.1,1.3,0.4,1.6
		c0.3,0.3,0.7,0.5,1.2,0.5c0.5,0,0.9-0.2,1.1-0.5c0.2-0.4,0.4-0.9,0.4-1.6c0-0.7-0.1-1.2-0.4-1.6S110.6,166.2,110.1,166.2z"/>
	<path fill="#666766" d="M116.1,171.1c-0.8,0-1.4-0.2-1.9-0.7s-0.7-1.2-0.7-2c0-0.9,0.2-1.5,0.6-2.1s1-0.8,1.7-0.8
		c0.7,0,1.2,0.2,1.6,0.7c0.4,0.4,0.6,1,0.6,1.7v0.5h-3.7c0,0.6,0.2,1.1,0.5,1.4s0.7,0.5,1.3,0.5c0.6,0,1.1-0.1,1.7-0.4v0.7
		c-0.3,0.1-0.6,0.2-0.8,0.3C116.7,171,116.4,171.1,116.1,171.1z M115.9,166.2c-0.4,0-0.8,0.1-1,0.4s-0.4,0.7-0.5,1.2h2.8
		c0-0.5-0.1-0.9-0.3-1.2C116.6,166.3,116.3,166.2,115.9,166.2z"/>
	<path fill="#666766" d="M121.9,165.5c0.2,0,0.5,0,0.6,0.1l-0.1,0.8c-0.2,0-0.4-0.1-0.6-0.1c-0.4,0-0.8,0.2-1.1,0.5
		s-0.5,0.8-0.5,1.3v2.9h-0.8v-5.4h0.7l0.1,1h0c0.2-0.3,0.4-0.6,0.7-0.8S121.5,165.5,121.9,165.5z"/>
	<path fill="#666766" d="M127,169.5c0,0.5-0.2,0.9-0.6,1.2s-0.9,0.4-1.6,0.4c-0.7,0-1.3-0.1-1.7-0.3V170c0.3,0.1,0.5,0.2,0.8,0.3
		s0.6,0.1,0.9,0.1c0.4,0,0.7-0.1,1-0.2c0.2-0.1,0.3-0.3,0.3-0.6c0-0.2-0.1-0.4-0.3-0.5c-0.2-0.1-0.5-0.3-1.1-0.5
		c-0.5-0.2-0.9-0.3-1.1-0.5c-0.2-0.1-0.4-0.3-0.5-0.5s-0.2-0.4-0.2-0.6c0-0.4,0.2-0.8,0.5-1c0.4-0.3,0.8-0.4,1.5-0.4
		c0.6,0,1.1,0.1,1.7,0.4l-0.3,0.7c-0.5-0.2-1-0.3-1.5-0.3c-0.4,0-0.7,0.1-0.9,0.2s-0.3,0.3-0.3,0.5c0,0.1,0,0.3,0.1,0.4
		s0.2,0.2,0.4,0.3s0.5,0.2,0.9,0.4c0.6,0.2,1.1,0.5,1.3,0.7S127,169.1,127,169.5z"/>
</g>
</svg>
