<svg version="1.1" xmlns="http://www.w3.org/2000/svg" xmlns:xlink="http://www.w3.org/1999/xlink" viewBox="-6.8 39.6 197.3 97.7">
<g>
	<g>
		<path fill="#2A84C1" d="M49.1,133.6c-4.4,0-5.9-3.9-6-5.9l0,0c0,0-1.6-17.1-1.8-19.5c-0.5-0.8-3-3.6-5.5-6.2l-12.7,28.1l-0.1,0.1
			c-0.1,0.1-2.3,2.8-5.5,2.8c-0.8,0-1.6-0.2-2.4-0.5c-3.8-1.5-3.7-5.6-3.2-7.5l0-0.1l15.4-34.8c-0.6-1-1.4-2.2-1.5-3.1
			c-0.3-1.2-0.4-3.2-0.4-4.3c0-1.2,2.1-8,3.7-13.1L26.9,70L18,81.8c1.7,1.4,2.4,3.8,1.7,6l-2.5,14.4l0,0.1c-0.7,2.3-2.4,3.6-4.8,3.6
			c-0.6,0-1.3-0.1-2-0.3l-10.4-3.8c-1.5-0.4-2.6-1.4-3.3-2.6c-0.7-1.3-0.8-2.9-0.3-4.4l0-0.1L2,82.5c0.7-2.4,3-4.1,5.6-4.1
			c0.4,0,0.8,0,1.1,0.1c1.6-2.5,9.6-14.9,10.9-16.3c1.8-1.9,19.2-7.5,21.2-7.6c0,0,0.1,0,0.3,0c2.6,0,8,3.6,8.9,4.5
			c0.6,0.6,1.3,2.2,3.8,9c0.8,2.1,1.7,4.6,2.2,5.6c1.4,0.6,5.9,2.3,12.4,4.8c0.6-0.4,1.2-0.6,1.9-0.6c0.2,0,0.5,0,0.7,0.1
			c2.1,0.4,3,2.1,3.2,3l0,0.2l-0.2,2.9c2.8-1,6.2-2,7-2.1l0.1,0l0.2,0c2,0,5.5,2.6,6,3.1l0.1,0.1l0.1,0.1c0.3,0.4,0.6,1.2,2.2,5.3
			c0.5,1.3,1.1,3,1.5,3.7c1.2,0.5,5,2,8.4,3.3l0.3,0.1l0.2,0.2c0.2,0.2,1.8,1.9,1.3,4.1c-0.2,0.7-0.8,2.4-3.9,2.4l0,0
			c-0.5,0-0.8,0-0.8,0l-0.2,0l-0.2-0.1c-4.3-1.5-9.6-3.4-10.4-3.9c0,0-0.1-0.1-0.1-0.1l-2.2,5.4c2.7,3.4,5.7,7.3,6,8.4l0,0.1l0,0.1
			c0.2,1.1,1,12.7,1.1,15l0,0.1l0,0.1c-0.1,1.6-1.4,3.9-4.5,3.9c-3,0-4.2-2.5-4.4-4.2c-0.4-4.4-1-11-1.2-12.3
			c-0.3-0.5-1.5-1.8-2.8-3.2l-7.8,17.1l-0.1,0.1c-0.2,0.2-1.6,2-3.9,2c-0.6,0-1.1-0.1-1.7-0.3c-2.7-1.2-2.7-4.1-2.3-5.4l0-0.1
			l9.7-21.8c-0.4-0.7-0.8-1.4-0.9-1.9c-0.1-0.7-0.2-1.9-0.2-2.8c0-0.2,0-0.9,2.1-7.5c-1.1,0.4-2,0.6-2.8,0.6c-1.6,0-2.3-0.8-2.5-1.3
			l-0.2-0.3v-0.2c0-0.2-0.1-0.7-0.2-1.2c-0.1-0.6-0.2-1.2-0.3-1.7c-0.1-0.2-0.2-0.4-0.3-0.7c-0.1,0-0.1,0-0.2,0
			c-0.6,0-1.1-0.1-1.2-0.1l-0.2,0L65,88c-4.4-1.6-14.9-5.3-16.1-6.3c-0.4-0.3-0.7-0.6-1-1L43.7,91c3.1,4,9.2,11.8,9.6,13.5
			c0.5,1.8,1.6,19.9,1.8,23.5l0,0.1l0,0.1C55,130.1,53.4,133.6,49.1,133.6z"/>
		<path fill="#FFFFFF" d="M41,56.1c2,0,7,3.2,7.9,4.1c0.9,0.9,5.4,14.2,5.9,14.6c0.6,0.3,11.7,4.6,13.8,5.4c0.3-0.4,0.9-0.8,1.6-0.8
			c0.1,0,0.3,0,0.5,0c1.7,0.3,2,1.9,2,1.9l-0.4,5c3.5-1.3,8.1-2.7,8.9-2.8c0,0,0.1,0,0.1,0c1.3,0,4.4,2.1,5,2.6
			c0.4,0.6,3.4,8.9,3.7,9.2c0.3,0.2,8.9,3.5,8.9,3.5s1.2,1.2,0.9,2.8c-0.2,1.1-1.6,1.2-2.4,1.2c-0.3,0-0.6,0-0.6,0s-9.2-3.2-10-3.7
			c-0.7-0.6-1.4-1.8-1.4-1.8l-3.4,8.6c0,0,5.9,7.5,6.3,8.6c0.2,1.1,1.1,14.8,1.1,14.8s-0.2,2.5-3,2.5c-2.6,0-2.9-2.9-2.9-2.9
			s-1.1-11.8-1.2-12.6c-0.1-0.8-4.7-5.4-4.7-5.4L68.9,130c0,0-1.1,1.4-2.8,1.4c-0.3,0-0.7-0.1-1.1-0.2c-2.2-1-1.4-3.6-1.4-3.6
			l10-22.5c0,0-1-1.5-1.1-2.1c-0.1-0.6-0.2-1.7-0.2-2.5c0-0.8,2.8-9.5,2.8-9.5l-2.6,0.5c-0.7,0.2-1.7,0.5-2.5,0.5
			c-0.5,0-1-0.1-1.2-0.5c0-0.1-0.5-2.8-0.6-3.5c0,0,0,0,0,0c-0.2,0-0.3-0.6-0.3-1.6c-0.5,0.1-1.1,0.1-1.5,0.1c-0.6,0-1-0.1-1-0.1
			s-14.5-5.2-15.7-6.1c-1.1-0.9-2.3-2.8-2.3-2.8L42,91.2c0,0,9.5,11.9,9.9,13.7c0.4,1.8,1.8,23.2,1.8,23.2s-0.4,4-4.6,4
			c-4.2,0-4.5-4.5-4.5-4.5s-1.8-18.5-1.9-19.7c-0.2-1.2-7.5-8.5-7.5-8.5l-13.5,30c0,0-1.8,2.2-4.4,2.2c-0.6,0-1.2-0.1-1.8-0.4
			c-3.5-1.4-2.3-5.7-2.3-5.7L28.9,90c0,0-1.7-2.3-1.8-3.2c-0.2-0.9-0.3-2.6-0.3-4c0-1.3,4.4-15,4.4-15L26,68.6L15.8,82.2
			c0,0,0,0,0,0c2.1,0.8,3.2,3.1,2.5,5.2l-2.5,14.4c-0.5,1.8-1.8,2.6-3.3,2.6c-0.5,0-1-0.1-1.6-0.2l-10.4-3.7
			c-2.3-0.7-3.4-2.9-2.6-5.2l5.6-12.2c0.5-1.9,2.3-3.1,4.2-3.1c0.4,0,0.8,0.1,1.2,0.2l0.9,0.3c0-0.4,0.1-0.7,0.1-0.7
			s9.6-15,10.9-16.4c1.3-1.4,18.3-7,20.2-7.2C40.9,56.1,40.9,56.1,41,56.1 M41,53.1L41,53.1c-0.2,0-0.4,0-0.5,0
			c-2.1,0.2-9.4,2.7-10.9,3.2c-9.7,3.3-10.6,4.3-11.1,4.9c-1.3,1.4-7.7,11.3-10.5,15.7c-0.1,0-0.3,0-0.4,0c-3.2,0-6,2.1-7,5.1L-5,94
			l-0.1,0.1l-0.1,0.2c-0.6,1.9-0.5,3.9,0.4,5.6c0.9,1.6,2.3,2.8,4.2,3.4L9.7,107l0.1,0l0.1,0c0.8,0.2,1.7,0.4,2.4,0.4
			c3,0,5.4-1.8,6.2-4.7l0-0.2l0-0.2l2.5-14.2c0.7-2.3,0.2-4.7-1.2-6.5l6.5-8.6c-2.6,8.3-2.6,9.3-2.6,9.7c0,1.3,0.1,3.3,0.4,4.5
			c0.1,0.4,0.3,1.3,1.3,2.9l-15.1,33.9l-0.1,0.2l-0.1,0.2c-0.7,2.4-0.7,7.4,4.1,9.3c0.9,0.4,1.9,0.6,2.9,0.6c3.9,0,6.4-3,6.7-3.4
			l0.2-0.3l0.2-0.3l11.7-25.9c1.6,1.7,3.1,3.3,3.6,4.1c0.3,3.3,1.7,18.1,1.8,19.1c0.2,2.9,2.4,7.3,7.5,7.3c5,0,7.3-4,7.6-6.6l0-0.3
			l0-0.3c-0.4-6.5-1.4-21.9-1.8-23.8c-0.1-0.6-0.6-2.3-9.4-13.4l3-7.5c1.8,0.9,7.2,3,16,6.2l0.3,0.1l0.3,0c0,0,0.2,0,0.4,0
			c0.1,0.3,0.1,0.7,0.2,1.2c0.1,0.4,0.2,0.8,0.2,1v0.5l0.3,0.6c0.3,0.7,1.4,2.2,3.8,2.2c0.2,0,0.4,0,0.6,0c-1.4,4.5-1.4,5.1-1.4,5.4
			c0,1,0.1,2.3,0.3,3.1c0,0.2,0.1,0.7,0.7,1.7l-9.4,21l-0.1,0.2l-0.1,0.2c-1,3.5,0.9,6.2,3.1,7.2l0.1,0l0.1,0
			c0.7,0.3,1.5,0.4,2.2,0.4c3,0,4.9-2.3,5.1-2.6l0.2-0.3l0.2-0.3l6.8-14.9c0.4,0.4,0.7,0.8,0.9,1.1c0.2,1.9,0.8,8,1.1,11.9
			c0.2,2.8,2.3,5.6,5.9,5.6c4,0,5.8-3.2,6-5.3l0-0.2l0-0.2c-0.3-5.2-0.9-14-1.2-15.2l0-0.1l0-0.1c-0.2-0.5-0.5-1.5-5.7-8.2l1.2-3.1
			c1.4,0.6,4,1.6,9.2,3.4l0.3,0.1l0.3,0c0.1,0,0.5,0.1,1,0.1c3.4,0,5-1.9,5.3-3.6c0.5-2.3-0.6-4.4-1.7-5.5l-0.5-0.5l-0.6-0.2
			c-3-1.1-6.2-2.4-7.7-3C91.8,92.3,91.3,91,91,90c-1.7-4.5-2-5.1-2.4-5.7l-0.1-0.1L88.3,84c-0.3-0.3-4.3-3.5-7.1-3.5
			c-0.1,0-0.2,0-0.4,0c-0.9,0.1-3.1,0.7-5.2,1.5l0-0.4l0-0.4l-0.1-0.4c-0.3-1.3-1.5-3.6-4.3-4.2c-0.3-0.1-0.7-0.1-1-0.1
			c-0.7,0-1.4,0.1-2,0.4c-5.3-2-9.4-3.6-11.2-4.3c-0.5-1.1-1.3-3.3-1.9-4.9c-2.7-7.4-3.3-8.7-4.1-9.5C50,57.1,44.3,53.1,41,53.1
			L41,53.1z"/>
	</g>
	<g>
		<path fill="#2A84C1" d="M87.3,85.5c-3.2,0-5.8-2.6-5.8-5.8s2.6-5.8,5.8-5.8c3.2,0,5.8,2.6,5.8,5.8S90.5,85.5,87.3,85.5z"/>
		<path fill="#FFFFFF" d="M87.3,75.4c2.4,0,4.3,2,4.3,4.3S89.7,84,87.3,84C85,84,83,82.1,83,79.7C83,77.3,84.8,75.4,87.3,75.4
			 M87.3,72.4c-4,0-7.3,3.3-7.3,7.3s3.3,7.3,7.3,7.3c4,0,7.3-3.3,7.3-7.3S91.3,72.4,87.3,72.4L87.3,72.4z"/>
	</g>
	<g>
		<path fill="#2A84C1" d="M50.6,58.4c-4.6,0-8.2-3.6-8.2-8.2s3.6-8.2,8.2-8.2l0.2,0c4.4,0,8,3.7,8,8.2
			C58.8,54.8,55.2,58.4,50.6,58.4z"/>
		<path fill="#FFFFFF" d="M50.8,43.4c3.6,0,6.5,3,6.5,6.7c0,3.7-3,6.7-6.7,6.7c-3.7,0-6.7-3-6.7-6.7c0-3.7,3-6.7,6.7-6.7
			C50.7,43.4,50.7,43.4,50.8,43.4 M50.8,40.4c-0.1,0-0.2,0-0.2,0c-5.3,0-9.7,4.4-9.7,9.7c0,5.4,4.4,9.7,9.7,9.7
			c5.4,0,9.7-4.4,9.7-9.7C60.3,44.8,56,40.4,50.8,40.4L50.8,40.4z"/>
	</g>
</g>
<path fill="none" d="M115.4,102.8c-7.2,0-12.9,5.8-12.9,12.9c0,7.2,5.7,12.9,12.9,12.9c7.2,0,12.9-5.7,12.9-12.9
	C128.3,108.5,122.4,102.8,115.4,102.8z"/>
<path fill="none" d="M168.5,102.8c-7.2,0-12.9,5.8-12.9,12.9c0,7.2,5.7,12.9,12.9,12.9c7.2,0,12.9-5.7,12.9-12.9
	C181.3,108.5,175.5,102.8,168.5,102.8z"/>
<g>
	<path fill="#2A84C1" d="M141.6,122.7c-2.8,0-5.2-2.4-5.2-5.2v-14L123,96.1c-2.2-1.2-3.6-3.6-3.6-6.2c0-1.8,0.7-3.5,1.9-4.7l13.9-14
		c1.7-1.9,3.9-2.1,4.8-2.1c0.2,0,0.4,0,0.5,0c3.6,0.1,5.5,3.1,5.6,3.3l6.7,10.6h10.1c2.9,0,4.5,2.1,4.5,4.1c0,2-1.5,4.1-4.5,4.1
		h-12.6c-1.6,0-3.1-0.8-4-2.3l-3.3-5.2l-6,6l6.3,3.3c3.8,1.9,3.7,5.3,3.7,6v18.4C146.8,120.4,144.5,122.7,141.6,122.7z"/>
	<path fill="#FFFFFF" d="M139.9,70.6c0.2,0,0.4,0,0.4,0c2.9,0,4.4,2.5,4.4,2.5l7.2,11.3h10.9c4,0,4,5.2,0,5.2h-12.6
		c-1,0-2-0.4-2.8-1.7l-4.3-6.7l-8.8,8.7l8.1,4.3c3.3,1.7,2.9,4.6,2.9,4.6v18.5c0,2.1-1.7,3.7-3.7,3.7c-2.1,0-3.7-1.8-3.7-3.7v-14.9
		l-14.1-7.8c-1.7-0.9-2.9-2.8-2.9-4.8c0-1.4,0.6-2.8,1.4-3.6l13.9-14C137.5,70.8,139.2,70.6,139.9,70.6 M139.9,67.6L139.9,67.6
		c-2.2,0-4.4,1-5.9,2.6l-13.8,13.9c-1.5,1.5-2.3,3.6-2.3,5.7c0,3.1,1.7,6.1,4.5,7.5l12.5,6.9v13.1c0,3.7,3,6.7,6.7,6.7
		c3.7,0,6.7-3,6.7-6.7V99.1c0.2-2-0.6-5.5-4.5-7.5l-4.5-2.4l3.3-3.2l2.3,3.6c1.2,2,3.1,3,5.3,3h12.6c3.9,0,6-2.9,6-5.6
		c0-2.7-2.1-5.6-6-5.6h-9.2l-6.3-9.9c-0.2-0.4-2.5-3.8-6.8-3.9C140.3,67.6,140.1,67.6,139.9,67.6L139.9,67.6z"/>
</g>
<g>
	<path fill="#2A84C1" d="M168.5,134.9c-10.6,0-19.2-8.6-19.2-19.2c0-10.6,8.6-19.2,19.2-19.2c10.6,0,19.2,8.6,19.2,19.2
		C187.7,126.3,179.1,134.9,168.5,134.9z M168.5,104.3c-6.3,0-11.4,5.1-11.4,11.4s5.1,11.4,11.4,11.4s11.4-5.1,11.4-11.4
		S174.7,104.3,168.5,104.3z"/>
	<path fill="#FFFFFF" d="M168.5,97.9c9.8,0,17.7,7.9,17.7,17.7s-7.9,17.7-17.7,17.7s-17.7-7.9-17.7-17.7S158.7,97.9,168.5,97.9
		 M168.5,128.5c7.2,0,12.9-5.7,12.9-12.9c0-7.2-5.8-12.9-12.9-12.9c-7.2,0-12.9,5.8-12.9,12.9C155.6,122.8,161.3,128.5,168.5,128.5
		 M168.5,94.9c-11.4,0-20.7,9.3-20.7,20.7c0,11.4,9.3,20.7,20.7,20.7s20.7-9.3,20.7-20.7C189.2,104.2,179.9,94.9,168.5,94.9
		L168.5,94.9z M168.5,125.5c-5.5,0-9.9-4.3-9.9-9.9c0-5.5,4.4-9.9,9.9-9.9s9.9,4.4,9.9,9.9C178.3,121.2,174,125.5,168.5,125.5
		L168.5,125.5z"/>
</g>
<g>
	<path fill="#2A84C1" d="M115.4,134.9c-10.6,0-19.2-8.6-19.2-19.2c0-10.6,8.6-19.2,19.2-19.2s19.2,8.6,19.2,19.2
		C134.6,126.3,126,134.9,115.4,134.9z M115.4,104.3c-6.3,0-11.4,5.1-11.4,11.4s5.1,11.4,11.4,11.4s11.4-5.1,11.4-11.4
		S121.7,104.3,115.4,104.3z"/>
	<path fill="#FFFFFF" d="M115.4,97.9c9.8,0,17.7,7.9,17.7,17.7s-7.9,17.7-17.7,17.7s-17.7-7.9-17.7-17.7S105.7,97.9,115.4,97.9
		 M115.4,128.5c7.2,0,12.9-5.7,12.9-12.9c0-7.2-5.8-12.9-12.9-12.9c-7.2,0-12.9,5.8-12.9,12.9C102.5,122.8,108.2,128.5,115.4,128.5
		 M115.4,94.9c-11.4,0-20.7,9.3-20.7,20.7c0,11.4,9.3,20.7,20.7,20.7c11.4,0,20.7-9.3,20.7-20.7C136.1,104.2,126.8,94.9,115.4,94.9
		L115.4,94.9z M115.4,125.5c-5.5,0-9.9-4.3-9.9-9.9c0-5.5,4.4-9.9,9.9-9.9s9.9,4.4,9.9,9.9c0,2.7-1,5.1-2.9,7
		C120.5,124.5,118,125.5,115.4,125.5L115.4,125.5z"/>
</g>
<g>
	<path fill="#2A84C1" d="M150.2,73.8c-4.1,0-7.6-3.4-7.6-7.4c0-4.1,3.4-7.4,7.6-7.4c4.1,0,7.4,3.3,7.4,7.4S154.3,73.8,150.2,73.8z"
		/>
	<path fill="#FFFFFF" d="M150.2,60.4c3.3,0,5.9,2.6,5.9,5.9s-2.6,5.9-5.9,5.9c-3.3,0-6.1-2.8-6.1-5.9
		C144.1,63,146.9,60.4,150.2,60.4 M150.2,57.4c-5,0-9.1,4-9.1,8.9c0,4.8,4.1,8.9,9.1,8.9c4.9,0,8.9-4,8.9-8.9S155.1,57.4,150.2,57.4
		L150.2,57.4z"/>
</g>
</svg>
