<svg class="shadow pencil" version="1.1" xmlns="http://www.w3.org/2000/svg" xmlns:xlink="http://www.w3.org/1999/xlink" viewBox="0 0 127 127">
<g>
	<path fill="#FFFFFF" d="M69.9,36.8c0,0,0-2.6,0-2.7c0-3-2.9-5.4-6.6-5.4s-6.6,2.4-6.6,5.4c0,0.2,0,2.7,0,2.7H69.9z"/>
	<polygon fill="#FFFFFF" points="69.9,40.4 69.9,39.1 56.7,39.1 56.7,41.9 69.9,41.9 	"/>
	<path fill="#FFFFFF" d="M70.2,44.2h-7.5v36h5.7l-2.9,8.4h-3.9l-2.9-8.4h1.7v-36h-3.5v35.6v0.1c0,0.2,0,0.3,0.1,0.5l5.7,17.2
		c0,0,0.1,0.7,0.9,0.7s0.9-0.7,0.9-0.7l5.6-17c0.1-0.2,0.2-0.4,0.2-0.7c0-0.1,0-0.1,0-0.1V44.2H70.2z M56.9,80.4L56.9,80.4
		L56.9,80.4L56.9,80.4z"/>
</g>
</svg>