<svg version="1.1" xmlns="http://www.w3.org/2000/svg" xmlns:xlink="http://www.w3.org/1999/xlink" viewBox="-2.5 3.8 190 167.3">
<g>
	<path fill="#EF4738" d="M176.7,168.2c6.9,0,9.8-5,6.3-10.9L98.8,11.4c-3.5-6-9.2-6-12.7,0L2,157.2c-3.5,6-0.6,10.9,6.3,10.9h168.4
		V168.2z"/>
	<g>
		<path fill="#FFFFFF" d="M92.4,6.8c2.3,0,4.6,1.5,6.3,4.5L183,157.3c3.5,5.9,0.6,10.9-6.3,10.9V168H8.3c-6.9,0-9.8-4.8-6.3-10.9
			L86.1,11.4C87.8,8.3,90.1,6.8,92.4,6.8 M92.4,3.8c-3.5,0-6.7,2.2-8.9,6L-0.6,155.7c-2.2,3.9-2.5,7.7-0.7,10.7
			c1.7,3,5.2,4.7,9.7,4.7h165.4v0.2h3c4.4,0,8-1.7,9.7-4.8c1.7-3,1.4-6.9-0.8-10.6L101.4,9.9C99.2,6,95.9,3.8,92.4,3.8L92.4,3.8z"/>
	</g>
	<polygon fill="#FFFFFF" points="32,147.4 153,147.4 92.4,42.6 	"/>
	<g>
		<path fill="#CF2729" d="M90.8,66.5c-2.9,0-5.1,2.4-5,5.1c0,2.9,2.4,5.1,5.1,5c2.9,0,5.1-2.4,5-5.1C95.9,68.7,93.6,66.4,90.8,66.5"
			/>
		<path fill="#EF4738" d="M101,113.3l-3-15.8v-9.6l2.4,1.8l1.8,8.9h2.6L104,88.3l-7.8-8.4c-1.1-1.4-2.6-2.1-4.4-2.1
			c-1.7,0-3.2,0.8-4.2,2.1L72.8,94.6l2,1.8L86.1,88l1.7,10.1l-9.3,32.3h3.2l11-24l4.1,10.7l9,13.1l2.7-2.3L101,113.3z"/>
	</g>
	<polygon fill="#EF4738" points="87,119.3 85.9,142.8 98.6,142.8 96.3,119.3 	"/>
	<polygon fill="#EF4738" points="70.7,119.3 63.9,142.8 75.8,142.8 79.3,119.3 	"/>
	<polygon fill="#EF4738" points="130.7,142.8 143.5,142.8 130,119.3 120,119.3 	"/>
	<polygon fill="#EF4738" points="63.6,119.3 55.3,119.3 41.8,142.8 54.4,142.8 	"/>
	<polygon fill="#EF4738" points="121.2,142.8 112.9,119.3 105.4,119.3 109.8,128.2 105.8,131.5 108.1,142.8 	"/>
</g>
</svg>
