<svg version="1.1" xmlns="http://www.w3.org/2000/svg" xmlns:xlink="http://www.w3.org/1999/xlink" viewBox="292.7 456.9 75 130">
	<path fill="#C0C1C2" d="M356.7,467.9c-3.6-3.6-7.7-6.3-12.4-8.2s-9.4-2.8-14.1-2.8s-9.5,0.9-14.1,2.8c-4.7,1.9-8.8,4.6-12.4,8.2
		c-3.6,3.6-6.3,7.7-8.2,12.4c-1.9,4.7-2.8,9.4-2.8,14.1s0.9,9.5,2.8,14.1c1.9,4.7,4.6,8.8,8.2,12.4c5.6,5.6,11.5,9.1,19.6,10.4v55.6
		h13.8v-55.6c8.1-1.3,14-4.8,19.6-10.4c3.6-3.6,6.3-7.7,8.2-12.4c1.9-4.7,2.8-9.4,2.8-14.1s-0.9-9.5-2.8-14.1
		C363,475.7,360.3,471.5,356.7,467.9z M350.2,474.5c5.5,5.5,8.3,12.2,8.3,20s-2.8,14.5-8.3,20c-5.5,5.5-12.2,8.3-20,8.3
		c-7.8,0-14.5-2.8-20-8.3c-5.5-5.5-8.3-12.2-8.3-20c0-7.8,2.7-14.5,8.3-20c5.5-5.5,12.2-8.3,20-8.3
		C338,466.2,344.7,468.9,350.2,474.5z"/>
</svg>
