<svg class="shadow wrench" version="1.1" xmlns="http://www.w3.org/2000/svg" xmlns:xlink="http://www.w3.org/1999/xlink" viewBox="0 0 127 127">
<g>
	<path fill="#FFFFFF" d="M56.1,81.4c0-0.7,0-1.7,0.4-2.8S58.2,76,59,75l15.9-15.9c0.9-0.8,2.4-2.1,3.6-2.5c1.1-0.4,2.1-0.4,2.8-0.4
			c3.7,0.7,7.6-0.3,10.4-3.1c3.2-3.2,4.1-7.8,2.7-12l-6.3,6.3l0,0l-7.4-1.1l-1.1-7.4l0,0l6.3-6.3c-4.2-1.3-8.8-0.5-12,2.7
			c-2.6,2.6-3.7,6.1-3.2,9.6l0,0l0,0c0,0.2,0,0.4,0.1,0.5c0.1,0.7,0.1,1.9-0.4,3c-0.7,1.8-3.3,4.4-3.3,4.4L52.9,67
			c0,0-2.7,2.7-4.4,3.3c-1.2,0.4-2.3,0.4-3,0.4c-3.7-0.6-7.5,0.4-10.2,3.2c-3.2,3.2-4.1,7.8-2.7,12l6.3-6.3l0,0l7.4,1.1l1.1,7.4l0,0
			l-6.3,6.3c4.2,1.3,8.8,0.5,12-2.7C55.8,89,56.8,85.1,56.1,81.4z"/>
</g>
</svg>